<svg xmlns="http://www.w3.org/2000/svg" xmlns:xlink="http://www.w3.org/1999/xlink" width="1920" height="5049" viewBox="0 0 1920 5049">
  <defs>
    <linearGradient id="linear-gradient" x1="0.5" x2="0.5" y2="1" gradientUnits="objectBoundingBox">
      <stop offset="0" stop-color="#fdc830"/>
      <stop offset="1" stop-color="#f37335"/>
    </linearGradient>
    <linearGradient id="linear-gradient-2" x1="0.5" x2="0.5" y2="1" gradientUnits="objectBoundingBox">
      <stop offset="0" stop-color="#8e2de2"/>
      <stop offset="1" stop-color="#4a00e0"/>
    </linearGradient>
    <clipPath id="clip-Web_1920_1">
      <rect width="1920" height="5049"/>
    </clipPath>
  </defs>
  <g id="Web_1920_1" data-name="Web 1920 – 1" clip-path="url(#clip-Web_1920_1)">
    <rect width="1920" height="5049" fill="#fff"/>
    <g id="Grupo_99" data-name="Grupo 99" transform="translate(0 2)">
      <circle id="Elipse_1" data-name="Elipse 1" cx="40" cy="40" r="40" transform="translate(1467.101 913.184)" fill="url(#linear-gradient)"/>
      <path id="Trazado_2" data-name="Trazado 2" d="M228.641,25.633c179.216,0,291.992,119.651,291.992,298.867S424.709,662.578,245.492,662.578-144.953,503.716-144.953,324.5,49.424,25.633,228.641,25.633Z" transform="translate(1105.101 -68.816)" fill="url(#linear-gradient-2)"/>
      <g id="Grupo_1" data-name="Grupo 1" transform="translate(79.101 258.184)" opacity="0.5">
        <g id="Elipse_53" data-name="Elipse 53" transform="translate(562 619)" fill="none" stroke="#fdc231" stroke-width="1">
          <circle cx="58" cy="58" r="58" stroke="none"/>
          <circle cx="58" cy="58" r="57.5" fill="none"/>
        </g>
        <g id="Elipse_54" data-name="Elipse 54" transform="translate(584 641)" fill="none" stroke="#fcbd31" stroke-width="1" stroke-dasharray="10">
          <circle cx="36" cy="36" r="36" stroke="none"/>
          <circle cx="36" cy="36" r="35.5" fill="none"/>
        </g>
      </g>
      <rect id="Rectángulo_2" data-name="Rectángulo 2" width="50" height="50" transform="translate(1048.482 1063.719) rotate(-45)" opacity="0.5" fill="url(#linear-gradient)"/>
      <circle id="Elipse_2" data-name="Elipse 2" cx="20" cy="20" r="20" transform="translate(601.101 2037.184)" opacity="0.5" fill="url(#linear-gradient-2)"/>
      <g id="Grupo_2" data-name="Grupo 2" transform="translate(79.101 194.184)" opacity="0.5">
        <g id="Elipse_56" data-name="Elipse 56" transform="translate(902 1259)" fill="none" stroke="#7a20e1" stroke-width="1">
          <circle cx="47.855" cy="47.855" r="47.855" stroke="none"/>
          <circle cx="47.855" cy="47.855" r="47.355" fill="none"/>
        </g>
        <g id="Grupo_98" data-name="Grupo 98">
          <g id="Elipse_57" data-name="Elipse 57" transform="translate(920.152 1277.152)" fill="none" stroke="#711ae1" stroke-width="1" stroke-dasharray="10">
            <circle cx="29.703" cy="29.703" r="29.703" stroke="none"/>
            <circle cx="29.703" cy="29.703" r="29.203" fill="none"/>
          </g>
        </g>
      </g>
      <rect id="Rectángulo_1" data-name="Rectángulo 1" width="39" height="39" transform="translate(1217.524 1194.761) rotate(-45)" opacity="0.5" fill="url(#linear-gradient-2)"/>
    </g>
    <path id="Trazado_5" data-name="Trazado 5" d="M502.119-5.507C726.35,73.354,301.066,273.608,456.186,371.278s-19.724,303.067-145.649,136.9,111.458,63.062-52.294-154.992S277.887-84.369,502.119-5.507Z" transform="matrix(0.891, -0.454, 0.454, 0.891, 55.765, 3980.438)" fill="url(#linear-gradient)"/>
  </g>
</svg>
