<svg xmlns="http://www.w3.org/2000/svg" xmlns:xlink="http://www.w3.org/1999/xlink" id="undraw_circles_y7s2-2" width="303" height="189.733" viewBox="0 0 303 189.733">
    <defs>
        <style>
            .cls-1{fill:none;stroke:#444053;stroke-miterlimit:10}.cls-2{fill:url(#linear-gradient)}.cls-3{fill:#444053}.cls-12,.cls-13,.cls-4{opacity:.1}.cls-5{fill:#3f3d56}.cls-6{fill:#a1616a}.cls-13,.cls-7{fill:#fdc830}.cls-8{opacity:.05}.cls-9{fill:#d0d2d5}.cls-10{fill:url(#linear-gradient-2)}.cls-11{fill:#fabdbd}
        </style>
        <linearGradient id="linear-gradient" x1="1.168" x2="1.168" y1="1" gradientUnits="objectBoundingBox">
            <stop offset="0" stop-color="gray" stop-opacity=".251"/>
            <stop offset=".54" stop-color="gray" stop-opacity=".122"/>
            <stop offset="1" stop-color="gray" stop-opacity=".102"/>
        </linearGradient>
        <linearGradient id="linear-gradient-2" x1="-.934" x2=".066" y1=".5" y2=".5" xlink:href="#linear-gradient"/>
    </defs>
    <ellipse id="Elipse_1" cx="34.166" cy="6.862" class="cls-1" data-name="Elipse 1" rx="34.166" ry="6.862" transform="translate(197.43 155.068)"/>
    <path id="Trazado_8" d="M430.2 436.768a7.816 7.816 0 0 0 .34.746v.031s1.618 5.978 2.376 7.233c.22.363.469.758.715 1.144a2.542 2.542 0 0 0 0 .858 16.269 16.269 0 0 1 .38 3.568c-.126.4.151 1.407-.286 1.755s-.886.955.455 1.758c0 0 .252.678.026.829-.026.017 0 .054.063.1-.369 1.092-.909 2.859-.572 2.985.186.071.689-.192 1.241-.546.014.071.026.149.04.226a10.906 10.906 0 0 0 .406 1.735 3.388 3.388 0 0 1 .36 1.77c-.131.3.36.978.246 1.244s.38 1.129.38 1.129a12.458 12.458 0 0 1 .472 2.241c-.02.566.532 4.217.532 4.217s-.572 1.884-.286 2.43a4.442 4.442 0 0 1 0 3.128c-.472.7-1.064 2.239-.872 2.653s-.266 5.538.889 7.648a23.477 23.477 0 0 1 .323 2.373 7.411 7.411 0 0 0 .909 2.09s-.549 2.287.8 2.673a1.266 1.266 0 0 0 .286.054 1.285 1.285 0 0 1-.1.738 2.916 2.916 0 0 0-.48 1.064.286.286 0 0 0 .026.214 19.032 19.032 0 0 1 .572 2.43s.606 2.542 3.943 1.921c0 0 2.256-.132 2.067-.923a5.2 5.2 0 0 0-.246-.766 4.965 4.965 0 0 1-.212-.495c-.037-.189-.512-.718-.549-1.075a9.419 9.419 0 0 1-.286-1.281c.054-.226-.512-1.844-.552-2.2a3.732 3.732 0 0 0-.214-.732l.12-.057a6.331 6.331 0 0 0 .04-2.316 5.276 5.276 0 0 0-1.309-1.43 40.166 40.166 0 0 0-.037-4.729 11.533 11.533 0 0 1 .094-2.71 31.677 31.677 0 0 0 .606-3.717 3.146 3.146 0 0 1 .189-1.244 45.582 45.582 0 0 1 .663-5.029 59.612 59.612 0 0 0 .572-6.1l.177.509a19.542 19.542 0 0 0 .886 2.239c.146.229.572.961.938 1.572l.54.915a3.2 3.2 0 0 1 .074 1.43c-.172.543 1.764 3.482 1.764 3.482a1.741 1.741 0 0 0-.189.792c.054.286-.589 1.186-.589 1.186s-.246.809-.094 1.092a6.962 6.962 0 0 1-.246 1.958s-.646 3.691-.8 4.126a23.828 23.828 0 0 0 .077 3.408s-1.189 3.045-.638 4.057a2.583 2.583 0 0 1-.12 1.178 4.839 4.839 0 0 0-.12 1.764v.083s-.646.858.169 1.207a20.406 20.406 0 0 0 3.585.6s2.633.755 3.9.961 3.926.132 4.114-.64a2.063 2.063 0 0 0 .069-.738.918.918 0 0 0-.523-.732 21.531 21.531 0 0 0-2.39-.792s-1.252-.286-1.367-.829-1.9-2.053-1.9-2.053-.02-.106-.057-.249h.057l-.086-.086c-.089-.286-.232-.663-.406-.592a.429.429 0 0 1 .194-.589 2.832 2.832 0 0 0 .909-2.842c-.192-1.281-.226-1.055.172-1.79a3.518 3.518 0 0 0 .286-1.77l1.049-3.911a5.919 5.919 0 0 0 .3-1.487 2.778 2.778 0 0 1 .3-1.144 16 16 0 0 1 .892-3.334c.417-.62-.286-2.808-.286-2.808a34.647 34.647 0 0 1-.606-4.935c.037-1.547-1.67-6.91-1.67-6.91a1.8 1.8 0 0 1-.263-1.169 2.99 2.99 0 0 0-.392-1.307l-.072-.146a1.264 1.264 0 0 1 .312-.286 1.962 1.962 0 0 0 .692-1.567l-6.464-15.236c0-.046 2.993-6.161 2.985-6.207a18.394 18.394 0 0 0-1.87-3.665.214.214 0 0 0-.071-.083c-.38-.174-1.667-.9-1.667-.9a3.311 3.311 0 0 0-2.573-1.5 1.75 1.75 0 0 0-.572.089 1.259 1.259 0 0 0-.192.077l-.029.249a5.1 5.1 0 0 1 .134-1.715c.014-.049.029-.1.04-.149H443a4.609 4.609 0 0 0 4.623-4.594 4.666 4.666 0 0 0-.177-1.272l-.023-.066.143-.063c.572-.212 1.289.149 1.753-.234a1.329 1.329 0 0 0 .349-.6 3.623 3.623 0 0 0 .255-.958v-.171a.3.3 0 0 0 0-.052.491.491 0 0 0 0-.063v-.077a1.112 1.112 0 0 0-.246-.572c-.3-.354-.809-.44-1.192-.7a2.886 2.886 0 0 1-.763-.895 3.328 3.328 0 0 0-.74-.912 1.089 1.089 0 0 0-1.112-.174 1.254 1.254 0 0 1-.366.172.763.763 0 0 1-.4-.109 7.817 7.817 0 0 0-4.289-.323 5.581 5.581 0 0 0-1.69.406 2 2 0 0 0-1.144 1.238c-.117.443-.029.923-.169 1.361-.1.286-.286.549-.406.838a1.719 1.719 0 0 0-.109.472v.046a8.287 8.287 0 0 0 .329 2 11.568 11.568 0 0 0 .475 2.767 1.648 1.648 0 0 0 .149.3c-.137.286-.286.589-.429.872-.212-.06-.858-.2-.88.363a3.082 3.082 0 0 1-.315 1.327.939.939 0 0 1-.094.066.183.183 0 0 0-.106.186l-.074.057a.183.183 0 0 0-.091.031c-.04-.069-.172-.074-.589.423a8.034 8.034 0 0 1-1.9 1.458s-2.808 1.958-2.959 2.859-1.092 4.838-.613 6.145zm12.328-9.555v-.032l.034.017zm7.628 64.043a.611.611 0 0 1-.24.049z" class="cls-2" data-name="Trazado 8" transform="translate(-327.053 -329.498)"/>
    <path id="Trazado_9" d="M466.479 694.005c-3.3.618-3.9-1.91-3.9-1.91a17.511 17.511 0 0 0-.572-2.416.286.286 0 0 1-.026-.214 2.925 2.925 0 0 1 .475-1.058c.206-.243.037-1.255.037-1.255l3.82-.972a5.72 5.72 0 0 1 .375 1.124c.04.354.6 1.967.543 2.19a8.625 8.625 0 0 0 .286 1.275c.04.357.506.881.543 1.066a4 4 0 0 0 .206.495 4.835 4.835 0 0 1 .243.76c.197.784-2.03.915-2.03.915z" class="cls-3" data-name="Trazado 9" transform="translate(-349.842 -524.282)"/>
    <path id="Trazado_10" d="M466.479 702.21c-3.3.618-3.9-1.91-3.9-1.91a17.5 17.5 0 0 0-.572-2.416.286.286 0 0 1-.026-.215l.792 2.287s.658 1.369 3.091 1.161a5.671 5.671 0 0 0 2.4-.572 4.821 4.821 0 0 1 .243.76c.199.774-2.028.905-2.028.905z" class="cls-4" data-name="Trazado 10" transform="translate(-349.842 -532.487)"/>
    <path id="Trazado_11" d="M468.75 699.465s.826.02.881-.655z" class="cls-4" data-name="Trazado 11" transform="translate(-354.68 -533.301)"/>
    <path id="Trazado_12" d="M468.184 567.492a16.039 16.039 0 0 0-.881 3.314 2.834 2.834 0 0 0-.286 1.144 5.8 5.8 0 0 1-.286 1.481l-1.084 3.877a3.508 3.508 0 0 1-.286 1.758c-.392.732-.354.506-.169 1.781a2.837 2.837 0 0 1-.9 2.828c-.675.375.3 1.255.3 1.255s-4.309 1.161-5.209.449.469-4.231.469-4.231a24.054 24.054 0 0 1-.074-3.391c.149-.432.786-4.1.786-4.1a6.9 6.9 0 0 0 .243-1.947c-.152-.28.094-1.086.094-1.086s.638-.9.572-1.181a1.764 1.764 0 0 1 .189-.786s-1.91-2.922-1.744-3.465a3.292 3.292 0 0 0-.074-1.43s-.24-.415-.532-.909a74.302 74.302 0 0 0-.929-1.564 19.979 19.979 0 0 1-.872-2.224l-.177-.509a53.113 53.113 0 0 1-.572 6.067 40 40 0 0 0-.655 5 3.109 3.109 0 0 0-.189 1.235 31.591 31.591 0 0 1-.6 3.717 11.162 11.162 0 0 0-.091 2.7 38.485 38.485 0 0 1 .037 4.7 5.26 5.26 0 0 1 1.292 1.429 6.278 6.278 0 0 1-.037 2.3s-3 1.5-4.329 1.1-.786-2.659-.786-2.659a7.239 7.239 0 0 1-.9-2.078 23.5 23.5 0 0 0-.32-2.362c-1.144-2.1-.692-7.191-.878-7.605a4.832 4.832 0 0 1 .858-2.639 4.424 4.424 0 0 0 0-3.111c-.286-.537.286-2.416.286-2.416s-.543-3.634-.523-4.194a12.449 12.449 0 0 0-.469-2.23s-.486-.858-.375-1.124-.375-.938-.243-1.235a3.387 3.387 0 0 0-.357-1.761 11.284 11.284 0 0 1-.4-1.715c-.114-.646-.2-1.215-.2-1.215l3.091-2.49 7.719-2.024 2.928-.952 2.828 4.457s.286.466.552 1a2.978 2.978 0 0 1 .386 1.3 1.793 1.793 0 0 0 .263 1.161s1.684 5.338 1.647 6.862a34.873 34.873 0 0 0 .6 4.909s.703 2.192.287 2.809z" class="cls-5" data-name="Trazado 12" transform="translate(-339.788 -423.466)"/>
    <path id="Trazado_13" d="M458.21 631.516s3.3-1.4 4.269-.412-4.269.412-4.269.412z" class="cls-4" data-name="Trazado 13" transform="translate(-347.149 -484.591)"/>
    <path id="Trazado_14" d="M458.6 635.39s-3.342 1.89-2.2 2.193 2.2-2.193 2.2-2.193z" class="cls-4" data-name="Trazado 14" transform="translate(-345.686 -487.911)"/>
    <path id="Trazado_15" d="M497.027 629.7s-1.429.091-.88.374.88-.374.88-.374z" class="cls-4" data-name="Trazado 15" transform="translate(-374.174 -483.84)"/>
    <path id="Trazado_16" d="M497.182 631.2c-.02.094-4.14 1.43-3.334 2.024s3.334-2.024 3.334-2.024z" class="cls-4" data-name="Trazado 16" transform="translate(-372.549 -484.915)"/>
    <path id="Trazado_17" d="M459.91 668.912c.617-.091 4.066-1.684 2.716-.54a2.687 2.687 0 0 1-2.716.54z" class="cls-4" data-name="Trazado 17" transform="translate(-348.363 -511.271)"/>
    <path id="Trazado_18" d="M465.87 675.68a1.339 1.339 0 0 0 1.444 1.012c1.143-.152-1.444-1.012-1.444-1.012z" class="cls-4" data-name="Trazado 18" transform="translate(-352.622 -516.784)"/>
    <path id="Trazado_19" d="M462.53 681.955c.206-.057 2.659-1.181 2.716-.655s-2.342 1.429-2.527 1.161a1.006 1.006 0 0 1-.189-.506z" class="cls-4" data-name="Trazado 19" transform="translate(-350.236 -520.698)"/>
    <path id="Trazado_20" d="M490.31 678.1c.286-.017 3.108-.918 3.671-.111z" class="cls-4" data-name="Trazado 20" transform="translate(-370.095 -518.197)"/>
    <path id="Trazado_21" d="M499.22 680.383a.989.989 0 0 1 .972-.206c.486.223-.972.206-.972.206z" class="cls-4" data-name="Trazado 21" transform="translate(-376.461 -519.948)"/>
    <path id="Trazado_22" d="M477.47 697.3a.835.835 0 0 0 .635.658z" class="cls-4" data-name="Trazado 22" transform="translate(-360.913 -532.223)"/>
    <path id="Trazado_23" d="M497.8 688.327c-.186.769-2.81.843-4.063.638s-3.86-.955-3.86-.955a21.083 21.083 0 0 1-3.54-.6c-.806-.337-.169-1.2-.169-1.2v-.08a4.914 4.914 0 0 1 .117-1.756 3.709 3.709 0 0 0 .094-1.518s3.877.749 3.951.394a2.042 2.042 0 0 1 .955-.975c.28-.117.489.938.489.938s1.761 1.5 1.873 2.041 1.347.823 1.347.823a20.929 20.929 0 0 1 2.362.786.909.909 0 0 1 .517.726 2.041 2.041 0 0 1-.073.738z" class="cls-3" data-name="Trazado 23" transform="translate(-366.975 -521.489)"/>
    <path id="Trazado_24" d="M497.8 697.976c-.186.769-2.81.843-4.063.638s-3.86-.955-3.86-.955a21.073 21.073 0 0 1-3.54-.6c-.806-.337-.169-1.2-.169-1.2v-.08l3.92.858a10.669 10.669 0 0 0 3.165.823c1.081 0 3.5.443 4.62-.229a2.039 2.039 0 0 1-.073.745z" class="cls-4" data-name="Trazado 24" transform="translate(-366.975 -531.137)"/>
    <path id="Trazado_25" d="M506.575 693.11a2.555 2.555 0 0 1-.935 1.65z" class="cls-4" data-name="Trazado 25" transform="translate(-381.05 -529.231)"/>
    <path id="Trazado_26" d="M535.568 526.722a18.612 18.612 0 0 1-4.832.469h-.572l-.735-1.5.735-1.249s.675-.186 1.573-.349c1.324-.237 3.145-.423 4 .111 1.444.896 1.289 1.983-.169 2.518z" class="cls-6" data-name="Trazado 26" transform="translate(-398.063 -408.187)"/>
    <path id="Trazado_27" d="M488.367 470.225l.326-.375a18.308 18.308 0 0 1 1.847 3.645c.174 1 .4 2.147.4 2.147s.423 1.3.7 1.873a6.33 6.33 0 0 1 .549 1.375 1.194 1.194 0 0 0 .423 1.144 2.133 2.133 0 0 1 .649 1.3s1.9 1.847 2.9 1.9 3.868.549 3.771 1.046 1.2.8 1.715.926-3.368 1.627-1.081 3.56c0 0-1.45.286-1.6.649s-1.673-.2-1.673-.2a1.582 1.582 0 0 0-1.449-.823 2.265 2.265 0 0 1-1.7-.623 6.392 6.392 0 0 0-1.747-.875c-.623-.174-1.449-.249-1.475-.426s-3.745-16.231-3.745-16.231z" class="cls-7" data-name="Trazado 27" transform="translate(-367.869 -369.604)"/>
    <path id="Trazado_28" d="M488.367 470.445l.326-.375a18.265 18.265 0 0 1 1.847 3.648c.174 1 .4 2.147.4 2.147s.423 1.3.7 1.873a6.385 6.385 0 0 1 .549 1.372 1.19 1.19 0 0 0 .423 1.144 2.126 2.126 0 0 1 .649 1.3s1.9 1.85 2.9 1.9 3.868.549 3.771 1.049 1.2.8 1.715.923-3.368 1.63-1.081 3.554c0 0-1.45.286-1.6.649s-1.673-.2-1.673-.2a1.582 1.582 0 0 0-1.449-.823 2.248 2.248 0 0 1-1.7-.626 6.326 6.326 0 0 0-1.747-.872c-.623-.174-1.449-.252-1.475-.426s-3.745-16.234-3.745-16.234z" class="cls-8" data-name="Trazado 28" transform="translate(-367.869 -369.761)"/>
    <path id="Trazado_29" d="M539.666 708.78c18.87 0 34.166 3.074 34.166 6.862s-15.3 6.862-34.166 6.862-34.165-3.071-34.165-6.862" class="cls-1" data-name="Trazado 29" transform="translate(-381.042 -540.421)"/>
    <path id="Rectángulo_121" d="M0 0h4.886v36.33H0z" class="cls-3" data-name="Rectángulo 121" transform="rotate(9.63 -84.579 884.812)"/>
    <path id="Trazado_30" d="M550.34 597.993l1.069 7.634.915-7.937z" class="cls-9" data-name="Trazado 30" transform="translate(-393.042 -427.292)"/>
    <path id="Trazado_31" d="M430.2 581.515v4.735l1.069 4.12h.763l.918-4.426.457-5.344z" class="cls-5" data-name="Trazado 31" transform="translate(-307.164 -415.088)"/>
    <path id="Trazado_32" d="M488.58 637.42l2.287.458s-2.593 7.173-.763 8.7h-2.9s-1.065-5.496 1.376-9.158z" class="cls-9" data-name="Trazado 32" transform="translate(-367.711 -489.377)"/>
    <path id="Trazado_33" d="M488.58 637.42l2.287.458s-2.593 7.173-.763 8.7h-2.9s-1.065-5.496 1.376-9.158z" class="cls-4" data-name="Trazado 33" transform="translate(-367.711 -489.377)"/>
    <path id="Trazado_34" d="M508.709 335.75l-7.328 46.405s-10.836 49.461-6.716 59.231h5.192l15.57-94.949z" class="cls-9" data-name="Trazado 34" transform="translate(-372.56 -274.042)"/>
    <path id="Trazado_35" d="M593.375 315.59l5.618 46.642s4.091 59.42-.389 69.029h-4.426l-7.908-105.238z" class="cls-9" data-name="Trazado 35" transform="translate(-438.704 -259.646)"/>
    <path id="Trazado_36" d="M540.533 265.733a6 6 0 0 1 5.921-4.289c4.52.114 11.508.938 15.153 4.672 5.649 5.8-3.817 25.34-3.817 25.34s-8.863 16.334-16.943-4.426c-.011.017-3.361-11.099-.314-21.297z" class="cls-3" data-name="Trazado 36" transform="translate(-405.107 -220.623)"/>
    <path id="Trazado_37" d="M540.533 265.733a6 6 0 0 1 5.921-4.289c4.52.114 11.508.938 15.153 4.672 5.649 5.8-3.817 25.34-3.817 25.34s-8.863 16.334-16.943-4.426c-.011.017-3.361-11.099-.314-21.297z" class="cls-4" data-name="Trazado 37" transform="translate(-405.107 -220.623)"/>
    <path id="Trazado_38" d="M552.319 282.714a4.288 4.288 0 0 1 4.217-3.048c3.216.083 8.191.669 10.779 3.328 4.023 4.129-2.716 18.041-2.716 18.041s-6.29 11.628-12.065-3.145c0-.009-2.388-7.914-.215-15.176z" class="cls-3" data-name="Trazado 38" transform="translate(-413.785 -233.643)"/>
    <path id="Trazado_39" d="M609.254 603.316a3.645 3.645 0 0 0 .629 2.09c.772.955 2.176 1.029 3.376 1.329a14.86 14.86 0 0 1 2.67 1.052l2.6 1.229a6.78 6.78 0 0 0-1.95.406c-.335.123-.7.326-.749.675a.72.72 0 0 0 .432.692 2.034 2.034 0 0 0 .858.152 28.831 28.831 0 0 0 4.632-.243l.183-.026q1.184.586 2.356 1.2a.919.919 0 0 0 .992-.24 5.267 5.267 0 0 0 .881-1.006c.046.08.091.157.129.234.252.483.489 1.115.129 1.527-.286.32-.826.375-.989.764a.689.689 0 0 0 .266.775 1.758 1.758 0 0 0 .832.286 7.38 7.38 0 0 0 2.13-.017 1.716 1.716 0 0 0 1.029-.437 1.888 1.888 0 0 0 .366-1.144l.489-5.555a1.664 1.664 0 0 0-.057-.789 1.552 1.552 0 0 0-1.266-.752h-.054c.423 0 .858-.02 1.315-.02a3.145 3.145 0 0 0 1.178-.149 3.023 3.023 0 0 0 1.429-1.753 8.524 8.524 0 0 0 1.144-3.946l-.223-.1a30.081 30.081 0 0 0-.858-4.251 2.366 2.366 0 0 0 .38-1.286 4.759 4.759 0 0 0-.323-1.464 73.7 73.7 0 0 0-3.025-7.968 27.553 27.553 0 0 0-2.859-4.86q-.437-.572-.909-1.144c-.229-.263-.74-.635-.835-.969s.106-.66 0-1a1.692 1.692 0 0 0-.1-.26c.669-.886.48-2.167.246-3.271l-.286-1.375a3.717 3.717 0 0 0-.355-1.089 3.187 3.187 0 0 0-.683-.775 38.909 38.909 0 0 0-4.726-3.165 42.7 42.7 0 0 1-4.666-3.8c-.458-.406-1.032-.844-1.624-.672a1.4 1.4 0 0 0-.858 1.4 2.876 2.876 0 0 0 .929 2.156c1.035.946 2.6 1.024 3.831 1.693a8.964 8.964 0 0 1 1.2.838l3.58 2.81a1.244 1.244 0 0 1 .557.726 1.169 1.169 0 0 1-.086.538c-.134.412-.363.929-.532 1.452l-.286-.206a11.218 11.218 0 0 0-1.9-1.144 9.409 9.409 0 0 0-2.776-.666c-2.113-.237-4 .089-5.3 1.853a3.914 3.914 0 0 1-1 1.032 3.72 3.72 0 0 0-.815.518 1.981 1.981 0 0 0 .337 2.573 4 4 0 0 0 1.881.981 3.865 3.865 0 0 0 4.695 2.1 5.734 5.734 0 0 1 .026 1.109 1.278 1.278 0 0 0 .4 1.026 1.682 1.682 0 0 0 .492.229 7.545 7.545 0 0 1 1.781.929 9.151 9.151 0 0 0-1.578 2.359 3.837 3.837 0 0 0 .286 3.568l.017.023a1.183 1.183 0 0 1-.26.48.857.857 0 0 1-1.181-.12 4.494 4.494 0 0 1-.618-.952 3.986 3.986 0 0 0-2.573-1.818 2.068 2.068 0 0 0-1.187.049 1.046 1.046 0 0 0-.689.892 1.662 1.662 0 0 0 .623 1.1 18.189 18.189 0 0 0 3.145 2.6 10.115 10.115 0 0 0 .964.526q-.858-.18-1.693-.352a7.651 7.651 0 0 0-2.387-.209 2.665 2.665 0 0 0-2 1.167 2.573 2.573 0 0 0-.186 1.944 6.535 6.535 0 0 0 .878 1.8 12.819 12.819 0 0 0 2.193 2.745c-.715.214-1.43.449-2.127.706a2.947 2.947 0 0 0-1.75 1.212 2.779 2.779 0 0 0-.167 1.448zm10.524-9.721h.026a.9.9 0 0 0 .375-.317 5.188 5.188 0 0 0 .9-1.956 2.208 2.208 0 0 0 .486-.123 1.086 1.086 0 0 0-.337.789l1.612.789a.6.6 0 0 1 .286.226.573.573 0 0 1 .032.337c-.046.369-.117.738-.163 1.1-.483-.143-.958-.257-1.384-.372-.606-.166-1.221-.32-1.836-.475z" class="cls-10" data-name="Trazado 39" transform="translate(-455.129 -435.717)"/>
    <path id="Trazado_40" d="M637.547 615.275a3.091 3.091 0 0 0 2.4-.386 1.471 1.471 0 0 1 .466-.217.95.95 0 0 1 .795.317 2.558 2.558 0 0 1 .412 2.71 5.759 5.759 0 0 1-1.812 2.224 16.477 16.477 0 0 1-1.907 1.355 3.534 3.534 0 0 0-1.956-1.9 4.289 4.289 0 0 1-1.8-1.824c-.335-.526-.632-.5-.332-1.046a7.909 7.909 0 0 1 1.189-1.43 4.647 4.647 0 0 0 .64-.858c.2-.36.154-.595.463-.309.2.189.286.6.52.818a2.289 2.289 0 0 0 .922.546z" class="cls-11" data-name="Trazado 40" transform="translate(-472.591 -472.476)"/>
    <path id="Trazado_41" d="M631.343 574.377a1.211 1.211 0 0 0 .083-.529 1.241 1.241 0 0 0-.546-.718l-3.5-2.773a8.577 8.577 0 0 0-1.172-.826c-1.206-.66-2.73-.738-3.743-1.67a2.874 2.874 0 0 1-.909-2.13 1.4 1.4 0 0 1 .826-1.378c.54-.16 1.144.263 1.59.666a41.918 41.918 0 0 0 4.552 3.748 38.146 38.146 0 0 1 4.62 3.125 3.108 3.108 0 0 1 .638.746 3.835 3.835 0 0 1 .346 1.078l.286 1.355c.24 1.144.435 2.473-.335 3.351a1.22 1.22 0 0 1-.932.46 1.835 1.835 0 0 1-.718-.246c-.572-.286-1.607-.572-1.781-1.287-.22-.893.424-2.143.695-2.972z" class="cls-11" data-name="Trazado 41" transform="translate(-463.929 -437.13)"/>
    <path id="Trazado_42" d="M623.959 655.019a4.576 4.576 0 0 1-.6-.938 3.891 3.891 0 0 0-2.51-1.8 2.019 2.019 0 0 0-1.144.046 1.032 1.032 0 0 0-.672.883 1.644 1.644 0 0 0 .606 1.078 17.729 17.729 0 0 0 3.076 2.573 8.114 8.114 0 0 0 3.742 1.3.944.944 0 0 0 .4-.037.9.9 0 0 0 .366-.312 7 7 0 0 0 1.144-3.225c-.069.409-2.37-.546-2.63-.423-.383.18-.346.718-.623.975a.826.826 0 0 1-1.155-.12z" class="cls-11" data-name="Trazado 42" transform="translate(-462.116 -500.035)"/>
    <path id="Trazado_43" d="M671.734 679.256a.757.757 0 0 1-.08.415c-.157.246-.512.249-.8.206a14.612 14.612 0 0 1-1.97-.475l-5.87-1.7a.532.532 0 0 1-.252-.123.518.518 0 0 1-.117-.257 6.9 6.9 0 0 1-.129-2.573.519.519 0 0 1 .6-.529 24.9 24.9 0 0 1 2.768-.126 13.992 13.992 0 0 0 1.8-.04 13.015 13.015 0 0 1 2.436-.466c.672.057.643.572.712 1.144.193 1.522.888 2.974.902 4.524z" class="cls-11" data-name="Trazado 43" transform="translate(-493.156 -515.288)"/>
    <path id="Trazado_44" d="M617.935 668.482a7.327 7.327 0 0 0-2.333-.209 2.6 2.6 0 0 0-1.953 1.144 2.542 2.542 0 0 0-.183 1.921 6.646 6.646 0 0 0 .858 1.775 11.672 11.672 0 0 0 2.507 3.019c.5.4 1.052.726 1.532 1.144a10.571 10.571 0 0 1 2.267 3.359 14.225 14.225 0 0 1 1.389 3.568.356.356 0 0 0 .123.254.339.339 0 0 0 .254.017l2.816-.52a.44.44 0 0 0 .395-.669 19.7 19.7 0 0 0-3.359-7.265 6.447 6.447 0 0 0 5.667 1.641 2.212 2.212 0 0 0 1.075-.466 2.58 2.58 0 0 0 .46-2.379 17.449 17.449 0 0 0-.52-2.193c-.529-1.716-2.81-2.179-4.357-2.6q-3.292-.866-6.638-1.541z" class="cls-5" data-name="Trazado 44" transform="translate(-458.07 -511.482)"/>
    <path id="Trazado_45" d="M626.256 686.175a3.1 3.1 0 0 1 1.069.709c-.506-.572-1.953-.858-2.662-1.124a9.429 9.429 0 0 1-2.573-1.241 30.86 30.86 0 0 1 4.166 1.656z" class="cls-4" data-name="Trazado 45" transform="translate(-464.298 -523.097)"/>
    <path id="Trazado_46" d="M666.381 719.03c.243.48.475 1.1.126 1.51-.269.314-.806.369-.966.752a.683.683 0 0 0 .26.766 1.682 1.682 0 0 0 .812.286 7.255 7.255 0 0 0 2.081-.017 1.67 1.67 0 0 0 1-.432 1.881 1.881 0 0 0 .357-1.144l.477-5.484a1.717 1.717 0 0 0-.054-.78 1.517 1.517 0 0 0-1.238-.741 6.645 6.645 0 0 0-1.684-.069 1.779 1.779 0 0 0-1.049.36 2.027 2.027 0 0 0-.495 1.144 8.337 8.337 0 0 0-.412 2.216 5.458 5.458 0 0 0 .785 1.633z" class="cls-7" data-name="Trazado 46" transform="translate(-495.334 -543.901)"/>
    <path id="Trazado_47" d="M636.716 722.871a6.676 6.676 0 0 0-3.176.357c-.326.12-.683.323-.732.666a.712.712 0 0 0 .423.683 2 2 0 0 0 .841.151 28.484 28.484 0 0 0 4.523-.24 2.431 2.431 0 0 0 1.1-.346.857.857 0 0 0 .346-1.018c-.18-.377-.672-.495-.909-.835-.172-.246-.214-.609-.483-.738a.826.826 0 0 0-.615.046c-.286.1-.972.2-1.169.437a3.282 3.282 0 0 0-.149.835z" class="cls-7" data-name="Trazado 47" transform="translate(-471.962 -549.514)"/>
    <ellipse id="Elipse_2" cx="3.754" cy="3.754" class="cls-11" data-name="Elipse 2" rx="3.754" ry="3.754" transform="translate(156.962 138.298)"/>
    <path id="Trazado_48" d="M646.035 608.628a5.019 5.019 0 0 0-2.1-.732 1.1 1.1 0 0 0-.755.037 1.115 1.115 0 0 0-.363.446 4.142 4.142 0 0 0-.5 1.187 1.377 1.377 0 0 0 .286 1.209c.223.229.543.343.772.572a1.429 1.429 0 0 1 .338 1.235 3.7 3.7 0 0 1-.5 1.221 20.676 20.676 0 0 1-1.881 2.768 11.7 11.7 0 0 0-1.976 2.859 3.826 3.826 0 0 0 .286 3.522 2.843 2.843 0 0 0 3.225 1.118 1.064 1.064 0 0 0-.326.778l1.573.781a.594.594 0 0 1 .286.223.571.571 0 0 1 .029.331 10.434 10.434 0 0 0-.192 1.924 1.872 1.872 0 0 0 .921 1.6 2.782 2.782 0 0 0 1.753 0 21.88 21.88 0 0 1 4.137-.435 5.224 5.224 0 0 0 2.044-.252 2.43 2.43 0 0 0 1.45-2.2 4.684 4.684 0 0 0-.318-1.447 73.025 73.025 0 0 0-2.953-7.865 27.637 27.637 0 0 0-2.8-4.8c-.286-.38-.572-.755-.889-1.118-.223-.26-.723-.626-.815-.958s.1-.652 0-.989a2 2 0 0 0-.732-1.015z" class="cls-7" data-name="Trazado 48" transform="translate(-476.442 -468.344)"/>
    <path id="Trazado_49" d="M634.687 687.1c-1.647-.76-3.294-1.521-5.006-2.113a5.731 5.731 0 0 0-3.906-.286c-.372.149-.709.363-1.066.538a12.017 12.017 0 0 1-3.9.815 36.6 36.6 0 0 0-8.62 2.05 3 3 0 0 0-1.715 1.195 2.736 2.736 0 0 0-.183 1.429 3.637 3.637 0 0 0 .615 2.064c.755.944 2.124 1.015 3.3 1.312a14.439 14.439 0 0 1 2.61 1.041c2.739 1.306 5.481 2.613 8.168 4.028a.889.889 0 0 0 .966-.237 5.943 5.943 0 0 0 1.687-2.779 11.993 11.993 0 0 0 .429-3.254c1.052 0 1.907-.046 2.959-.046a2.294 2.294 0 0 0 2.55-1.875 8.306 8.306 0 0 0 1.112-3.882z" class="cls-5" data-name="Trazado 49" transform="translate(-455.874 -523.054)"/>
    <path id="Trazado_50" d="M628.8 706.45a5.417 5.417 0 0 1 2.424-.363 8.03 8.03 0 0 1 1.5.114 11.879 11.879 0 0 1 2.2.826 13.957 13.957 0 0 0 5.541 1.086" class="cls-4" data-name="Trazado 50" transform="translate(-469.103 -538.496)"/>
    <path id="Trazado_51" d="M612.191 603.3a4.1 4.1 0 0 0 2.024 1.015c.743.171 1.51.237 2.259.4.921.2 1.927.689 2.136 1.61a5.361 5.361 0 0 1 .029 1.112 1.261 1.261 0 0 0 .386 1 1.716 1.716 0 0 0 .48.226 8 8 0 0 1 5.146 7.388 3.639 3.639 0 0 0 1.767-2.607c0 .995.858 2 .372 2.891a4.574 4.574 0 0 0 1.1-6.647c-.377-.48-.858-.881-1.252-1.341a6.215 6.215 0 0 1-1.481-4.746 6.775 6.775 0 0 0 .134-2.167 4.188 4.188 0 0 0-1.91-2.259 10.964 10.964 0 0 0-1.853-1.126 9.108 9.108 0 0 0-2.713-.66c-2.061-.232-3.894.089-5.172 1.83a3.765 3.765 0 0 1-.978 1.018 3.689 3.689 0 0 0-.8.512 1.976 1.976 0 0 0 .326 2.551z" class="cls-5" data-name="Trazado 51" transform="translate(-456.76 -460.737)"/>
    <path id="Trazado_52" d="M460.885 448.592c-.117-.049-8.265-3.414-7.148-4.083.666-.4 1.487-2.079 2.047-3.4.392-.918.658-1.661.658-1.661s6.541-1.161 4.2 2.859a7.458 7.458 0 0 0-.826 1.976 4.372 4.372 0 0 0 1.069 4.309z" class="cls-6" data-name="Trazado 52" transform="translate(-343.879 -347.745)"/>
    <path id="Trazado_53" d="M465.987 442.3a7.457 7.457 0 0 0-.826 1.976 4.574 4.574 0 0 1-3.86-2.716 3.994 3.994 0 0 1-.172-.446c.392-.918.658-1.661.658-1.661s6.542-1.164 4.2 2.847z" class="cls-4" data-name="Trazado 53" transform="translate(-349.237 -347.738)"/>
    <path id="Trazado_54" d="M469.51 428.873a4.574 4.574 0 0 1-8.752 1.844 4.514 4.514 0 0 1-.389-1.844 4.574 4.574 0 0 1 8.963-1.266 4.625 4.625 0 0 1 .178 1.266z" class="cls-6" data-name="Trazado 54" transform="translate(-348.698 -337.041)"/>
    <path id="Trazado_55" d="M465.079 550.458a2.783 2.783 0 0 0-.663 1.264s-2.247 1.535-2.1.572-1.172-4.918-1.172-4.918l.149 5.358s-7.19-.337-7.719-.858a18.555 18.555 0 0 0-3.579-1.541s-.941.755-1.807 1.327c-.114-.646-.2-1.215-.2-1.215l3.091-2.49 7.719-2.024 2.9-.932 2.828 4.457s.292.462.553 1z" class="cls-4" data-name="Trazado 55" transform="translate(-339.856 -423.306)"/>
    <path id="Trazado_56" d="M462.378 483.1a2.53 2.53 0 0 0-.823 1.387s-2.247 1.535-2.1.572-1.161-4.906-1.161-4.906l.152 5.358s-7.193-.337-7.719-.858a18.458 18.458 0 0 0-3.6-1.535s-2.659 2.136-3.145 1.947.858-3.82.858-3.82l1.384-21.277s-.374-6.33.189-6.556a.743.743 0 0 0 .234-.149 2.374 2.374 0 0 0 .515-1.575c.037-.672.935-.337.935-.337l-.523.675 4.643 2.822.04.026a5.583 5.583 0 0 1 .572-.254 2.018 2.018 0 0 1 1.315-.157 1.29 1.29 0 0 1 .492.443 5.477 5.477 0 0 1 .632 1.281l1.687 2.845s.858 3.785.858 3.934a19.623 19.623 0 0 0 .572 3.971 6.155 6.155 0 0 1 .489 2.81 15.38 15.38 0 0 0 .186 2.659c1.238 1.012 1.873 4.457 1.873 4.457s1.95 3.86 2.1 4.309a2.019 2.019 0 0 1-.655 1.928z" class="cls-3" data-name="Trazado 56" transform="translate(-336.919 -356.345)"/>
    <path id="Trazado_57" d="M459.159 455.316a9.581 9.581 0 0 1-1.773 1.621l-3.8-3.2a2.377 2.377 0 0 0 .515-1.575c.037-.675.935-.337.935-.337l-.109.14a.606.606 0 0 0 .163.886z" class="cls-4" data-name="Trazado 57" transform="translate(-343.848 -356.632)"/>
    <path id="Trazado_58" d="M459.159 454.789a9.636 9.636 0 0 1-1.773 1.624l-3.8-3.208a2.372 2.372 0 0 0 .515-1.575c.037-.672.935-.337.935-.337l-.109.14a.606.606 0 0 0 .163.886z" class="cls-3" data-name="Trazado 58" transform="translate(-343.848 -356.256)"/>
    <path id="Trazado_59" d="M474.611 464.06c-.492.586-1.187 1.252-1.144.918a2.809 2.809 0 0 0-.7-1.4 2.087 2.087 0 0 1 1.361.037 1.291 1.291 0 0 1 .483.445z" class="cls-4" data-name="Trazado 59" transform="translate(-357.555 -365.025)"/>
    <path id="Trazado_60" d="M474.978 463.457c-.492.589-1.186 1.252-1.144.921s-.369-.875-.655-1.2a2.018 2.018 0 0 1 1.315-.157 1.257 1.257 0 0 1 .483.44z" class="cls-3" data-name="Trazado 60" transform="translate(-357.848 -364.648)"/>
    <path id="Trazado_61" d="M438.386 458.517s.049-.449-.6.326a7.917 7.917 0 0 1-1.858 1.435s-2.771 1.95-2.922 2.859-1.049 4.795-.572 6.093 4.1 7.519 4.1 7.519a3.359 3.359 0 0 0-.726 2.447 16.313 16.313 0 0 1 .375 3.545c-.126.4.152 1.4-.286 1.747s-.872.949.452 1.75c0 0 .249.675.023.823s3.322 1.7 4.72.875 3.923-7.416 3.971-8.892a35.417 35.417 0 0 0-1.224-7.491c-.449-1.149-1.8-5.621-2.373-6.619s-3.08-6.417-3.08-6.417z" class="cls-4" data-name="Trazado 61" transform="translate(-328.632 -361.427)"/>
    <path id="Trazado_62" d="M437.829 458.517s.051-.449-.6.326a7.917 7.917 0 0 1-1.873 1.447s-2.773 1.95-2.922 2.859-1.049 4.795-.572 6.093 4.094 7.519 4.094 7.519a3.35 3.35 0 0 0-.723 2.447 16.142 16.142 0 0 1 .375 3.545c-.126.4.149 1.4-.286 1.747s-.875.949.449 1.75c0 0 .252.675.026.823s3.322 1.7 4.72.875 3.92-7.416 3.971-8.892a35.226 35.226 0 0 0-1.224-7.491c-.449-1.149-1.8-5.621-2.373-6.619s-3.062-6.429-3.062-6.429z" class="cls-7" data-name="Trazado 62" transform="translate(-328.225 -361.427)"/>
    <path id="Trazado_63" d="M449.58 473.69s2.147 2.373 2.073 3.945a5.018 5.018 0 0 0-2.073-3.945z" class="cls-4" data-name="Trazado 63" transform="translate(-340.978 -372.324)"/>
    <path id="Trazado_64" d="M474.823 461.395s1.392-.858 3.145 1.324c0 0 1.272.723 1.647.9s.8 4.817.8 4.817a7.435 7.435 0 0 1 .6 3.145c-.226 1.144.652 5.095.652 5.095s1.447 7.093 1.4 7.291a7.15 7.15 0 0 1-1.45-3.431 21.1 21.1 0 0 0-1.372-5.169c-.174-.223-1.375-6.644-1.375-6.644a23.849 23.849 0 0 0-1.6-3.62c-.626-.9-1.4-2.6-1.715-2.9a3.3 3.3 0 0 0-.772-.5z" class="cls-4" data-name="Trazado 64" transform="translate(-358.998 -363.445)"/>
    <path id="Trazado_65" d="M474.8 461.395s1.561-.858 3.308 1.324c0 0 1.275.723 1.65.9s.8 4.817.8 4.817a7.468 7.468 0 0 1 .6 3.145c-.223 1.144.649 5.095.649 5.095s1.45 7.093 1.4 7.291a7.148 7.148 0 0 1-1.45-3.431 21.23 21.23 0 0 0-1.372-5.169c-.174-.223-1.372-6.644-1.372-6.644a24.559 24.559 0 0 0-1.6-3.605c-.623-.906-1.4-2.6-1.715-2.9a3.13 3.13 0 0 0-.923-.5z" class="cls-7" data-name="Trazado 65" transform="translate(-358.991 -363.445)"/>
    <path id="Trazado_66" d="M498.85 513.271s2.971-1.947 4.406-.986 3.785 2.324 1.475 3.311a14.436 14.436 0 0 1-5.507.8z" class="cls-6" data-name="Trazado 66" transform="translate(-376.203 -399.724)"/>
    <path id="Trazado_67" d="M484.479 577.36c-.443.952-.809 5.718-1.058 7.239a70.114 70.114 0 0 0-.929-1.564 19.955 19.955 0 0 1-.872-2.224 14.782 14.782 0 0 0 1.061-3.374c0-.881 1.43-1.987 1.43-1.987a1.653 1.653 0 0 1 .368 1.91z" class="cls-4" data-name="Trazado 67" transform="translate(-363.882 -445.077)"/>
    <path id="Trazado_68" d="M469.333 427.614a1.345 1.345 0 0 1-.223.091 1.38 1.38 0 0 1-1.006-.332c-.312-.189-.743-.329-1.015-.083-.352.32-.1 1-.46 1.312-.229.2-.592.129-.858.286s-.332.515-.4.818-.192.652-.492.741-.572-.106-.858-.1a.278.278 0 0 1-.171-.034.182.182 0 0 1-.029-.134 2.929 2.929 0 0 0-.1-1.084 1.038 1.038 0 0 0-.761-.715c-.526-.08-.969.38-1.278.815a13.283 13.283 0 0 0-.883 1.43c-.014.026-.029.06-.046.1a4.514 4.514 0 0 1-.389-1.844 4.574 4.574 0 0 1 8.963-1.267z" class="cls-4" data-name="Trazado 68" transform="translate(-348.698 -337.044)"/>
    <path id="Trazado_69" d="M459.016 422.561c.309-.435.752-.895 1.278-.815a1.04 1.04 0 0 1 .76.712 2.879 2.879 0 0 1 .094 1.084.2.2 0 0 0 .031.137c.04.046.111.037.171.034.286 0 .586.18.858.1s.429-.437.492-.74a1.192 1.192 0 0 1 .4-.818c.263-.166.62-.094.858-.286.363-.309.109-.995.46-1.312.272-.246.7-.106 1.015.083a1.382 1.382 0 0 0 1.006.332 2.986 2.986 0 0 0 .34-.146c.557-.212 1.278.149 1.733-.231a1.346 1.346 0 0 0 .346-.6 3.69 3.69 0 0 0 .252-.952 1.281 1.281 0 0 0-.252-.932c-.286-.349-.8-.437-1.181-.695a2.9 2.9 0 0 1-.752-.889 3.284 3.284 0 0 0-.732-.909 1.075 1.075 0 0 0-1.1-.172 1.145 1.145 0 0 1-.36.169.72.72 0 0 1-.4-.109 7.644 7.644 0 0 0-4.234-.32 5.451 5.451 0 0 0-1.67.4 2 2 0 0 0-1.126 1.232c-.114.44-.026.918-.166 1.352-.094.286-.286.546-.4.835a4.689 4.689 0 0 0 .214 2.49 11.732 11.732 0 0 0 .469 2.753c.077.169.16.463.352.352.14-.083.286-.572.357-.712a13.751 13.751 0 0 1 .887-1.427z" class="cls-5" data-name="Trazado 69" transform="translate(-346.021 -330.476)"/>
    <path id="Trazado_70" d="M434.535 481.556l-.675 1.916s1.6 5.944 2.347 7.193 1.847 2.859 1.847 2.859a6.861 6.861 0 0 0 4 .5c2.147-.423 8.414-1.547 8.414-1.547a.835.835 0 0 0 .8-.3c.286-.4 1.7-.6 1.7-.6s1.647-2.4-.375-3.4c0 0-.249.552-1.324.174s-1.4.3-1.4.3a11.291 11.291 0 0 1-2.722.226 29.787 29.787 0 0 1-3.648-.375.317.317 0 0 0-.449.026 2.727 2.727 0 0 1-.8-.452c-.2-.223-.475.252-.475.252s-.352-.2-.252-.449-.323-1.2-.323-1.2a2.418 2.418 0 0 1-.074-1.124 7.377 7.377 0 0 0-.626-2.287 3.242 3.242 0 0 1 .1-.9c.126-.449-.949-1.349-.949-1.349s-1.049-5.092-3.271-3.431a4.367 4.367 0 0 0-1.845 3.968z" class="cls-4" data-name="Trazado 70" transform="translate(-329.758 -374.893)"/>
    <path id="Trazado_71" d="M434 481.556l-.675 1.916s1.6 5.944 2.347 7.193 1.85 2.859 1.85 2.859a6.845 6.845 0 0 0 4 .5c2.15-.423 8.417-1.547 8.417-1.547a.835.835 0 0 0 .8-.3c.286-.4 1.7-.6 1.7-.6s1.647-2.4-.374-3.4c0 0-.252.552-1.324.174s-1.4.3-1.4.3a11.273 11.273 0 0 1-2.722.226 29.6 29.6 0 0 1-3.645-.375.317.317 0 0 0-.449.026 2.73 2.73 0 0 1-.8-.452c-.2-.223-.475.252-.475.252s-.349-.2-.249-.449-.326-1.2-.326-1.2a2.462 2.462 0 0 1-.074-1.124 7.306 7.306 0 0 0-.623-2.287 3.119 3.119 0 0 1 .1-.9c.123-.449-.949-1.349-.949-1.349s-1.049-5.092-3.271-3.431a4.38 4.38 0 0 0-1.858 3.968z" class="cls-7" data-name="Trazado 71" transform="translate(-329.379 -374.893)"/>
    <path id="Trazado_72" d="M452.791 512.56s-2.447.5-1.624.923 1.624-.923 1.624-.923z" class="cls-4" data-name="Trazado 72" transform="translate(-341.991 -400.106)"/>
    <g id="Grupo_2" class="cls-12" data-name="Grupo 2" transform="translate(110.594 88.303)">
        <path id="Trazado_73" d="M461.035 433.09a1.029 1.029 0 0 0-.76-.712c-.526-.08-.969.38-1.278.812a13.812 13.812 0 0 0-.886 1.43c-.08.149-.217.629-.357.712-.192.112-.286-.186-.352-.354a12.5 12.5 0 0 1-.469-2.753 15.9 15.9 0 0 1-.323-1.6 7.813 7.813 0 0 0 .323 2 11.734 11.734 0 0 0 .469 2.753c.077.169.16.463.352.352.14-.083.286-.572.357-.709a13.494 13.494 0 0 1 .886-1.43c.309-.435.752-.895 1.278-.812a1.029 1.029 0 0 1 .76.712 1.956 1.956 0 0 1 .1.572 2.573 2.573 0 0 0-.1-.973z" data-name="Trazado 73" transform="translate(-456.601 -429.84)"/>
        <path id="Trazado_74" d="M480.173 428.779a1.32 1.32 0 0 1-.346.6c-.455.38-1.175.023-1.733.234-.114.043-.22.112-.34.146a1.394 1.394 0 0 1-1.006-.332c-.312-.189-.743-.332-1.015-.086-.352.32-.1 1-.46 1.312-.229.2-.592.129-.858.286s-.332.512-.4.815-.192.652-.492.74-.572-.106-.858-.094a.278.278 0 0 1-.172-.034.08.08 0 0 1-.02-.037v.3a.2.2 0 0 0 .031.134c.04.046.111.037.171.037.286 0 .586.177.858.094s.429-.435.492-.741a1.18 1.18 0 0 1 .4-.815c.263-.166.62-.094.858-.286.363-.309.109-.992.46-1.312.272-.246.7-.106 1.015.083a1.381 1.381 0 0 0 1.006.332 3.549 3.549 0 0 0 .34-.143c.557-.212 1.278.146 1.733-.234a1.335 1.335 0 0 0 .346-.6 3.746 3.746 0 0 0 .252-.955 1.46 1.46 0 0 0 0-.335 4.236 4.236 0 0 1-.262.891z" data-name="Trazado 74" transform="translate(-467.936 -427.89)"/>
    </g>
    <ellipse id="Elipse_3" cx="11.699" cy="2.25" class="cls-7" data-name="Elipse 3" rx="11.699" ry="2.25" transform="translate(61.395 158.965)"/>
    <ellipse id="Elipse_4" cx="1.361" cy="1.784" class="cls-5" data-name="Elipse 4" rx="1.361" ry="1.784" transform="translate(71.524 158.476)"/>
    <ellipse id="Elipse_5" cx="1.361" cy="1.784" class="cls-5" data-name="Elipse 5" rx="1.361" ry="1.784" transform="translate(71.524 156.297)"/>
    <ellipse id="Elipse_6" cx="1.361" cy="1.784" class="cls-5" data-name="Elipse 6" rx="1.361" ry="1.784" transform="translate(71.524 154.118)"/>
    <ellipse id="Elipse_7" cx="1.361" cy="1.784" class="cls-5" data-name="Elipse 7" rx="1.361" ry="1.784" transform="translate(71.524 151.937)"/>
    <ellipse id="Elipse_8" cx="1.361" cy="1.784" class="cls-5" data-name="Elipse 8" rx="1.361" ry="1.784" transform="translate(71.524 149.852)"/>
    <ellipse id="Elipse_9" cx="1.361" cy="1.784" class="cls-5" data-name="Elipse 9" rx="1.361" ry="1.784" transform="translate(71.524 147.679)"/>
    <ellipse id="Elipse_10" cx="1.361" cy="1.784" class="cls-5" data-name="Elipse 10" rx="1.361" ry="1.784" transform="translate(71.524 145.506)"/>
    <path id="Trazado_75" d="M313.064 556.188a6.345 6.345 0 0 0 .506-.749l-3.577-.586 3.868.029a6.538 6.538 0 0 0 .126-5.169l-5.192 2.693 4.8-3.525a6.524 6.524 0 1 0-10.776 7.3 6.445 6.445 0 0 0-.743 1.189l4.643 2.413-4.952-1.664a6.513 6.513 0 0 0 1.052 6.127 6.524 6.524 0 1 0 10.255 0 6.525 6.525 0 0 0 0-8.065z" class="cls-7" data-name="Trazado 75" transform="translate(-235.075 -423.8)"/>
    <path id="Trazado_76" d="M301.39 596.42a6.493 6.493 0 0 0 1.4 4.034 6.524 6.524 0 1 0 10.255 0c.873-1.109-11.655-4.766-11.655-4.034z" class="cls-4" data-name="Trazado 76" transform="translate(-235.054 -460.01)"/>
    <ellipse id="Elipse_11" cx="11.699" cy="2.25" class="cls-7" data-name="Elipse 11" rx="11.699" ry="2.25" transform="translate(256.635 179.836)"/>
    <ellipse id="Elipse_12" cx="1.361" cy="1.784" class="cls-5" data-name="Elipse 12" rx="1.361" ry="1.784" transform="translate(266.779 179.347)"/>
    <ellipse id="Elipse_13" cx="1.361" cy="1.784" class="cls-5" data-name="Elipse 13" rx="1.361" ry="1.784" transform="translate(266.779 177.168)"/>
    <ellipse id="Elipse_14" cx="1.361" cy="1.784" class="cls-5" data-name="Elipse 14" rx="1.361" ry="1.784" transform="translate(266.779 174.989)"/>
    <ellipse id="Elipse_15" cx="1.361" cy="1.784" class="cls-5" data-name="Elipse 15" rx="1.361" ry="1.784" transform="translate(266.779 172.808)"/>
    <ellipse id="Elipse_16" cx="1.361" cy="1.784" class="cls-5" data-name="Elipse 16" rx="1.361" ry="1.784" transform="translate(266.779 170.629)"/>
    <ellipse id="Elipse_17" cx="1.361" cy="1.784" class="cls-5" data-name="Elipse 17" rx="1.361" ry="1.784" transform="translate(266.779 168.451)"/>
    <ellipse id="Elipse_18" cx="1.361" cy="1.784" class="cls-5" data-name="Elipse 18" rx="1.361" ry="1.784" transform="translate(266.779 166.272)"/>
    <path id="Trazado_77" d="M998.064 629.188a6.36 6.36 0 0 0 .506-.749l-3.577-.586 3.868.029a6.539 6.539 0 0 0 .126-5.169l-5.192 2.693 4.8-3.525a6.524 6.524 0 1 0-10.776 7.3 6.427 6.427 0 0 0-.743 1.189l4.643 2.413-4.952-1.664a6.513 6.513 0 0 0 1.052 6.127 6.524 6.524 0 1 0 10.255 0 6.524 6.524 0 0 0 0-8.065z" class="cls-7" data-name="Trazado 77" transform="translate(-724.827 -476.044)"/>
    <path id="Trazado_78" d="M986.39 669.42a6.492 6.492 0 0 0 1.4 4.034 6.524 6.524 0 1 0 10.255 0c.873-1.109-11.655-4.766-11.655-4.034z" class="cls-4" data-name="Trazado 78" transform="translate(-724.806 -512.245)"/>
    <ellipse id="Elipse_19" cx="4.366" cy="4.366" class="cls-13" data-name="Elipse 19" rx="4.366" ry="4.366" transform="translate(111.328 22.421)"/>
    <ellipse id="Elipse_20" cx="7.319" cy="7.319" class="cls-13" data-name="Elipse 20" rx="7.319" ry="7.319" transform="translate(123.953)"/>
    <ellipse id="Elipse_21" cx="7.319" cy="7.319" class="cls-13" data-name="Elipse 21" rx="7.319" ry="7.319" transform="translate(114.293 35.417)"/>
    <ellipse id="Elipse_22" cx="4.366" cy="4.366" class="cls-13" data-name="Elipse 22" rx="4.366" ry="4.366" transform="translate(270.81 74.826)"/>
    <ellipse id="Elipse_23" cx="7.319" cy="7.319" class="cls-13" data-name="Elipse 23" rx="7.319" ry="7.319" transform="translate(252.235 52.461)"/>
    <ellipse id="Elipse_24" cx="7.319" cy="7.319" class="cls-13" data-name="Elipse 24" rx="7.319" ry="7.319" transform="translate(261.924 87.878)"/>
    <ellipse id="Elipse_25" cx="2.473" cy="2.473" class="cls-13" data-name="Elipse 25" rx="2.473" ry="2.473" transform="translate(26.695 84.605)"/>
    <ellipse id="Elipse_26" cx="4.146" cy="4.146" class="cls-13" data-name="Elipse 26" rx="4.146" ry="4.146" transform="translate(35.623 73.598)"/>
    <ellipse id="Elipse_27" cx="4.146" cy="4.146" class="cls-13" data-name="Elipse 27" rx="4.146" ry="4.146" transform="translate(15.782 80.011)"/>
    <ellipse id="Elipse_28" cx="2.473" cy="2.473" class="cls-13" data-name="Elipse 28" rx="2.473" ry="2.473" transform="translate(209.416 69.777)"/>
    <ellipse id="Elipse_29" cx="4.146" cy="4.146" class="cls-13" data-name="Elipse 29" rx="4.146" ry="4.146" transform="translate(218.315 58.77)"/>
    <ellipse id="Elipse_30" cx="4.146" cy="4.146" class="cls-13" data-name="Elipse 30" rx="4.146" ry="4.146" transform="translate(198.525 65.183)"/>
    <ellipse id="Elipse_31" cx="10.364" cy="10.364" class="cls-13" data-name="Elipse 31" rx="10.364" ry="10.364" transform="translate(51.773 30.239)"/>
    <ellipse id="Elipse_32" cx="5.981" cy="5.981" class="cls-13" data-name="Elipse 32" rx="5.981" ry="5.981" transform="translate(115.174 68.829)"/>
    <ellipse id="Elipse_33" cx="5.981" cy="5.981" class="cls-13" data-name="Elipse 33" rx="5.981" ry="5.981" transform="translate(174.199 107.606)"/>
    <ellipse id="Elipse_34" cx="34.166" cy="6.862" class="cls-1" data-name="Elipse 34" rx="34.166" ry="6.862" transform="translate(39.097 155.211)"/>
    <ellipse id="Elipse_35" cx="34.166" cy="6.862" class="cls-1" data-name="Elipse 35" rx="34.166" ry="6.862" transform="translate(234.169 175.51)"/>
    <ellipse id="Elipse_36" cx="34.166" cy="6.862" class="cls-1" data-name="Elipse 36" rx="34.166" ry="6.862" transform="translate(.5 175.51)"/>
</svg>
