<svg xmlns="http://www.w3.org/2000/svg" xmlns:xlink="http://www.w3.org/1999/xlink" width="130" height="140" viewBox="0 0 130 140"><defs><path id="1wbaa" d="M1005.153 2278.372v62.394c0 .487-.25.94-.664 1.198-5.42 3.38-13.154 3.134-21.35 2.878-10.042-.318-20.423-.645-27.218 5.627a1.409 1.409 0 0 1-1.885.026c-7.897-6.905-19.734-6.77-30.182-6.656-6.992.08-13.6.153-18.242-1.919a1.413 1.413 0 0 1-.836-1.288v-62.26a1.41 1.41 0 1 1 2.244-1.138c.05.037 5.117 3.69 14.426 6.47 2.6.776 5.755 1.307 9.096 1.868 8.472 1.425 18.015 3.027 24.422 9.32 6.407-6.291 15.948-7.895 24.422-9.32 3.34-.561 6.495-1.092 9.095-1.868 9.354-2.794 14.376-6.433 14.427-6.47a1.413 1.413 0 0 1 2.245 1.138z"/><path id="1wbac" d="M955.939 2365.726a1.552 1.552 0 0 1-1.95 0c-10.502-8.505-31.831-6.47-50.646-4.675-4.081.388-7.935.755-11.683 1.026a1.526 1.526 0 0 1-1.167-.41 1.55 1.55 0 0 1-.492-1.133v-64.236a1.548 1.548 0 1 1 3.096 0v62.567c3.195-.253 6.493-.567 9.952-.897 18.869-1.8 40.189-3.834 51.915 4.608 11.732-8.442 33.072-6.41 51.953-4.606 3.46.33 6.753.644 9.947.895v-62.567a1.548 1.548 0 1 1 3.097 0v64.236c0 .429-.178.84-.493 1.133a1.518 1.518 0 0 1-1.167.41c-3.745-.27-7.597-.636-11.676-1.026-18.832-1.795-40.179-3.83-50.686 4.675zm-.94-4.547c-.294 0-.588-.083-.845-.25-12.207-7.947-23.619-7.38-35.689-6.785-7.206.358-14.658.73-22.303-.843a1.547 1.547 0 0 1-1.237-1.516v-62.83a1.548 1.548 0 1 1 3.097 0v61.548c6.846 1.214 13.676.875 20.289.548 11.777-.584 23.948-1.187 36.687 6.742 12.738-7.93 24.9-7.326 36.664-6.742 6.607.328 13.432.667 20.28-.548v-61.548a1.548 1.548 0 1 1 3.097 0v62.83a1.55 1.55 0 0 1-1.237 1.516c-7.645 1.571-15.092 1.201-22.294.843-12.055-.596-23.46-1.165-35.663 6.785-.257.167-.552.25-.846.25zm51.952-81.914c-2.673 1.549-7.488 3.972-14.314 6.01-3.036.908-6.592 1.505-10.356 2.139-9.134 1.534-19.451 3.283-25.768 10.046v53.79c8.258-5.605 19.466-5.257 29.473-4.938 8.117.259 15.804.5 20.965-2.27zm-81.494 65.912c9.695 0 19.931.663 27.962 6.123v-53.84c-6.315-6.763-16.634-8.512-25.768-10.047-3.765-.633-7.322-1.23-10.356-2.138-6.826-2.038-11.64-4.461-14.313-6.01v64.477c4.476 1.62 10.964 1.55 17.807 1.468 1.533-.016 3.093-.033 4.668-.033zm84.59-68.721v68.478a1.55 1.55 0 0 1-.728 1.315c-5.949 3.71-14.437 3.44-23.432 3.158-11.022-.348-22.415-.708-29.872 6.176a1.546 1.546 0 0 1-2.07.03c-8.667-7.58-21.657-7.43-33.125-7.307-7.674.089-14.926.169-20.02-2.105a1.55 1.55 0 0 1-.919-1.414v-68.331c0-.583.328-1.117.849-1.38a1.547 1.547 0 0 1 1.614.13c.054.04 5.617 4.05 15.833 7.102 2.854.851 6.317 1.433 9.983 2.05 9.298 1.563 19.772 3.322 26.804 10.228 7.031-6.905 17.503-8.665 26.803-10.229 3.666-.616 7.13-1.198 9.983-2.05 10.266-3.066 15.777-7.06 15.833-7.1a1.55 1.55 0 0 1 1.616-.134c.52.266.849.799.849 1.383zm-43.593 26.908a1.544 1.544 0 0 1-2.005-.876 1.546 1.546 0 0 1 .875-2.006c5.79-2.272 12.34-3.191 18.118-4.004 3.382-.475 6.574-.923 9.316-1.587a71.263 71.263 0 0 0 4.95-1.392 1.548 1.548 0 1 1 .953 2.947c-1.584.51-3.324 1-5.171 1.453-2.894.702-6.16 1.16-9.617 1.646-5.883.825-11.968 1.681-17.419 3.82zm-.565 11.903a1.547 1.547 0 0 1-.539-3c6.004-2.228 12.802-2.986 18.798-3.654 3.075-.343 5.978-.666 8.582-1.152a85.483 85.483 0 0 0 5.072-1.124 1.549 1.549 0 0 1 .765 3c-1.699.432-3.47.825-5.263 1.168-2.72.509-5.68.837-8.812 1.187-6.103.68-12.416 1.384-18.064 3.48a1.46 1.46 0 0 1-.539.095zm.514 11.696c-.17.062-.344.088-.515.085a1.55 1.55 0 0 1-.514-3.008c6.34-2.23 13.524-2.794 19.863-3.293 2.638-.207 5.127-.402 7.454-.7a79.88 79.88 0 0 0 5.188-.832 1.54 1.54 0 0 1 1.822 1.213 1.547 1.547 0 0 1-1.214 1.822c-1.56.315-3.327.598-5.396.869-2.408.307-4.933.506-7.61.717-6.451.508-13.119 1.03-19.078 3.127zm-.022 11.774a1.55 1.55 0 0 1-.985-2.935c6.884-2.31 14.73-2.62 21.654-2.892 1.932-.078 3.82-.152 5.635-.265a98.833 98.833 0 0 0 5.318-.474 1.548 1.548 0 1 1 .365 3.075 103.23 103.23 0 0 1-5.486.488c-1.841.114-3.753.19-5.71.267-7.044.279-14.327.567-20.79 2.736zm-19.85-36.247a1.546 1.546 0 0 1-2.005.876c-5.453-2.138-11.536-2.994-17.42-3.82-3.457-.487-6.724-.945-9.613-1.644a75.497 75.497 0 0 1-5.174-1.455 1.548 1.548 0 1 1 .952-2.946c1.51.49 3.179.957 4.954 1.393 2.74.663 5.93 1.11 9.311 1.586 5.778.81 12.328 1.73 18.12 4.003a1.548 1.548 0 0 1 .875 2.007zm-1.442 12.781c-.18 0-.362-.03-.538-.097-5.648-2.096-11.962-2.8-18.065-3.48-3.131-.35-6.09-.68-8.806-1.186a89.256 89.256 0 0 1-5.268-1.17 1.547 1.547 0 0 1-1.118-1.882 1.543 1.543 0 0 1 1.883-1.118c1.63.417 3.34.795 5.078 1.126 2.598.484 5.5.808 8.575 1.15 5.996.667 12.794 1.426 18.798 3.655a1.546 1.546 0 0 1 .914 1.99 1.551 1.551 0 0 1-1.453 1.012zm1.462 10.746a1.559 1.559 0 0 1-1.463 1.037c-.17 0-.344-.027-.514-.088-5.958-2.096-12.627-2.62-19.078-3.127-2.676-.21-5.202-.41-7.605-.715a81.938 81.938 0 0 1-5.402-.87 1.55 1.55 0 0 1 .609-3.036c1.494.297 3.192.57 5.192.834 2.323.296 4.814.49 7.452.698 6.338.499 13.523 1.064 19.863 3.293a1.548 1.548 0 0 1 .946 1.974zm-1.462 12.8a1.56 1.56 0 0 1-.492-.08c-6.465-2.169-13.748-2.457-20.79-2.736a254.794 254.794 0 0 1-5.707-.267 103.072 103.072 0 0 1-5.49-.488 1.548 1.548 0 1 1 .366-3.075c1.579.19 3.319.344 5.322.474 1.81.113 3.699.187 5.63.265 6.923.272 14.769.582 21.654 2.892a1.549 1.549 0 1 1-.492 3.016z"/><path id="1wbad" d="M956.43 2236.717v-8.434a1.548 1.548 0 1 0-3.097 0v8.434a1.548 1.548 0 1 0 3.097 0zm-33.267 14.935a1.55 1.55 0 0 0-.064-2.189l-6.132-5.79a1.549 1.549 0 1 0-2.126 2.253l6.132 5.79c.3.283.682.422 1.064.422.41 0 .82-.162 1.126-.486zm14.246-9.917a1.546 1.546 0 0 0 .808-2.035l-3.338-7.745a1.547 1.547 0 1 0-2.84 1.226l3.337 7.746a1.547 1.547 0 0 0 2.033.808zm50.92 9.98l6.133-5.79a1.549 1.549 0 1 0-2.126-2.253l-6.132 5.791a1.547 1.547 0 1 0 1.064 2.674 1.53 1.53 0 0 0 1.062-.421zm-14.403-10.79l3.34-7.746a1.547 1.547 0 1 0-2.842-1.226l-3.34 7.746a1.547 1.547 0 1 0 2.842 1.226zm-6.894 18.7l1.904-6.426 5.247 6.426zm-1.06 3.097h8.175l-14.427 12.39zm-21.979 0l6.252 12.39-14.428-12.39zm1.78-4.362l-2.044-6.777h8.06zm12.402-6.777h8.01l-2.005 6.767zm4.328 11.139l-7.52 14.904-7.522-14.904zm-13.713-3.097l6.192-6.977 6.193 6.977zm-7.796-6.386l1.926 6.386h-7.14zm38.014 7.4l-9.457-11.585a1.544 1.544 0 0 0-1.199-.57h-26.74c-.466 0-.906.21-1.198.57l-9.456 11.585a1.546 1.546 0 0 0 .19 2.154l22.826 19.601a1.544 1.544 0 0 0 2.016 0l22.826-19.601c.64-.547.723-1.502.192-2.154z"/><linearGradient id="1wbab" x1="954.96" x2="954.96" y1="2276.96" y2="2350.84" gradientUnits="userSpaceOnUse"><stop offset="0" stop-color="#8e2de2"/><stop offset="1" stop-color="#4a00e0"/></linearGradient></defs><g><g transform="translate(-890 -2226)"><g><use fill="url(#1wbab)" xlink:href="#1wbaa"/></g><g><use xlink:href="#1wbac"/></g><g><use xlink:href="#1wbad"/></g></g></g></svg>