<svg xmlns="http://www.w3.org/2000/svg" xmlns:xlink="http://www.w3.org/1999/xlink" width="130" height="155" viewBox="0 0 130 155"><defs><path id="qdeja" d="M961.125 1795.334c5.75-.76 10.21-5.818 10.21-11.936v-12.797c2.912-2.754 4.615-6.626 4.615-10.786 0-1.552.346-3.103 1.002-4.48a10.738 10.738 0 0 1 2.834-3.647c8.75-7.253 13.767-18.028 13.767-29.56 0-10.447-4.251-20.54-11.666-27.693-7.519-7.255-17.35-10.88-27.676-10.196-18.438 1.214-33.232 16.435-34.412 35.41-.763 12.394 4.4 24.41 13.813 32.15 2.36 1.929 3.712 4.85 3.712 8.016 0 3.928 1.488 7.622 4.194 10.403.133.14.28.259.42.39v12.79c0 6.116 4.461 11.174 10.21 11.936.087 1.96 2.057 3.53 4.488 3.53 2.433 0 4.399-1.57 4.489-3.53z"/><path id="qdejc" d="M936.26 1746.6c-8.328-6.658-12.895-17-12.219-27.666 1.044-16.32 14.13-29.413 30.443-30.456 9.151-.588 17.842 2.529 24.496 8.77 6.656 6.245 10.323 14.705 10.323 23.824 0 9.92-4.44 19.188-12.187 25.434a14.725 14.725 0 0 0-3.982 4.982 14.26 14.26 0 0 0-1.434 6.227 9.978 9.978 0 0 1-4.103 8.072h-21.934c-.4-.293-.791-.61-1.142-.963a9.987 9.987 0 0 1-2.949-7.109c0-4.382-1.938-8.433-5.312-11.116z"/><path id="qdeje" d="M942.462 1737.672c-3.87 0-7.02-3.15-7.02-7.004l-2.103-.093 2.12-.13a2.105 2.105 0 0 0-1.593-2.18 9.099 9.099 0 0 1-6.915-8.846 9.099 9.099 0 0 1 6.915-8.845 2.105 2.105 0 0 0 1.593-2.181 7.952 7.952 0 0 1-.017-.207c0-3.87 3.15-7.02 6.964-7.02a2.105 2.105 0 0 0 2.326-2.41c-.027-.17-.054-.337-.054-.51 0-1.45 1.181-2.63 2.631-2.63a2.63 2.63 0 0 1 2.622 2.63v42.345a2.63 2.63 0 0 1-2.622 2.63c-1.45 0-2.63-1.18-2.63-2.63 0-.174.026-.342.053-.51.1-.649-.082-1.307-.539-1.78a2.053 2.053 0 0 0-1.73-.629zm4.847 9.76c3.768 0 6.833-3.069 6.833-6.841v-42.343c0-3.773-3.065-6.841-6.833-6.841-3.387 0-6.208 2.474-6.747 5.71-4.9.84-8.727 4.863-9.264 9.858a13.298 13.298 0 0 0-8.557 12.444 13.3 13.3 0 0 0 8.557 12.444c.537 4.996 4.365 9.02 9.264 9.858.54 3.237 3.36 5.71 6.747 5.71z"/><path id="qdejf" d="M964.063 1698.248a2.63 2.63 0 0 1 2.623-2.631c1.45 0 2.63 1.18 2.63 2.63 0 .174-.027.343-.054.51-.1.651.081 1.31.54 1.783a2.043 2.043 0 0 0 1.73.628c3.87 0 7.02 3.15 7.017 7.07l-.014.172a2.105 2.105 0 0 0 1.595 2.166 9.099 9.099 0 0 1 6.915 8.845 9.099 9.099 0 0 1-6.915 8.845 2.107 2.107 0 0 0-1.595 2.166l.019.222c0 3.87-3.15 7.02-6.963 7.02a2.109 2.109 0 0 0-2.329 2.41c.027.17.054.338.054.51 0 1.45-1.18 2.63-2.63 2.63a2.63 2.63 0 0 1-2.623-2.63zm2.623 49.184c3.386 0 6.207-2.474 6.746-5.711 4.901-.839 8.728-4.862 9.265-9.858a13.298 13.298 0 0 0 8.557-12.444 13.3 13.3 0 0 0-8.557-12.444c-.537-4.995-4.366-9.019-9.265-9.857-.54-3.237-3.36-5.711-6.747-5.711-3.767 0-6.832 3.068-6.832 6.84v42.345c0 3.773 3.065 6.84 6.833 6.84z"/><path id="qdejg" d="M931.974 1750.165a39.874 39.874 0 0 1-15.005-33.747c1.282-19.905 17.354-35.876 37.385-37.148 11.239-.717 21.912 3.084 30.083 10.697 8.175 7.617 12.678 17.937 12.678 29.06 0 12.1-5.455 23.406-14.968 31.024a17.98 17.98 0 0 0-4.889 6.077 17.3 17.3 0 0 0-1.762 7.595c0 3.928-1.881 7.549-5.039 9.847h-26.935c-.491-.358-.971-.745-1.403-1.174a12.148 12.148 0 0 1-3.62-8.673c0-5.345-2.38-10.287-6.525-13.558zm12.416 43.482l25.44-5.67v3.397l-24.113 5.376a9.058 9.058 0 0 1-1.327-3.103zm-.225-10.434v-4.459h20.04zm0 3.54l25.664-5.71v3.391l-25.664 5.72zm16.499 14.041h-7.335c-1.629 0-3.139-.46-4.466-1.203l20.295-4.525a9.16 9.16 0 0 1-8.494 5.728zm1.846 5.053c7.06-.904 12.539-6.9 12.539-14.156v-15.176c3.577-3.267 5.666-7.858 5.666-12.792 0-1.838.426-3.679 1.23-5.312a12.822 12.822 0 0 1 3.482-4.325c10.745-8.603 16.907-21.38 16.907-35.056 0-12.39-5.221-24.36-14.327-32.843-9.233-8.604-21.306-12.902-33.987-12.091-22.644 1.44-40.811 19.49-42.26 41.994-.938 14.698 5.402 28.95 16.963 38.129 2.897 2.286 4.558 5.75 4.558 9.504 0 4.66 1.829 9.04 5.15 12.339.165.164.346.306.517.461v15.168c0 7.254 5.478 13.25 12.538 14.156.108 2.324 2.525 4.186 5.512 4.186 2.987 0 5.402-1.862 5.512-4.186z"/><path id="qdejh" d="M894.358 1717.633a2.357 2.357 0 1 0 0 4.716h8.932a2.357 2.357 0 1 0 0-4.716z"/><path id="qdeji" d="M1010.71 1717.633a2.357 2.357 0 1 0 0 4.716h8.932a2.357 2.357 0 1 0 0-4.716z"/><path id="qdejj" d="M918.598 1683.954a2.355 2.355 0 0 0 1.667-4.023l-6.315-6.316a2.355 2.355 0 0 0-3.333 0 2.355 2.355 0 0 0 0 3.333l6.315 6.316c.458.461 1.061.69 1.666.69z"/><path id="qdejk" d="M997.07 1756.252a2.355 2.355 0 0 0-3.334 0 2.355 2.355 0 0 0 0 3.332l6.316 6.316c.46.46 1.063.69 1.667.69a2.355 2.355 0 0 0 1.667-4.023z"/><path id="qdejl" d="M910.613 1765.902c.46.46 1.063.69 1.668.69a2.35 2.35 0 0 0 1.667-.69l6.315-6.316a2.355 2.355 0 0 0 0-3.333 2.355 2.355 0 0 0-3.333 0l-6.315 6.316a2.354 2.354 0 0 0-.002 3.333z"/><path id="qdejm" d="M1003.387 1673.613a2.355 2.355 0 0 0-3.333 0l-6.316 6.316a2.355 2.355 0 0 0 1.667 4.023 2.35 2.35 0 0 0 1.668-.69l6.315-6.316c.92-.92.92-2.411-.001-3.333z"/><path id="qdejn" d="M954.642 1657.358v8.933a2.357 2.357 0 1 0 4.716 0v-8.933a2.357 2.357 0 1 0-4.716 0z"/><linearGradient id="qdejb" x1="956.64" x2="956.64" y1="1684.16" y2="1798.87" gradientUnits="userSpaceOnUse"><stop offset="0" stop-color="#fdc830"/><stop offset="1" stop-color="#f37335"/></linearGradient><linearGradient id="qdejd" x1="956.64" x2="956.64" y1="1688.41" y2="1765.79" gradientUnits="userSpaceOnUse"><stop offset="0" stop-color="#fdc830"/><stop offset="1" stop-color="#f37335"/></linearGradient></defs><g><g transform="translate(-892 -1655)"><g><g><use fill="url(#qdejb)" xlink:href="#qdeja"/></g><g><use fill="url(#qdejd)" xlink:href="#qdejc"/></g></g><g><g><use fill="#19202a" xlink:href="#qdeje"/></g><g><use fill="#19202a" xlink:href="#qdejf"/></g><g><use fill="#19202a" xlink:href="#qdejg"/></g><g><use fill="#19202a" xlink:href="#qdejh"/></g><g><use fill="#19202a" xlink:href="#qdeji"/></g><g><use fill="#19202a" xlink:href="#qdejj"/></g><g><use fill="#19202a" xlink:href="#qdejk"/></g><g><use fill="#19202a" xlink:href="#qdejl"/></g><g><use fill="#19202a" xlink:href="#qdejm"/></g><g><use fill="#19202a" xlink:href="#qdejn"/></g></g></g></g></svg>