<svg xmlns="http://www.w3.org/2000/svg" xmlns:xlink="http://www.w3.org/1999/xlink" width="130" height="131" viewBox="0 0 130 131"><defs><path id="e6x1a" d="M996.16 2034.107h-3.915l4.456-4.454c4.528-4.532 7.022-10.55 7.022-16.956 0-11.212-7.743-20.622-18.155-23.235v-5.283h3.026v-9.077h-9.078v9.077h3.027v4.716a24.27 24.27 0 0 0-2.799-.177 23.816 23.816 0 0 0-16.954 7.024l-5.967 5.965-5.967-5.965a23.816 23.816 0 0 0-16.955-7.024c-13.221 0-23.979 10.757-23.979 23.979 0 6.404 2.495 12.424 7.023 16.956l5.636 5.635-11.17 6.382 13.238 7.564h11.879l20.295 20.295 20.295-20.295h19.041c4.17 0 7.564-3.394 7.564-7.564 0-4.172-3.394-7.563-7.564-7.563z"/><path id="e6x1c" d="M1011.516 2048.767h-6.29v-12.58h6.29a6.298 6.298 0 0 1 6.29 6.29 6.298 6.298 0 0 1-6.29 6.29zM957 2075.157l-22.196-22.196h44.392zm-54.483-32.68l10.45-5.972v11.943zm18.838-23.065v4.194h-4.194v-4.194zm35.645-12.58a2.1 2.1 0 0 1 2.097 2.096 2.1 2.1 0 0 1-2.097 2.097 2.1 2.1 0 0 1-2.097-2.097 2.1 2.1 0 0 1 2.097-2.096zm-60.806-4.51c0-16.011 13.027-29.039 29.038-29.039 7.756 0 15.048 3.02 20.533 8.505L957 1993.022l11.235-11.234c5.485-5.485 12.777-8.505 20.533-8.505 1.317 0 2.607.12 3.877.29v35.355c0 9.25-7.525 16.775-16.774 16.775-7.148 0-13.524-4.66-15.83-11.302 1.926-1.076 3.25-3.112 3.25-5.473 0-3.073-2.221-5.63-5.14-6.175-2.682-8.785-10.693-14.792-20.022-14.792-11.562 0-20.968 9.406-20.968 20.967v6.29h-4.193v12.581h12.58v-12.58h-4.193v-6.29c0-9.25 7.525-16.775 16.774-16.775 7.148 0 13.524 4.66 15.83 11.302-1.926 1.075-3.25 3.111-3.25 5.472 0 3.074 2.221 5.63 5.14 6.175 2.682 8.786 10.693 14.793 20.022 14.793 11.562 0 20.968-9.406 20.968-20.968v-34.479c12.094 3.508 20.967 14.665 20.967 27.875 0 7.756-3.019 15.048-8.504 20.533l-9.138 9.136h-86.328l-9.138-9.136c-5.485-5.487-8.504-12.78-8.504-20.536zm100.645 33.864h4.193v12.581h-4.193zm-79.678 0h75.484v12.581h-75.484zm75.484-81.774h4.194v4.194h-4.194zm13.449 77.58l6.173-6.17c6.278-6.28 9.733-14.623 9.733-23.5 0-15.538-10.731-28.58-25.161-32.2v-7.323h4.193v-12.58h-12.58v12.58h4.193v6.536a33.35 33.35 0 0 0-3.877-.245c-8.875 0-17.223 3.455-23.498 9.733l-8.27 8.27-8.27-8.27c-6.275-6.278-14.62-9.733-23.498-9.733-18.324 0-33.232 14.908-33.232 33.232 0 8.875 3.455 17.22 9.733 23.5l7.81 7.81-15.48 8.845 18.347 10.484h16.464L957 2081.087l28.126-28.126h26.39c5.78 0 10.484-4.703 10.484-10.484s-4.703-10.484-10.484-10.484z"/><path id="e6x1d" d="M967.847 2010.69v-3.588h3.588v3.588z"/><path id="e6x1e" d="M976.275 2010.69v-3.588h3.588v3.588z"/><path id="e6x1f" d="M984.702 2010.69v-3.588h3.588v3.588z"/><path id="e6x1g" d="M942.565 2010.69v-3.588h3.588v3.588z"/><path id="e6x1h" d="M934.137 2010.69v-3.588h3.588v3.588z"/><path id="e6x1i" d="M925.71 2010.69v-3.588h3.588v3.588z"/><linearGradient id="e6x1b" x1="956.82" x2="956.82" y1="1975.1" y2="2069.53" gradientUnits="userSpaceOnUse"><stop offset="0" stop-color="#cb2d3e"/><stop offset="1" stop-color="#ef473a"/></linearGradient></defs><g><g transform="translate(-892 -1950)"><g><use fill="url(#e6x1b)" xlink:href="#e6x1a"/></g><g><g><use xlink:href="#e6x1c"/></g><g><use xlink:href="#e6x1d"/></g><g><use xlink:href="#e6x1e"/></g><g><use xlink:href="#e6x1f"/></g><g><use xlink:href="#e6x1g"/></g><g><use xlink:href="#e6x1h"/></g><g><use xlink:href="#e6x1i"/></g></g></g></g></svg>