<svg xmlns="http://www.w3.org/2000/svg" xmlns:xlink="http://www.w3.org/1999/xlink" width="187" height="200" viewBox="0 0 187 200"><defs><path id="2hbxa" d="M446.69 1522.6a2.228 2.228 0 0 1-2.798 0c-15.083-12.215-45.713-9.292-72.732-6.715-5.86.558-11.394 1.085-16.777 1.474a2.191 2.191 0 0 1-1.676-.59 2.226 2.226 0 0 1-.707-1.627v-92.245a2.223 2.223 0 1 1 4.447 0v89.849c4.588-.363 9.324-.814 14.29-1.288 27.098-2.585 57.714-5.507 74.553 6.617 16.848-12.124 47.493-9.205 74.608-6.614 4.969.473 9.698.924 14.284 1.285v-89.849a2.223 2.223 0 1 1 4.447 0v92.245c0 .616-.256 1.208-.707 1.628a2.18 2.18 0 0 1-1.677.589c-5.378-.387-10.91-.914-16.767-1.474-27.044-2.577-57.698-5.5-72.787 6.714zm-.135-6.89a2.224 2.224 0 0 1-2.428 0c-17.53-11.413-33.918-10.599-51.25-9.743-10.35.513-21.05 1.047-32.028-1.212a2.221 2.221 0 0 1-1.777-2.176v-90.226a2.223 2.223 0 1 1 4.447 0v88.385c9.831 1.743 19.64 1.256 29.136.787 16.912-.838 34.391-1.705 52.684 9.682 18.293-11.39 35.759-10.52 52.65-9.682 9.49.471 19.29.958 29.125-.787v-88.386a2.223 2.223 0 1 1 4.447 0v90.227a2.225 2.225 0 0 1-1.776 2.176c-10.979 2.257-21.673 1.726-32.015 1.212-17.313-.856-33.69-1.674-51.215 9.742zm73.392-117.273c-3.84 2.223-10.754 5.703-20.556 8.63-4.36 1.304-9.467 2.162-14.872 3.071-13.117 2.203-27.933 4.716-37.004 14.427v77.247c11.86-8.05 27.953-7.55 42.324-7.092 11.657.37 22.695.718 30.108-3.26zm-117.03 94.653c13.922 0 28.622.951 40.154 8.793v-77.318c-9.068-9.711-23.886-12.224-37.004-14.427-5.407-.91-10.513-1.767-14.87-3.07-9.803-2.928-16.718-6.408-20.555-8.63v92.59c6.428 2.326 15.745 2.226 25.572 2.109 2.2-.023 4.442-.047 6.703-.047zm121.476-98.688v98.339c0 .767-.395 1.48-1.047 1.887-8.542 5.327-20.732 4.94-33.649 4.536-15.827-.5-32.188-1.016-42.897 8.868a2.22 2.22 0 0 1-2.973.043c-12.446-10.883-31.101-10.67-47.569-10.492-11.02.127-21.434.242-28.75-3.024a2.227 2.227 0 0 1-1.32-2.03v-98.127c0-.836.472-1.603 1.22-1.981a2.222 2.222 0 0 1 2.318.187c.078.058 8.066 5.816 22.737 10.198 4.098 1.223 9.071 2.059 14.336 2.943 13.353 2.246 28.393 4.772 38.491 14.69 10.098-9.916 25.136-12.444 38.491-14.69 5.265-.884 10.238-1.72 14.336-2.943 14.742-4.404 22.657-10.14 22.737-10.198a2.227 2.227 0 0 1 2.32-.191 2.23 2.23 0 0 1 1.22 1.985zm-62.602 38.642a2.218 2.218 0 0 1-2.88-1.258 2.22 2.22 0 0 1 1.257-2.881c8.315-3.262 17.722-4.583 26.019-5.75 4.855-.682 9.44-1.325 13.377-2.279a102.338 102.338 0 0 0 7.11-1.998 2.222 2.222 0 1 1 1.367 4.23 109.2 109.2 0 0 1-7.425 2.088c-4.156 1.007-8.847 1.665-13.811 2.364-8.449 1.185-17.186 2.414-25.014 5.484zm-.038 16.957c-.256.096-.516.14-.774.136a2.222 2.222 0 0 1-.773-4.307c8.622-3.201 18.384-4.288 26.994-5.249 4.416-.491 8.584-.956 12.324-1.654a122.752 122.752 0 0 0 7.283-1.614 2.224 2.224 0 0 1 1.098 4.309c-2.438.62-4.982 1.185-7.556 1.676-3.906.731-8.157 1.203-12.655 1.705-8.764.976-17.83 1.988-25.94 4.998zm-.035 16.932a2.047 2.047 0 0 1-.74.123 2.222 2.222 0 0 1-.738-4.32c9.103-3.202 19.421-4.013 28.523-4.729 3.789-.298 7.364-.578 10.705-1.005 2.866-.376 5.305-.77 7.45-1.196a2.212 2.212 0 0 1 2.617 1.743 2.222 2.222 0 0 1-1.743 2.617c-2.24.451-4.778.858-7.75 1.247-3.457.44-7.083.727-10.927 1.03-9.265.729-18.84 1.48-27.397 4.49zm-.739 17.026a2.226 2.226 0 0 1-.707-4.333c9.885-3.317 21.152-3.762 31.095-4.153 2.774-.111 5.487-.218 8.093-.38 2.87-.187 5.369-.41 7.636-.68a2.218 2.218 0 0 1 2.47 1.945 2.223 2.223 0 0 1-1.945 2.47c-2.348.28-4.922.507-7.88.7-2.643.165-5.388.273-8.198.385-10.116.4-20.574.813-29.857 3.928a2.31 2.31 0 0 1-.707.118zm-27.8-52.17a2.22 2.22 0 0 1-2.878 1.258c-7.83-3.07-16.566-4.3-25.016-5.485-4.965-.7-9.656-1.359-13.804-2.361a108.426 108.426 0 0 1-7.43-2.09 2.223 2.223 0 1 1 1.367-4.231c2.167.702 4.564 1.374 7.114 2 3.933.952 8.515 1.595 13.37 2.277 8.298 1.163 17.705 2.486 26.022 5.75a2.222 2.222 0 0 1 1.256 2.881zm.017 16.9a2.228 2.228 0 0 1-2.086 1.454c-.26 0-.52-.044-.774-.14-8.11-3.01-17.176-4.022-25.94-4.998-4.498-.502-8.747-.976-12.646-1.703a128.16 128.16 0 0 1-7.566-1.678 2.222 2.222 0 0 1-1.605-2.704 2.216 2.216 0 0 1 2.703-1.605c2.341.598 4.796 1.14 7.292 1.616 3.731.696 7.9 1.161 12.315 1.652 8.61.959 18.373 2.048 26.995 5.25a2.22 2.22 0 0 1 1.311 2.856zm.013 16.886a2.239 2.239 0 0 1-2.101 1.49c-.245 0-.494-.04-.738-.127-8.555-3.01-18.133-3.764-27.397-4.491-3.842-.303-7.47-.59-10.921-1.027-2.98-.392-5.514-.8-7.757-1.25a2.225 2.225 0 0 1-1.743-2.617 2.221 2.221 0 0 1 2.617-1.743c2.145.427 4.584.82 7.457 1.199 3.334.424 6.912.704 10.7 1.002 9.102.716 19.42 1.528 28.524 4.73a2.222 2.222 0 0 1 1.359 2.834zm-2.099 18.382c-.233 0-.473-.038-.707-.116-9.284-3.115-19.742-3.528-29.856-3.928-2.81-.112-5.556-.22-8.195-.385-2.961-.193-5.536-.42-7.883-.7a2.223 2.223 0 0 1-1.946-2.47 2.217 2.217 0 0 1 2.47-1.946c2.268.272 4.767.494 7.644.68 2.599.163 5.311.27 8.086.38 9.94.392 21.207.837 31.094 4.154a2.226 2.226 0 0 1 1.4 2.817 2.224 2.224 0 0 1-2.107 1.514z"/><path id="2hbxb" d="M447.395 1337.336v-12.113a2.223 2.223 0 1 0-4.446 0v12.113a2.223 2.223 0 1 0 4.446 0zm-47.773 21.447c.843-.891.8-2.299-.091-3.143l-8.806-8.315a2.224 2.224 0 1 0-3.053 3.234l8.806 8.315c.43.407.979.607 1.528.607.589 0 1.178-.233 1.616-.698zm20.459-14.242a2.22 2.22 0 0 0 1.16-2.921l-4.793-11.123a2.221 2.221 0 1 0-4.08 1.76l4.793 11.124a2.222 2.222 0 0 0 2.92 1.16zm73.124 14.333l8.807-8.315a2.224 2.224 0 1 0-3.053-3.235l-8.806 8.316a2.222 2.222 0 1 0 1.527 3.84 2.196 2.196 0 0 0 1.525-.606zm-20.685-15.496l4.796-11.123a2.222 2.222 0 1 0-4.08-1.76l-4.798 11.123a2.222 2.222 0 0 0 2.04 3.103 2.219 2.219 0 0 0 2.042-1.343zm-9.9 26.855l2.735-9.229 7.534 9.229zm-1.523 4.447h11.741l-20.718 17.792zm-31.561 0l8.978 17.792-20.719-17.792zm2.557-6.263l-2.937-9.734h11.576zm17.808-9.734h11.503l-2.879 9.718zm6.216 15.997l-10.8 21.403-10.8-21.403zm-19.693-4.447l8.893-10.02 8.893 10.02zm-11.194-9.17l2.765 9.17h-10.253zm54.59 10.626l-13.583-16.636a2.217 2.217 0 0 0-1.72-.819h-38.4c-.67 0-1.3.3-1.721.819l-13.58 16.636a2.22 2.22 0 0 0 .274 3.093l32.78 28.148a2.224 2.224 0 0 0 2.895 0l32.779-28.148a2.22 2.22 0 0 0 .275-3.093z"/></defs><g><g transform="translate(-352 -1323)"><g><use fill="#fff" xlink:href="#2hbxa"/></g><g><use fill="#fff" xlink:href="#2hbxb"/></g></g></g></svg>