<svg id="Capa_1" data-name="Capa 1" xmlns="http://www.w3.org/2000/svg" viewBox="0 0 150 150"><defs><style>.cls-1{fill:#ee7238;stroke:#fff;stroke-miterlimit:10;}.cls-2{fill:#fff;}</style></defs><title>Mesa de trabajo 1 copia</title><path class="cls-1" d="M127.82,98.35c-14.35,31.35-59.1,44.14-83.2,33.11S8.28,82,22.63,50.66,77.49-.72,101.28,17.59C122.29,33.76,142.18,67,127.82,98.35Z"/><path class="cls-2" d="M75.48,110.1a.78.78,0,0,1-1,0c-5.32-4.31-16.12-3.28-25.64-2.37-2.07.2-4,.38-5.92.52a.79.79,0,0,1-.84-.78V75a.79.79,0,1,1,1.57,0v31.67c1.62-.13,3.29-.28,5-.45,9.55-.91,20.34-1.94,26.28,2.33,5.94-4.27,16.74-3.24,26.3-2.33,1.76.17,3.42.33,5,.45V75a.79.79,0,1,1,1.57,0v32.52a.79.79,0,0,1-.25.57.77.77,0,0,1-.59.21c-1.9-.14-3.85-.32-5.91-.52-9.54-.91-20.35-1.94-25.66,2.37Zm0-2.43a.79.79,0,0,1-.86,0c-6.18-4-12-3.74-18.07-3.44a44.43,44.43,0,0,1-11.29-.42.79.79,0,0,1-.62-.77V71.23a.78.78,0,0,1,1.56,0v31.16a46.13,46.13,0,0,0,10.28.28c6-.3,12.12-.6,18.57,3.41,6.45-4,12.61-3.71,18.56-3.41a46,46,0,0,0,10.27-.28V71.23a.78.78,0,0,1,.78-.78.79.79,0,0,1,.79.78h0V103a.8.8,0,0,1-.63.77,44.43,44.43,0,0,1-11.29.42c-6.1-.3-11.87-.59-18,3.44Zm25.87-41.35a33.87,33.87,0,0,1-7.25,3.05,44.56,44.56,0,0,1-5.24,1.08c-4.62.78-9.85,1.66-13,5.09v27.23c4.18-2.84,9.85-2.66,14.92-2.5,4.11.13,8,.25,10.61-1.15ZM60.05,99.69c4.91,0,10.09.34,14.16,3.1V75.54c-3.2-3.43-8.42-4.31-13-5.09a45.43,45.43,0,0,1-5.24-1.08,34.35,34.35,0,0,1-7.25-3.05V99c2.27.82,5.56.78,9,.74ZM102.88,64.9V99.57a.8.8,0,0,1-.37.67c-3,1.87-7.31,1.74-11.86,1.59-5.58-.17-11.35-.35-15.13,3.13a.78.78,0,0,1-1,0c-4.39-3.84-11-3.77-16.77-3.7-3.89,0-7.56.08-10.14-1.07a.79.79,0,0,1-.47-.71V64.9a.81.81,0,0,1,.43-.7.78.78,0,0,1,.82.07,28.89,28.89,0,0,0,8,3.59,42.11,42.11,0,0,0,5.05,1c4.71.79,10,1.68,13.57,5.18,3.56-3.5,8.86-4.39,13.57-5.18a42.3,42.3,0,0,0,5.06-1,28.69,28.69,0,0,0,8-3.59.79.79,0,0,1,.82-.07.81.81,0,0,1,.43.7ZM80.81,78.52a.78.78,0,0,1-1-.44h0a.77.77,0,0,1,.44-1h0a40.82,40.82,0,0,1,9.17-2c1.71-.24,3.33-.47,4.72-.81.84-.2,1.68-.43,2.5-.7A.78.78,0,1,1,97.11,75h0c-.86.28-1.73.52-2.61.74-1.47.35-3.12.58-4.87.83a39.41,39.41,0,0,0-8.82,1.93Zm0,6a.69.69,0,0,1-.28,0,.78.78,0,0,1-.78-.78.79.79,0,0,1,.51-.74,40.57,40.57,0,0,1,9.52-1.85c1.55-.17,3-.34,4.34-.58.86-.17,1.72-.36,2.57-.57a.78.78,0,0,1,.39,1.52c-.86.22-1.76.42-2.67.59-1.37.26-2.87.42-4.46.6A38.52,38.52,0,0,0,80.8,84.5Zm0,6a.75.75,0,0,1-.26,0A.79.79,0,0,1,80.26,89a40.55,40.55,0,0,1,10.06-1.67c1.33-.1,2.59-.2,3.77-.35,1-.13,1.87-.27,2.63-.42a.78.78,0,0,1,.92.61h0a.79.79,0,0,1-.61.93h0c-.79.16-1.69.3-2.74.44-1.21.15-2.49.25-3.85.36A38.71,38.71,0,0,0,80.78,90.47Zm-.26,6A.78.78,0,0,1,80.27,95c3.49-1.17,7.46-1.33,11-1.47,1,0,1.93-.07,2.85-.13s1.89-.15,2.69-.24a.78.78,0,0,1,.87.68h0a.79.79,0,0,1-.68.88h0c-.83.09-1.74.17-2.78.24s-1.9.1-2.89.14c-3.57.14-7.26.28-10.53,1.38a.69.69,0,0,1-.25,0Zm-9.8-18.39a.79.79,0,0,1-1,.45h0a38.88,38.88,0,0,0-8.82-1.94c-1.75-.25-3.41-.48-4.87-.83-.88-.22-1.75-.46-2.62-.74a.78.78,0,0,1,.48-1.49c.77.25,1.61.49,2.51.71,1.39.33,3,.56,4.72.8a41,41,0,0,1,9.17,2,.77.77,0,0,1,.44,1Zm0,6a.79.79,0,0,1-.74.51.65.65,0,0,1-.27,0,39.21,39.21,0,0,0-9.15-1.76c-1.58-.18-3.08-.34-4.45-.6-.9-.17-1.79-.37-2.67-.59a.79.79,0,0,1-.57-1h0a.78.78,0,0,1,.95-.57h0c.82.21,1.69.4,2.57.57,1.31.25,2.78.41,4.34.58A40.67,40.67,0,0,1,70.27,83a.79.79,0,0,1,.46,1Zm0,5.95a.78.78,0,0,1-.74.53.85.85,0,0,1-.26,0,38.56,38.56,0,0,0-9.66-1.58c-1.35-.11-2.63-.21-3.85-.36-1-.14-1.94-.28-2.73-.44a.78.78,0,1,1,.3-1.54h0c.75.15,1.61.29,2.62.42,1.18.15,2.44.25,3.78.36a40.45,40.45,0,0,1,10,1.66.78.78,0,0,1,.48,1ZM70,96.47a.77.77,0,0,1-.25,0c-3.27-1.1-7-1.24-10.52-1.38-1,0-2-.08-2.89-.14s-1.95-.15-2.78-.24a.8.8,0,0,1-.69-.88h0a.79.79,0,0,1,.87-.68h0c.8.09,1.68.17,2.7.24s1.87.09,2.85.13c3.5.14,7.48.3,11,1.47A.78.78,0,0,1,70,96.47Z"/><path class="cls-2" d="M75.73,44.78V40.51a.78.78,0,0,0-1.56,0v4.27a.78.78,0,1,0,1.56,0ZM58.89,52.34a.78.78,0,0,0,0-1.1L55.75,48.3a.79.79,0,0,0-1.09,1.13h0l3.1,2.94a.8.8,0,0,0,.54.21.75.75,0,0,0,.57-.25Zm7.21-5a.78.78,0,0,0,.41-1h0l-1.69-3.92a.78.78,0,0,0-1-.41.79.79,0,0,0-.41,1l1.69,3.92a.79.79,0,0,0,1,.41Zm25.78,5.06L95,49.44a.78.78,0,0,0,0-1.1.79.79,0,0,0-1.11,0h0l-3.1,2.94A.77.77,0,0,0,90,52a1.33,1.33,0,0,0,1.85.36Zm-7.29-5.47L86.28,43a.78.78,0,0,0-1.43-.64v0l-1.69,3.92a.78.78,0,0,0,.41,1,.82.82,0,0,0,.31.07A.78.78,0,0,0,84.59,46.91ZM81.1,56.38l1-3.25,2.65,3.25ZM80.56,58H84.7l-7.3,6.27ZM69.44,58l3.16,6.27L65.3,58Zm.9-2.21-1-3.43h4.08Zm6.28-3.43h4l-1,3.42ZM78.81,58,75,65.49,71.19,58Zm-6.94-1.57L75,52.85l3.14,3.53Zm-4-3.23,1,3.23H65.28Zm19.24,3.74L82.38,51a.79.79,0,0,0-.61-.29H68.23a.77.77,0,0,0-.6.29l-4.79,5.86A.78.78,0,0,0,62.93,58l11.56,9.93a.79.79,0,0,0,1,0L87.07,58a.78.78,0,0,0,.09-1.09Z"/></svg>