<svg xmlns="http://www.w3.org/2000/svg" xmlns:xlink="http://www.w3.org/1999/xlink" width="502" height="278" viewBox="0 0 502 278"><defs><path id="lolja" d="M860.415 554.62c0-6.265 25.286-11.344 56.478-11.344 31.191 0 56.477 5.079 56.477 11.343s-25.286 11.343-56.477 11.343c-31.192 0-56.478-5.079-56.478-11.343z"/><path id="loljb" d="M736.751 554.336c-.125.053-.26.08-.397.08zm-12.61-105.866v-.052l.058.029zm-20.378 15.795c.166.42.353.832.562 1.234v.051s2.675 9.883 3.928 11.958c.363.6.775 1.252 1.181 1.89-.08.47-.08.949 0 1.418.378 2.202.837 5.232.629 5.898-.208.666.25 2.325-.473 2.902s-1.465 1.578.751 2.906c0 0 .416 1.12.043 1.371-.043.028 0 .09.104.17-.61 1.806-1.503 4.726-.945 4.934.307.118 1.139-.316 2.051-.902.024.118.042.245.066.373.145.973.37 1.932.671 2.869.407.902.813 2.424.596 2.925-.218.501.595 1.617.406 2.056-.189.44.629 1.867.629 1.867s.813 2.77.78 3.705c-.034.936.879 6.971.879 6.971s-.946 3.115-.473 4.017c.473.903.78 4.018 0 5.17-.78 1.154-1.758 3.701-1.441 4.387.316.685-.44 9.154 1.47 12.642.244 1.298.422 2.607.533 3.923 0 .945 1.503 3.455 1.503 3.455s-.907 3.78 1.319 4.418c.153.048.312.078.472.09.068.414.013.838-.16 1.22a4.821 4.821 0 0 0-.794 1.758.473.473 0 0 0 .042.354c.25.279.946 4.017.946 4.017s1.002 4.202 6.517 3.176c0 0 3.729-.217 3.417-1.526a8.584 8.584 0 0 0-.406-1.267 8.167 8.167 0 0 1-.35-.817c-.062-.312-.846-1.187-.908-1.778-.061-.59-.562-1.743-.472-2.117.09-.373-.846-3.048-.912-3.644a6.176 6.176 0 0 0-.355-1.21l.199-.094s.5-2.803.066-3.828c-.435-1.026-2.165-2.363-2.165-2.363s.25-6.881-.061-7.817c-.312-.936.156-4.48.156-4.48s1.063-5.015 1.002-6.145c-.036-.699.07-1.398.312-2.055 0 0 .661-7.378 1.096-8.314.435-.936.945-10.085.945-10.085l.293.841a32.314 32.314 0 0 0 1.465 3.7c.241.379.946 1.589 1.55 2.6l.894 1.512s.406 1.465.123 2.363c-.284.898 2.916 5.757 2.916 5.757a2.88 2.88 0 0 0-.312 1.309c.09.473-.974 1.961-.974 1.961s-.406 1.338-.156 1.806c.25.468-.406 3.237-.406 3.237s-1.068 6.101-1.319 6.82c-.25.718.128 5.633.128 5.633s-1.966 5.034-1.054 6.707c.038.619.042 1.564-.199 1.947-.326.51-.231 2.396-.198 2.916v.137s-1.068 1.418.279 1.994c1.347.577 5.926.993 5.926.993s4.353 1.248 6.452 1.588c2.098.34 6.489.217 6.8-1.059.112-.396.15-.81.114-1.22a1.517 1.517 0 0 0-.865-1.209 35.58 35.58 0 0 0-3.951-1.31s-2.07-.472-2.26-1.37c-.188-.898-3.133-3.393-3.133-3.393s-.033-.175-.094-.411h.094l-.141-.142c-.147-.473-.383-1.097-.672-.978a.71.71 0 0 1 .322-.974c1.13-.619 1.82-2.58 1.503-4.698-.317-2.117-.374-1.744.283-2.958.408-.918.57-1.926.473-2.926l1.734-6.465c.272-.794.44-1.62.501-2.458.03-.658.2-1.303.501-1.89 0 0 .785-4.485 1.475-5.51.69-1.026-.473-4.642-.473-4.642s-1.063-5.6-1.002-8.157c.062-2.557-2.76-11.423-2.76-11.423a2.968 2.968 0 0 1-.434-1.933c.056-.53-.275-1.39-.648-2.16l-.118-.241c.144-.185.318-.345.515-.473.775-.472 1.14-1.715 1.144-2.59l-10.686-25.185c0-.076 4.948-10.185 4.934-10.26-.293-1.66-3.09-6.06-3.09-6.06a.355.355 0 0 0-.119-.136c-.629-.289-2.755-1.494-2.755-1.494-1.669-2.06-3.233-2.486-4.254-2.472a2.894 2.894 0 0 0-1.262.274l-.047.412a8.432 8.432 0 0 1 .222-2.836c.024-.08.047-.166.066-.246h.473a7.619 7.619 0 0 0 7.642-7.595c0-.711-.099-1.419-.293-2.103l-.038-.109.237-.104c.945-.35 2.131.246 2.897-.387.277-.275.476-.62.576-.997a5.988 5.988 0 0 0 .421-1.584v-.283a.508.508 0 0 0 0-.085.82.82 0 0 0 0-.104v-.128c0-.042 0 0 0 0a1.839 1.839 0 0 0-.406-.945c-.501-.586-1.338-.728-1.971-1.158a4.768 4.768 0 0 1-1.262-1.48 5.502 5.502 0 0 0-1.224-1.507 1.8 1.8 0 0 0-1.839-.288c-.185.126-.389.222-.605.283a1.262 1.262 0 0 1-.666-.18c-2.174-1.015-4.726-.836-7.09-.533a9.222 9.222 0 0 0-2.792.67c-.901.372-1.593 1.12-1.89 2.047-.195.733-.048 1.527-.28 2.25-.16.473-.472.907-.67 1.385-.097.25-.158.512-.18.78v.075c-.08 1.073.34 2.203.543 3.308.279 1.508.137 3.148.785 4.575.064.175.147.343.245.501-.226.473-.472.974-.708 1.442-.35-.1-1.418-.336-1.456.6a5.095 5.095 0 0 1-.52 2.193c-.05.04-.102.076-.156.109a.302.302 0 0 0-.175.307l-.123.094a.302.302 0 0 0-.15.052c-.067-.113-.285-.123-.975.7a13.28 13.28 0 0 1-3.133 2.41s-4.641 3.238-4.892 4.726c-.25 1.489-1.8 7.992-1.006 10.152z"/><path id="loljd" d="M726.065 567.502c-5.449 1.021-6.441-3.157-6.441-3.157s-.68-3.714-.946-3.993a.473.473 0 0 1-.042-.355 4.84 4.84 0 0 1 .784-1.748c.34-.402.062-2.075.062-2.075l6.314-1.607a9.47 9.47 0 0 1 .619 1.857c.066.586.993 3.252.898 3.62-.094.37.406 1.518.473 2.109.066.59.836 1.455.898 1.762.095.28.208.553.34.818.168.407.303.828.402 1.257.321 1.295-3.36 1.512-3.36 1.512z"/><path id="lolje" d="M726.065 567.502c-5.449 1.021-6.441-3.157-6.441-3.157s-.68-3.714-.946-3.993a.473.473 0 0 1-.042-.355l1.309 3.781s1.087 2.264 5.109 1.919c2.292-.189 3.417-.614 3.965-.945.169.407.303.828.402 1.257.326 1.276-3.356 1.493-3.356 1.493z"/><path id="loljf" d="M721.821 561.619s1.366.033 1.456-1.083z"/><path id="loljg" d="M745.509 525.024c-.68 1.02-1.456 5.478-1.456 5.478a4.688 4.688 0 0 0-.473 1.89 9.575 9.575 0 0 1-.472 2.448l-1.791 6.409a5.798 5.798 0 0 1-.473 2.906c-.648 1.21-.586.837-.279 2.945.307 2.108-.369 4.055-1.484 4.674-1.115.62.496 2.075.496 2.075s-7.122 1.919-8.61.742c-1.49-1.177.774-6.995.774-6.995s-.368-4.891-.122-5.605c.245-.714 1.3-6.782 1.3-6.782s.651-2.755.4-3.219c-.25-.463.157-1.796.157-1.796s1.054-1.488.945-1.951c.002-.452.109-.897.312-1.3 0 0-3.157-4.83-2.883-5.728.274-.898-.123-2.363-.123-2.363s-.397-.685-.879-1.503a118.99 118.99 0 0 0-1.536-2.585 33 33 0 0 1-1.441-3.677l-.293-.842s-.473 9.103-.946 10.03c-.472.926-1.082 8.27-1.082 8.27a5.142 5.142 0 0 0-.312 2.042c.062 1.143-.992 6.144-.992 6.144s-.473 3.53-.152 4.461c.322.931.062 7.77.062 7.77s1.701 1.333 2.136 2.363c.435 1.03-.061 3.81-.061 3.81s-4.953 2.476-7.156 1.824c-2.202-.653-1.3-4.396-1.3-4.396s-1.483-2.476-1.483-3.436a38.859 38.859 0 0 0-.53-3.903c-1.89-3.47-1.143-11.887-1.45-12.572-.308-.685.647-3.218 1.417-4.362.77-1.144.473-4.254 0-5.142-.472-.889.473-3.994.473-3.994s-.898-6.007-.865-6.933c.033-.926-.775-3.686-.775-3.686s-.804-1.418-.62-1.858c.185-.44-.618-1.55-.401-2.041.217-.492-.189-2.014-.59-2.912a18.653 18.653 0 0 1-.662-2.835c-.19-1.068-.327-2.009-.327-2.009l5.11-4.116 12.76-3.347 4.84-1.573 4.674 7.368s.472.77.912 1.659c.369.765.695 1.62.638 2.15-.078.67.076 1.347.435 1.919 0 0 2.783 8.823 2.722 11.342-.061 2.52.992 8.115.992 8.115s1.144 3.606.464 4.627z"/><path id="loljh" d="M716.84 529.637s5.45-2.32 7.056-.68c1.607 1.64-7.056.68-7.056.68z"/><path id="lolji" d="M719.903 530.563s-5.525 3.124-3.635 3.625c1.89.501 3.635-3.625 3.635-3.625z"/><path id="loljj" d="M736.373 527.874s-2.363.151-1.456.619c.908.468 1.456-.62 1.456-.62z"/><path id="loljk" d="M739.317 528.583c-.033.156-6.843 2.363-5.51 3.346 1.332.983 5.51-3.346 5.51-3.346z"/><path id="loljl" d="M717.643 547.53c1.021-.151 6.72-2.784 4.49-.893a4.443 4.443 0 0 1-4.49.893z"/><path id="loljm" d="M720.46 549.605s.496 1.923 2.387 1.673c1.89-.25-2.387-1.673-2.387-1.673z"/><path id="loljn" d="M718.882 553.508c.34-.094 4.395-1.952 4.49-1.082.094.87-3.871 2.363-4.178 1.919a1.663 1.663 0 0 1-.312-.837z"/><path id="loljo" d="M732.01 551.278c.473-.029 5.138-1.517 6.07-.185z"/><path id="loljp" d="M736.222 552.147s.803-.713 1.607-.34c.803.373-1.607.34-1.607.34z"/><path id="loljq" d="M725.942 559.823a1.38 1.38 0 0 0 1.05 1.087z"/><path id="loljr" d="M749.564 562.734c-.307 1.271-4.646 1.394-6.716 1.054-2.07-.34-6.38-1.579-6.38-1.579s-4.519-.435-5.851-.992c-1.333-.558-.28-1.98-.28-1.98v-.133c-.032-.52-.122-2.396.195-2.902.373-.59.155-2.51.155-2.51s6.409 1.239 6.532.653c.123-.586 1.115-1.418 1.579-1.612.463-.193.808 1.55.808 1.55s2.91 2.477 3.095 3.375c.185.898 2.226 1.361 2.226 1.361 1.326.355 2.63.79 3.904 1.3.475.223.8.678.856 1.2.033.41-.009.82-.123 1.215z"/><path id="loljs" d="M749.564 562.734c-.307 1.271-4.646 1.394-6.716 1.054-2.07-.34-6.38-1.579-6.38-1.579s-4.519-.435-5.851-.992c-1.333-.558-.28-1.98-.28-1.98v-.133l6.48 1.418s3.19 1.361 5.232 1.361c1.787 0 5.78.733 7.638-.378.035.414-.007.83-.123 1.229z"/><path id="loljt" d="M740.801 557.842s-.307 2.042-1.545 2.727z"/><path id="lolju" d="M760.646 482.584c-1.843.699-6.096.775-7.987.775h-.945l-1.215-2.477 1.215-2.065s1.116-.307 2.6-.577c2.188-.392 5.198-.7 6.616.185 2.382 1.479 2.127 3.275-.284 4.159z"/><path id="loljv" d="M732.493 452.946l.539-.62s2.764 4.377 3.053 6.027c.288 1.649.661 3.549.661 3.549s.7 2.146 1.158 3.096c.39.72.695 1.482.908 2.273.038.411-.166 1.318.7 1.89.864.572 1.072 2.146 1.072 2.146s3.138 3.053 4.792 3.138c1.654.085 6.395.907 6.234 1.73-.16.822 1.98 1.323 2.836 1.531.855.208-5.568 2.69-1.787 5.884 0 0-2.396.473-2.642 1.073-.245.6-2.764-.33-2.764-.33s-.54-1.282-2.397-1.362c-1.857-.08-2.807-.907-2.807-1.03s-1.857-1.158-2.888-1.447c-1.03-.288-2.396-.41-2.438-.704-.043-.293-6.191-26.83-6.191-26.83z"/><path id="loljw" d="M732.493 453.05l.539-.62s2.764 4.377 3.053 6.031c.288 1.654.661 3.55.661 3.55s.7 2.145 1.158 3.095c.39.719.694 1.48.908 2.269.038.416-.166 1.323.7 1.89.864.567 1.072 2.146 1.072 2.146s3.138 3.058 4.792 3.138c1.654.08 6.395.907 6.234 1.734-.16.828 1.98 1.324 2.836 1.527.855.203-5.568 2.694-1.787 5.875 0 0-2.396.472-2.642 1.072-.245.6-2.764-.33-2.764-.33s-.54-1.281-2.397-1.361c-1.857-.08-2.807-.908-2.807-1.036 0-.127-1.857-1.153-2.888-1.441-1.03-.288-2.396-.416-2.438-.704-.043-.288-6.191-26.835-6.191-26.835z"/><path id="loljx" d="M795.667 565.248c31.193 0 56.477 5.08 56.477 11.343 0 6.262-25.284 11.343-56.477 11.343-31.192 0-56.477-5.076-56.477-11.343"/><path id="loljy" d="M766.053 389.349l10.046-59.209 7.963 1.351-10.046 59.21z"/><path id="loljz" d="M793.465 569.119l1.767 12.619 1.513-13.12z"/><path id="loljA" d="M736.685 562.053v7.827l1.768 6.81h1.261l1.518-7.316.756-8.833z"/><path id="loljB" d="M733.088 531.522l3.781.757s-4.286 11.858-1.262 14.381h-4.787s-1.768-9.083 2.268-15.138z"/><path id="loljC" d="M758.387 388.95l-12.113 76.71s-17.912 81.761-11.101 97.91h8.582l25.739-156.954z"/><path id="loljD" d="M789.107 379.422l9.287 77.102s6.763 98.223-.643 114.107h-7.316l-13.072-173.964z"/><path id="loljE" d="M757.258 360.923a9.925 9.925 0 0 1 9.788-7.089c7.472.19 19.022 1.55 25.048 7.723 9.339 9.589-6.31 41.887-6.31 41.887s-14.65 27-28.006-7.316c-.02.029-5.558-18.346-.52-35.205z"/><path id="loljF" d="M762.395 367.483a7.09 7.09 0 0 1 6.971-5.038c5.317.137 13.54 1.106 17.818 5.501 6.65 6.825-4.49 29.822-4.49 29.822s-10.398 19.221-19.944-5.198c0-.015-3.947-13.082-.355-25.087z"/><path id="loljG" d="M805.658 547.922h.043a1.48 1.48 0 0 0 .619-.524 8.572 8.572 0 0 0 1.493-3.233c.275-.037.545-.105.804-.203-.357.34-.559.811-.558 1.304l2.666 1.304a.993.993 0 0 1 .472.374c.073.176.092.37.052.558-.075.61-.193 1.219-.269 1.824-.799-.237-1.583-.426-2.288-.615-1.002-.274-2.018-.529-3.034-.784zm-17.397 16.069c.08 1.22.27 2.5 1.04 3.455 1.276 1.578 3.597 1.701 5.582 2.197a24.57 24.57 0 0 1 4.414 1.74l4.296 2.032c-1.102.064-2.188.29-3.223.67-.553.204-1.158.54-1.239 1.116-.021.492.263.947.714 1.144.449.185.933.27 1.418.25 2.559.072 5.12-.062 7.656-.401l.303-.043c1.304.646 2.602 1.306 3.894 1.98.539.284 1.186 0 1.64-.396a8.695 8.695 0 0 0 1.456-1.664c.075.132.15.26.212.388.416.798.809 1.843.213 2.523-.473.53-1.366.62-1.635 1.262-.15.477.027.997.44 1.28a2.91 2.91 0 0 0 1.375.473c1.169.161 2.354.152 3.52-.028a2.836 2.836 0 0 0 1.702-.723 3.12 3.12 0 0 0 .605-1.89l.808-9.183a2.754 2.754 0 0 0-.094-1.305c-.322-.78-1.253-1.106-2.094-1.243h-.09c.7 0 1.418-.033 2.174-.033.659.043 1.32-.04 1.947-.246 1.2-.472 1.848-1.734 2.363-2.897.946-2.041 2.033-4.253 1.89-6.522l-.368-.165c-.033-2.415-1.044-4.67-1.418-7.028.41-.633.629-1.372.629-2.127a7.865 7.865 0 0 0-.534-2.42c-1.498-4.451-2.997-8.918-5-13.171a45.557 45.557 0 0 0-4.727-8.034c-.482-.63-.983-1.26-1.502-1.89-.379-.436-1.224-1.05-1.38-1.603-.156-.553.174-1.092 0-1.659a2.814 2.814 0 0 0-.17-.43c1.105-1.465.793-3.582.406-5.407l-.473-2.273a6.148 6.148 0 0 0-.586-1.8 5.263 5.263 0 0 0-1.13-1.281c-2.325-2.099-5.198-3.493-7.812-5.232-2.764-1.839-5.236-4.074-7.713-6.281-.756-.671-1.706-1.395-2.684-1.11-.978.283-1.385 1.341-1.418 2.305a4.755 4.755 0 0 0 1.536 3.564c1.71 1.564 4.296 1.692 6.333 2.798.7.406 1.365.87 1.99 1.385l5.917 4.645c.449.269.778.698.922 1.2.023.304-.026.608-.142.89-.222.68-.6 1.535-.88 2.4l-.472-.34a18.522 18.522 0 0 0-3.133-1.89 15.55 15.55 0 0 0-4.59-1.102c-3.492-.392-6.616.147-8.752 3.063a6.473 6.473 0 0 1-1.66 1.706 6.144 6.144 0 0 0-1.346.855c-1.097 1.215-.473 3.228.558 4.254a6.615 6.615 0 0 0 3.11 1.621 6.39 6.39 0 0 0 7.76 3.478c.073.609.087 1.223.042 1.834-.046.637.2 1.261.667 1.697.248.169.523.297.812.378 1.046.378 2.036.895 2.945 1.536a15.124 15.124 0 0 0-2.609 3.899 6.342 6.342 0 0 0 .473 5.898l.028.038c-.08.294-.227.566-.43.794-.599.467-1.46.38-1.952-.198a7.43 7.43 0 0 1-1.02-1.574 6.589 6.589 0 0 0-4.254-3.006 3.418 3.418 0 0 0-1.962.08 1.73 1.73 0 0 0-1.139 1.475c0 .713.52 1.304 1.03 1.81a30.062 30.062 0 0 0 5.2 4.3c.514.32 1.046.61 1.592.87-.945-.198-1.878-.392-2.798-.581a12.648 12.648 0 0 0-3.946-.345 4.405 4.405 0 0 0-3.308 1.928 4.253 4.253 0 0 0-.308 3.214 10.8 10.8 0 0 0 1.451 2.977 21.194 21.194 0 0 0 3.625 4.537 60.128 60.128 0 0 0-3.516 1.168c-1.153.425-2.363.945-2.892 2.004a4.593 4.593 0 0 0-.289 2.41z"/><path id="loljI" d="M806.154 522.817a5.11 5.11 0 0 0 3.97-.638c.234-.164.495-.286.77-.36a1.57 1.57 0 0 1 1.315.525c1.134 1.13 1.266 2.992.68 4.48-.586 1.49-1.763 2.662-2.996 3.678a27.19 27.19 0 0 1-3.153 2.24 5.842 5.842 0 0 0-3.232-3.143c-1.295-.501-2.24-1.843-2.982-3.015-.553-.87-1.045-.832-.549-1.73a13.08 13.08 0 0 1 1.966-2.363c.407-.43.762-.906 1.06-1.418.33-.595.254-.983.765-.51.335.312.472.987.86 1.351.43.418.953.727 1.526.903z"/><path id="loljJ" d="M810.214 513.601a2 2 0 0 0 .137-.874 2.051 2.051 0 0 0-.902-1.187l-5.78-4.584a14.185 14.185 0 0 0-1.938-1.366c-1.995-1.091-4.514-1.22-6.187-2.76a4.75 4.75 0 0 1-1.503-3.52c0-.946.473-2.014 1.366-2.279.893-.264 1.89.435 2.628 1.101 2.415 2.174 4.825 4.382 7.524 6.196 2.552 1.72 5.364 3.091 7.637 5.166.415.353.77.77 1.054 1.233.278.563.47 1.163.572 1.782l.473 2.24c.397 1.89.718 4.089-.553 5.54-.375.47-.94.749-1.54.76a3.035 3.035 0 0 1-1.187-.406c-.945-.473-2.656-.945-2.944-2.127-.37-1.479.694-3.544 1.143-4.915z"/><path id="loljK" d="M800.994 543.14a7.566 7.566 0 0 1-.998-1.55 6.432 6.432 0 0 0-4.15-2.969 3.337 3.337 0 0 0-1.89.076 1.706 1.706 0 0 0-1.11 1.46c0 .7.505 1.286 1.002 1.782a29.301 29.301 0 0 0 5.085 4.253 13.413 13.413 0 0 0 6.186 2.146c.223.027.448.006.662-.061a1.48 1.48 0 0 0 .605-.516c1.172-1.502 1.579-3.454 1.89-5.33-.113.675-3.917-.903-4.348-.7-.633.298-.571 1.186-1.03 1.612a1.366 1.366 0 0 1-1.904-.204z"/><path id="loljL" d="M828.712 557.989c.022.236-.024.474-.132.685-.26.407-.846.411-1.323.34a24.181 24.181 0 0 1-3.257-.784l-9.702-2.803a.883.883 0 0 1-.416-.203.859.859 0 0 1-.194-.425 11.416 11.416 0 0 1-.213-4.254c.012-.204.079-.402.194-.572.218-.201.506-.31.803-.302a41.135 41.135 0 0 1 4.575-.208c.992.042 1.985.02 2.973-.066 1.276-.151 2.746-.884 4.027-.77 1.11.094 1.063.945 1.177 1.89.316 2.51 1.465 4.91 1.488 7.472z"/><path id="loljM" d="M797.732 546.471a12.102 12.102 0 0 0-3.856-.345 4.29 4.29 0 0 0-3.228 1.89 4.201 4.201 0 0 0-.303 3.177 10.986 10.986 0 0 0 1.418 2.935 19.294 19.294 0 0 0 4.145 4.99c.827.657 1.74 1.2 2.533 1.89 1.692 1.48 2.742 3.545 3.748 5.554.945 1.89 1.89 3.819 2.297 5.898a.59.59 0 0 0 .203.42.562.562 0 0 0 .421.03l4.655-.861a.728.728 0 0 0 .652-1.106 32.572 32.572 0 0 0-5.553-12.01 10.658 10.658 0 0 0 9.367 2.714 3.66 3.66 0 0 0 1.777-.77c1.04-.946.993-2.557.761-3.933a28.858 28.858 0 0 0-.86-3.625c-.874-2.835-4.646-3.601-7.203-4.291a188.462 188.462 0 0 0-10.974-2.557z"/><path id="loljN" d="M801.178 556.519a5.118 5.118 0 0 1 1.767 1.172c-.836-.945-3.228-1.418-4.4-1.857-1.45-.54-3.034-1.092-4.253-2.051a50.994 50.994 0 0 1 6.886 2.736z"/><path id="loljO" d="M816.254 576.44c.402.794.785 1.82.208 2.495-.444.52-1.333.61-1.597 1.243-.15.47.025.984.43 1.267a2.78 2.78 0 0 0 1.342.472 11.99 11.99 0 0 0 3.44-.028 2.76 2.76 0 0 0 1.66-.714 3.11 3.11 0 0 0 .59-1.89l.79-9.065c.07-.431.039-.873-.09-1.29-.317-.77-1.224-1.087-2.047-1.224a10.988 10.988 0 0 0-2.783-.114 2.94 2.94 0 0 0-1.735.596 3.352 3.352 0 0 0-.817 1.89c-.213 1.078-.809 2.571-.68 3.663.08.903.892 1.905 1.29 2.699z"/><path id="loljP" d="M805.819 573.51a11.036 11.036 0 0 0-5.25.59c-.54.199-1.13.534-1.21 1.101-.023.485.255.934.699 1.13.44.182.914.268 1.39.25a47.088 47.088 0 0 0 7.476-.397 4.021 4.021 0 0 0 1.82-.572c.562-.356.8-1.057.571-1.682-.297-.624-1.11-.818-1.502-1.38-.284-.406-.355-1.007-.8-1.22-.335-.106-.699-.08-1.015.076-.473.166-1.607.331-1.933.723a5.43 5.43 0 0 0-.246 1.38z"/><path id="loljQ" d="M792.921 521.57a6.205 6.205 0 1 1 12.411 0 6.205 6.205 0 0 1-12.41 0z"/><path id="loljR" d="M813.844 518.838c-.997-.733-2.254-.984-3.47-1.21a1.815 1.815 0 0 0-1.247.061 1.843 1.843 0 0 0-.6.737 6.856 6.856 0 0 0-.822 1.962 2.278 2.278 0 0 0 .472 1.999c.369.378.898.567 1.276.945.498.555.704 1.311.558 2.042a6.114 6.114 0 0 1-.827 2.018 34.193 34.193 0 0 1-3.11 4.575c-1.205 1.498-2.557 2.94-3.266 4.726a6.323 6.323 0 0 0 .473 5.822c1.148 1.673 3.436 2.571 5.331 1.848a1.758 1.758 0 0 0-.539 1.286l2.6 1.29c.192.07.357.2.472.369.07.174.086.365.047.548a17.244 17.244 0 0 0-.316 3.18c.07 1.064.558 2.184 1.522 2.647.884.425 1.933.199 2.897 0a36.166 36.166 0 0 1 6.838-.718c1.144 0 2.326.028 3.38-.416a4.017 4.017 0 0 0 2.396-3.634 7.749 7.749 0 0 0-.525-2.392c-1.46-4.395-2.925-8.8-4.882-13.001a45.684 45.684 0 0 0-4.636-7.94 31.894 31.894 0 0 0-1.47-1.848c-.369-.43-1.196-1.035-1.347-1.584-.151-.548.17-1.077 0-1.635a3.307 3.307 0 0 0-1.205-1.677z"/><path id="loljS" d="M829.071 558.116c-2.722-1.257-5.444-2.514-8.275-3.492-2.084-.719-4.41-1.281-6.456-.473-.614.246-1.172.6-1.763.889-1.98.945-4.253 1.106-6.442 1.347a60.493 60.493 0 0 0-14.249 3.388c-1.101.407-2.287.945-2.835 1.976a4.522 4.522 0 0 0-.303 2.363c.08 1.205.265 2.472 1.016 3.412 1.248 1.56 3.512 1.678 5.45 2.17a23.886 23.886 0 0 1 4.314 1.72c4.528 2.16 9.06 4.32 13.503 6.659.52.279 1.153 0 1.597-.392a9.824 9.824 0 0 0 2.789-4.594c.482-1.752.72-3.562.709-5.379 1.739 0 3.152-.075 4.891-.075.64.04 1.282-.042 1.89-.241 1.168-.473 1.801-1.716 2.326-2.86.936-2.018 1.99-4.206 1.838-6.418z"/><path id="loljT" d="M797.463 564.577c1.224-.595 2.642-.61 4.008-.6.833-.015 1.665.048 2.486.189a19.63 19.63 0 0 1 3.634 1.366 23.073 23.073 0 0 0 9.16 1.796"/><path id="loljU" d="M790.402 522.448a6.768 6.768 0 0 0 3.346 1.678c1.23.284 2.496.392 3.734.666 1.522.336 3.185 1.14 3.53 2.661.08.61.096 1.226.048 1.839-.046.62.188 1.229.638 1.659.243.165.511.29.794.373a13.233 13.233 0 0 1 8.507 12.212 6.016 6.016 0 0 0 2.92-4.31c0 1.645 1.418 3.308.615 4.778a7.562 7.562 0 0 0 1.82-10.988c-.624-.794-1.418-1.456-2.07-2.217a10.275 10.275 0 0 1-2.449-7.845c.137-1.196.473-2.406.222-3.582-.363-1.63-1.796-2.765-3.157-3.734a18.148 18.148 0 0 0-3.062-1.862 15.058 15.058 0 0 0-4.485-1.092c-3.408-.383-6.437.147-8.55 3.025a6.226 6.226 0 0 1-1.616 1.682 6.093 6.093 0 0 0-1.319.846c-1.082 1.2-.468 3.186.534 4.211z"/><path id="loljV" d="M726.665 453.253c-.193-.08-13.663-5.643-11.815-6.749 1.101-.657 2.458-3.436 3.384-5.614a54.915 54.915 0 0 0 1.087-2.746s10.814-1.92 6.943 4.726a12.33 12.33 0 0 0-1.366 3.266c-1.115 4.49 1.659 7.032 1.768 7.117z"/><path id="loljW" d="M726.25 442.85a12.33 12.33 0 0 0-1.366 3.267 7.562 7.562 0 0 1-6.38-4.49 6.614 6.614 0 0 1-.284-.737c.647-1.518 1.087-2.746 1.087-2.746s10.813-1.92 6.943 4.707z"/><path id="loljX" d="M732.97 438.333a7.562 7.562 0 0 1-14.466 3.048 7.462 7.462 0 0 1-.643-3.048 7.562 7.562 0 0 1 14.816-2.094c.194.681.293 1.386.293 2.094z"/><path id="loljY" d="M740.258 496.866a4.6 4.6 0 0 0-1.097 2.089s-3.714 2.538-3.468.945c.245-1.593-1.938-8.129-1.938-8.129l.245 8.857s-11.886-.558-12.76-1.418c-.874-.86-5.917-2.547-5.917-2.547s-1.555 1.247-2.987 2.192c-.19-1.068-.326-2.008-.326-2.008l5.109-4.117 12.76-3.346 4.793-1.54 4.674 7.368s.482.765.912 1.654z"/><path id="loljZ" d="M740.645 496.166c-.987.62-1.36 2.292-1.36 2.292s-3.715 2.538-3.47.946c.246-1.593-1.919-8.11-1.919-8.11l.251 8.856s-11.89-.557-12.76-1.417c-.87-.86-5.946-2.538-5.946-2.538s-4.395 3.53-5.199 3.218c-.803-.312 1.418-6.314 1.418-6.314l2.288-35.172s-.62-10.463.311-10.837a1.23 1.23 0 0 0 .388-.246c.614-.548.799-1.663.85-2.604.062-1.11 1.546-.557 1.546-.557l-.865 1.115 7.676 4.665.066.042c.307-.158.622-.298.945-.42.68-.26 1.583-.506 2.174-.26.33.169.61.421.813.732.439.658.79 1.37 1.044 2.118l2.789 4.702s1.418 6.257 1.418 6.503c0 .246.434 5.946.945 6.565.51.619.992 3.715.808 4.646-.184.93.307 4.395.307 4.395 2.047 1.673 3.096 7.368 3.096 7.368s3.223 6.38 3.469 7.122-.09 2.571-1.083 3.19z"/><path id="loljaa" d="M723.863 449.685c-.756 1.115-2.93 2.68-2.93 2.68l-6.277-5.298c.615-.549.8-1.669.851-2.604.062-1.116 1.546-.558 1.546-.558l-.18.231a1.002 1.002 0 0 0 .27 1.466z"/><path id="loljab" d="M723.863 449.434c-.756 1.116-2.93 2.685-2.93 2.685l-6.277-5.303c.615-.548.8-1.663.851-2.604.062-1.11 1.546-.558 1.546-.558l-.18.232a1.002 1.002 0 0 0 .27 1.465z"/><path id="loljac" d="M726.765 450.27c-.813.97-1.962 2.071-1.89 1.518.07-.553-.686-1.768-1.154-2.311a3.45 3.45 0 0 1 2.25.061c.323.172.596.425.794.733z"/><path id="loljad" d="M726.888 449.898c-.813.973-1.962 2.07-1.89 1.521.07-.548-.61-1.446-1.083-1.99.68-.26 1.583-.505 2.174-.26.326.169.601.42.799.729z"/><path id="loljae" d="M714.661 447.123s.08-.742-.992.54c-.9.938-1.936 1.738-3.072 2.372 0 0-4.58 3.223-4.83 4.726-.25 1.503-1.735 7.925-.946 10.071.79 2.146 6.773 12.43 6.773 12.43s-1.57 1.857-1.2 4.045c.368 2.189.827 5.2.619 5.86-.208.662.25 2.312-.473 2.888-.723.577-1.442 1.57.747 2.893 0 0 .41 1.115.037 1.361s5.492 2.807 7.803 1.446 6.485-12.26 6.565-14.698c.08-2.439-1.28-10.483-2.023-12.382-.742-1.9-2.973-9.292-3.923-10.941-.95-1.65-5.085-10.61-5.085-10.61z"/><path id="loljaf" d="M714.41 447.123s.086-.742-.987.54a13.087 13.087 0 0 1-3.096 2.39s-4.584 3.224-4.83 4.727c-.246 1.503-1.734 7.925-.945 10.071.79 2.146 6.768 12.43 6.768 12.43s-1.57 1.857-1.196 4.045c.373 2.189.827 5.199.62 5.86-.209.662.245 2.312-.473 2.888-.719.577-1.447 1.57.742 2.893 0 0 .416 1.115.042 1.361-.373.246 5.492 2.807 7.803 1.446s6.48-12.26 6.565-14.698c.085-2.439-1.281-10.483-2.023-12.383-.742-1.9-2.973-9.291-3.923-10.94-.95-1.65-5.066-10.63-5.066-10.63z"/><path id="loljag" d="M712.761 454.142s3.55 3.922 3.427 6.522c0 0 .042-4.211-3.427-6.522z"/><path id="loljah" d="M724.742 448.527s2.302-1.418 5.199 2.188c0 0 2.103 1.196 2.722 1.489.62.293 1.323 7.963 1.323 7.963s1.361 3.309.988 5.2c-.373 1.89 1.078 8.421 1.078 8.421s2.391 11.726 2.31 12.052c-.08.326-2.438-3.672-2.395-5.672.042-1.999-1.98-8.176-2.269-8.544-.288-.37-2.273-10.984-2.273-10.984s-1.607-4.5-2.642-5.983c-1.035-1.484-2.311-4.296-2.836-4.793a5.457 5.457 0 0 0-1.276-.822z"/><path id="loljai" d="M724.714 448.527s2.58-1.418 5.468 2.188c0 0 2.108 1.196 2.727 1.489.619.293 1.318 7.963 1.318 7.963s1.362 3.309.993 5.2c-.369 1.89 1.073 8.421 1.073 8.421s2.396 11.726 2.31 12.052c-.084.326-2.433-3.672-2.395-5.672.037-1.999-1.98-8.176-2.269-8.544-.288-.37-2.268-10.984-2.268-10.984s-1.612-4.461-2.642-5.96c-1.03-1.498-2.316-4.296-2.836-4.792a5.168 5.168 0 0 0-1.527-.822z"/><path id="loljaj" d="M736.047 474.327s4.91-3.219 7.283-1.63c2.372 1.587 6.257 3.842 2.439 5.472-3.82 1.63-9.103 1.319-9.103 1.319z"/><path id="loljak" d="M732.63 505.392c-.733 1.574-1.338 9.452-1.749 11.966a119.118 119.118 0 0 0-1.536-2.585 32.983 32.983 0 0 1-1.441-3.677c.472-1.134 1.753-4.386 1.753-5.577 0-1.455 2.363-3.284 2.363-3.284a2.732 2.732 0 0 1 .61 3.157z"/><path id="loljal" d="M732.677 436.24a2.242 2.242 0 0 1-.368.15c-.582.156-1.149-.236-1.664-.548-.515-.312-1.229-.543-1.678-.137-.581.53-.16 1.659-.76 2.17-.379.325-.979.212-1.419.472-.44.26-.548.85-.656 1.352-.11.5-.317 1.077-.813 1.224-.497.146-.946-.175-1.418-.161-.1 0-.218 0-.284-.057a.302.302 0 0 1-.047-.222 4.84 4.84 0 0 0-.16-1.791 1.716 1.716 0 0 0-1.258-1.182c-.87-.132-1.602.629-2.113 1.347a21.923 21.923 0 0 0-1.46 2.363c-.024.043-.047.1-.075.166a7.462 7.462 0 0 1-.643-3.049 7.562 7.562 0 0 1 14.816-2.093z"/><path id="loljam" d="M720.049 438.74c.51-.72 1.243-1.48 2.112-1.348.6.14 1.08.588 1.258 1.177.165.582.218 1.19.156 1.791a.33.33 0 0 0 .052.227c.066.076.184.062.283.057.473 0 .969.298 1.418.16.449-.137.709-.723.813-1.224.104-.5.222-1.077.657-1.351.435-.274 1.025-.156 1.418-.473.6-.51.18-1.645.76-2.17.45-.406 1.163-.174 1.678.138.515.312 1.083.704 1.664.548.192-.068.38-.149.562-.24.922-.35 2.113.245 2.864-.384.274-.275.471-.617.572-.992a6.096 6.096 0 0 0 .416-1.574 2.117 2.117 0 0 0-.416-1.54c-.472-.577-1.323-.724-1.952-1.15-.51-.4-.932-.9-1.243-1.469a5.428 5.428 0 0 0-1.21-1.503 1.777 1.777 0 0 0-1.819-.284 1.89 1.89 0 0 1-.596.28 1.191 1.191 0 0 1-.657-.18c-2.145-1.012-4.645-.832-6.999-.53-.95.075-1.881.3-2.76.667a3.309 3.309 0 0 0-1.862 2.037c-.19.728-.043 1.517-.274 2.235-.156.473-.473.903-.662 1.38-.5 1.305.1 2.741.355 4.117.278 1.503.137 3.128.775 4.551.127.279.264.766.581.581.232-.137.473-.945.59-1.176.44-.816.93-1.603 1.466-2.359z"/><path id="loljan" d="M706.447 462.937l-1.115 3.166s2.642 9.826 3.88 11.891c1.238 2.066 3.053 4.726 3.053 4.726a11.341 11.341 0 0 0 6.617.823c3.549-.7 13.909-2.557 13.909-2.557a1.38 1.38 0 0 0 1.323-.496c.472-.662 2.807-.993 2.807-.993s2.722-3.96-.619-5.614c0 0-.411.912-2.188.288-1.777-.624-2.311.496-2.311.496s-2.893.582-4.5.374c-1.606-.208-5.614-.289-6.03-.62a.524.524 0 0 0-.742.043 4.505 4.505 0 0 1-1.319-.747c-.33-.368-.784.416-.784.416s-.582-.33-.416-.742c.165-.411-.534-1.985-.534-1.985a3.998 3.998 0 0 1-.123-1.857c.203-.827-1.035-3.781-1.035-3.781a5.361 5.361 0 0 1 .165-1.489c.208-.742-1.569-2.23-1.569-2.23s-1.734-8.418-5.406-5.672c-3.673 2.746-3.063 6.56-3.063 6.56z"/><path id="loljao" d="M706.197 462.937l-1.116 3.166s2.642 9.826 3.88 11.891c1.239 2.066 3.058 4.726 3.058 4.726a11.314 11.314 0 0 0 6.617.823c3.554-.7 13.914-2.557 13.914-2.557a1.38 1.38 0 0 0 1.323-.496c.472-.662 2.807-.993 2.807-.993s2.722-3.96-.619-5.614c0 0-.416.912-2.188.288-1.772-.624-2.316.496-2.316.496s-2.888.582-4.5.374c-1.61-.208-5.614-.289-6.025-.62a.524.524 0 0 0-.742.043 4.51 4.51 0 0 1-1.323-.747c-.331-.368-.785.416-.785.416s-.577-.33-.411-.742c.165-.411-.539-1.985-.539-1.985a4.068 4.068 0 0 1-.123-1.857c.208-.827-1.03-3.781-1.03-3.781a5.16 5.16 0 0 1 .165-1.489c.204-.742-1.569-2.23-1.569-2.23s-1.734-8.418-5.406-5.672c-3.673 2.746-3.072 6.56-3.072 6.56z"/><path id="loljap" d="M716.396 472.512s-4.046.827-2.685 1.527c1.361.7 2.685-1.527 2.685-1.527z"/><path id="loljaq" d="M723.41 437.87a1.701 1.701 0 0 0-1.258-1.177c-.87-.133-1.602.628-2.112 1.342a22.814 22.814 0 0 0-1.466 2.363c-.132.246-.359 1.04-.59 1.177-.317.184-.473-.307-.582-.586-.638-1.418-.472-3.049-.775-4.551a26.275 26.275 0 0 1-.534-2.652c-.094 1.078.33 2.212.534 3.308.28 1.503.137 3.13.775 4.552.128.279.265.765.582.581.231-.137.472-.945.59-1.172.44-.817.929-1.607 1.466-2.363.51-.718 1.242-1.48 2.112-1.342a1.701 1.701 0 0 1 1.257 1.176c.102.305.158.624.166.946a4.251 4.251 0 0 0-.166-1.602z"/><path id="loljar" d="M736.307 433.966c-.1.374-.297.715-.572.988-.751.628-1.942.037-2.864.387-.19.07-.364.184-.562.241-.582.151-1.149-.236-1.664-.548-.515-.312-1.229-.548-1.678-.142-.581.53-.16 1.659-.76 2.17-.379.325-.98.212-1.419.472-.44.26-.548.846-.656 1.347-.11.5-.317 1.077-.813 1.224-.497.146-.946-.175-1.418-.156-.1 0-.218 0-.284-.057a.131.131 0 0 1-.033-.061v.496a.326.326 0 0 0 .052.222c.066.076.184.062.284.062.472 0 .969.293 1.417.156.45-.137.71-.719.813-1.224.104-.506.223-1.073.657-1.347.435-.274 1.026-.156 1.418-.473.6-.51.18-1.64.761-2.17.45-.406 1.163-.174 1.678.138.515.312 1.082.704 1.663.548a5.88 5.88 0 0 0 .563-.236c.921-.35 2.112.24 2.864-.388.274-.273.471-.614.572-.988a6.181 6.181 0 0 0 .416-1.578c.02-.184.021-.37 0-.553a7 7 0 0 1-.435 1.47z"/><path id="loljas" d="M634.544 553.438c0-2.055 8.658-3.72 19.339-3.72 10.68 0 19.34 1.665 19.34 3.72 0 2.054-8.66 3.719-19.34 3.719s-19.34-1.665-19.34-3.72z"/><path id="loljat" d="M651.312 551.859c0-1.629 1.007-2.95 2.25-2.95 1.242 0 2.25 1.321 2.25 2.95 0 1.629-1.008 2.95-2.25 2.95-1.243 0-2.25-1.321-2.25-2.95z"/><path id="loljau" d="M651.312 548.258c0-1.63 1.007-2.95 2.25-2.95 1.242 0 2.25 1.32 2.25 2.95 0 1.628-1.008 2.949-2.25 2.949-1.243 0-2.25-1.32-2.25-2.95z"/><path id="loljav" d="M651.312 544.656c0-1.628 1.007-2.949 2.25-2.949 1.242 0 2.25 1.32 2.25 2.95 0 1.628-1.008 2.948-2.25 2.948-1.243 0-2.25-1.32-2.25-2.949z"/><path id="loljaw" d="M651.312 541.05c0-1.628 1.007-2.949 2.25-2.949 1.242 0 2.25 1.32 2.25 2.95 0 1.628-1.008 2.948-2.25 2.948-1.243 0-2.25-1.32-2.25-2.949z"/><path id="loljax" d="M651.312 537.45c0-1.63 1.007-2.95 2.25-2.95 1.242 0 2.25 1.32 2.25 2.95 0 1.628-1.008 2.948-2.25 2.948-1.243 0-2.25-1.32-2.25-2.949z"/><path id="loljay" d="M651.312 533.848c0-1.629 1.007-2.95 2.25-2.95 1.242 0 2.25 1.321 2.25 2.95 0 1.628-1.008 2.949-2.25 2.949-1.243 0-2.25-1.32-2.25-2.95z"/><path id="loljaz" d="M651.312 530.246c0-1.628 1.007-2.949 2.25-2.949 1.242 0 2.25 1.32 2.25 2.95 0 1.628-1.008 2.949-2.25 2.949-1.243 0-2.25-1.32-2.25-2.95z"/><path id="loljaA" d="M661.988 505.595c.308-.392.588-.806.837-1.238l-5.913-.97 6.395.048a10.809 10.809 0 0 0 .208-8.545l-8.583 4.452 7.93-5.827a10.785 10.785 0 1 0-17.812 12.07c-.48.61-.892 1.268-1.229 1.966l7.675 3.99-8.185-2.751a10.766 10.766 0 0 0 1.739 10.128 10.785 10.785 0 1 0 16.953 0 10.785 10.785 0 0 0 0-13.333z"/><path id="loljaB" d="M642.725 512.259c-.004 2.42.81 4.77 2.31 6.668a10.785 10.785 0 1 0 16.953 0c1.447-1.833-19.263-7.878-19.263-6.668z"/><path id="loljaC" d="M958.284 587.938c0-2.054 8.659-3.72 19.34-3.72 10.68 0 19.339 1.666 19.339 3.72 0 2.054-8.659 3.72-19.34 3.72-10.68 0-19.339-1.666-19.339-3.72z"/><path id="loljaD" d="M975.052 586.36c0-1.629 1.008-2.95 2.25-2.95 1.243 0 2.25 1.321 2.25 2.95 0 1.628-1.007 2.949-2.25 2.949-1.242 0-2.25-1.32-2.25-2.95z"/><path id="loljaE" d="M975.052 582.758c0-1.628 1.008-2.949 2.25-2.949 1.243 0 2.25 1.32 2.25 2.95 0 1.628-1.007 2.949-2.25 2.949-1.242 0-2.25-1.32-2.25-2.95z"/><path id="loljaF" d="M975.052 579.157c0-1.629 1.008-2.949 2.25-2.949 1.243 0 2.25 1.32 2.25 2.95 0 1.628-1.007 2.948-2.25 2.948-1.242 0-2.25-1.32-2.25-2.949z"/><path id="loljaG" d="M975.052 575.551c0-1.629 1.008-2.949 2.25-2.949 1.243 0 2.25 1.32 2.25 2.95 0 1.628-1.007 2.948-2.25 2.948-1.242 0-2.25-1.32-2.25-2.949z"/><path id="loljaH" d="M975.052 571.95c0-1.629 1.008-2.95 2.25-2.95 1.243 0 2.25 1.321 2.25 2.95 0 1.629-1.007 2.949-2.25 2.949-1.242 0-2.25-1.32-2.25-2.95z"/><path id="loljaI" d="M975.052 568.348c0-1.628 1.008-2.949 2.25-2.949 1.243 0 2.25 1.32 2.25 2.95 0 1.628-1.007 2.949-2.25 2.949-1.242 0-2.25-1.32-2.25-2.95z"/><path id="loljaJ" d="M975.052 564.747c0-1.629 1.008-2.949 2.25-2.949 1.243 0 2.25 1.32 2.25 2.95 0 1.628-1.007 2.948-2.25 2.948-1.242 0-2.25-1.32-2.25-2.949z"/><path id="loljaK" d="M985.729 540.096c.308-.393.587-.807.836-1.239l-5.912-.968 6.395.047a10.81 10.81 0 0 0 .207-8.545l-8.582 4.452 7.93-5.827a10.785 10.785 0 1 0-17.813 12.07c-.48.609-.892 1.268-1.228 1.966l7.675 3.989-8.186-2.75a10.766 10.766 0 0 0 1.74 10.128 10.785 10.785 0 1 0 16.952 0 10.785 10.785 0 0 0 0-13.333z"/><path id="loljaL" d="M966.465 546.76c-.003 2.42.811 4.77 2.311 6.668a10.785 10.785 0 1 0 16.953 0c1.446-1.834-19.264-7.878-19.264-6.668z"/><path id="loljaM" d="M717.289 330.421a7.217 7.217 0 1 1 14.434 0 7.217 7.217 0 0 1-14.434 0z"/><path id="loljaN" d="M722.214 356.949c0-6.682 5.416-12.1 12.098-12.1 6.683 0 12.1 5.418 12.1 12.1 0 6.682-5.418 12.099-12.1 12.099-6.682 0-12.098-5.417-12.098-12.1z"/><path id="loljaO" d="M981.716 417.382a7.217 7.217 0 1 1 14.434 0 7.217 7.217 0 0 1-14.434 0z"/><path id="loljaP" d="M951.01 385.202c0-6.682 5.418-12.1 12.1-12.1 6.682 0 12.098 5.418 12.098 12.1 0 6.682-5.416 12.098-12.098 12.098s-12.1-5.416-12.1-12.098z"/><path id="loljaQ" d="M967.028 443.91c0-6.683 5.416-12.1 12.098-12.1 6.683 0 12.1 5.418 12.1 12.1 0 6.682-5.418 12.098-12.1 12.098-6.682 0-12.098-5.416-12.098-12.098z"/><path id="loljaR" d="M879.85 405.878a4.088 4.088 0 1 1 8.175 0 4.088 4.088 0 0 1-8.176 0z"/><path id="loljaS" d="M894.609 390.405a6.853 6.853 0 1 1 13.706 0 6.853 6.853 0 0 1-13.706 0z"/><path id="loljaT" d="M861.81 401.034a6.853 6.853 0 1 1 13.705 0 6.853 6.853 0 0 1-13.706 0z"/><path id="loljaU" d="M618.593 353.404c0-9.462 7.67-17.132 17.132-17.132 9.462 0 17.132 7.67 17.132 17.132 0 9.462-7.67 17.132-17.132 17.132-9.462 0-17.132-7.67-17.132-17.132z"/><path id="loljaV" d="M723.67 410.118c0-5.46 4.426-9.887 9.886-9.887 5.46 0 9.887 4.426 9.887 9.887 0 5.46-4.426 9.887-9.887 9.887-5.46 0-9.887-4.427-9.887-9.887z"/><path id="loljaW" d="M821.5 474.393c0-5.46 4.427-9.887 9.887-9.887 5.46 0 9.887 4.427 9.887 9.887 0 5.46-4.426 9.887-9.887 9.887-5.46 0-9.887-4.426-9.887-9.887z"/><path id="loljaX" d="M597.406 554.855c0-6.264 25.285-11.342 56.477-11.342 31.192 0 56.477 5.078 56.477 11.342 0 6.265-25.285 11.343-56.477 11.343-31.192 0-56.477-5.078-56.477-11.343z"/><path id="loljaY" d="M921.146 588.41c0-6.264 25.286-11.342 56.478-11.342 31.191 0 56.477 5.078 56.477 11.343 0 6.264-25.286 11.343-56.477 11.343-31.192 0-56.478-5.079-56.478-11.343z"/><path id="loljaZ" d="M533.603 588.41c0-6.264 25.286-11.342 56.477-11.342 31.192 0 56.477 5.078 56.477 11.343 0 6.264-25.285 11.343-56.477 11.343-31.191 0-56.477-5.079-56.477-11.343z"/><linearGradient id="loljc" x1="757.16" x2="757.16" y1="567.66" y2="425.68" gradientUnits="userSpaceOnUse"><stop offset="0" stop-color="gray" stop-opacity=".25"/><stop offset=".54" stop-color="gray" stop-opacity=".12"/><stop offset="1" stop-color="gray" stop-opacity=".1"/></linearGradient><linearGradient id="loljH" x1="749.6" x2="790.94" y1="539.03" y2="539.03" gradientUnits="userSpaceOnUse"><stop offset="0" stop-color="gray" stop-opacity=".25"/><stop offset=".54" stop-color="gray" stop-opacity=".12"/><stop offset="1" stop-color="gray" stop-opacity=".1"/></linearGradient></defs><g><g transform="translate(-533 -323)"><use fill="#fff" fill-opacity="0" stroke="#444053" stroke-miterlimit="50" xlink:href="#lolja"/></g><g transform="translate(-533 -323)"><use fill="url(#loljc)" xlink:href="#loljb"/></g><g transform="translate(-533 -323)"><use fill="#444053" xlink:href="#loljd"/></g><g opacity=".1" transform="translate(-533 -323)"><use xlink:href="#lolje"/></g><g opacity=".1" transform="translate(-533 -323)"><use xlink:href="#loljf"/></g><g transform="translate(-533 -323)"><use fill="#3f3d56" xlink:href="#loljg"/></g><g opacity=".1" transform="translate(-533 -323)"><use xlink:href="#loljh"/></g><g opacity=".1" transform="translate(-533 -323)"><use xlink:href="#lolji"/></g><g opacity=".1" transform="translate(-533 -323)"><use xlink:href="#loljj"/></g><g opacity=".1" transform="translate(-533 -323)"><use xlink:href="#loljk"/></g><g opacity=".1" transform="translate(-533 -323)"><use xlink:href="#loljl"/></g><g opacity=".1" transform="translate(-533 -323)"><use xlink:href="#loljm"/></g><g opacity=".1" transform="translate(-533 -323)"><use xlink:href="#loljn"/></g><g opacity=".1" transform="translate(-533 -323)"><use xlink:href="#loljo"/></g><g opacity=".1" transform="translate(-533 -323)"><use xlink:href="#loljp"/></g><g opacity=".1" transform="translate(-533 -323)"><use xlink:href="#loljq"/></g><g transform="translate(-533 -323)"><use fill="#444053" xlink:href="#loljr"/></g><g opacity=".1" transform="translate(-533 -323)"><use xlink:href="#loljs"/></g><g opacity=".1" transform="translate(-533 -323)"><use xlink:href="#loljt"/></g><g transform="translate(-533 -323)"><use fill="#a1616a" xlink:href="#lolju"/></g><g transform="translate(-533 -323)"><use fill="#fdc830" xlink:href="#loljv"/></g><g opacity=".05" transform="translate(-533 -323)"><use xlink:href="#loljw"/></g><g transform="translate(-533 -323)"><use fill="#fff" fill-opacity="0" stroke="#444053" stroke-miterlimit="50" xlink:href="#loljx"/></g><g transform="translate(-533 -323)"><use fill="#444053" xlink:href="#loljy"/></g><g transform="translate(-533 -323)"><use fill="#d0d2d5" xlink:href="#loljz"/></g><g transform="translate(-533 -323)"><use fill="#3f3d56" xlink:href="#loljA"/></g><g transform="translate(-533 -323)"><use fill="#d0d2d5" xlink:href="#loljB"/></g><g opacity=".1" transform="translate(-533 -323)"><use xlink:href="#loljB"/></g><g transform="translate(-533 -323)"><use fill="#d0d2d5" xlink:href="#loljC"/></g><g transform="translate(-533 -323)"><use fill="#d0d2d5" xlink:href="#loljD"/></g><g transform="translate(-533 -323)"><use fill="#444053" xlink:href="#loljE"/></g><g opacity=".1" transform="translate(-533 -323)"><use xlink:href="#loljE"/></g><g transform="translate(-533 -323)"><use fill="#444053" xlink:href="#loljF"/></g><g transform="translate(-533 -323)"><use fill="url(#loljH)" xlink:href="#loljG"/></g><g transform="translate(-533 -323)"><use fill="#fabdbd" xlink:href="#loljI"/></g><g transform="translate(-533 -323)"><use fill="#fabdbd" xlink:href="#loljJ"/></g><g transform="translate(-533 -323)"><use fill="#fabdbd" xlink:href="#loljK"/></g><g transform="translate(-533 -323)"><use fill="#fabdbd" xlink:href="#loljL"/></g><g transform="translate(-533 -323)"><use fill="#3f3d56" xlink:href="#loljM"/></g><g opacity=".1" transform="translate(-533 -323)"><use xlink:href="#loljN"/></g><g transform="translate(-533 -323)"><use fill="#fdc830" xlink:href="#loljO"/></g><g transform="translate(-533 -323)"><use fill="#fdc830" xlink:href="#loljP"/></g><g transform="translate(-533 -323)"><use fill="#fabdbd" xlink:href="#loljQ"/></g><g transform="translate(-533 -323)"><use fill="#fdc830" xlink:href="#loljR"/></g><g transform="translate(-533 -323)"><use fill="#3f3d56" xlink:href="#loljS"/></g><g opacity=".1" transform="translate(-533 -323)"><use xlink:href="#loljT"/></g><g transform="translate(-533 -323)"><use fill="#3f3d56" xlink:href="#loljU"/></g><g transform="translate(-533 -323)"><use fill="#a1616a" xlink:href="#loljV"/></g><g opacity=".1" transform="translate(-533 -323)"><use xlink:href="#loljW"/></g><g transform="translate(-533 -323)"><use fill="#a1616a" xlink:href="#loljX"/></g><g opacity=".1" transform="translate(-533 -323)"><use xlink:href="#loljY"/></g><g transform="translate(-533 -323)"><use fill="#444053" xlink:href="#loljZ"/></g><g opacity=".1" transform="translate(-533 -323)"><use xlink:href="#loljaa"/></g><g transform="translate(-533 -323)"><use fill="#444053" xlink:href="#loljab"/></g><g opacity=".1" transform="translate(-533 -323)"><use xlink:href="#loljac"/></g><g transform="translate(-533 -323)"><use fill="#444053" xlink:href="#loljad"/></g><g opacity=".1" transform="translate(-533 -323)"><use xlink:href="#loljae"/></g><g transform="translate(-533 -323)"><use fill="#fdc830" xlink:href="#loljaf"/></g><g opacity=".1" transform="translate(-533 -323)"><use xlink:href="#loljag"/></g><g opacity=".1" transform="translate(-533 -323)"><use xlink:href="#loljah"/></g><g transform="translate(-533 -323)"><use fill="#fdc830" xlink:href="#loljai"/></g><g transform="translate(-533 -323)"><use fill="#a1616a" xlink:href="#loljaj"/></g><g opacity=".1" transform="translate(-533 -323)"><use xlink:href="#loljak"/></g><g opacity=".1" transform="translate(-533 -323)"><use xlink:href="#loljal"/></g><g transform="translate(-533 -323)"><use fill="#3f3d56" xlink:href="#loljam"/></g><g opacity=".1" transform="translate(-533 -323)"><use xlink:href="#loljan"/></g><g transform="translate(-533 -323)"><use fill="#fdc830" xlink:href="#loljao"/></g><g opacity=".1" transform="translate(-533 -323)"><use xlink:href="#loljap"/></g><g opacity=".1" transform="translate(-533 -323)"><g opacity=".1"><use xlink:href="#loljaq"/></g><g opacity=".1"><use xlink:href="#loljar"/></g></g><g transform="translate(-533 -323)"><use fill="#fdc830" xlink:href="#loljas"/></g><g transform="translate(-533 -323)"><use fill="#3f3d56" xlink:href="#loljat"/></g><g transform="translate(-533 -323)"><use fill="#3f3d56" xlink:href="#loljau"/></g><g transform="translate(-533 -323)"><use fill="#3f3d56" xlink:href="#loljav"/></g><g transform="translate(-533 -323)"><use fill="#3f3d56" xlink:href="#loljaw"/></g><g transform="translate(-533 -323)"><use fill="#3f3d56" xlink:href="#loljax"/></g><g transform="translate(-533 -323)"><use fill="#3f3d56" xlink:href="#loljay"/></g><g transform="translate(-533 -323)"><use fill="#3f3d56" xlink:href="#loljaz"/></g><g transform="translate(-533 -323)"><use fill="#fdc830" xlink:href="#loljaA"/></g><g opacity=".1" transform="translate(-533 -323)"><use xlink:href="#loljaB"/></g><g transform="translate(-533 -323)"><use fill="#fdc830" xlink:href="#loljaC"/></g><g transform="translate(-533 -323)"><use fill="#3f3d56" xlink:href="#loljaD"/></g><g transform="translate(-533 -323)"><use fill="#3f3d56" xlink:href="#loljaE"/></g><g transform="translate(-533 -323)"><use fill="#3f3d56" xlink:href="#loljaF"/></g><g transform="translate(-533 -323)"><use fill="#3f3d56" xlink:href="#loljaG"/></g><g transform="translate(-533 -323)"><use fill="#3f3d56" xlink:href="#loljaH"/></g><g transform="translate(-533 -323)"><use fill="#3f3d56" xlink:href="#loljaI"/></g><g transform="translate(-533 -323)"><use fill="#3f3d56" xlink:href="#loljaJ"/></g><g transform="translate(-533 -323)"><use fill="#fdc830" xlink:href="#loljaK"/></g><g opacity=".1" transform="translate(-533 -323)"><use xlink:href="#loljaL"/></g><g opacity=".1" transform="translate(-533 -323)"><use fill="#fdc830" xlink:href="#loljaM"/></g><g opacity=".1" transform="translate(-533 -323)"><use fill="#fdc830" xlink:href="#loljaN"/></g><g opacity=".1" transform="translate(-533 -323)"><use fill="#fdc830" xlink:href="#loljaO"/></g><g opacity=".1" transform="translate(-533 -323)"><use fill="#fdc830" xlink:href="#loljaP"/></g><g opacity=".1" transform="translate(-533 -323)"><use fill="#fdc830" xlink:href="#loljaQ"/></g><g opacity=".1" transform="translate(-533 -323)"><use fill="#fdc830" xlink:href="#loljaR"/></g><g opacity=".1" transform="translate(-533 -323)"><use fill="#fdc830" xlink:href="#loljaS"/></g><g opacity=".1" transform="translate(-533 -323)"><use fill="#fdc830" xlink:href="#loljaT"/></g><g opacity=".1" transform="translate(-533 -323)"><use fill="#fdc830" xlink:href="#loljaU"/></g><g opacity=".1" transform="translate(-533 -323)"><use fill="#fdc830" xlink:href="#loljaV"/></g><g opacity=".1" transform="translate(-533 -323)"><use fill="#fdc830" xlink:href="#loljaW"/></g><g transform="translate(-533 -323)"><use fill="#fff" fill-opacity="0" stroke="#444053" stroke-miterlimit="50" xlink:href="#loljaX"/></g><g transform="translate(-533 -323)"><use fill="#fff" fill-opacity="0" stroke="#444053" stroke-miterlimit="50" xlink:href="#loljaY"/></g><g transform="translate(-533 -323)"><use fill="#fff" fill-opacity="0" stroke="#444053" stroke-miterlimit="50" xlink:href="#loljaZ"/></g></g></svg>