<svg xmlns="http://www.w3.org/2000/svg" xmlns:xlink="http://www.w3.org/1999/xlink" width="351" height="247" viewBox="0 0 351 247"><defs><path id="wmboa" d="M913.892 922.028c-15.027 10.52-34.519 9.841-51.599 4.366-17.08-5.474-32.77-15.222-49.412-22.149a160.571 160.571 0 0 0-43.414-11.316c-21.21-2.427-44.896.53-59.672 17.545-16.457 18.939-15.193 53.106 2.599 70.505 9.055 8.844 20.91 13.184 31.25 20.089 10.338 6.904 19.916 18.364 19.036 31.685-.816 12.346-10.293 21.808-20.102 27.75-7.58 4.591-16.915 9.604-17.828 19.114-.884 9.202 6.966 16.411 14.462 20.512 24.452 13.38 54.584 13.25 78.952-.325 8.688-4.858 16.668-11.304 25.782-15.066 23.929-9.916 50.298.068 75.638 3.717a151.205 151.205 0 0 0 64.332-4.682c12.548-3.707 25.144-9.374 33.959-19.93 6.358-7.612 10.319-17.243 14.036-26.76a1058.676 1058.676 0 0 0 11.433-30.648c2.194-6.173 4.354-12.47 4.923-19.078 1.026-11.973-3.301-23.81-9.195-33.914-13.994-24.01-37.563-40.88-63.087-45.166-25.525-4.285-52.528 4.085-72.325 22.4"/><path id="wmbob" d="M873.87 925.784l-1.238 71.804s44.81 0 82.939 12.379l.74-72.539s-61.15-14.617-82.441-11.644z"/><path id="wmboc" d="M872.895 924.484l-1.238 71.804s44.811 0 82.939 12.38l.74-72.54s-61.15-14.617-82.441-11.644z"/><path id="wmbod" d="M851.373 927.84l1.238 71.805s-44.811 0-82.936 12.379l-.744-72.54s61.15-14.6 82.442-11.644z"/><path id="wmboe" d="M852.348 926.216l1.238 71.804s-44.812 0-82.936 12.38l-.744-72.54s61.15-14.601 82.442-11.644z"/><path id="wmbof" d="M832.22 934.592l.666 38.505s-24.043 0-44.48 6.637l-.4-38.9s32.796-7.828 44.214-6.242z"/><path id="wmbog" d="M982.723 952.195v71.054s14.62-1.735 45.308 36.146l2.723-71.054s-31.938-34.414-48.03-36.146z"/><path id="wmboh" d="M982.073 951.22v71.054s14.621-1.735 45.309 36.146l2.722-71.054s-31.938-34.414-48.03-36.146z"/><path id="wmboi" d="M746.402 952.52v71.054s-14.608-1.735-45.289 36.146l-2.739-71.054s31.935-34.414 48.028-36.146z"/><path id="wmboj" d="M747.377 951.22v71.054s-14.608-1.735-45.29 36.146l-2.738-71.054s31.935-34.414 48.028-36.146z"/><path id="wmbok" d="M884.868 939.42l30.356 5.429v4.422l-30.356-5.829z"/><path id="wmbol" d="M826.384 982.145l-30.353 5.43v4.421l30.353-5.828z"/><path id="wmbom" d="M885.27 947.663l55.482 11.46v4.421l-55.481-11.859z"/><path id="wmbon" d="M885.27 955.906l55.482 11.456v4.425l-55.481-11.862z"/><path id="wmboo" d="M995.011 974.165v3.903l11.902 9.669.558-3.347z"/><path id="wmbop" d="M995.011 1011.855v3.902l11.902 9.669.558-3.346z"/><path id="wmboq" d="M995.2 980.859l-.189 3.905 22.5 21.194-.37-4.461z"/><path id="wmbor" d="M995.011 988.11v3.717l22.5 21.571v-4.835z"/><path id="wmbos" d="M734.25 975.01l.186 3.906-22.497 21.193.37-4.46z"/><path id="wmbot" d="M734.436 982.262v3.717l-22.497 21.57v-4.834z"/><path id="wmbou" d="M746.168 1094.241c0-1.84 8.292-3.333 18.52-3.333s18.52 1.492 18.52 3.333c0 1.842-8.292 3.334-18.52 3.334s-18.52-1.492-18.52-3.334z"/><path id="wmbov" d="M720.767 1075.913s1.783 2.333-.826 5.849c-2.609 3.515-4.76 6.498-3.898 8.694 0 0 3.934-6.543 7.147-6.634 3.214-.091 1.102-3.958-2.423-7.909z"/><path id="wmbow" d="M720.767 1075.913c.156.225.279.471.364.731 3.125 3.672 4.792 7.1 1.787 7.187-2.798.078-6.174 5.085-6.96 6.35.026.093.059.19.094.285 0 0 3.935-6.544 7.148-6.635 3.214-.09 1.092-3.967-2.433-7.918z"/><path id="wmbox" d="M724.084 1078.89c0 .822-.091 1.488-.205 1.488-.113 0-.208-.666-.208-1.488s.117-.436.231-.436.182-.39.182.436z"/><path id="wmboy" d="M725.224 1079.864c-.72.393-1.351.63-1.406.533-.056-.097.487-.5 1.208-.893s.436-.108.49 0c.056.107.43-.03-.292.36z"/><path id="wmboz" d="M711.338 1075.913s-1.777 2.327.822 5.859c2.6 3.531 4.76 6.498 3.899 8.694 0 0-3.935-6.544-7.148-6.635-3.214-.09-1.095-3.967 2.427-7.918z"/><path id="wmboA" d="M711.338 1075.913a2.927 2.927 0 0 0-.364.731c-3.126 3.672-4.792 7.1-1.787 7.187 2.8.078 6.173 5.085 6.96 6.35a2.452 2.452 0 0 1-.095.285s-3.934-6.544-7.148-6.635c-3.213-.09-1.088-3.967 2.434-7.918z"/><path id="wmboB" d="M708.02 1078.89c0 .822.092 1.488.205 1.488.114 0 .208-.666.208-1.488s-.117-.436-.23-.436c-.114 0-.182-.39-.182.436z"/><path id="wmboC" d="M706.883 1079.864c.722.393 1.349.63 1.404.533.055-.097-.487-.5-1.209-.893-.721-.393-.435-.108-.49 0-.056.107-.426-.03.295.36z"/><path id="wmboD" d="M708.586 1090.16s4.99-.152 6.498-1.224c1.508-1.073 7.674-2.35 8.048-.63.374 1.718 7.499 8.541 1.865 8.587-5.634.045-13.09-.878-14.592-1.794-1.5-.916-1.82-4.938-1.82-4.938z"/><path id="wmboE" d="M725.098 1096.295c-5.634.045-13.09-.877-14.592-1.794-1.144-.695-1.598-3.193-1.751-4.347h-.166s.325 4.026 1.816 4.939c1.492.913 8.958 1.839 14.592 1.793 1.625 0 2.19-.591 2.157-1.449-.224.523-.844.848-2.056.858z"/><path id="wmboF" d="M862.774 1045.125c0-2.889 13.674-5.23 30.541-5.23 16.868 0 30.542 2.341 30.542 5.23 0 2.89-13.674 5.231-30.542 5.231-16.867 0-30.541-2.342-30.541-5.23z"/><path id="wmboG" d="M887.155 974.526a4.255 4.255 0 0 0-.325.998c-.02.086-.039.177-.058.272-.195.995-.325 2.246-.393 2.973a34.83 34.83 0 0 0-.05.598s-7.046-.47-5.825-1.654a2.6 2.6 0 0 0 .65-1.17 5.07 5.07 0 0 0 .09-.383 6.55 6.55 0 0 0 .115-.893v-.228a9.219 9.219 0 0 0-.069-1.458s2.29 0 4.02.185c1.163.133 2.07.364 1.845.76z"/><path id="wmboH" d="M874.939 1008.06c-2.402-.078-.63-5.078-.355-5.751.277-.673-.41-2.32-.41-2.32s-.811-4.763-.811-5.075a12.723 12.723 0 0 0-.273-1.93 3.25 3.25 0 0 1 .325-1.89c.276-.433.234-2.165.234-2.165v-2.242l.536-.708 1.368 1.3.38.357.669 2.508-.237 3.594-.127 3.5.829 4.84s.289 6.063-2.128 5.982z"/><path id="wmboI" d="M875.699 987.873l-2.047-.851v-.331l.533-.709 1.37 1.293z"/><path id="wmboJ" d="M874.756 982.753a9.456 9.456 0 0 0-.568 2.008 8.897 8.897 0 0 1-.536 1.926l2.274.946z"/><path id="wmboK" d="M892.873 1032.46l-.188.403s-.205 1.336-.205 1.368c0 .033-.591.923-.591.923l-1.485.325-.63-.078a8.844 8.844 0 0 0-.17-1.092c-.022-.1-.045-.205-.074-.308a8.343 8.343 0 0 0-1.036-2.353s-1.102-2.716-1.495-3.07c-.393-.354-1.891-3.938-1.732-4.802.085-.475.016-2.067-.062-3.392-.064-1.082-.136-1.992-.136-1.992l3.74-2.21.435.686.26.406s0 .078-.016.208v.049a6.939 6.939 0 0 1-.325 1.625s-.28 2.007 0 2.362c.28.354 1.17 5.088 1.368 7.277v.199c.078 1.007.702 1.904 1.329 2.56.039.045.08.088.123.13.279.279.576.538.89.776z"/><path id="wmboL" d="M889.774 1035.394l.63.078 1.485-.325s.591-.893.591-.922c0-.03.205-1.368.205-1.368l.188-.403.023-.049a7.885 7.885 0 0 1-1.02-.841c-.036-.033-.072-.065-.104-.101-.033-.036.211 1.3-.92 1.881-.549.283-1 .5-1.315.65z"/><path id="wmboM" d="M893.133 1032.649l-.211.451s-.205 1.336-.205 1.368c0 .033-.591.923-.591.923l-1.485.325-.854-.1c0-.173-.03-.417-.072-.712a7.644 7.644 0 0 0-.11-.592c.325-.146.828-.386 1.475-.721 1.134-.582.92-1.881.92-1.881.245.244.504.474.776.689l.357.25z"/><path id="wmboN" d="M893.133 1032.649l-.21.451s-.206 1.336-.206 1.368c0 .033-.591.923-.591.923l-1.485.325-.854-.1c0-.173-.03-.417-.072-.712.182.008.362.033.54.074 0 0 2.027.432 2.124-1.173.059-.91.247-1.267.397-1.406l.357.25z"/><path id="wmboO" d="M892.984 1032.542s-.504-.11-.605 1.49c-.1 1.603-2.124 1.174-2.124 1.174s-.995-.247-1.004.165c.033.382.122.757.266 1.112 0 0 .058.955.247 1.182.189.228.068 1.073.068 1.073s.078.63 1.644 0c0 0 1.397-.29 2.557-2.028.04-.058-.136-.237.878-.601 1.013-.364 3.898-2.697 3.69-3.837a.975.975 0 0 0-.688-.819 1.186 1.186 0 0 0-.907.124 7.16 7.16 0 0 1-.848.39 4.157 4.157 0 0 1-1.209.289 4.648 4.648 0 0 0-.938.178 1.95 1.95 0 0 1-1.027.108z"/><path id="wmboP" d="M881.508 1021.514a2.758 2.758 0 0 0-.572.65c-.572.874-.916 2.096-1.3 2.622-.5.682-.65 2.008-.65 2.008-.132.87-1.978 5.523-2.478 6.349-.5.825-1.196 3.07-1.196 3.07-.426.533-.4 1.326-.357 1.702 0 .066 0 .117.02.153.019.036 0 .062 0 .062v.023l-.683 1.16-2.17-.303-1.121-.76c.091-.149.173-.304.243-.465.601-1.338 1.027-3.73 1.027-3.73s.604-2.729.559-3.365c.015-.87.075-1.737.179-2.6 0 0 1.708-5.214 2.254-6.06a2.43 2.43 0 0 0 .41-1.12.94.94 0 0 0 0-.244l.734-.73s6.043.828 5.101 1.578z"/><path id="wmboQ" d="M874.997 1037.903v.256l-.682 1.16-2.17-.302-1.122-.76c.092-.15.174-.305.244-.465.546-.156 1.793.286 1.793.286s1.349.257 1.917-.156c0-.003.007-.013.02-.02z"/><path id="wmboR" d="M874.467 1040.999l-2.203.526-2.02-1.494.104-.842c.14-.086.266-.196.37-.325.147-.173.248-.381.292-.604.117-.62 2.038.058 2.038.058s1.403.267 1.949-.178c-.038.408-.003.82.104 1.215a.907.907 0 0 0 .325.484c.562.387-.959 1.16-.959 1.16z"/><path id="wmboS" d="M874.467 1040.999l-2.203.526-2.02-1.494.104-.842c.14-.086.266-.196.37-.325h.442c.325.033 1.137 1.479 1.137 1.479 1.995.133 2.6-.52 2.804-1.001a.906.906 0 0 0 .325.484c.562.4-.959 1.173-.959 1.173z"/><path id="wmboT" d="M872.297 1040.586s-.8-1.446-1.137-1.475a7.616 7.616 0 0 0-.858 0s-.884 2.096-1.209 2.274c-.325.18-.799 1.183-.799 1.183s2.34 2.274 4.6 1.83a4.69 4.69 0 0 1 2.074.516c1.046.546 5.416.133 5.949-.825.396-.722.555-1.245.204-1.625a.949.949 0 0 0-.822-.28c-.549.076-1.783.062-2.865-1.266 0 0-1.995-1.826-2.158-1.83-.162-.003.134 1.706-2.98 1.498z"/><path id="wmboU" d="M889.507 1017.511l-.016.02c-.136.15-1.098 1.205-1.39 1.28-.484.182-.957.392-1.417.627 0 0-.591.79-1.063.829-.142.02-.282.057-.416.11a121.226 121.226 0 0 0-.136-1.992l3.74-2.203.435.686c.097.276.208.533.244.614z"/><path id="wmboV" d="M875.913 1002.309s-1.455 1.897 0 4.415a14.708 14.708 0 0 0 2.993 3.78l4.958 10.273s1.3-.709 1.774-.748c.474-.039 1.062-.825 1.062-.825.46-.237.933-.447 1.417-.63.325-.078 1.407-1.3 1.407-1.3s-.543-1.18-.423-1.494c.12-.316-.354-1.105-.354-1.105a6.504 6.504 0 0 1-.325-1.219c0-.324-.513-1.062-.513-1.062s-.51-.79-.51-1.222c0-.432-.764-2.138-.764-2.138l-.198-7.472z"/><path id="wmboW" d="M889.507 1017.274s-1.091 1.218-1.407 1.3c-.483.183-.956.393-1.416.63 0 0-.591.786-1.063.825a3.77 3.77 0 0 0-.974.348c-.423.192-.803.4-.803.4l-4.961-10.274a10.747 10.747 0 0 1-1.205-1.235 17.065 17.065 0 0 1-1.788-2.544 4.26 4.26 0 0 1-.565-3.063c.092-.485.285-.944.565-1.349l3.529-.25 7.028-.5.058 2.212.13 5.26s.114.264.257.611c.223.484.388.992.49 1.514 0 .436.51 1.222.51 1.222s.514.747.514 1.063c.069.416.178.825.325 1.221 0 0 .474.786.357 1.098-.117.312.42 1.511.42 1.511z"/><path id="wmboX" d="M881.508 1021.514a2.753 2.753 0 0 0-.572.65c-2.14.156-4.63-.975-5.276-1.274a.94.94 0 0 0 0-.243l.734-.731s6.056.848 5.114 1.598z"/><path id="wmboY" d="M887.824 1004.639s-.325 1.101-.432 1.572c-.107.471-.354 2.798-.354 2.798l-.136.65-2.249 10.721-.49 2.33c-.865.474-3.029-.79-3.029-.79-2.52.28-5.63-1.335-5.63-1.335s.51-1.654.393-2.48c-.117-.824.708-1.497.708-1.497-.195-.747.51-4.016.51-4.016s.16-1.218.751-1.533c.591-.315-.078-.787-.237-1.066a1.206 1.206 0 0 1 .055-.721c.051-.182.112-.36.182-.536-1.501-1.501-1.732-3.847-1.735-5.15-.004-.318.01-.636.042-.952l3.25-.569 7.098-1.24.725 2.228.182.559z"/><path id="wmboZ" d="M887.155 974.526a4.268 4.268 0 0 0-.325.998c-.02.086-.039.177-.058.273-.686.445-1.108.448-1.986.448-.302 0-.47-.578-.757-.65 0 0-.429-1.547-.549-.244-.825-.169-1.536.475-2.121-.087v-.228a9.206 9.206 0 0 0-.069-1.459s2.291 0 4.02.186c1.163.136 2.07.367 1.845.763z"/><path id="wmboaa" d="M888.78 971.875a4.393 4.393 0 0 1-5.267 4.298 4.386 4.386 0 1 1 4.704-6.452c.373.656.567 1.399.562 2.154z"/><path id="wmboab" d="M886.378 978.77c-.032.363-.048.597-.048.597s-7.048-.47-5.826-1.654a2.6 2.6 0 0 0 .65-1.17l3.057.501s.864.67 1.534 1.3c.19.17.404.313.633.425z"/><path id="wmboac" d="M887.431 1003.836c-.31.041-.625.018-.926-.068a1.87 1.87 0 0 1-.373-.166c-.592-.354-2.558.081-2.558.081s-5.354.354-5.591 0c-.133-.204-1.079-.175-1.852-.113-.325.026-.601.058-.8.078.093-.484.285-.944.566-1.349l3.528-.25 7.1-1.241.724 2.229c.047.27.108.536.182.8z"/><path id="wmboad" d="M884.202 977.281l-3.84-.63a1.143 1.143 0 0 1-.725.63c-.51.117-2.794 1.3-3.818 2.717l-1.023 1.42s-.829 1.023-.553 1.848c.276.825.591 3.623.591 3.623l.394 3.11s.747 2.244.513 3.229c-.234.984.117 5.117.117 5.117l-.786 5.117s2.674-.354 2.924 0c.25.355 5.592 0 5.592 0s1.949-.435 2.557-.08c.397.213.852.296 1.3.236 0 0-.472-1.624-.199-2.518.273-.893.198-2.56.198-2.56s.393-2.401.195-2.833c-.198-.432.436-2.008.436-2.008l2.085-10.982s-.253-1.969-1.368-2.638c-1.114-.67-2.371-.868-3.04-1.495-.67-.627-1.55-1.303-1.55-1.303z"/><path id="wmboae" d="M885.985 988.107v1.3l1.212 3.268.439 3.032s.79 2.164.79 2.924c0 .76 1.926 4.37 1.926 4.37s.526 1.222.263 1.456c-.263.234-2.544 5.432.325 5.276 2.869-.156 1.969-5.588 1.969-5.588l-.393-2.362s-.553-5.907-.553-6.34c0 0-.708-2.517-.786-3.07-.078-.552-.591-3.346-.591-3.346l-.432-1.81z"/><path id="wmboaf" d="M884.604 992.201l-4.279 2.45-1.328 2.008 1.77-1.8z"/><path id="wmboag" d="M883.308 996.893s-1.95 1.27-2.866 1.27c-.916 0-3.04 2.183-3.04 2.183s3.011-1.949 3.248-1.887c.237.061 2.658-1.566 2.658-1.566z"/><path id="wmboah" d="M878.317 997.572s-1.829 1.653-1.358 1.832c.471.179 2.924-1.832 2.924-1.832z"/><path id="wmboai" d="M886.408 991.668s-1.417 1.92-1.034 1.891c.384-.029 1.476-1.124 1.476-1.124z"/><path id="wmboaj" d="M886.612 993.56s-1.533 1.74-1.475 2.183c.059.441 1.475-2.184 1.475-2.184z"/><path id="wmboak" d="M886.999 994.43s-1.033 1.845-.591 2.229c.442.383.591-2.23.591-2.23z"/><path id="wmboal" d="M885.66 989.69s-.77 1.3-.208 1.387c.562.088.618 0 .618 0z"/><path id="wmboam" d="M885.875 984.936c-.192.794-.455 1.57-.786 2.317-.124-.38-.226-.768-.306-1.16.324-.421.69-.809 1.092-1.157z"/><path id="wmboan" d="M888.217 969.72a1.91 1.91 0 0 1-.295.459c-.202.181-.38.387-.533.61a3.28 3.28 0 0 0-.192 1.044c-.058.35-.28.74-.65.75a1.319 1.319 0 0 1-.52-.156.53.53 0 0 0-.516.016.578.578 0 0 0-.166.39 5.135 5.135 0 0 0-.052.923c0 .124 0 .244.02.367.09.389.067.795-.069 1.17-.169.272-.426.478-.727.585a4.5 4.5 0 0 1-1.02.286c-.668.082-1.34.103-2.012.065a.497.497 0 0 1-.182-.03.256.256 0 0 1-.078-.048c.075-.37.115-.745.12-1.121a4.387 4.387 0 1 1 6.872-5.31z"/><path id="wmboao" d="M886.385 966.007c-.403-.042-.783.172-1.18.26-.815.179-1.65-.192-2.488-.189a4.62 4.62 0 0 0-2.047.611 4.939 4.939 0 0 0-1.365.956c-.399.4-.631.936-.65 1.5.056.324.046.656-.029.975a2.753 2.753 0 0 1-.299.455c-.21.337-.26.75-.14 1.128.169.37.396.71.673 1.007.54.692.877 1.52 1.362 2.255.21.318.448.62.708.9a.5.5 0 0 0 .153.12c.057.02.117.029.178.026 1.027.03 2.09.052 3.035-.351.303-.105.56-.312.728-.585.136-.375.16-.78.071-1.17a5.356 5.356 0 0 1 .03-1.3.572.572 0 0 1 .165-.386.52.52 0 0 1 .52-.016c.16.085.336.137.517.156.354 0 .578-.403.65-.754a1.767 1.767 0 0 1 .724-1.654c.493-.626.659-1.45.445-2.219-.234-.73-.949-1.644-1.761-1.725z"/><path id="wmboap" d="M890.599 984.666a5.114 5.114 0 0 0 0 1.625c-.039.435 0 2.836 0 2.836-1.3-.396-4.604.394-4.604.394l-.393-1.18a2.923 2.923 0 0 1-.494-.975c-.123-.381-.225-.77-.305-1.163-.172-.817-.301-1.642-.387-2.472-.166-1.251 1.696-2.6 3.106-3.347 1.41-.747 2.645 2.44 2.645 2.44s.588 1.225.432 1.842z"/><path id="wmboaq" d="M890.599 984.442a5.136 5.136 0 0 0 0 1.625c-.039.432 0 2.833 0 2.833-1.3-.393-4.604.393-4.604.393l-.393-1.18a2.891 2.891 0 0 1-.494-.974c-.123-.38-.225-.768-.305-1.16-.172-.817-.3-1.642-.387-2.472-.166-1.255 1.696-2.6 3.106-3.35s2.645 2.44 2.645 2.44.588 1.215.432 1.845z"/><path id="wmboar" d="M888.1 967.732a2.597 2.597 0 0 0-.289-.633c.02.055.04.107.055.162a2.502 2.502 0 0 1-.445 2.22 1.767 1.767 0 0 0-.724 1.653c-.055.351-.28.738-.65.75a1.32 1.32 0 0 1-.52-.155.53.53 0 0 0-.516.016.578.578 0 0 0-.166.39c-.063.43-.073.867-.03 1.3.036.396.114.821-.07 1.172-.172.27-.428.476-.729.585-.945.403-2.008.38-3.034.351a.47.47 0 0 1-.179-.03.42.42 0 0 1-.153-.12 6.3 6.3 0 0 1-.708-.9c-.484-.734-.822-1.559-1.361-2.254-.147-.189-.325-.374-.445-.572v.039c.165.371.393.712.672 1.007.536.692.877 1.52 1.358 2.255.211.32.45.62.712.9.041.05.092.09.15.12.057.02.117.029.178.026 1.027.03 2.092.052 3.035-.35.303-.106.56-.312.727-.586.137-.374.162-.78.072-1.17-.04-.432-.03-.868.03-1.299a.6.6 0 0 1 .165-.387.52.52 0 0 1 .52-.016c.16.085.336.138.516.156.358 0 .579-.403.65-.754.005-.356.07-.708.192-1.043.151-.224.33-.43.533-.61a2.508 2.508 0 0 0 .454-2.223z"/><path id="wmboas" d="M919.776 968.587l-2.807 5.965s-.413 1.121-.68 1.329c-.266.208-1.445 3.75-1.445 3.75l-3.012 4.64-.205.324-1.18-.325-.828-3.093.049-.897v-.114s1.858-1.949 2.274-2.095c0 0 .325.039.942-1.472.618-1.51 1.183-1.836 1.183-1.836l.325-1.091 3.486-5.553s2.924-4.188 3.72-2.33c.797 1.859-1.822 2.798-1.822 2.798z"/><path id="wmboat" d="M908.118 1010.961a.673.673 0 0 1-.094.286c-.325.474-2.154 10.128-2.154 10.128.146.65-.267 1.949-.533 2.54-.267.592-.858 3.659-.858 3.659s-.146 6.615-.526 7.648c-.38 1.033.12 3.25.12 3.25-.036 1.016.575 2.095.939 2.64l.071.105c.117.169.195.266.195.266.1.197.241.371.413.51l.085.065a4.77 4.77 0 0 0 1.653.699h.059c.234.052.39.074.39.074l.146.8-1.563.325-2.983.204s-3.515.27-2.716-1.3c.056-.104.103-.213.143-.324a2.48 2.48 0 0 0 .081-.234c.481-1.504.156-3.334.156-3.334l-.679-5.341c-1.12-4.961.88-10.482.88-10.482s-.171-.442.212-1.562c.383-1.121 0-3.575 0-3.575s-.205-3.158-.471-4.72a9.563 9.563 0 0 1-.107-1.992c.012-.39.048-.778.107-1.163l6.729-.894s.386 1.095.305 1.722z"/><path id="wmboau" d="M908.024 1043.637l-1.563.325-2.983.205s-3.515.27-2.716-1.3c.055-.105.103-.213.143-.325.031-.076.058-.154.081-.234.61.02 1.211.141 1.78.358 1.001.386 1.755-.62 1.755-.62l.488-.93.071-.133c.117.169.195.266.195.266.118.228.288.426.497.575l-.084.172-.471.995s.604.061 1.43.195a.65.65 0 0 0 .78-.426h.057c.234.052.39.075.39.075z"/><path id="wmboav" d="M909.47 1044.371c-.117.533-3.409.696-3.409.696s-1.832-.176-2.345.25c-.514.426-2.025.325-2.083.325-.059 0-.855-.03-1.167-1.459-.312-1.43.407-1.624.439-1.647.637.009 1.267.131 1.862.36 1 .387 1.754-.62 1.754-.62l.56-1.063c.116.17.194.267.194.267.118.228.288.425.497.575l-.555 1.166s.604.062 1.43.192a.686.686 0 0 0 .838-.65.778.778 0 0 0 0-.088s.513.15 1.15.325c.592.171.955.767.835 1.371z"/><path id="wmboaw" d="M915.672 1017.999c-.078.47-.16 1.692-.16 1.692.277 1.024-.431 3.454-.431 3.454l-.354 1.388c.156 1.77-.975 6.101-.975 6.101s-.757 4.016-1.15 5.748a4.752 4.752 0 0 0 .204 2.895l.03.071c0 .033.016.065.022.098a2.07 2.07 0 0 0 .432.79c.065.077.136.15.212.217.37.328.794.59 1.254.773l.198.078c.205.076.415.141.627.195h.071l-.159.93-2.086-.537-2.794-.906-1.355-.76s0-.075.043-.218a.071.071 0 0 0 0-.026c0-.062.026-.133.042-.218.214-1.218.747-4.626.48-7.148-.324-3.11.976-7.401 1.278-8.421a5.09 5.09 0 0 0 .237-1.813c-.514-.748-.63-3.74-.63-3.74s-.946-1.93-1.726-3.977a10.158 10.158 0 0 1-.562-2.07 7.023 7.023 0 0 1-.114-1.51s6.34-5.787 7.035-.186l.068.55c.617 5.15.338 6.092.263 6.55z"/><path id="wmboax" d="M915.672 1041.525l-.16.93-2.085-.537-2.794-.906-1.375-.786s0-.075.043-.218a.075.075 0 0 0 0-.026c0-.062.026-.133.042-.218h.195c.397-.038.797.016 1.17.16.454.168 1.052.363 1.172.282.211-.09.44-.13.67-.117l.289-.65.045-.097c.088.239.219.459.387.65.07.081.145.158.224.23v.225l-.016.324c.312.2.65.354 1.004.462a.577.577 0 0 0 .28 0l.197.078c.206.076.415.141.628.195z"/><path id="wmboay" d="M914.626 1043.517c-.582-.166-1.985-.435-2.213-.227-.227.207-2.173 0-2.173 0a1.183 1.183 0 0 1-1.004-.589c-.406-.63-.078-2.667-.078-2.667h.143l.24-.026c.397-.038.797.015 1.17.156.455.172 1.052.367 1.173.286.21-.093.44-.134.669-.12l.325-.731c.088.238.219.458.386.65.07.08.144.157.225.227l-.03.542c.313.2.65.356 1.004.465a.406.406 0 0 0 .481-.153.389.389 0 0 0 .036-.08c.263.123.54.215.825.272a1.508 1.508 0 0 1 1.625 1.157c.308.906-2.223 1.004-2.804.838z"/><path id="wmboaz" d="M908.118 1010.961l-.36.11a5.044 5.044 0 0 1-.868.183c-1.865.263-4.935.104-5.91.042.013-.39.049-.778.107-1.163l6.729-.894s.383 1.095.302 1.722z"/><path id="wmboaA" d="M913.99 1009.327s-2.47.383-4.481.822c-.67.146-1.3.302-1.752.448a5.348 5.348 0 0 1-.867.186c-2.239.324-6.216.022-6.216.022-1.091-3.541 1.326-8.002 1.326-8.002-.055-.354.504-1.443.504-1.443v-.036l.344-1.263h9.179l.113.542.234 1.105 1.443 6.846z"/><path id="wmboaB" d="M915.412 1011.475l-.055.022-1.076.478c-1.163.536-4.642.65-5.848.65a7.013 7.013 0 0 1-.114-1.511s6.34-5.787 7.035-.185c.013.188.035.38.058.546z"/><path id="wmboaC" d="M915.581 1010.925l-.224.101-1.076.478c-1.182.546-4.776.65-5.926.65h-.302c-.53-.017-1.062-.514-1.062-.65 0-.072-.056-.423-.101-.721-.042-.24-.075-.449-.075-.449a28.42 28.42 0 0 1-3.574-1.849c-.9-.614-.672-4.977-.5-7.17.061-.757.117-1.254.117-1.254l9.292.542 1.3.075.744.166.198.042s.536 3.899.8 4.224c.262.325.09 1.416.058 2.04 0 .268-.03.535-.088.796 0 0 .383 1.092.296 1.703-.04.43.001.863.123 1.276z"/><path id="wmboaD" d="M901.825 974.76a3.808 3.808 0 1 1 7.615 0 3.808 3.808 0 0 1-7.615 0z"/><path id="wmboaE" d="M903.774 976.346s.263 3.606-.474 4.435a33.568 33.568 0 0 1-2.658 2.39l.591 2.45 3.337.384 3.899-4.162-.887-1.075s-.68-2.304-.12-3.454c.559-1.15-3.688-.968-3.688-.968z"/><path id="wmboaF" d="M911.832 984.27l-.205.325-1.18-.325-.828-3.093.049-.897.243-.35s1.3.029 1.245 1.211c-.055 1.033.536 2.736.676 3.13z"/><path id="wmboaG" d="M914.398 1001.36s-.938.208-2.014.348c-1.075.14-2.317.214-2.827-.085-.854-.506-5.484-.36-6.823-.308h-.227l.344-1.264h9.179l.114.542 1.3.075.743.166c.137.318.211.526.211.526z"/><path id="wmboaH" d="M909.677 980.16s1.3.03 1.242 1.212c-.059 1.183.708 3.216.708 3.216l-.296.68s-.412 1.653-.087 2.066c.325.413 1.504.413.825 3.808 0 0-.146 2.54.208 3.366.354.825.354 2.804.883 3.632.484.882.899 1.8 1.242 2.746 0 0-3.837.854-4.841.266s-7.174-.295-7.174-.295.029-1.034 0-1.154a.955.955 0 0 1 .146-.75c.208-.283.533-.754.354-1.167-.179-.412.442-1.023.117-1.663-.325-.64-.718-.767-.65-1.118a1.505 1.505 0 0 0-.364-1.118c-.234-.295-1.829-3.414-1.829-3.414l-.267-1.456s-2.053-1.504-2.014-2.213c.04-.708.777-1.692.777-1.692l1.975-1.95s1.095 1.18 2.158.767c1.062-.413 3.346-2.391 3.346-2.391s.816-.442.874-.767c.058-.325.562-.03.562-.03s.738-.406.884-.263c.25.131.52.22.799.264z"/><path id="wmboaI" d="M898.517 986.31l-.627.494a8.302 8.302 0 0 0-.79 3.217 42.4 42.4 0 0 1-.796 4.984l-1.24 2.22s-2.038 4.278-2.304 5.415c-.267 1.137-1.475 3.058-1.475 3.058s-4.104 3.687-1.242 4.353c2.863.667 2.954-2.924 2.954-2.924s.65-.737.776-1.24c.127-.504 3.74-6.925 3.74-6.925s1.27-1.728 1.004-2.644c0 0 1.654-3.9 1.654-4.874-.031-.815-.12-1.628-.267-2.43l.267-2.037z"/><path id="wmboaJ" d="M907.02 994.45s-2.892 1.513-3.454 1.595c-.562.08 2.45-.325 2.45-.325z"/><path id="wmboaK" d="M909.379 995.629s-3.838 1.3-5.524 1.066c0-.007 4.198.796 5.524-1.066z"/><path id="wmboaL" d="M909.62 996.054s-3.458 2.174-5.492 1.82c0 0 4.754.945 5.491.442l-2.125-.588s2.359-1.251 2.125-1.674z"/><path id="wmboaM" d="M905.639 968.057a3.594 3.594 0 0 0-2.924.55c-.592.464-.975 1.175-1.65 1.523a8.85 8.85 0 0 1-1.08.38 3.116 3.116 0 0 0-1.9 3.353c.104.585.377 1.124.513 1.703.24 1.03.026 2.108-.234 3.135a33.052 33.052 0 0 1-3.281 8.14.862.862 0 0 0-.163.545c.037.131.106.25.202.348 1.364 1.575 3.574 2.118 5.67 2.19a4.378 4.378 0 0 0 2.248-.374c.434-.25.808-.593 1.095-1.004a5.335 5.335 0 0 0 1.02-3.431c-.056-.991-.387-1.992-.137-2.95a.754.754 0 0 1 .176-.361c.224-.23.598-.169.916-.208.868-.1 1.426-1.014 1.53-1.881.104-.868-.113-1.738-.12-2.6a5.478 5.478 0 0 1 1.03-3.213c.29-.396.65-.786.754-1.283.123-.624-.237-1.082-.55-1.573-.483-.766-.72-1.66-1.458-2.245a3.933 3.933 0 0 0-1.657-.744z"/><path id="wmboaN" d="M905.402 967.82a3.574 3.574 0 0 0-2.905.55c-.591.467-.974 1.179-1.654 1.526a9.42 9.42 0 0 1-1.078.377 3.116 3.116 0 0 0-1.901 3.347c.104.584.377 1.124.513 1.702.24 1.03.03 2.109-.234 3.135a32.983 32.983 0 0 1-3.278 8.123.832.832 0 0 0-.162.546.751.751 0 0 0 .198.348c1.364 1.579 3.574 2.118 5.67 2.19a4.404 4.404 0 0 0 2.248-.37 3.452 3.452 0 0 0 1.095-1.008 5.338 5.338 0 0 0 1.017-3.431c-.059-.975-.39-1.992-.14-2.95a.816.816 0 0 1 .176-.36c.227-.232.597-.17.919-.206.864-.1 1.423-1.017 1.527-1.88.104-.865-.114-1.74-.117-2.6a5.446 5.446 0 0 1 1.03-3.21c.286-.4.65-.79.754-1.3.12-.624-.24-1.078-.553-1.572-.484-.764-.72-1.66-1.458-2.245a3.934 3.934 0 0 0-1.667-.712z"/><path id="wmboaO" d="M904.128 1004.733s.757 3.544 2.018 4.506z"/><path id="wmboaP" d="M898.088 974.419a6.715 6.715 0 0 0-.133-.413c.052.14.084.263.133.413z"/><path id="wmboaQ" d="M908.859 971.345c.013.108.013.217 0 .325-.098.497-.465.887-.754 1.284a5.487 5.487 0 0 0-1.03 3.213c0 .874.221 1.745.117 2.6-.104.854-.65 1.78-1.527 1.877-.325.04-.692-.023-.916.208a.821.821 0 0 0-.179.36c-.25.96.085 1.95.14 2.95a5.338 5.338 0 0 1-1.033 3.429 3.37 3.37 0 0 1-1.095 1.004c-.702.32-1.477.45-2.245.373-2.05-.068-4.224-.598-5.602-2.115a.54.54 0 0 0-.032.286.751.751 0 0 0 .198.348c1.365 1.579 3.574 2.118 5.67 2.19a4.402 4.402 0 0 0 2.248-.37 3.45 3.45 0 0 0 1.095-1.008 5.339 5.339 0 0 0 1.017-3.431c-.059-.975-.39-1.992-.14-2.95a.815.815 0 0 1 .175-.36c.228-.232.598-.17.92-.206.864-.1 1.423-1.017 1.527-1.88.104-.865-.114-1.74-.117-2.6a5.446 5.446 0 0 1 1.03-3.21c.286-.4.65-.79.754-1.3a1.458 1.458 0 0 0-.221-1.017z"/><path id="wmboaR" d="M733.305 1054.674c0-.384 3.078-.695 6.875-.695s6.875.311 6.875.695c0 .384-3.078.696-6.875.696s-6.875-.312-6.875-.696z"/><path id="wmboaS" d="M742.584 1043.179s-8.967 4.633-4.334 10.072c.267.696.952 1.14 1.696 1.102 0 0-.253-.459.712-.826.343-.132.67-.304.974-.513.408-.282.713-.689.868-1.16 0 0 1.835-2.453.412-6.992 0 0 .186-1.3.023-1.491l-1.088 1.491s1.127.757 1.257 1.868c0 0-1.173-1.865-1.43-1.65-.052.042-.539.815-.539.815s1.95 1.326 2.096 3.045c0 0-1.098-2.408-2.275-2.752l-.669 1.212s2.132 1.3 2.372 3.249c0 0-1.238-2.476-2.502-2.973l-.497 1.28s2.053 1.3 2.242 2.924c0 0-1.719-2.716-2.336-2.628 0 0-.387 1.202-.325 1.572 0 0 1.456.975 1.481 1.927 0 0-1.341-1.696-1.55-1.582 0 0-.084 1.702.326 2.599a5.166 5.166 0 0 1-.595-2.6 2.823 2.823 0 0 0-.858 1.385s-.386-.94.884-1.797c0 0 .12-1.326.266-1.488 0 0-1.374.67-1.949 1.494 0 0 .214-1.228 2.08-1.839l.474-1.3s-1.865.79-2.444 1.486c0 0 .416-1.219 2.6-1.804l.65-1.195s-1.657.559-2.467 1.195c0 0 .628-1.05 2.665-1.53l.526-.75s-1.205.432-1.54.584c-.335.153-.403.078-.403.078a4.315 4.315 0 0 1 2.158-.974s1.12-1.453 1.04-1.534z"/><path id="wmboaT" d="M767.29 1038.013a4.792 4.792 0 0 1 .468-2.538h.93c.032.218.067.426.113.615.266 1.15-.8 1.692-1.51 1.923zm-15.872 13.412c.94.556 2.408.916 4.257-.276l-.02 2.635c.133 1.81 2.366 8.392 2.366 8.392l1.575 5.42a42.377 42.377 0 0 1 1.735 11.784c-.04 1.256.13 2.51.504 3.71.838 2.275-.325 5.2-.838 6.281-.936.325-1.901.569-2.6.731-.08.019-.157.043-.233.072v-.017s-2.366.94-3.419.81c-.783-.098-1.273.88-.65 1.598a4.767 4.767 0 0 1-1.575.208c-1.053-.13-1.576 1.68.393 2.196 1.969.517 13.146 0 13.146 0a1.586 1.586 0 0 0 .841-1.751c.858-.033 1.394-.059 1.394-.059s1.972-.903 0-3.356l-.104.081-.422-1.24v-1.68s2.498-12.022 1.709-13.426c-.79-1.403-1.183-8.649-1.183-8.649l.263-7.875c.712-1.472 1.079-3.776 1.264-5.58.268-.86.437-1.748.504-2.647.029-.422.055-.868.071-1.329a8.92 8.92 0 0 0-.477-2.973 29.382 29.382 0 0 1 2.976-3.74 3.83 3.83 0 0 0 1.182-3.356l-.65-4.39-1.578-7.472c.198-2.08-.234-3.275-.715-3.951.114-.67.22-1.342.302-2.014.35-2.93.193-5.897-.461-8.773-.228-1.004-.54-2.034-1.242-2.794-.799-.861-2.092-1.388-2.388-2.515a8.173 8.173 0 0 0-.182-.848c-.289-.74-1.202-1.007-2.001-1.105-1.423-.172-3.48-.305-4.848.254-.952.393-2.274 1.465-2.79 2.619a2.245 2.245 0 0 0-.325 1.624c.05.193.126.378.227.55a4.946 4.946 0 0 0-.325 1.73 5.04 5.04 0 0 0 3.217 4.673 4.881 4.881 0 0 1 .211.994c-.023.458-.052.916-.075 1.371a1.55 1.55 0 0 1-.049.186 33.725 33.725 0 0 0-3.304 1.686c.79 1.16-.13 6.066-.13 6.066-1.972 1.163-3.944 4.133-1.842 7.229s.92 6.417.92 6.417l-.326 5.049-.065 1.007h.026l-.026.384h.056v.412c-.926.325-2.275 1.02-3.077 2.275a8.149 8.149 0 0 1-1.378 1.69 1.014 1.014 0 0 0 .16 1.682z"/><path id="wmboaV" d="M767.55 1088.052l.507 1.517-1.638 1.644-5.439 1.264-3.921-.38.253-1.39a1.674 1.674 0 0 1 1.245-1.226c1.624-.38 4.685-1.24 5.331-2.443z"/><path id="wmboaW" d="M758.316 1091.72l.76-1.014-.76-1.17s-2.274.917-3.288.79c-1.014-.127-1.517 1.647.38 2.151 1.898.504 12.649 0 12.649 0s1.897-.884 0-3.288l-1.638 1.264s-2.784 1.52-4.175 1.267z"/><path id="wmboaX" d="M754.901 1093.871l3.922.377 5.439-1.264 1.644-1.644-.133-.403-.189-.565-.182-.55-3.668-1.013c-.186.304-.44.56-.744.747-1.192.813-3.333 1.4-4.587 1.696l-.16.046a1.663 1.663 0 0 0-1.101 1.18z"/><path id="wmboaY" d="M754.901 1093.871l3.922.377 5.439-1.264 1.644-1.644-.133-.403-1.511 1.16s-2.781 1.52-4.175 1.267h-3.918l.757-1.013-.683-1.053a1.663 1.663 0 0 0-1.101 1.18z"/><path id="wmboaZ" d="M756.169 1093.49l.757-1.013-.757-1.17s-2.275.917-3.292.79-1.517 1.647.38 2.151c1.898.504 12.65 0 12.65 0s1.897-.884 0-3.288l-1.645 1.25s-2.781 1.521-4.175 1.268z"/><path id="wmboba" d="M759.33 1020.127s6.072.63 5.198-1.898a4.598 4.598 0 0 1-.188-2.235 6.208 6.208 0 0 1 1.075-2.573l-5.692.887c.34.57.6 1.184.77 1.826.666 2.683-1.163 3.993-1.163 3.993z"/><path id="wmbobb" d="M769.701 1048.966s-.127 5.439-1.39 8.096l-.267 7.714s.38 7.083 1.137 8.476c.757 1.394-1.644 13.156-1.644 13.156v2.02s-4.045 1.521-5.198-.25l1.156-15.052-.497-20.879z"/><path id="wmbobc" d="M772.232 1031.508l.757 2.025.634 4.301a3.801 3.801 0 0 1-1.138 3.288c-1.517 1.518-3.541 4.682-3.541 4.682l-2.404-7.203s2.404-.38 2.024-2.024c-.38-1.644-.254-4.682-.254-4.682z"/><path id="wmbobd" d="M760.99 1089.556c1.625 2.554 4.146 1.105 4.594.816l-.181-.55-3.669-1.013c-.186.304-.44.56-.744.747z"/><path id="wmbobe" d="M755.915 1053.898c.127 1.77 2.275 8.223 2.275 8.223l1.517 5.31a42.097 42.097 0 0 1 1.667 11.546 11.37 11.37 0 0 0 .497 3.636c1.013 2.781-1.01 6.576-1.01 6.576 1.77 3.161 4.805 1.014 4.805 1.014v-2.024s2.404-11.005 1.77-13.156c-.633-2.15-.883-7.97-.883-7.97v-10.498a11.93 11.93 0 0 0 3.457-7.557c.032-.413.055-.848.071-1.3.104-2.856-1.849-6.199-2.6-7.394-.181-.286-.295-.449-.295-.449l-11.183 4.432h-.026v1.391z"/><path id="wmbobf" d="M759.71 1014.308c.34.57.599 1.184.77 1.826a4.922 4.922 0 0 0 3.847-.14 6.209 6.209 0 0 1 1.075-2.573z"/><path id="wmbobg" d="M757.306 1011.273a4.932 4.932 0 1 1 9.864 0 4.932 4.932 0 0 1-9.864 0z"/><path id="wmbobh" d="M755.915 1045.678h.052c5.306 1.088 11.963-4.439 11.963-4.439a6.78 6.78 0 0 1-.461-.942c-.182-.286-.296-.448-.296-.448l-11.17 4.438-.03.442z"/><path id="wmbobi" d="M757.322 1020s7.083-4.302 9.36-2.53l3.162 4.047s2.024.63 1.644 4.68l1.517 7.335-4.548 1.14s-2.687 2.529-.527 6.203c0 0-6.703 5.566-12.021 4.429l.377-5.946s1.14-3.288-.884-6.323c-2.024-3.034-.127-5.945 1.77-7.086.007-.02.894-4.812.15-5.949z"/><path id="wmbobj" d="M756.926 1045.804s-2.655.504-3.922 2.528a7.813 7.813 0 0 1-1.322 1.654 1.004 1.004 0 0 0 .156 1.602c1.004.6 2.641.974 4.707-.725 3.542-2.911.38-5.059.38-5.059z"/><path id="wmbobk" d="M760.847 1022.401s2.531-.253 3.162 6.326c.63 6.58 1.644 8.097 1.644 8.097s.633 3.415-.884 5.439-4.429 6.323-4.429 6.323-3.161.886-3.795-2.275l3.922-7.336s.634-2.528-.884-4.299c-1.517-1.77-2.657-13.539 1.264-12.275z"/><path id="wmbobl" d="M760.594 1022.03s2.53-.253 3.161 6.324c.63 6.576 1.647 8.096 1.647 8.096s.63 3.415-.887 5.44c-1.517 2.023-4.428 6.322-4.428 6.322s-3.161.887-3.795-2.275l3.922-7.336s.633-2.531-.884-4.302c-1.517-1.77-2.658-13.542 1.264-12.268z"/><path id="wmbobm" d="M758.508 1026.765s-.254 3.921.884 6.072c1.137 2.151 1.14 4.932 0 6.453"/><path id="wmbobn" d="M757.874 1021.96s1.014-1.011 3.922-1.138c2.908-.127 4.175-1.014 4.175-1.014"/><path id="wmbobo" d="M764.912 1004.895c.767.094 1.647.358 1.923 1.082.073.274.132.552.176.832.286 1.105 1.53 1.624 2.297 2.466.679.744.975 1.754 1.196 2.736.63 2.819.78 5.724.445 8.593-.247 2.1-.75 4.166-.894 6.271-.143 2.106.117 4.325 1.27 6.095.494.76 1.147 1.43 1.498 2.275-.724.588-1.725.672-2.657.705a50.848 50.848 0 0 1-3.25 0 3.477 3.477 0 0 1-1.66-.345 2.538 2.538 0 0 1-.87-.935c-.621-1.056-.78-2.323-.754-3.552.026-1.228.22-2.443.243-3.668 0-.669-.039-1.377-.422-1.923a6.238 6.238 0 0 0-1.062-.975c-1.352-1.199-1.817-3.126-1.862-4.932-.046-1.806.25-3.62.097-5.423-.058-.705-.325-1.553-1.017-1.69a4.398 4.398 0 0 1-.65-.084c-.558-.214-.503-1-.65-1.576-.178-.65-.727-1.143-.883-1.796-.364-1.53 1.582-3.357 2.86-3.9 1.276-.542 3.255-.425 4.626-.256z"/><path id="wmbobp" d="M765.039 1004.642c.766.097 1.644.36 1.923 1.082.073.275.132.553.175.835.286 1.104 1.53 1.624 2.298 2.463.679.743.974 1.754 1.195 2.735.63 2.82.78 5.725.445 8.594-.247 2.099-.75 4.165-.893 6.27-.143 2.106.117 4.325 1.27 6.096.494.76 1.147 1.43 1.498 2.274-.725.588-1.725.673-2.658.705a51.223 51.223 0 0 1-3.265 0 3.475 3.475 0 0 1-1.66-.344 2.554 2.554 0 0 1-.871-.933c-.624-1.059-.78-2.326-.754-3.554.026-1.228.221-2.443.244-3.668 0-.666-.04-1.378-.422-1.924a6.366 6.366 0 0 0-1.063-.974c-1.352-1.2-1.82-3.123-1.865-4.932-.045-1.81.254-3.62.1-5.423-.058-.705-.324-1.553-1.016-1.69a4.41 4.41 0 0 1-.65-.084c-.559-.215-.504-1-.65-1.576-.178-.65-.728-1.144-.884-1.797-.363-1.527 1.583-3.356 2.86-3.899 1.277-.542 3.272-.412 4.643-.256z"/><path id="wmbobq" d="M1002.692 1117.242c0-.593 3.491-1.073 7.798-1.073 4.306 0 7.798.48 7.798 1.073 0 .592-3.492 1.072-7.798 1.072-4.307 0-7.798-.48-7.798-1.072z"/><path id="wmbobr" d="M972.82 1120.273c0-.592 3.491-1.072 7.798-1.072 4.306 0 7.798.48 7.798 1.072 0 .592-3.492 1.072-7.798 1.072-4.307 0-7.798-.48-7.798-1.072z"/><path id="wmbobs" d="M937.636 1116.173c0-.592 3.491-1.072 7.798-1.072 4.306 0 7.797.48 7.797 1.072 0 .592-3.49 1.072-7.797 1.072-4.307 0-7.798-.48-7.798-1.072z"/><path id="wmbobt" d="M987.032 1128.896c0-.42 2.481-.76 5.542-.76 3.062 0 5.543.34 5.543.76s-2.481.76-5.543.76c-3.06 0-5.542-.34-5.542-.76z"/><path id="wmbobu" d="M956.029 1128.133c0-.42 2.481-.76 5.543-.76 3.061 0 5.543.34 5.543.76s-2.482.76-5.543.76c-3.062 0-5.543-.34-5.543-.76z"/><path id="wmbobv" d="M980.452 1120.03s10.936-35.85-1.712-50.212c-9.462-10.741-20.2-9.458-25.018-8.123a8.893 8.893 0 0 0-5.738 4.77c-1.68 3.626-1.377 9.517 10.495 16.388 19.874 11.505 21.118 27.293 21.118 27.293z"/><path id="wmbobw" d="M955.44 1066.774s32.241 10.072 25.019 53.255"/><path id="wmbobx" d="M974.272 1070.39s-4.441 2.99-3.028 7.473"/><path id="wmboby" d="M958.674 1073.041s2.716-2.761 6.017-1.238"/><path id="wmbobz" d="M971.436 1086.934s4.763-2.417 5.995.611"/><path id="wmbobA" d="M983.21 1091.977s-3.573-.286-3.642 1.426"/><path id="wmbobB" d="M980.894 1120.315s-12.808-26.057-16.327-25.485c-1.67.27-2.44 1.913-2.79 3.574a10.484 10.484 0 0 0 .698 6.342c1.813 4.162 6.687 12.08 18.419 15.57z"/><path id="wmbobC" d="M964.662 1099.775s13.444 19.494 16.044 20.352"/><path id="wmbobD" d="M963.424 1102.819h3.138"/><path id="wmbobE" d="M967.183 1109.95l4.919.212"/><path id="wmbobF" d="M970.175 1104.245l-.533 2.564"/><path id="wmbobG" d="M975.406 1112.043l-.094 2.33"/><path id="wmbobH" d="M980.514 1120.315s12.808-26.057 16.326-25.485c1.674.27 2.444 1.913 2.791 3.574a10.484 10.484 0 0 1-.698 6.342c-1.83 4.162-6.703 12.08-18.42 15.57z"/><path id="wmbobI" d="M996.746 1099.775s-13.444 19.494-16.04 20.352"/><path id="wmbobJ" d="M997.98 1102.819h-3.138"/><path id="wmbobK" d="M994.222 1109.95l-4.92.212"/><path id="wmbobL" d="M991.23 1104.245l.532 2.564"/><path id="wmbobM" d="M985.998 1112.043l.095 2.33"/><path id="wmbobN" d="M958.52 1126.4a2.213 2.213 0 0 1-.727-1.1.975.975 0 0 1 .51-1.122c.468-.178.975.147 1.345.475.37.328.813.702 1.3.633a2.004 2.004 0 0 1-.617-1.868.785.785 0 0 1 .172-.377c.26-.28.731-.159 1.043.059.975.695 1.264 2.04 1.27 3.249a6.133 6.133 0 0 0 0-1.339c-.038-.453.15-.896.504-1.182.235-.128.5-.19.767-.182.446-.064.898.065 1.244.354.377.403.28 1.082-.049 1.527a4.76 4.76 0 0 1-1.3 1.03 2.89 2.89 0 0 0-.919.877c-.026.05-.05.102-.068.156h-2.785a7.693 7.693 0 0 1-1.689-1.19z"/><path id="wmbobO" d="M1007.328 1115.906a2.214 2.214 0 0 1-.727-1.101.975.975 0 0 1 .507-1.118c.467-.182.974.143 1.348.471.374.328.812.702 1.3.65a2.004 2.004 0 0 1-.618-1.868.782.782 0 0 1 .173-.377c.26-.28.73-.16 1.042.058.975.696 1.264 2.04 1.27 3.25a6.12 6.12 0 0 0 0-1.34c-.037-.452.151-.895.504-1.182.235-.127.5-.19.767-.182.445-.064.897.065 1.241.354.38.403.28 1.082-.048 1.528-.37.416-.81.765-1.3 1.03-.368.22-.682.52-.92.877-.026.05-.049.102-.068.156h-2.784a7.702 7.702 0 0 1-1.687-1.206z"/><path id="wmbobP" d="M991.063 1126.4a2.218 2.218 0 0 1-.73-1.1.975.975 0 0 1 .51-1.122c.467-.178.974.147 1.348.475.374.328.812.702 1.3.633a1.992 1.992 0 0 1-.618-1.868.759.759 0 0 1 .172-.377c.26-.28.728-.159 1.04.059.975.695 1.267 2.04 1.27 3.249.056-.444.062-.893.02-1.339-.04-.453.148-.896.5-1.182.236-.127.5-.19.767-.182.446-.064.899.064 1.245.354.376.403.279 1.082-.05 1.527-.37.416-.809.765-1.299 1.03-.369.219-.683.519-.92.877a.839.839 0 0 0-.068.156h-2.787a7.673 7.673 0 0 1-1.7-1.19z"/><path id="wmbobQ" d="M944.93 1105.188s-1.046 1.364.48 3.427c1.528 2.064 2.789 3.805 2.275 5.092 0 0-2.303-3.83-4.178-3.9-1.875-.067-.64-2.326 1.423-4.62z"/><path id="wmbobR" d="M944.93 1105.188a1.624 1.624 0 0 0-.214.428c-1.83 2.148-2.804 4.156-1.047 4.205 1.641.048 3.607 2.98 4.075 3.717a1.027 1.027 0 0 1-.055.169s-2.304-3.83-4.179-3.9c-1.874-.068-.643-2.326 1.42-4.62z"/><path id="wmbobS" d="M942.987 1106.93c0 .48.055.87.12.87s.12-.39.12-.87c0-.482-.064-.254-.133-.254-.068 0-.107-.228-.107.253z"/><path id="wmbobT" d="M942.321 1107.504c.422.228.79.367.822.309.033-.059-.283-.293-.705-.523-.422-.23-.257-.062-.29 0-.032.061-.25-.017.173.214z"/><path id="wmbobU" d="M950.45 1105.188s1.043 1.364-.484 3.427c-1.527 2.064-2.784 3.805-2.274 5.092 0 0 2.303-3.83 4.181-3.9 1.878-.067.64-2.326-1.423-4.62z"/><path id="wmbobV" d="M950.45 1105.188c.09.132.162.276.211.428 1.833 2.148 2.807 4.156 1.047 4.205-1.625.048-3.604 2.98-4.075 3.717 0 .058.036.113.055.169 0 0 2.304-3.83 4.182-3.9 1.878-.068.643-2.326-1.42-4.62z"/><path id="wmbobW" d="M952.39 1106.93c0 .48-.052.87-.12.87-.069 0-.12-.39-.12-.87 0-.482.068-.254.132-.254.066 0 .108-.228.108.253z"/><path id="wmbobX" d="M953.06 1107.504c-.423.228-.794.367-.823.309-.03-.059.283-.293.705-.523.422-.23.257-.062.29 0 .032.061.25-.017-.173.214z"/><path id="wmbobY" d="M952.059 1113.528s-2.925-.091-3.802-.718c-.877-.627-4.493-1.374-4.711-.367-.218 1.007-4.393 5-1.092 5.026 3.301.026 7.662-.513 8.542-1.05.88-.535 1.063-2.891 1.063-2.891z"/><path id="wmbobZ" d="M942.393 1117.118c3.3.026 7.664-.513 8.544-1.05.667-.405.936-1.867 1.024-2.543h.097s-.185 2.355-1.062 2.891c-.877.537-5.244 1.076-8.542 1.05-.952 0-1.283-.348-1.264-.848.133.305.494.494 1.203.5z"/><path id="wmboca" d="M741.281 1121.602c0-.92 5.05-1.667 11.281-1.667 6.23 0 11.28.746 11.28 1.667 0 .92-5.05 1.667-11.28 1.667-6.23 0-11.28-.747-11.28-1.667z"/><path id="wmbocb" d="M768.596 1136.564c0-.92 5.05-1.667 11.281-1.667 6.23 0 11.28.746 11.28 1.667 0 .92-5.05 1.667-11.28 1.667-6.23 0-11.28-.747-11.28-1.667z"/><path id="wmbocc" d="M892.916 1097.578c0-.46 3.344-.835 7.47-.835 4.125 0 7.469.374 7.469.835 0 .461-3.344.835-7.47.835-4.125 0-7.47-.374-7.47-.835z"/><path id="wmbocd" d="M857.998 1121.602c0-.461 3.344-.835 7.47-.835 4.125 0 7.469.374 7.469.835 0 .461-3.344.835-7.47.835-4.125 0-7.47-.374-7.47-.835z"/><path id="wmboce" d="M842.256 1136.564c0-.461 3.344-.835 7.47-.835 4.125 0 7.47.374 7.47.835 0 .461-3.345.835-7.47.835-4.126 0-7.47-.374-7.47-.835z"/><linearGradient id="wmboaU" x1="1492.76" x2="1492.76" y1="1095.2" y2="1003.37" gradientUnits="userSpaceOnUse"><stop offset="0" stop-color="gray" stop-opacity=".25"/><stop offset=".54" stop-color="gray" stop-opacity=".12"/><stop offset="1" stop-color="gray" stop-opacity=".1"/></linearGradient></defs><g><g opacity=".1" transform="translate(-698 -892)"><use fill="#fdc830" xlink:href="#wmboa"/></g><g opacity=".1" transform="translate(-698 -892)"><g opacity=".1"><use xlink:href="#wmbob"/></g></g><g transform="translate(-698 -892)"><use fill="#f7f7fd" xlink:href="#wmboc"/></g><g opacity=".1" transform="translate(-698 -892)"><g opacity=".1"><use xlink:href="#wmbod"/></g></g><g transform="translate(-698 -892)"><use fill="#f7f7fd" xlink:href="#wmboe"/></g><g opacity=".2" transform="translate(-698 -892)"><g opacity=".2"><use fill="#fdc830" xlink:href="#wmbof"/></g></g><g opacity=".1" transform="translate(-698 -892)"><g opacity=".1"><use xlink:href="#wmbog"/></g></g><g transform="translate(-698 -892)"><use fill="#f7f7fd" xlink:href="#wmboh"/></g><g opacity=".1" transform="translate(-698 -892)"><g opacity=".1"><use xlink:href="#wmboi"/></g></g><g transform="translate(-698 -892)"><use fill="#f7f7fd" xlink:href="#wmboj"/></g><g opacity=".2" transform="translate(-698 -892)"><g opacity=".2"><use fill="#fdc830" xlink:href="#wmbok"/></g></g><g transform="translate(-698 -892)"><use fill="#fff" xlink:href="#wmbol"/></g><g transform="translate(-698 -892)"><use fill="#fff" xlink:href="#wmbom"/></g><g transform="translate(-698 -892)"><use fill="#fff" xlink:href="#wmbon"/></g><g opacity=".2" transform="translate(-698 -892)"><g opacity=".2"><use fill="#fdc830" xlink:href="#wmboo"/></g></g><g transform="translate(-698 -892)"><use fill="#fff" xlink:href="#wmbop"/></g><g transform="translate(-698 -892)"><use fill="#fff" xlink:href="#wmboq"/></g><g transform="translate(-698 -892)"><use fill="#fff" xlink:href="#wmbor"/></g><g opacity=".2" transform="translate(-698 -892)"><g opacity=".2"><use fill="#fdc830" xlink:href="#wmbos"/></g></g><g opacity=".2" transform="translate(-698 -892)"><g opacity=".2"><use fill="#fdc830" xlink:href="#wmbot"/></g></g><g opacity=".1" transform="translate(-698 -892)"><use fill="#fdc830" xlink:href="#wmbou"/></g><g transform="translate(-698 -892)"><use fill="#fdc830" xlink:href="#wmbov"/></g><g opacity=".1" transform="translate(-698 -892)"><use xlink:href="#wmbow"/></g><g transform="translate(-698 -892)"><use fill="#ffd037" xlink:href="#wmbox"/></g><g transform="translate(-698 -892)"><use fill="#ffd037" xlink:href="#wmboy"/></g><g transform="translate(-698 -892)"><use fill="#fdc830" xlink:href="#wmboz"/></g><g opacity=".1" transform="translate(-698 -892)"><use xlink:href="#wmboA"/></g><g transform="translate(-698 -892)"><use fill="#ffd037" xlink:href="#wmboB"/></g><g transform="translate(-698 -892)"><use fill="#ffd037" xlink:href="#wmboC"/></g><g transform="translate(-698 -892)"><use fill="#a8a8a8" xlink:href="#wmboD"/></g><g opacity=".2" transform="translate(-698 -892)"><use xlink:href="#wmboE"/></g><g opacity=".1" transform="translate(-698 -892)"><use fill="#fdc830" xlink:href="#wmboF"/></g><g transform="translate(-698 -892)"><use fill="#d38884" xlink:href="#wmboG"/></g><g transform="translate(-698 -892)"><use fill="#d38884" xlink:href="#wmboH"/></g><g opacity=".1" transform="translate(-698 -892)"><use xlink:href="#wmboI"/></g><g transform="translate(-698 -892)"><use fill="#4c4981" xlink:href="#wmboJ"/></g><g opacity=".05" transform="translate(-698 -892)"><use xlink:href="#wmboJ"/></g><g transform="translate(-698 -892)"><use fill="#d38884" xlink:href="#wmboK"/></g><g opacity=".1" transform="translate(-698 -892)"><use xlink:href="#wmboL"/></g><g transform="translate(-698 -892)"><use fill="#ceddf9" xlink:href="#wmboM"/></g><g opacity=".1" transform="translate(-698 -892)"><use xlink:href="#wmboN"/></g><g transform="translate(-698 -892)"><use fill="#cc8294" xlink:href="#wmboO"/></g><g transform="translate(-698 -892)"><use fill="#d38884" xlink:href="#wmboP"/></g><g opacity=".1" transform="translate(-698 -892)"><use xlink:href="#wmboQ"/></g><g transform="translate(-698 -892)"><use fill="#ceddf9" xlink:href="#wmboR"/></g><g opacity=".1" transform="translate(-698 -892)"><use xlink:href="#wmboS"/></g><g transform="translate(-698 -892)"><use fill="#cc8294" xlink:href="#wmboT"/></g><g opacity=".1" transform="translate(-698 -892)"><use xlink:href="#wmboU"/></g><g transform="translate(-698 -892)"><use fill="#ceddf9" xlink:href="#wmboV"/></g><g opacity=".05" transform="translate(-698 -892)"><use xlink:href="#wmboW"/></g><g opacity=".1" transform="translate(-698 -892)"><use xlink:href="#wmboX"/></g><g transform="translate(-698 -892)"><use fill="#ceddf9" xlink:href="#wmboY"/></g><g opacity=".1" transform="translate(-698 -892)"><use xlink:href="#wmboZ"/></g><g transform="translate(-698 -892)"><use fill="#d38884" xlink:href="#wmboaa"/></g><g opacity=".1" transform="translate(-698 -892)"><use xlink:href="#wmboab"/></g><g opacity=".1" transform="translate(-698 -892)"><use xlink:href="#wmboac"/></g><g transform="translate(-698 -892)"><use fill="#4c4981" xlink:href="#wmboad"/></g><g transform="translate(-698 -892)"><use fill="#d38884" xlink:href="#wmboae"/></g><g opacity=".1" transform="translate(-698 -892)"><use xlink:href="#wmboaf"/></g><g opacity=".1" transform="translate(-698 -892)"><use xlink:href="#wmboag"/></g><g opacity=".1" transform="translate(-698 -892)"><use xlink:href="#wmboah"/></g><g opacity=".1" transform="translate(-698 -892)"><use xlink:href="#wmboai"/></g><g opacity=".1" transform="translate(-698 -892)"><use xlink:href="#wmboaj"/></g><g opacity=".1" transform="translate(-698 -892)"><use xlink:href="#wmboak"/></g><g opacity=".1" transform="translate(-698 -892)"><use xlink:href="#wmboal"/></g><g opacity=".1" transform="translate(-698 -892)"><use xlink:href="#wmboam"/></g><g opacity=".1" transform="translate(-698 -892)"><use xlink:href="#wmboan"/></g><g transform="translate(-698 -892)"><use fill="#1e1637" xlink:href="#wmboao"/></g><g opacity=".1" transform="translate(-698 -892)"><use xlink:href="#wmboap"/></g><g transform="translate(-698 -892)"><use fill="#4c4981" xlink:href="#wmboaq"/></g><g opacity=".2" transform="translate(-698 -892)"><use xlink:href="#wmboar"/></g><g transform="translate(-698 -892)"><use fill="#ffd2c6" xlink:href="#wmboas"/></g><g transform="translate(-698 -892)"><use fill="#ffd2c6" xlink:href="#wmboat"/></g><g opacity=".1" transform="translate(-698 -892)"><use xlink:href="#wmboau"/></g><g transform="translate(-698 -892)"><use fill="#626696" xlink:href="#wmboav"/></g><g transform="translate(-698 -892)"><use fill="#ffd2c6" xlink:href="#wmboaw"/></g><g opacity=".1" transform="translate(-698 -892)"><use xlink:href="#wmboax"/></g><g transform="translate(-698 -892)"><use fill="#626696" xlink:href="#wmboay"/></g><g opacity=".1" transform="translate(-698 -892)"><use xlink:href="#wmboaz"/></g><g transform="translate(-698 -892)"><use fill="#626696" xlink:href="#wmboaA"/></g><g opacity=".1" transform="translate(-698 -892)"><use xlink:href="#wmboaB"/></g><g transform="translate(-698 -892)"><use fill="#626696" xlink:href="#wmboaC"/></g><g transform="translate(-698 -892)"><use fill="#ffd2c6" xlink:href="#wmboaD"/></g><g transform="translate(-698 -892)"><use fill="#ffd2c6" xlink:href="#wmboaE"/></g><g opacity=".1" transform="translate(-698 -892)"><use xlink:href="#wmboaF"/></g><g opacity=".1" transform="translate(-698 -892)"><use xlink:href="#wmboaG"/></g><g transform="translate(-698 -892)"><use fill="#ffcde5" xlink:href="#wmboaH"/></g><g transform="translate(-698 -892)"><use fill="#ffd2c6" xlink:href="#wmboaI"/></g><g opacity=".1" transform="translate(-698 -892)"><use xlink:href="#wmboaJ"/></g><g opacity=".1" transform="translate(-698 -892)"><use xlink:href="#wmboaK"/></g><g opacity=".1" transform="translate(-698 -892)"><use xlink:href="#wmboaL"/></g><g opacity=".1" transform="translate(-698 -892)"><use xlink:href="#wmboaM"/></g><g transform="translate(-698 -892)"><use fill="#985c7e" xlink:href="#wmboaN"/></g><g opacity=".1" transform="translate(-698 -892)"><use xlink:href="#wmboaO"/></g><g opacity=".1" transform="translate(-698 -892)"><g opacity=".1"><use xlink:href="#wmboaP"/></g><g opacity=".1"><use xlink:href="#wmboaQ"/></g></g><g opacity=".1" transform="translate(-698 -892)"><use fill="#fdc830" xlink:href="#wmboaR"/></g><g transform="translate(-698 -892)"><use fill="#fdc830" xlink:href="#wmboaS"/></g><g transform="translate(-698 -892)"><use fill="url(#wmboaU)" xlink:href="#wmboaT"/></g><g transform="translate(-698 -892)"><use fill="#db8b8b" xlink:href="#wmboaV"/></g><g opacity=".1" transform="translate(-698 -892)"><use xlink:href="#wmboaV"/></g><g transform="translate(-698 -892)"><use fill="#2e3037" xlink:href="#wmboaW"/></g><g transform="translate(-698 -892)"><use fill="#db8b8b" xlink:href="#wmboaX"/></g><g opacity=".1" transform="translate(-698 -892)"><use xlink:href="#wmboaY"/></g><g transform="translate(-698 -892)"><use fill="#2e3037" xlink:href="#wmboaZ"/></g><g transform="translate(-698 -892)"><use fill="#db8b8b" xlink:href="#wmboba"/></g><g transform="translate(-698 -892)"><use fill="#474463" xlink:href="#wmbobb"/></g><g opacity=".1" transform="translate(-698 -892)"><use xlink:href="#wmbobb"/></g><g transform="translate(-698 -892)"><use fill="#fc6681" xlink:href="#wmbobc"/></g><g opacity=".05" transform="translate(-698 -892)"><use xlink:href="#wmbobc"/></g><g opacity=".1" transform="translate(-698 -892)"><use xlink:href="#wmbobd"/></g><g transform="translate(-698 -892)"><use fill="#474463" xlink:href="#wmbobe"/></g><g opacity=".1" transform="translate(-698 -892)"><use xlink:href="#wmbobf"/></g><g transform="translate(-698 -892)"><use fill="#db8b8b" xlink:href="#wmbobg"/></g><g opacity=".1" transform="translate(-698 -892)"><use xlink:href="#wmbobh"/></g><g transform="translate(-698 -892)"><use fill="#fc6681" xlink:href="#wmbobi"/></g><g transform="translate(-698 -892)"><use fill="#db8b8b" xlink:href="#wmbobj"/></g><g opacity=".1" transform="translate(-698 -892)"><use xlink:href="#wmbobk"/></g><g transform="translate(-698 -892)"><use fill="#fc6681" xlink:href="#wmbobl"/></g><g opacity=".1" transform="translate(-698 -892)"><use xlink:href="#wmbobm"/></g><g opacity=".1" transform="translate(-698 -892)"><use xlink:href="#wmbobn"/></g><g opacity=".1" transform="translate(-698 -892)"><use xlink:href="#wmbobo"/></g><g transform="translate(-698 -892)"><use fill="#472727" xlink:href="#wmbobp"/></g><g opacity=".1" transform="translate(-698 -892)"><use fill="#fdc830" xlink:href="#wmbobq"/></g><g opacity=".1" transform="translate(-698 -892)"><use fill="#fdc830" xlink:href="#wmbobr"/></g><g opacity=".1" transform="translate(-698 -892)"><use fill="#fdc830" xlink:href="#wmbobs"/></g><g opacity=".1" transform="translate(-698 -892)"><use fill="#fdc830" xlink:href="#wmbobt"/></g><g opacity=".1" transform="translate(-698 -892)"><use fill="#fdc830" xlink:href="#wmbobu"/></g><g transform="translate(-698 -892)"><use fill="#fdc830" xlink:href="#wmbobv"/></g><g transform="translate(-698 -892)"><use fill="#fff" fill-opacity="0" stroke="#565987" stroke-miterlimit="50" xlink:href="#wmbobw"/></g><g transform="translate(-698 -892)"><use fill="#fff" fill-opacity="0" stroke="#565987" stroke-miterlimit="50" xlink:href="#wmbobx"/></g><g transform="translate(-698 -892)"><use fill="#fff" fill-opacity="0" stroke="#565987" stroke-miterlimit="50" xlink:href="#wmboby"/></g><g transform="translate(-698 -892)"><use fill="#fff" fill-opacity="0" stroke="#565987" stroke-miterlimit="50" xlink:href="#wmbobz"/></g><g transform="translate(-698 -892)"><use fill="#fff" fill-opacity="0" stroke="#565987" stroke-miterlimit="50" xlink:href="#wmbobA"/></g><g transform="translate(-698 -892)"><use fill="#fdc830" xlink:href="#wmbobB"/></g><g transform="translate(-698 -892)"><use fill="#fff" fill-opacity="0" stroke="#565987" stroke-miterlimit="50" xlink:href="#wmbobC"/></g><g transform="translate(-698 -892)"><use fill="#fff" fill-opacity="0" stroke="#565987" stroke-miterlimit="50" xlink:href="#wmbobD"/></g><g transform="translate(-698 -892)"><use fill="#fff" fill-opacity="0" stroke="#565987" stroke-miterlimit="50" xlink:href="#wmbobE"/></g><g transform="translate(-698 -892)"><use fill="#fff" fill-opacity="0" stroke="#565987" stroke-miterlimit="50" xlink:href="#wmbobF"/></g><g transform="translate(-698 -892)"><use fill="#fff" fill-opacity="0" stroke="#565987" stroke-miterlimit="50" xlink:href="#wmbobG"/></g><g transform="translate(-698 -892)"><use fill="#fdc830" xlink:href="#wmbobH"/></g><g transform="translate(-698 -892)"><use fill="#fff" fill-opacity="0" stroke="#565987" stroke-miterlimit="50" xlink:href="#wmbobI"/></g><g transform="translate(-698 -892)"><use fill="#fff" fill-opacity="0" stroke="#565987" stroke-miterlimit="50" xlink:href="#wmbobJ"/></g><g transform="translate(-698 -892)"><use fill="#fff" fill-opacity="0" stroke="#565987" stroke-miterlimit="50" xlink:href="#wmbobK"/></g><g transform="translate(-698 -892)"><use fill="#fff" fill-opacity="0" stroke="#565987" stroke-miterlimit="50" xlink:href="#wmbobL"/></g><g transform="translate(-698 -892)"><use fill="#fff" fill-opacity="0" stroke="#565987" stroke-miterlimit="50" xlink:href="#wmbobM"/></g><g transform="translate(-698 -892)"><use fill="#fdc830" xlink:href="#wmbobN"/></g><g transform="translate(-698 -892)"><use fill="#fdc830" xlink:href="#wmbobO"/></g><g transform="translate(-698 -892)"><use fill="#fdc830" xlink:href="#wmbobP"/></g><g transform="translate(-698 -892)"><use fill="#fdc830" xlink:href="#wmbobQ"/></g><g opacity=".1" transform="translate(-698 -892)"><use xlink:href="#wmbobR"/></g><g transform="translate(-698 -892)"><use fill="#ffd037" xlink:href="#wmbobS"/></g><g transform="translate(-698 -892)"><use fill="#ffd037" xlink:href="#wmbobT"/></g><g transform="translate(-698 -892)"><use fill="#fdc830" xlink:href="#wmbobU"/></g><g opacity=".1" transform="translate(-698 -892)"><use xlink:href="#wmbobV"/></g><g transform="translate(-698 -892)"><use fill="#ffd037" xlink:href="#wmbobW"/></g><g transform="translate(-698 -892)"><use fill="#ffd037" xlink:href="#wmbobX"/></g><g transform="translate(-698 -892)"><use fill="#a8a8a8" xlink:href="#wmbobY"/></g><g opacity=".2" transform="translate(-698 -892)"><use xlink:href="#wmbobZ"/></g><g opacity=".1" transform="translate(-698 -892)"><use fill="#fdc830" xlink:href="#wmboca"/></g><g opacity=".1" transform="translate(-698 -892)"><use fill="#fdc830" xlink:href="#wmbocb"/></g><g opacity=".1" transform="translate(-698 -892)"><use fill="#fdc830" xlink:href="#wmbocc"/></g><g opacity=".1" transform="translate(-698 -892)"><use fill="#fdc830" xlink:href="#wmbocd"/></g><g opacity=".1" transform="translate(-698 -892)"><use fill="#fdc830" xlink:href="#wmboce"/></g></g></svg>