<svg xmlns="http://www.w3.org/2000/svg" xmlns:xlink="http://www.w3.org/1999/xlink" width="401" height="286" viewBox="0 0 401 286"><defs><path id="qaqcn" d="M608.031 1659.848c.01 7.7-.798 15.38-2.407 22.911a100.6 100.6 0 0 1-1.883 7.416 95.852 95.852 0 0 1-3.037 8.781 89.313 89.313 0 0 1-1.835 4.256 64.93 64.93 0 0 1-4.144 23.007c-4.886 12.938-13.783 23.493-24.917 29.66a46.646 46.646 0 0 1-22.693 5.91H283.129c-14.11 0-27.188-5.015-37.91-13.561a69.89 69.89 0 0 1-8.706-8.291 74.051 74.051 0 0 1-9.57-13.718c-6.177-11.355-9.735-24.723-9.735-39.03-6.452-13.064-10.208-28.727-10.208-45.58 0-21.244 5.979-40.617 15.802-55.289a75.612 75.612 0 0 1 6.71-8.625 65.654 65.654 0 0 1 7.675-7.259 58.397 58.397 0 0 1 6.81-4.719 52.946 52.946 0 0 1 2.976-1.63 44.95 44.95 0 0 1 2.676-1.27 49.83 49.83 0 0 1 3.29-1.312 47.154 47.154 0 0 1 8.137-2.124 46.532 46.532 0 0 1 7.361-.674h.596c1.212 0 2.418.057 3.613.15.126-.293.262-.586.388-.879.477-1.049.97-2.09 1.467-3.119a.118.118 0 0 0 0-.027c.085-.177.17-.34.26-.528a85.06 85.06 0 0 1 1.249-2.492c.197-.382.391-.76.592-1.137.044-.089.089-.174.14-.263.204-.391.412-.78.623-1.167a141.798 141.798 0 0 1 3.279-5.72c.098-.16.19-.32.29-.477.176-.29.34-.58.537-.865.47-.763.953-1.522 1.44-2.275.34-.53.681-1.062 1.049-1.586a134.526 134.526 0 0 1 5.625-7.814c.136-.177.272-.34.415-.528l1.454-1.829.201-.248.528-.644a137.141 137.141 0 0 1 15.424-15.945c.18-.166.364-.34.545-.483a145.94 145.94 0 0 1 2.621-2.224c4.788-3.97 9.84-7.61 15.121-10.895a137.51 137.51 0 0 1 15.567-8.376 138.3 138.3 0 0 1 8.257-3.48 144.405 144.405 0 0 1 5.574-1.988 146.2 146.2 0 0 1 8.812-2.605 137.877 137.877 0 0 1 26.64-4.195c2.723-.163 5.478-.245 8.263-.245a138.38 138.38 0 0 1 39.833 5.819 1.39 1.39 0 0 0 1.236.742h1.148c.497.157.99.32 1.488.484 2.776.921 5.512 1.93 8.209 3.027l.68.279a138.083 138.083 0 0 1 35.602 21.403c.797.656 1.582 1.322 2.356 1.998a59.462 59.462 0 0 1 2.867-1.998 52.435 52.435 0 0 1 11.876-5.85 47.215 47.215 0 0 1 26.64-1.205c11.32 2.775 21.57 9.66 29.847 19.449a79.86 79.86 0 0 1 8.951 13.129c.187.34.375.68.555 1.021a92.457 92.457 0 0 1 5.7 13.126c.058.163.116.34.167.49 1.46 4.29 2.631 8.673 3.507 13.12.04.224.088.452.13.68.825 4.337 1.384 8.72 1.674 13.126 0 .16 0 .32.028.48.143 2.283.215 4.592.217 6.925 0 2.089-.057 4.157-.173 6.204 0 .228-.027.46-.044.681a76.86 76.86 0 0 1-.12 1.784 69.942 69.942 0 0 1 7.28 7.927 75.533 75.533 0 0 1 2.88 3.898 85.08 85.08 0 0 1 7.423 13.126c5.758 12.58 9.067 27.351 9.067 43.16z"/><path id="qaqco" d="M572.28 1748.633c0 5.056-15.635 9.67-41.328 13.156H289.888c-25.69-3.486-41.325-8.1-41.325-13.156 0-3.85 9.07-7.446 24.753-10.483l.443-.086c4.426-.847 9.374-1.651 14.78-2.403l.413-.058c4.29-.593 8.853-1.152 13.69-1.679l.457-.048c1.866-.204 3.77-.401 5.713-.592l.75-.071c14.146-1.362 30.228-2.466 47.667-3.204h.02c2.443-.103 4.912-.198 7.406-.287 2.774-.102 5.582-.192 8.424-.272a993.26 993.26 0 0 1 6.568-.17h.05c9.94-.235 20.209-.358 30.71-.358 25.965 0 50.507.746 72.254 2.07h.061c3.344.205 6.626.42 9.827.65l2.723.202c3.612.272 7.13.56 10.556.865 40.29 3.585 66.452 9.383 66.452 15.924z"/><path id="qaqcp" d="M546.23 1512.663v155.132a4.086 4.086 0 0 1-4.086 4.086H265.162a4.086 4.086 0 0 1-4.086-4.086V1559.38a46.53 46.53 0 0 1 7.361-.674h.596c1.212 0 2.418.057 3.613.15.126-.293.262-.586.388-.879.477-1.049.97-2.09 1.467-3.119a.12.12 0 0 0 0-.027c.085-.177.17-.34.26-.528.4-.837.82-1.668 1.249-2.492.197-.382.391-.76.592-1.137.044-.089.089-.174.14-.263.204-.391.412-.78.623-1.168a141.804 141.804 0 0 1 3.279-5.72c.098-.16.19-.32.29-.476.176-.29.34-.58.537-.865.47-.763.953-1.522 1.44-2.275.34-.53.681-1.062 1.049-1.586a134.54 134.54 0 0 1 5.625-7.814c.136-.178.272-.34.415-.528l1.454-1.829.201-.248.528-.644a137.14 137.14 0 0 1 15.424-15.945c.18-.166.364-.34.545-.483.864-.753 1.743-1.495 2.621-2.224h176.44c.797.656 1.582 1.323 2.356 2a59.498 59.498 0 0 1 2.867-2h49.711a4.086 4.086 0 0 1 4.083 4.056z"/><path id="qaqcq" d="M290.215 1550.392v15.206h-15.703v-10.76-.027c.085-.177.17-.34.258-.527.406-.838.82-1.669 1.253-2.493.194-.381.388-.759.59-1.137.044-.088.091-.174.139-.262z"/><path id="qaqcs" d="M289.946 1550.654v14.682h-15.162v-11.063c.405-.837.82-1.668 1.253-2.492a71.8 71.8 0 0 1 .589-1.137z"/><path id="qaqct" d="M338.114 1560.964v-15.206h15.707v15.206z"/><path id="qaqcv" d="M338.387 1560.702v-14.682h15.165v14.682z"/><path id="qaqcw" d="M409.055 1590.488v-15.207h15.706v15.207z"/><path id="qaqcy" d="M409.327 1590.225v-14.681h15.165v14.681z"/><path id="qaqcz" d="M481.442 1600.56v-15.207h15.707v15.206z"/><path id="qaqcB" d="M481.71 1600.297v-14.682h15.166v14.682z"/><path id="qaqcC" d="M500.836 1610.403v-15.207h15.707v15.207z"/><path id="qaqcE" d="M501.108 1610.14v-14.681h15.166v14.681z"/><path id="qaqcF" d="M525.16 1584.1v-15.206h15.707v15.206z"/><path id="qaqcH" d="M525.43 1583.838v-14.682h15.165v14.682z"/><path id="qaqcI" d="M520.237 1605.435v-15.206h15.706v15.206z"/><path id="qaqcK" d="M520.506 1605.173v-14.682h15.165v14.682z"/><path id="qaqcL" d="M359.541 1560.964v-15.206h15.707v15.206z"/><path id="qaqcN" d="M359.814 1560.702v-14.682h15.165v14.682z"/><path id="qaqcO" d="M286.153 1597.828v-15.206h15.706v15.206z"/><path id="qaqcQ" d="M286.422 1597.566v-14.681h15.165v14.681z"/><path id="qaqcR" d="M349.45 1582.885v-15.207h15.706v15.207z"/><path id="qaqcT" d="M349.721 1582.622v-14.681h15.166v14.681z"/><path id="qaqcU" d="M431.316 1573.797v-15.206h15.706v15.206z"/><path id="qaqcW" d="M431.585 1573.535v-14.682h15.165v14.682z"/><path id="qaqcX" d="M514.186 1563.133v-15.206h15.707v15.206z"/><path id="qaqcZ" d="M514.459 1562.87v-14.681h15.165v14.682z"/><path id="qaqcaa" d="M452.038 1560.964v-15.206h15.706v15.206z"/><path id="qaqcac" d="M452.307 1560.702v-14.682h15.165v14.682z"/><path id="qaqcad" d="M451.145 1590.488v-15.207h15.707v15.207z"/><path id="qaqcaf" d="M451.418 1590.225v-14.681h15.165v14.681z"/><path id="qaqcag" d="M380.63 1568.308v-15.206h15.707v15.206z"/><path id="qaqcai" d="M380.903 1568.043v-14.682h15.165v14.682z"/><path id="qaqcaj" d="M297.178 1573.201v-15.206h15.706v15.206z"/><path id="qaqcal" d="M297.45 1572.939v-14.682h15.165v14.682z"/><path id="qaqcam" d="M305.033 1590.488v-15.207h15.706v15.207z"/><path id="qaqcao" d="M305.302 1590.225v-14.681h15.165v14.681z"/><path id="qaqcap" d="M370.181 1592.956v-15.206h15.707v15.206z"/><path id="qaqcar" d="M370.45 1592.694v-14.682h15.166v14.682z"/><path id="qaqcas" d="M485.13 1563.133v-15.206h15.706v15.206z"/><path id="qaqcau" d="M485.402 1562.87v-14.681h15.165v14.682z"/><path id="qaqcav" d="M499.028 1584.1v-15.206h15.707v15.206z"/><path id="qaqcax" d="M499.3 1583.838v-14.682h15.166v14.682z"/><path id="qaqcay" d="M410.427 1560.964v-15.206h15.706v15.206z"/><path id="qaqcaA" d="M410.7 1560.702v-14.682h15.164v14.682z"/><path id="qaqcaB" d="M429.538 1605.435v-15.206h15.707v15.206z"/><path id="qaqcaD" d="M429.807 1605.173v-14.682h15.165v14.682z"/><path id="qaqcaE" d="M496.651 1743.488l-.034-.02a4.255 4.255 0 0 0-1.133-.324c-.096 0-.195-.02-.29-.027h-.02a5.64 5.64 0 0 0 .112-.963v-.58-.268-.11c0-.19-.017-.384-.03-.575-.014-.19-.038-.415-.052-.623a.919.919 0 0 1 0-.095c.045.13.092.259.147.388.42 1.094.874 2.171 1.362 3.231zm23.296-150.229a3.006 3.006 0 0 0-1.198-2.016 11.93 11.93 0 0 0-2.084-1.205 1.704 1.704 0 0 1-.606-.432 5.43 5.43 0 0 1-.34-.654c-.409-.712-1.294-.936-1.989-1.362-1.24-.752-1.811-2.087-2.325-3.49-.034-.088-.062-.177-.096-.262-.5-1.39-.977-2.813-2.015-3.786a4.324 4.324 0 0 0-5.407-.29c-.204.21-.473.343-.763.378a1.44 1.44 0 0 1-.732-.395 2.986 2.986 0 0 0-1.825-.504 17.385 17.385 0 0 1-.514-3.796v-.034a.05.05 0 0 1 0-.024v-.947H500.268c.253.011.507-.017.752-.085.101-.028.2-.065.296-.109.916-.432 1.471-1.454 1.883-2.42.272-.64.524-1.298.739-1.969.027-.085.05-.17.081-.258.038-.136.082-.276.116-.416 0-.044.024-.088.034-.132.01-.045.024-.086.034-.13l.031-.143.174.123.03.017.375.262c1.757 1.202 3.602 2.336 4.365 2.363a.395.395 0 0 0 .225-.044c.493-.273-.453-1.287-1.642-2.32-.098-.088-.204-.173-.31-.261a55.781 55.781 0 0 0-2.383-1.883l-.51-.371c.68-.623 1.075-1.74 1.253-2.724.17-.944.278-1.898.32-2.857v-.048c.045-1.029-.048-2.06-.276-3.064-.463-1.947-1.635-3.807-3.405-4.719-.51-.266-1.093-.473-1.597-.76-.095-.054-.18-.112-.269-.17a2.362 2.362 0 0 1-.443-.378 1.539 1.539 0 0 1-.224-.306.911.911 0 0 1-.089-.16 2.063 2.063 0 0 0-.252-.487c-.34-.378-.912-.265-1.406-.204H497.744c-1.767.04-3.473-.947-5.26-.947-1.954 0-3.62 1.134-5.342 1.91-.34.16-.681.303-.984.45-.26.122-.5.245-.736.378a3.15 3.15 0 0 0-.265.167c-.647.407-1.155 1-1.458 1.702-.34.402-.586.876-.718 1.386a3.427 3.427 0 0 0-.092.711 11.805 11.805 0 0 0-3.53 8.41v.515a11.815 11.815 0 0 0 8.406 10.813c.133.041.269.082.408.116.034.116.082.232.116.34.072.222.14.44.19.661.035.11.059.222.083.34.178.758.26 1.535.245 2.313V1580.28a8.974 8.974 0 0 0-2.554 1.021 4.927 4.927 0 0 0-2.148 2.646 2.12 2.12 0 0 0-.069.248 6.837 6.837 0 0 0-1.944-.34c-.602-.02-1.277.044-1.675.5-.153.187-.26.408-.31.644-.231.208-.272.572-.432.851-.497.872-1.791.586-2.765.824a1.916 1.916 0 0 0-.29.095c-.922.34-1.702 1.158-2.682 1.165a6.853 6.853 0 0 0-1.175-.065l-.072.017c-.405.102-.728.66-.415.94-.48-.109-.95.214-1.256.603-.307.388-.494.85-.824 1.215a1.273 1.273 0 0 0-1.29-.5 4.68 4.68 0 0 0-1.363.538 1.869 1.869 0 0 1-.602.21 2.61 2.61 0 0 1-.726-.064 5.856 5.856 0 0 0-3.435.48c-.94.446-1.849-.374-2.887-.44a1.6 1.6 0 0 1-1.056-.34.455.455 0 0 1-.078-.085 1.532 1.532 0 0 1-.15-.262c-.068-.157-.112-.34-.17-.487a4.137 4.137 0 0 0-2.857-2.642l-.17-.04c.068-.195.116-.396.143-.6a3.538 3.538 0 0 0-2.217-3.745 3.745 3.745 0 0 0-1.294-3.28 5.745 5.745 0 0 1-.62-.486l-.033-.027a1.582 1.582 0 0 1-.235-.31 4.79 4.79 0 0 1-.361-.794c-.303-.81-.613-1.62-.916-2.43-.409-.082-.725-.253-1.114-.317v-.249a8.077 8.077 0 0 0-.418-2.441c-.325-.93-.77-1.814-1.325-2.629a10.22 10.22 0 0 0-.265-.401c-.116-.18-.242-.34-.365-.532-.878-1.222-1.855-2.43-3.156-3.17-.435-.233-.885-.44-1.345-.62l-2.383-.976a1.121 1.121 0 0 0-.426-.116c-.572 0-.725.786-.497 1.328.028.063.061.125.099.184.725 1.062 2.349 1.362 2.802 2.563a1.637 1.637 0 0 0-.623.133c-.52.208-.914.646-1.066 1.185a.977.977 0 0 1-.225.531c-.214.167-.538.072-.773.201-.422.225-.241.855-.286 1.331-.04.426-.303.794-.432 1.199-.092.314-.11.645-.051.967l.02.102c.007.05.017.1.031.15.086.334.228.652.419.94a7.638 7.638 0 0 0 1.552 1.573c.389.32.784.643 1.199.936.12.082.235.16.34.238a.407.407 0 0 0-.037.065c0 .048-.037.095-.058.146a.68.68 0 0 0 .092.701c.091.111.191.214.3.307a6.129 6.129 0 0 1 1.866 3.371c.038.254.029.512-.028.763a6.27 6.27 0 0 0-.303 1.546c.006.128.022.255.048.381.112.605.292 1.196.538 1.76.633 1.607 1.304 3.269 2.567 4.427a14.334 14.334 0 0 0 2.88 7.092c1.325 1.702 3.1 2.99 4.853 4.253.55.443 1.152.82 1.79 1.123.578.213 1.172.374 1.778.48a91.246 91.246 0 0 0 14.862 1.737l.681.024h.034c0 .262.024.524.034.786a165 165 0 0 1 .16 7.859v.704a3.948 3.948 0 0 1-.21 1.509 4.368 4.368 0 0 1-.71 1.021c-.064.082-.135.167-.2.252-1.021 1.362-1.219 3.177-1.185 4.927v.03c0 .263 0 .525.027.784.126 2.341.406 4.672.838 6.976.402 2.186.231 4.542.545 6.755.103.758.286 1.502.544 2.22l1.233 3.313c.138.31.221.64.245.978.003.106-.005.212-.024.316-.109.59-.507 1.114-.813 1.645a5.694 5.694 0 0 0-.719 3.01v.085a.491.491 0 0 0 .082.245c.133.184.412.167.633.133.886-.13 1.778-.213 2.673-.249h.095c-.03.038-.064.075-.095.116-.102.14-.204.29-.303.453l-.048.082c-.222.388-.419.79-.589 1.205a11.399 11.399 0 0 0-.783 2.162c-.036.11-.062.225-.078.34-.055.225-.102.45-.136.681a21.616 21.616 0 0 0-.246 3.541v.491c-.027.527-.054 1.062-.085 1.58-.098 1.893-.214 3.592-.405 4.18a3.438 3.438 0 0 0-.116 1.158v.017c.03.52.104 1.036.218 1.543.106.538.245 1.093.385 1.641v.054c0 .205.02.406.04.606v.028c.062.897.244 1.783.542 2.632v.446a.438.438 0 0 0 0 .068c0 .245.03.494.055.739.075.718.194 1.433.34 2.148v.12c.681 3.781 1.374 7.561 2.077 11.34.041.229.085.454.13.682a788.652 788.652 0 0 0 2.383 12.118c.071.34.136.68.211 1.021.037.16.072.324.113.484.04.16.095.391.142.585a16.838 16.838 0 0 0 3.102 6.13 28.036 28.036 0 0 1 3.235 5.181c0 .051-.024.099-.038.15-.074.361-.156.718-.241 1.076l-.02.082c-.906 3.844-2.115 7.633-2.534 11.576-.03.283-.054.565-.082.851-.122 1.29-.241 2.588-.749 3.773-.146.34-.323.664-.476 1.001a3.64 3.64 0 0 0-.365 1.236.95.95 0 0 0 0 .17.198.198 0 0 0 0 .045v.017c.008.424.125.84.34 1.205l-.043.034c-.092.071-.181.14-.266.211l-.17.143c-1.175.933-2.748 1.124-4.202 1.502-1.454.377-3.006 1.144-3.456 2.58a3.728 3.728 0 0 0-.068.28.933.933 0 0 0-.02.136 2.467 2.467 0 0 0-.031.419v.03a.423.423 0 0 0 0 .065 3.878 3.878 0 0 0 1.702 2.843c1.206.827 2.724 1.086 4.154 1.273 1.43.188 2.942.341 4.256.978 1.13.561 2.087 1.484 3.286 1.89.072.023.143.037.218.057l-.065.038c-.163.098-.34.194-.493.282l-.266.147a12.448 12.448 0 0 1-3.967 1.263c-1.402.194-3.064.286-3.79 1.505a.24.24 0 0 0-.027.061.811.811 0 0 0-.078.187v.028a.399.399 0 0 0-.03.081.488.488 0 0 0-.031.092.644.644 0 0 1 0 .079 1.457 1.457 0 0 0-.058.269c-.03.235-.021.474.024.708.13.633.449 1.211.916 1.658.85.8 2.043 1.147 3.16 1.396 2.584.569 5.226.773 7.865.977l2.564.198c.915.071 1.835.14 2.75.204.65.04 1.301.082 1.952.112.65.03 1.239.051 1.859.065h.967c1.589 0 3.167-.067 4.736-.2a52.896 52.896 0 0 0 4.525-.607c.281-.007.548-.13.735-.34a.688.688 0 0 0 .065-.144.123.123 0 0 0 0-.03.448.448 0 0 0 0-.065.86.86 0 0 0 0-.099v-.03-.211c0-.324 0-.644-.024-.967v-.395l-.02-.399c-.024-.388-.048-.78-.082-1.168l-.04-.463v-.153c0-.116-.021-.231-.035-.34 0-.065 0-.133-.024-.201l-.061-.548a46.207 46.207 0 0 0-.62-3.797v-.024-.02c-.064-.293-.129-.582-.19-.872-.215-.919-1.468.34-2.17 1.127-.091-.439-.186-.875-.302-1.3v-.051c.187-.086.37-.174.551-.263.428-.154.79-.453 1.022-.844.06-.145.097-.3.109-.456.007-.095.007-.191 0-.286v-.225c-.102-2.022-.225-4.116-1.185-5.89a12.53 12.53 0 0 0-2.34-2.854c0-.218-.023-.435-.033-.653a138.336 138.336 0 0 0-.453-6.493 94.662 94.662 0 0 0-1.808-11.737c-.242-1.045-.487-2.09-.79-3.122a20.43 20.43 0 0 0-2.642-5.9 31.29 31.29 0 0 0-.722-1.022 60.937 60.937 0 0 0-.34-3.834 106.679 106.679 0 0 0-.767-5.24c-.023-.164-.054-.34-.071-.5v-.028c-.02-.23.007-.462.082-.68a4.03 4.03 0 0 1 .68-.917 3.871 3.871 0 0 0 .719-2.383.986.986 0 0 0 0-.099c0-.902-.133-1.856-.194-2.751 0-.252-.024-.5-.024-.753v-.027-.112c0-.262 0-.521.017-.78.096-2.009.572-4.004 1.022-5.965.487-2.043.98-4.055 1.464-6.085.194-.79.384-1.583.568-2.383.072-.283.14-.562.205-.844.185-.882.449-1.744.79-2.578.517-1.168 1.324-2.179 2.015-3.252a18.233 18.233 0 0 0 2.843-9.68.058.058 0 0 0 0-.023v-.041a.437.437 0 0 0 0-.068v-.681c0-.177 0-.34-.03-.538.422.15.847.303 1.266.466.032-.255.05-.512.055-.77v-.027c.034-1.576-.31-3.251-.34-4.838a.222.222 0 0 1 0-.048v-.044a8.374 8.374 0 0 1 .105-1.556 6.24 6.24 0 0 1 .173-.705c.12-.095.239-.19.34-.29a9.782 9.782 0 0 0 2.81-3.479c.613-1.362.79-2.918 1.43-4.28.36-.766.872-1.474 1.086-2.298.064-.252.102-.51.112-.77v-.04a25.312 25.312 0 0 0-.17-2.568v-.412c.034-2.363 1.505-4.576 1.669-6.88v-.031a5.52 5.52 0 0 0-.055-1.158c-.18-1.148-.79-2.22-.902-3.364a2.717 2.717 0 0 1-.02-.44 6.688 6.688 0 0 1 .534-2.066c1.188-3.143 2.363-6.449 2.451-9.762a.092.092 0 0 0 0-.03v-.072c.031-.907-.038-1.815-.207-2.707-.157-.868-.412-1.726-.48-2.598a5.585 5.585 0 0 1 0-.68c.054-.958.405-1.894.497-2.834a3.87 3.87 0 0 0 0-.909 2.867 2.867 0 0 0-.307-.899 2.841 2.841 0 0 0-.258-.408 15.508 15.508 0 0 0 1.385-2.656c.155-.349.27-.714.34-1.09.036-.226.041-.456.014-.684z"/><path id="qaqcaG" d="M488.82 1580.968c-.044 1.726-.63 3.404-.722 5.127 5.108.252 10.11-2.216 15.145-1.46-1.406-.91-2.159-2.554-2.601-4.171a17.232 17.232 0 0 1-.497-6.408c.013-.115.033-.229.061-.34.187-.845.681-2.044.541-2.708-.17-.878-1-.704-1.746-.653a66.116 66.116 0 0 0-6.79.875c-.585.102-6.288 1.525-6.373 1.379.94 1.624 1.896 3.313 2.468 5.083a9.902 9.902 0 0 1 .514 3.276z"/><path id="qaqcaH" d="M438.5 1575.629a7.375 7.375 0 0 0 1.556 1.566c.385.317.78.64 1.195.93.739.565 1.618.919 2.543 1.021 1.213.082 3.787-.63 4.54-1.668a3.003 3.003 0 0 0 .431-1.737 8.052 8.052 0 0 0-.415-2.43 13.52 13.52 0 0 0-1.965-3.549c-.875-1.219-1.848-2.417-3.152-3.156a12.218 12.218 0 0 0-1.342-.616l-2.383-.974a1.195 1.195 0 0 0-.433-.113c-.636 0-.752.978-.391 1.502.722 1.059 2.346 1.362 2.802 2.554a1.818 1.818 0 0 0-1.703 1.307.933.933 0 0 1-.228.531c-.207.167-.534.072-.773.198-.418.224-.234.85-.279 1.328-.04.422-.306.786-.436 1.191-.178.734-.02 1.51.433 2.115z"/><path id="qaqcaI" d="M508.64 1748.868c-.392-.391-1.022-.323-1.58-.238a58.71 58.71 0 0 1-8.876.718c-.372-1.818.708-3.585 1.055-5.407.046-.468.16-.927.34-1.362.416-.803 1.363-1.171 2.248-1.362 1.6-.34 4.086-.933 4.995.681 1.086 1.944 1.43 4.811 1.818 6.97z"/><path id="qaqcaJ" d="M476.12 1742.004c1.205.824 2.704 1.08 4.154 1.266 1.45.188 2.942.324 4.256.97 1.134.56 2.087 1.479 3.29 1.88 1.089.365 2.28.266 3.404.055 1.362-.252 2.785-.746 3.514-1.91.65-1.022.579-2.346.49-3.565-.105-1.362-.204-2.758-.306-4.137a2.018 2.018 0 0 0-.256-1.001c-.977-1.42-3.347.596-4.613.592-2.013 0-4.171-1.09-5.618-2.424a1.701 1.701 0 0 0-.436-.34c-.576-.26-1.148.217-1.658.633a3.298 3.298 0 0 1-.17.136c-1.175.933-2.748 1.12-4.199 1.498-1.45.378-3.006 1.137-3.456 2.567a2.05 2.05 0 0 0-.068.276c-.258 1.338.545 2.731 1.672 3.504z"/><path id="qaqcaK" d="M476.12 1742.467c1.206.824 2.704 1.08 4.154 1.267 1.45.187 2.942.323 4.256.97 1.134.562 2.087 1.478 3.29 1.88 1.089.364 2.28.265 3.404.054a5.639 5.639 0 0 0 3.514-2.384c.65-1.021.579-2.345.49-3.564-.105-1.362-.204-2.758-.306-4.137a2.018 2.018 0 0 0-.256-1.001c-.977-1.42-3.347.596-4.613.592-2.012 0-4.171-1.09-5.618-2.424a1.704 1.704 0 0 0-.436-.34c-.575-.26-1.148.217-1.658.633a11.917 11.917 0 0 0 1.413 2.914c1.021 1.495 2.628 2.639 4.426 2.772.899.064 1.822-.113 2.69.119.868.231 1.679 1.12 1.362 1.965-.317.844-1.362 1.021-2.24 1.052-1.23.064-2.49.126-3.654-.256-.711-.238-1.362-.63-2.043-.919-2.945-1.222-6.667-.538-9.101-2.601a5.185 5.185 0 0 0-.742-.569c-.637 1.348.541 3.204 1.668 3.977z"/><path id="qaqcaL" d="M508.092 1652.31c.939 4.61.048 9.403-2.486 13.367-.68 1.07-1.498 2.074-2.016 3.235-.34.83-.604 1.69-.79 2.567l-2.233 9.258c-.606 2.499-1.212 5.046-1.021 7.61.126 1.787.575 3.796-.525 5.209-.271.269-.5.576-.68.912-.106.395-.106.811 0 1.206 1.13 6.721 1.97 13.745-.072 20.249-1.852 5.893-1.961 12.424-3.534 18.386-.195.742-.42 1.522-.981 2.043a3.198 3.198 0 0 1-1.464.68c-2.322.556-4.767-.095-6.94-1.096-1.521-.704-3.16-1.94-3.03-3.612.065-.797.528-1.495.845-2.227.616-1.437.68-3.04.834-4.597.419-3.908 1.624-7.678 2.533-11.501.91-3.824 1.529-7.814.76-11.669a101.988 101.988 0 0 0-7.491-23.091 2.748 2.748 0 0 0-.681-1.022c-.307-.252-.712-.368-.974-.68-.262-.314-.34-.79-.443-1.21-.34-1.219-1.345-2.117-2.019-3.19-1.702-2.703-1.164-6.17-1.1-9.363.062-3.109-.384-6.245.123-9.31.507-3.064 2.264-6.196 5.22-7.15 1.464-.473 3.047-.367 4.58-.214 8.082.807 15.961 2.295 23.585 5.21z"/><path id="qaqcaM" d="M475.037 1671.796c.026 1.206.163 2.407.409 3.588 1.43 8.024 2.954 16.03 4.573 24.018.143.681.282 1.386.47 2.067a16.789 16.789 0 0 0 3.098 6.095c6.742 8.403 7.324 20.61 10.984 30.746.245.68.494 1.362.756 2.042.66 1.72 1.413 3.4 2.257 5.036.098.24.257.447.463.603.228.114.482.163.736.143a21.449 21.449 0 0 0 9.516-2.155c.427-.154.787-.45 1.022-.838.112-.31.148-.64.105-.967-.102-2.009-.224-4.086-1.181-5.856a12.562 12.562 0 0 0-2.343-2.84c-.286-6.306-.909-12.625-2.294-18.785-.712-3.149-1.594-6.333-3.405-8.995-1.362-1.965-3.283-3.902-3.044-6.275.105-1.022.541-2.336-.307-2.949-.37-.269-.919-.303-1.168-.68a1.29 1.29 0 0 1-.163-.587 14.527 14.527 0 0 1 .3-4.865c.245-1.056.613-2.09.725-3.17.112-1.08-.078-2.254-.797-3.064-.044-2.166 0-4.427-.03-6.572-.021-1.236-.045-2.489.303-3.67.166-.569.415-1.11.54-1.703.454-2.077-.68-4.569.682-6.217.562-.68 1.427-1.021 2.159-1.519 1.467-.98 2.427-2.58 2.962-4.259.534-1.679.68-3.456.84-5.216a5.43 5.43 0 0 0 0-1.127 2.017 2.017 0 0 0-.15-.562c-.418-.94-1.541-1.304-2.542-1.546a82.2 82.2 0 0 0-19.408-2.267c-2.418-1.648-3.78-1.06-4.804.68a18.116 18.116 0 0 0-1.362 3.34c-.47 1.414-.497 9.333-.954 10.753-.636 1.86 1.076 5.632 1.052 7.573z"/><path id="qaqcaN" d="M518.752 1599.742c.18 1.246-.418 2.472-.486 3.728-.058 1.097.292 2.17.493 3.252.78 4.222-.718 8.495-2.247 12.506a6.438 6.438 0 0 0-.531 2.043c-.041 1.31.711 2.51.92 3.803.432 2.724-1.57 5.274-1.615 8.029 0 1.266.382 2.557.065 3.783-.211.82-.722 1.522-1.086 2.288-.644 1.362-.814 2.89-1.43 4.256-1.107 2.472-3.49 4.086-5.754 5.567-1.29-.43-2.687-.94-3.405-2.101a5.172 5.172 0 0 1-.59-1.842c-.49-2.816-.473-5.69-.456-8.546a53.06 53.06 0 0 1 .402-7.328c.456-3.105 1.464-6.098 2.186-9.152.913-3.85 1.362-7.831 2.799-11.525 1.246-3.249 3.19-6.163 5.237-8.952.78-1.065 1.396-2.587 2.91-2.342a3.173 3.173 0 0 1 2.588 2.533z"/><path id="qaqcaO" d="M485.827 1572.595c.94 1.624 1.897 3.313 2.469 5.083.917.227 1.858.34 2.802.34 3.667 0 6.265-2.086 8.42-4.722.188-.847 1.362-1.634 1.22-2.301-.171-.879-1.002-.705-1.747-.654a66.098 66.098 0 0 0-6.79.875c-.585.102-6.278 1.525-6.374 1.379z"/><path id="qaqcaP" d="M479.358 1565.949c0-6.49 5.26-11.75 11.75-11.75s11.75 5.26 11.75 11.75-5.26 11.75-11.75 11.75-11.75-5.26-11.75-11.75z"/><path id="qaqcaQ" d="M476.26 1650.14c2.043-.118 4.086-.037 6.128.045 1.276.013 2.548.144 3.8.392 1.543.34 2.986 1.052 4.508 1.49 2.438.712 5.012.743 7.535.992 1.658.162 3.306.42 4.934.773a2.02 2.02 0 0 0-.15-.562c-.419-.94-1.542-1.304-2.543-1.546a82.199 82.199 0 0 0-19.408-2.268c-2.418-1.648-3.78-1.059-4.804.685z"/><path id="qaqcaR" d="M484.268 1585.186c.514.593 1.202 1.246 1.961 1.056.274-.095.532-.233.763-.409 1.362-.875 3.017-1.08 4.61-1.318a68.09 68.09 0 0 0 9.496-2.134 9.663 9.663 0 0 1 2.81-.572c1.991 0 3.744 1.334 5.004 2.887 1.26 1.553 2.132 3.367 3.358 4.937.871 1.12 1.91 2.108 2.723 3.269 2.043 2.931 2.5 6.758 1.968 10.303-.53 3.544-1.947 6.881-3.35 10.18-.804 1.89-1.614 3.79-2.724 5.513.473 2.693.225 5.771-1.055 8.171-.42.787-.93 1.553-1.066 2.435a6.045 6.045 0 0 0 .071 1.784l.6 4.253c.18 1.297.364 2.59.599 3.878.432 2.356 1.021 4.913-.072 7.044-1.307 2.55.065 5.823-.279 8.67a43.605 43.605 0 0 0-11.45-2.725c-2.527-.248-5.108-.279-7.535-.987-1.522-.443-2.963-1.144-4.508-1.498a20.884 20.884 0 0 0-3.804-.388c-2.815-.113-5.652-.225-8.437.19-.228.034-.5.051-.637-.133a.61.61 0 0 1-.085-.34 5.6 5.6 0 0 1 .722-2.99c.34-.626.848-1.242.834-1.96a2.948 2.948 0 0 0-.245-.974l-1.232-3.296c-1.046-2.779-.548-6.01-1.09-8.928a52.43 52.43 0 0 1-.81-6.908c-.102-1.982-.038-4.13 1.157-5.714.35-.38.653-.803.903-1.256.172-.481.245-.992.214-1.502.027-3.963-.086-7.925-.34-11.886 1.045-1.873 2.131-3.79 3.173-5.662 1.212-2.18 2.445-4.403 2.935-6.848.34-1.62.313-3.285.545-4.92.023-.416.167-.816.415-1.15.399-.45 1.07-.514 1.672-.497.746.03 1.483.173 2.186.425z"/><path id="qaqcaS" d="M441.248 1578.124c.739.566 1.618.92 2.543 1.022 1.212.082 3.786-.63 4.539-1.668a3.003 3.003 0 0 0 .432-1.737 2.102 2.102 0 0 0-.504-.099c-1.318-.078-2.662-.156-3.943.16-1.28.317-2.52 1.093-3.064 2.299z"/><path id="qaqcaT" d="M480.346 1603.542c-.719.888-1.461 1.808-2.476 2.332-1.168.606-2.543.62-3.857.593a92.243 92.243 0 0 1-16.122-1.771 9.958 9.958 0 0 1-1.774-.477 9.452 9.452 0 0 1-1.795-1.116c-1.746-1.257-3.52-2.537-4.852-4.233a14.242 14.242 0 0 1-2.873-7.051c-1.267-1.165-1.938-2.823-2.571-4.426a6.835 6.835 0 0 1-.586-2.149c-.034-.76.47-1.556.34-2.305a6.094 6.094 0 0 0-1.862-3.354 1.216 1.216 0 0 1-.446-.589.953.953 0 0 1 .11-.575c.537-1.206 1.777-1.982 3.064-2.299 1.287-.316 2.625-.234 3.942-.156.477.03.824.252 1.29.34l.92 2.421c.125.405.33.78.603 1.103.205.185.422.356.65.511a3.745 3.745 0 0 1 1.294 3.262 3.504 3.504 0 0 1 2.074 4.324 4.134 4.134 0 0 1 3.03 2.67c.065.303.2.588.395.83a1.62 1.62 0 0 0 1.059.34c1.021.065 1.944.883 2.887.44a5.853 5.853 0 0 1 3.415-.48c.24.057.486.079.732.065.21-.037.412-.107.6-.208a4.919 4.919 0 0 1 1.361-.538c.492-.102.997.094 1.29.5.341-.36.529-.823.828-1.208a1.32 1.32 0 0 1 1.253-.6c-.313-.279 0-.834.412-.936.412-.102.834.048 1.253.048 1.086 0 1.92-.994 2.976-1.253.97-.235 2.264.048 2.761-.82.177-.307.211-.723.511-.91a.977.977 0 0 1 .654-.078c.69.092 1.36.296 1.985.602 1.021 3.98.483 8.114-.293 12.15-.371 1.916-.957 3.469-2.183 5z"/><path id="qaqcaU" d="M480.38 1617.805l5.06 10.214c-.549-.943-1.703-1.31-2.612-1.913a6.92 6.92 0 0 1-2.496-3.354 20.587 20.587 0 0 1-.974-4.147c-.102-.647-.316-1.556 0-2.142.59.12.78.862 1.022 1.342z"/><path id="qaqcaV" d="M494.935 1626.456c1.14 1.13 2.54 1.962 3.797 2.963 2.935 2.335 5.025 5.543 7.068 8.689.577.827 1.061 1.716 1.444 2.649-.238.208-.596 0-.83-.215l-3.978-3.493a8.968 8.968 0 0 1-1.324-1.342c-.681-.926-.994-2.087-1.62-3.064-.628-.977-1.54-1.702-2.415-2.462-.875-.759-5.107-4.327-4.086-5.703.739.368 1.348 1.39 1.944 1.978z"/><path id="qaqcaW" d="M486.253 1582.238c1.26-.787 2.744-1.117 4.205-1.386.877-.2 1.78-.264 2.676-.19.828.101 1.62.421 2.455.466 1.168.068 2.288-.409 3.405-.715 1.117-.307 2.434-.43 3.384.255.203.199.458.335.736.391a1.28 1.28 0 0 0 .76-.374 4.338 4.338 0 0 1 5.403.286c2.155 2.019 1.913 5.965 4.426 7.49.698.423 1.586.648 1.992 1.363.096.225.21.442.34.65.169.186.376.333.606.432.733.327 1.432.728 2.084 1.195a2.983 2.983 0 0 1 1.199 2.01 3.746 3.746 0 0 1-.371 1.702 15.84 15.84 0 0 1-15.397 9.847c-.576-.028-1.199-.106-1.614-.504a3.036 3.036 0 0 1-.565-.93c-1.185-2.489-3.405-4.327-4.832-6.694-.844-1.41-1.386-2.986-2.264-4.375-1.308-2.111-3.333-3.68-5.308-5.175-1.117-.852-2.36-1.744-3.766-1.686-1.25.055-2.162.123-1.702-1.413a4.906 4.906 0 0 1 2.148-2.645z"/><path id="qaqcaX" d="M480.138 1752.555c.851.794 2.022 1.141 3.156 1.39 2.584.565 5.227.766 7.862.97l2.567.197c2.506.188 5.016.382 7.532.392a51.81 51.81 0 0 0 9.26-.8.783.783 0 0 0 .849-.94 44.75 44.75 0 0 0-1.137-9.299c-.293-1.252-2.54 1.557-2.64 1.676-.622.708-1.096 1.021-2.042 1.082-2.584.143-5.482-1.43-7.535-2.826a9.413 9.413 0 0 0-1.396-.864 4.02 4.02 0 0 0-1.127-.34 6.827 6.827 0 0 0-3.848.779c-1.542.766-2.897 1.866-4.426 2.652a12.35 12.35 0 0 1-3.967 1.257c-1.399.194-3.064.286-3.79 1.498-.595 1.014-.166 2.376.682 3.176z"/><path id="qaqcaY" d="M480.138 1753.018c.851.794 2.022 1.141 3.156 1.39 2.584.565 5.227.766 7.862.97l2.567.198c2.506.187 5.016.38 7.532.391a51.806 51.806 0 0 0 9.261-.8c.282-.007.548-.13.735-.34.11-.17.576-.848.572-1.05-.05-3.128-.898-6.25-1.6-9.298-.293-1.253-2.54 1.556-2.639 1.675-.623.708-1.096 1.022-2.042 1.083-2.585.143-5.482-1.43-7.536-2.826a9.404 9.404 0 0 0-1.395-.865 4.02 4.02 0 0 0-1.128-.34c.341 1.859 3 4.106 4.376 4.79 2.785 1.383 6.095.681 9.193.855.227-.006.452.05.65.16.375.245.395.773.385 1.219-.027.742-.123 1.61-.763 1.988a2.172 2.172 0 0 1-1.021.215c-7.659.337-15.332.068-22.949-.804a12.685 12.685 0 0 1-3.745-.83 9.585 9.585 0 0 1-2.17-1.396c-.966.772-.149 2.822.699 3.615z"/><path id="qaqcaZ" d="M486.536 1565.823c.044 1.215-.784 3.571 1.487 2.914 1.362-.395 1.737-1.998 3.456-1.64 1.72.357 2.115 2.474 2.697 3.86a7.385 7.385 0 0 0 5.352 4.328c.485.114.99.114 1.475 0 1.11-.317 1.743-1.46 2.196-2.52.39-.897.714-1.82.97-2.764.174-.67.288-1.354.34-2.043a9.19 9.19 0 0 0 0-1.403c-.207-2.762-1.776-5.281-3.792-7.188s-4.457-3.279-6.871-4.637a10.004 10.004 0 0 0-2.537-1.13 8.491 8.491 0 0 0-2.676-.11 9.233 9.233 0 0 0-3.405.8c-.44.218-.844.502-1.198.842a3.589 3.589 0 0 0-1.022 1.733c-.436 1.787.702 3.404 1.628 4.804.82 1.26 1.838 2.59 1.9 4.154z"/><path id="qaqcba" d="M448.296 1591.9c.486-1.222 2.53-4.606 1.937-5.77a15.398 15.398 0 0 0-1.553 2.774c-.384.947-.071 2.217-.384 2.997z"/><path id="qaqcbb" d="M484.585 1561.676c-.926-1.413-2.067-3.02-1.631-4.805a3.783 3.783 0 0 1 1.32-1.978 3.286 3.286 0 0 0-.34.834c-.436 1.784.705 3.405 1.631 4.805.82 1.253 1.839 2.584 1.9 4.147.044 1.212-.786 3.571 1.488 2.914 1.362-.391 1.737-1.998 3.456-1.637 1.72.36 2.111 2.471 2.693 3.857a7.399 7.399 0 0 0 5.366 4.328c.485.114.99.114 1.475 0 .245-.073.475-.188.68-.34a2.99 2.99 0 0 1-1.681 1.484c-.485.114-.99.114-1.475 0a7.399 7.399 0 0 1-5.345-4.328c-.583-1.386-.96-3.497-2.694-3.86-1.733-.365-2.1 1.249-3.456 1.64-2.274.657-1.443-1.702-1.487-2.914-.058-1.563-1.08-2.894-1.9-4.147z"/><path id="qaqcbc" d="M484.08 1559.262c.209.344.436.676.682.994.481.605 1.02 1.162 1.607 1.665.34.303.711.585 1.086.851.698.49 1.43.928 2.193 1.31 2.223 1.121 4.627 1.822 7.02 2.514l4.692 1.362c.576.435 1.631 1.222 2.796 2.043.173-.67.287-1.354.34-2.043a9.198 9.198 0 0 0 0-1.403c-.207-2.762-1.777-5.281-3.793-7.188-2.015-1.907-4.457-3.279-6.87-4.637a10.003 10.003 0 0 0-2.537-1.13 8.491 8.491 0 0 0-2.677-.11 9.234 9.234 0 0 0-3.405.8c-.44.218-.844.502-1.198.842-.267.39-.47.82-.603 1.273-.265.967.143 2.002.668 2.857z"/><path id="qaqcbd" d="M484.08 1558.945c.209.344.436.676.682.994a12.18 12.18 0 0 0 1.607 1.665c.34.303.711.586 1.086.851.698.49 1.43.929 2.193 1.311 2.223 1.12 4.627 1.822 7.02 2.516l4.692 1.362c1.638 1.24 7.117 5.298 8.04 4.791 1.085-.596-4.863-4.808-4.863-4.808l-.276.208c.872-.548 1.328-1.818 1.526-2.915.34-1.964.51-4.007.044-5.948-.466-1.94-1.631-3.79-3.405-4.698-.79-.406-1.747-.681-2.315-1.305a1.67 1.67 0 0 1-.225-.303 1.455 1.455 0 0 1-.088-.16 2.09 2.09 0 0 0-.25-.483c-.34-.378-.918-.266-1.412-.204l-.157.017h-.265c-1.764.04-3.473-.944-5.257-.944-1.958 0-3.62 1.13-5.343 1.904-.34.156-.68.3-.987.446-1.243.579-2.18 1.195-2.693 2.843-.286.97.122 2.005.647 2.86z"/><path id="qaqcbe" d="M497.724 1551.846a.8.8 0 0 0 .184 1.021c.218.155.475.247.742.266.191.025.383.04.575.044.262.02.524-.026.763-.133a.68.68 0 0 0 .133-.085 1.67 1.67 0 0 1-.225-.303c-.044.034-.088.027-.265 0a4.087 4.087 0 0 1-.95-.163.933.933 0 0 1-.681-.681z"/><path id="qaqcbf" d="M504.432 1567.58a2.178 2.178 0 0 1-.81.303 3.283 3.283 0 0 1-.63.102 3.49 3.49 0 0 1-1.536-.433z"/><path id="qaqcbg" d="M360.443 1616.068c.003-.136.029-.27.075-.398.087-.225.201-.438.34-.633a.565.565 0 0 1-.49.115c-.19-.054-.401-.255-.572-.752a1.601 1.601 0 0 1-.085-.507c-.01-.338.073-.682.197-1l-2.074-7.492-.438-.923-.463-.97-.12-.252c-.312.088-.619.167-.936.228l-.374.075c.024.078.051.153.075.231l.303.98a99.945 99.945 0 0 1 1.484 5.714l3.038 6.674a1.205 1.205 0 0 0-.532.381l.984.293.446.133v-.11a1.772 1.772 0 0 0 0-.186v-.024c-.02-.229-.214-.633-.223-.658v-.001l-.001-.002-.001-.001a1.158 1.158 0 0 0-.323-.319.637.637 0 0 1-.31-.596zm1.945 122.092l-.008-.037a5.427 5.427 0 0 0-.003.037zm-.008-.037c.01-.113.025-.223.059-.324a1.016 1.016 0 0 1 0-.106l-.133.024.017.102zm5.047-48.295c-.521 1.821-1.042 3.119-1.042 3.119l.082 2.019c.092-.262.217-.512.37-.743.07-.097.151-.185.242-.262 0 0 .113-.8.218-2.015a49.26 49.26 0 0 0 .13-2.118zm44.348-123.454c.334.385.337.91.194 1.587-.575 1.624-2.734 3.783-4.232 5.145l-.324.29v.06a4.607 4.607 0 0 1-.068.487 9.98 9.98 0 0 1-.391 1.465c-.332.94-.765 1.842-1.29 2.69a23.152 23.152 0 0 1-3.858 4.688c-.293.272-.47.422-.47.422s-.582 2.775-2.506 3.456c-1.403.48-8.397 3.762-12.857 4.906l-.269.068c-.32.08-.623.145-.91.195.108.296.186.603.233.915.017.087.03.174.037.263.02.05.02.105.02.16.024.272.032.546.024.82a9.874 9.874 0 0 1-1.31 4.3 33.9 33.9 0 0 0 0 4.995.327.327 0 0 0 0 .058v.024c.088.729.238 1.297.483 1.502.425.344.64 2.223.766 4.198v.061a92.447 92.447 0 0 1 .146 4.93s.03.12.085.303a.589.589 0 0 1 0 .075 67.348 67.348 0 0 1 1.362 8.853v.099a.127.127 0 0 0 0 .034c.235 3.544.048 7.034-1.467 8.396-.137.124-.29.23-.453.317-.094.053-.19.1-.29.143-.033.235-.057.47-.088.708l-.04.409v.068c-.025.231-.055.456-.055.68a8.172 8.172 0 0 0 .068 1.904.395.395 0 0 0 0 .065c.032.176.095.346.187.5.24.511.347 1.075.31 1.638a16.055 16.055 0 0 1-.6 3.657l.144.848c.3 1.88 1.031 6.612 1.549 11.685a.133.133 0 0 0 0 .034c.014.15.044.3.044.453.518 5.226.797 10.718.136 13.783a47.469 47.469 0 0 0-.558 3.153 68.515 68.515 0 0 0-.262 2.063 93.268 93.268 0 0 0-.518 10.634c.048.802.048 1.607 0 2.41-.105 2.128-.548 5.23-2.097 7.457-.284.873-.452 1.78-.5 2.696 0 .916-.457 2.775-.93 4.137-.116.35-.253.69-.412 1.022-.494 1.021-1.444 4.923-1.022 6.81a.058.058 0 0 1 0 .023c.048.244.144.476.283.681a2.043 2.043 0 0 1 .225.913c.069 1.233.05 2.47-.055 3.7-.31 4.757-1.26 11.404-1.26 11.404s.041.109.106.303c.01.03.03.068.03.105.168.55.304 1.11.41 1.676v.071c.078.432.133.869.163 1.307.078 1.213-.041 2.503-.722 3.443a.435.435 0 0 1-.044.065h.34a9.82 9.82 0 0 0 2.578-.423c.701-.241.943-.05.85.371-.142.709-1.222 2.064-2.628 3.126l.147.34c.953 2.244 2.179 5.06 2.604 6.04 1.924.341 5.758.893 8.005.341.756-.187 1.063-.013 1.022.368-.116 1.164-3.398 4.26-6.541 4.94-4.171.933-8.938.681-8.938.681l-2.43-2.785-.256-.293-.191.024c-2.105.276-4.231.35-6.35.225h-.03l.027.31.207 2.55h-1.59v-2.969a32.92 32.92 0 0 1-3.064-.429h-.038s-.054-2.88.11-5.727c.006-.123.023-.245.023-.368l-.96.092-.116-1.27-.034-.374-3.439.65-.96-8.195-.45-3.79-1.477-12.033-.286-2.383v-.041a.058.058 0 0 0 0-.024v-.048s-.02-.153-.02-.432c-.02-.177-.02-.375-.02-.59v-.564-.256-.16-.064-.34a.129.129 0 0 1 0-.038.377.377 0 0 1 0-.089v-.402a239.026 239.026 0 0 0-.474-7.647c-.017-.16-.044-.323-.044-.483a76.836 76.836 0 0 0-.443-4.161 14.325 14.325 0 0 1-.109-1.308v-.119-.17c-.075-1.92.03-4.576.225-7.368.013-.225.047-.453.047-.681.382-5.237 1.025-10.824 1.304-13.126.02-.184.058-.344.058-.483.048-.389.079-.603.079-.603s.05-.31.132-.896c.058-.412.13-.987.201-1.702.123-1.243.062-6.983.024-9.908v-.882-.844s-.752-3.276-.977-4.954a2.44 2.44 0 0 1-.03-.94c.063-.144.093-.3.088-.456a16.482 16.482 0 0 0-.17-2.312 20.51 20.51 0 0 1-1.982-7.702v-.259c-.307-7.647 3.745-13.858 5.448-16.091a.742.742 0 0 1-.225-.484.507.507 0 0 1 .024-.187c.253-.702.557-1.385.909-2.043l.34-.664-.881-1.154-.436-.569c-.147.225-.29.433-.399.61-.235.354-.378.582-.378.582s-1.42-3.286-2.84-4.552c-1.42-1.267-8.266-13.065-8.266-13.065a3.31 3.31 0 0 1-.746-.742.977.977 0 0 1-.065-1.222l.051-.062c.845-.926.341-.759.341-.759a3.54 3.54 0 0 1-.545-.735 1.052 1.052 0 0 1-.122-.944c.087-.183.134-.382.14-.585a1.775 1.775 0 0 0-.15-.736s2.257-9.19 3.091-10.119a6.81 6.81 0 0 0 1.209-2.145v-.03a.41.41 0 0 1 0-.062v-.03a1.427 1.427 0 0 1-.116-.566c-.017-.507.126-1.324.872-2.55l.15-.252a6.343 6.343 0 0 0 .888-3.146c0-.152-.01-.303-.034-.453a.042.042 0 0 0 0-.017s.443-1.818 2.826-2.724l.2-.071c-.292-1.948-.68-3.902-.803-5.857-.02-.129-.02-.255-.02-.384a.26.26 0 0 1 0-.051 23.755 23.755 0 0 1 0-1.972c.017-.088.017-.173.017-.262.262-5.186 2.138-10.245 3.987-15.145.541-1.4 1.066-2.816 1.903-4.052.075-.109.137-.204.225-.316.089-.113.177-.228.273-.34a9.96 9.96 0 0 1 1.91-1.781c.126-.092.248-.18.378-.263a11.982 11.982 0 0 1 5.366-1.876 7.603 7.603 0 0 1 3.52.361c.875.376 1.68.896 2.384 1.54.102.084.21.173.31.261l.34.283.946.841.27.242c.52.473 1.031.956 1.515 1.457l.105.109.31.34.116.13.296.34.102.116c.123.153.252.307.371.463.123.15.232.3.34.453l.103.146.228.34.106.171.214.34c.027.055.058.106.089.16.092.184.183.348.269.525.112.238.218.477.32.722.01.034.037.068.037.102.065.16.133.317.19.477.208.52.413 1.045.665 1.542.027.061.058.12.088.177a.725.725 0 0 1 .048.089l.133.166.497.62c.286.392.526.816.715 1.263.017.048.027.079.058.147.03.068.05.136.075.204.022.053.041.108.057.163.02.065.052.15.065.205.014.054.044.112.044.17l.052.204c.013.058.037.12.037.18l.04.198c.008.065.004.13.028.194.024.065 0 .113.024.19.024.08.024.175.024.23v.925c.003.053.003.107 0 .16l-.02.228c-.025.058-.014.092-.025.167-.01.075-.027.177-.037.228-.01.051-.034.106-.034.16a1.903 1.903 0 0 1-.054.232c-.01.05-.017.068-.038.15-.02.081-.061.207-.075.248-.013.041-.037.085-.037.126-.048.123-.089.245-.143.365a9.56 9.56 0 0 1-.984 1.719l-.259.364-.269.378-.242.34-.385.542c-.248.365-.475.743-.68 1.134a8.056 8.056 0 0 0-.77 4.882 7.856 7.856 0 0 0 1.049 2.963l.316.5c.175.274.297.58.358.9.045.3.009.609-.106.891a2.015 2.015 0 0 1-.401.634l.129.034c.17.04.33.085.48.126l.177.05c.637.195 1.076.341 1.076.341a8.35 8.35 0 0 1 1.587 0c.834.085 1.92 1.267 1.92 1.267s.187.024.487.044l.269.017c1.052.061 2.908.054 3.667-.654 1.086-1.021 4.93-1.362 4.93-1.362s1.093-2.192 2.254-2.867c1.161-.674 4.004-1.93 4.086-2.611.058-.487.589-1.274.885-1.679l.198-.262a9.34 9.34 0 0 1 1.74-.214l.184-.34 1.736-3.103.6-1.069s2.924-3.537 4.507-3.878c.82-.174.157.882-.68 1.948-.705.909-1.55 1.828-1.703 1.995a2.431 2.431 0 0 1 1.862-.43 2.88 2.88 0 0 1 1.621 1.04zm-50.518 49.84a.423.423 0 0 1-.208 0h-.034a.481.481 0 0 1-.2-.106l-.052-.047a1.272 1.272 0 0 1-.245-.388 1.249 1.249 0 0 0-.075.399.637.637 0 0 0 .31.596c.128.084.238.193.324.32a.024.024 0 0 0 0-.02.099.099 0 0 1 0-.031.058.058 0 0 1 0-.024c.033-.14.082-.277.146-.406.034-.064.065-.125.102-.183a.582.582 0 0 1 .044-.079l.031-.047.051-.082a.605.605 0 0 1-.173.099zm-3.69-11.78l-.443-.974-.177.048.463.97 3.336 7.031c-.071.092-1.055 1.27-1.021 2.384 0 .172.03.343.085.507.17.497.381.698.572.752v-.085a2.099 2.099 0 0 1 0-.34v-.15a.352.352 0 0 1 0-.058v-.024c0-.007 0 0 0 0a.585.585 0 0 0 .017-.075.075.075 0 0 1 0-.027v-.034l.041-.146.017-.041.02-.075c.017-.048.034-.099.055-.147a.402.402 0 0 1 .027-.068l.04-.095c.042-.095.09-.187.134-.28a5.949 5.949 0 0 1 .589-.896z"/><path id="qaqcbi" d="M374.352 1732.981s5.108.626 7.57-.225c2.461-.851-.763 3.66-4.11 4.73a31.963 31.963 0 0 1-7.266 1.232l-3.936-3.701-4.178.32.729 4.086-1.298.123-.504-5.36z"/><path id="qaqcbj" d="M381.71 1742.337s6.112 1.339 9.193.586c3.082-.752-1.338 4.355-5.526 5.274-4.188.92-8.961.681-8.961.681l-4.335-4.954-5.107-.085.419 5.056h-1.59v-6.558z"/><path id="qaqcbk" d="M359.102 1626.03s-10.467 11.639-4.188 24.785c0 0 .34 2.346.085 2.765-.255.418 1.004 5.86 1.004 5.86s.17 9.873 0 11.555c-.17 1.682-.34 2.595-.34 2.595s-2.34 18.24-1.587 23.688c.753 5.447 1.09 15.155 1.09 15.155l3.098 26.125 16.078-3.013-7.286-35.84-.252-6.364s3.016-7.786 1.675-11.722c-1.342-3.936.34-54.093.34-54.093z"/><path id="qaqcbl" d="M366.804 1682.296c1.842 3.517.68 12.057.68 12.057-2.427 2.094-1.089 20.347-1.089 20.347s-1.675 18.005-2.761 20.089c-1.086 2.084-.923 10.718-.923 10.718 12.309 2.261 20.347-2.594 20.347-2.594s-3.936-8.962-4.017-9.377c-.048-.235-.569.402-.726.586.082-.113.297-.406.726-1.022 1.675-2.346 0-6.868 0-6.868s2.094-14.569 1.09-15.91c-1.005-1.342.166-6.279.752-7.45.585-1.172 1.338-3.936 1.338-5.108.049-.91.218-1.81.504-2.676 2.594-3.687 2.094-9.799 2.094-9.799s-.167-8.791 1.338-15.74c1.505-6.95-1.88-26.63-1.88-26.63s1.127-3.851.29-5.274c-.378-.64-.34-2.149-.164-3.61.205-1.787.583-3.506.583-3.506l-22.844-4.056c-.48.8-.919 1.577-1.324 2.323-7.555 13.96-2.462 19.149-2.462 19.149l4.849 14.943s1.75 15.894 3.599 19.408z"/><path id="qaqcbm" d="M403.062 1573.024l3.265 2.772s.64-.511 1.498-1.277c2.043-1.846 5.353-5.186 4.114-6.602-1.703-1.934-3.405-.681-3.51-.593.183-.194 3.973-4.256 2.42-3.929-1.553.327-4.522 3.854-4.522 3.854l-2.346 4.144z"/><path id="qaqcbn" d="M359.269 1618.244l3.85 1.171-2.928 5.108-3.35-4.355z"/><path id="qaqcbo" d="M357.342 1559.292c0-6.059 4.911-10.97 10.97-10.97 6.059 0 10.97 4.911 10.97 10.97 0 6.06-4.911 10.97-10.97 10.97-6.059 0-10.97-4.91-10.97-10.97z"/><path id="qaqcbp" d="M374.76 1563.313s-9.965 15.816-.503 17.178-12.727 10.97-12.727 10.97l-8.291-8.372s8.624-14.907 7.286-20.6c-1.338-5.692 14.236.824 14.236.824z"/><path id="qaqcbq" d="M360.808 1628.82a51.854 51.854 0 0 0 6.752 1.562s12.339 5.479 16.833 3.678c.204-1.788.582-3.507.582-3.507l-22.843-4.056c-.48.8-.922 1.577-1.324 2.322z"/><path id="qaqcbr" d="M349.473 1587.427l2.23 4.613 2.52 5.196.34.742 2.986 6.47 3.797 8.198s-1.342 1.59-.923 2.847c.392 1.174 1.004.664 1.083.592-.072.099-.882 1.189-.16 1.669s.5 1.59.5 1.59-3.098 5.107-3.684 6.949c-.585 1.842 9.38 3.436 9.38 3.436s14.151 6.278 17.668 3.18c3.518-3.099 0-17.668 0-17.668s0-8.373-.922-9.125c-.923-.753-.484-6.558-.484-6.558 2.428-4.426.753-6.95.753-6.95l.68-11.385s-1.089-1.175-1.927-1.256a8.376 8.376 0 0 0-1.59 0s-.442-.15-1.079-.341c-1.341-.381-3.568-.909-4.365-.51-1.171.585-8.706-.923-8.706-.923a92.175 92.175 0 0 0-9.8-.92 9.696 9.696 0 0 0-3.323.361c-2.723.841-3.207 2.82-3.207 2.82s.34 1.675-1.004 3.85c-1.345 2.176-.763 3.123-.763 3.123z"/><path id="qaqcbs" d="M403.062 1573.024l3.265 2.772s.64-.511 1.498-1.277c.26-2.826-2.148-3.2-3.844-3.126z"/><path id="qaqcbt" d="M383.804 1581.148l1.423.085s3.347.416 4.427-.589c1.079-1.004 4.94-1.338 4.94-1.338s1.09-2.18 2.261-2.846c1.171-.668 4.021-1.928 4.086-2.598.064-.671 1.09-1.924 1.09-1.924s6.278-1.508 5.359 3.432c-.92 4.94-6.003 9.207-6.003 9.207s-.586 2.765-2.513 3.435c-1.927.671-14.403 6.53-16.411 5.022-2.01-1.508 1.341-11.886 1.341-11.886z"/><path id="qaqcbu" d="M350.225 1584.3c1.339-2.175 1.005-3.85 1.005-3.85s.483-1.978 3.207-2.82a8.285 8.285 0 0 1 1.631-.32c-2.683.852-3.163 2.806-3.163 2.806s.34 1.676-1.004 3.851c-1.345 2.176-.756 3.099-.756 3.099l2.233 4.613 2.517 5.193.36.745 2.986 6.453 3.797 8.198s-1.342 1.594-.923 2.85c.392 1.175 1.005.66 1.083.593-.072.095-.882 1.188-.16 1.668s.5 1.59.5 1.59-3.098 5.108-3.684 6.95c-.585 1.842 9.38 3.432 9.38 3.432s9.827 4.361 15.139 4.02c-4.515 1.771-16.813-3.683-16.813-3.683s-9.966-1.594-9.38-3.436c.585-1.842 3.683-6.946 3.683-6.946s.252-1.09-.5-1.59c-.753-.5.088-1.57.16-1.668-.079.071-.681.582-1.083-.593-.419-1.256.923-2.846.923-2.846l-3.797-8.202-2.986-6.47-.34-.742-2.52-5.196-2.23-4.613s-.606-.906.735-3.085z"/><path id="qaqcbv" d="M350.995 1586.17l-1.505 1.257a6.915 6.915 0 0 1-1.256 2.26c-.838.923-3.099 10.048-3.099 10.048.193.427.193.915 0 1.342-.34.68.681 1.675.681 1.675s.5-.167-.34.752c-.841.92.756 2.016.756 2.016s6.864 11.716 8.287 12.973c1.423 1.256 2.846 4.521 2.846 4.521s2.983-4.678 3.684-4.767l-2.928-6.612s-2.012-9.213-3.517-10.895c-1.505-1.682.753-7.457.753-7.457z"/><path id="qaqcbw" d="M350.014 1603.252c1.26 1.512 3.47 1.832 5.424 1.61.286-.033.576-.077.858-.132.428-.076.852-.175 1.27-.296a13.238 13.238 0 0 0 4.161-2.043c.274-.237.59-.42.933-.538.783-.197 1.56.385 1.985 1.066.426.68.626 1.484 1.062 2.158.858 1.338 2.52 1.982 4.113 2.02 1.594.037 3.14-.44 4.658-.913-1.229-1.512-2.489-3.085-2.99-4.968a11.763 11.763 0 0 1-.234-3.745c.36-5.925 2.417-12.169 7.249-15.622.837-.595 1.849-1.3 2.128-2.206-1.342-.381-3.569-.909-4.365-.51-1.172.585-8.706-.923-8.706-.923a92.183 92.183 0 0 0-9.8-.92 9.696 9.696 0 0 0-3.323.361c.412 2.516.77 5.019.276 7.49-.343 1.541-.9 3.026-1.658 4.41a65.535 65.535 0 0 1-1.362 2.479c-1.274 2.291-2.489 4.59-2.724 7.15-.099 1.447.133 2.976 1.045 4.072z"/><path id="qaqcbx" d="M366.572 1615.033c-.654-.085-1.314-.306-1.961-.17a3.61 3.61 0 0 0-1.468.855l4.304.023c1.107 0 2.775.069 3.623-.715-.776-.77-3.391.15-4.498.007z"/><path id="qaqcby" d="M381.489 1558.019a6.5 6.5 0 0 1 .746 6.306c-.681 1.617-2.02 2.884-2.833 4.443a8.008 8.008 0 0 0 .272 7.756c.318.414.55.888.681 1.393.194 1.277-1.127 2.193-2.18 2.945-4.834 3.446-6.887 9.694-7.248 15.622a11.747 11.747 0 0 0 .232 3.745c.5 1.883 1.763 3.456 2.992 4.968-1.518.473-3.064.95-4.66.912-1.598-.037-3.253-.68-4.114-2.019-.436-.681-.64-1.478-1.062-2.159-.422-.68-1.202-1.26-1.978-1.065a2.765 2.765 0 0 0-.937.534 13.248 13.248 0 0 1-6.292 2.475c-1.954.225-4.164-.098-5.42-1.61-.913-1.1-1.148-2.625-1.022-4.048.436-5.07 4.73-9.057 5.724-14.049.803-4.045-.654-8.172-.92-12.278-.398-6.084 1.812-12.005 3.987-17.705a18.79 18.79 0 0 1 1.907-4.025c1.822-2.669 4.971-4.27 8.172-4.59a7.651 7.651 0 0 1 3.53.341c1.145.443 2.098 1.267 3.028 2.074 2.076 1.8 4.211 3.677 5.406 6.156.487 1.021.807 2.1 1.362 3.084z"/><path id="qaqcbz" d="M379.514 1555.795c-.545-.984-.861-2.073-1.362-3.084a12.363 12.363 0 0 0-1.736-2.619 14.7 14.7 0 0 1 3.064 4.049c.473.98.79 2.043 1.304 3l-.66-.559c.172.23.327.472.463.725a7.49 7.49 0 0 1-1.073-1.512z"/><path id="qaqcbA" d="M353.76 1602.425a13.194 13.194 0 0 0 6.292-2.472c.275-.236.593-.418.936-.534.78-.198 1.556.384 1.982 1.065.088.143.167.296.242.45a1.362 1.362 0 0 0-.882-.085 2.765 2.765 0 0 0-.937.534 13.248 13.248 0 0 1-6.292 2.475c-1.954.225-4.164-.098-5.42-1.61a4.219 4.219 0 0 1-.416-.623c1.267.814 2.96.977 4.495.8z"/><path id="qaqcbB" d="M368.145 1604.665c1.59.038 3.14-.439 4.658-.912-1.23-1.512-2.489-3.085-2.99-4.968a11.75 11.75 0 0 1-.234-3.745c.36-5.928 2.417-12.176 7.252-15.622 1.052-.752 2.383-1.668 2.18-2.948a3.987 3.987 0 0 0-.682-1.39 8.008 8.008 0 0 1-.276-7.756c.818-1.56 2.145-2.826 2.837-4.446a6.524 6.524 0 0 0-.286-5.578c.23.243.476.47.735.681.186.26.388.508.606.743a6.52 6.52 0 0 1 .283 5.58c-.681 1.618-2.02 2.884-2.833 4.444a8.009 8.009 0 0 0 .272 7.756c.318.414.55.887.681 1.392.194 1.277-1.127 2.193-2.179 2.946-4.835 3.445-6.888 9.693-7.249 15.621a11.746 11.746 0 0 0 .232 3.745c.5 1.883 1.763 3.456 2.993 4.968-1.519.473-3.065.95-4.662.913-1.597-.038-3.251-.681-4.113-2.02-.058-.088-.109-.18-.16-.272a5.71 5.71 0 0 0 2.935.868z"/><path id="qaqcbC" d="M278.305 1651.936a3.8 3.8 0 0 1-.747.082c-.221 0-.401-.031-.536-.097a.695.695 0 0 1-.317-.3 1.44 1.44 0 0 1-.153-.454 3.741 3.741 0 0 1-.041-.583c0-.222.008-.403.022-.543.016-.14.044-.276.087-.408a.827.827 0 0 1 .176-.318c.165-.178.414-.265.744-.265.243 0 .498.026.765.077l-.012.146a3.49 3.49 0 0 0-.689-.083c-.193 0-.344.022-.452.066a.674.674 0 0 0-.253.171.745.745 0 0 0-.147.29 2.064 2.064 0 0 0-.067.37 5.227 5.227 0 0 0-.016.459c0 .184.004.336.016.46.01.123.033.246.07.364a.71.71 0 0 0 .148.28c.142.153.353.228.637.228.215 0 .467-.027.753-.082z"/><path id="qaqcbD" d="M278.785 1651.982v-2.895h1.691v.141h-1.542v1.202h1.294v.14h-1.294v1.272h1.542v.14z"/><path id="qaqcbE" d="M280.985 1651.982v-2.895h.351l1.379 2.755h.11v-2.755h.15v2.895h-.353l-1.38-2.754h-.107v2.754z"/><path id="qaqcbF" d="M283.326 1649.228v-.141h2.067v.141h-.955v2.754h-.149v-2.754z"/><path id="qaqcbG" d="M287.486 1649.916c0-.242-.058-.417-.17-.525-.113-.11-.292-.164-.534-.164h-.889v1.416h.89c.468 0 .703-.244.703-.727m-1.593.867v1.2h-.148v-2.896h1.037c.293 0 .51.065.65.198s.211.342.211.63c0 .486-.201.769-.6.847l.653 1.22h-.17l-.644-1.2z"/><path id="qaqcbH" d="M288.417 1651.532c.068.12.166.209.292.264.127.055.289.082.487.082.197 0 .357-.027.484-.075a.584.584 0 0 0 .288-.254c.068-.119.114-.253.139-.408.025-.152.038-.35.038-.595 0-.462-.068-.805-.2-1.025-.135-.22-.385-.331-.751-.331-.384 0-.642.12-.775.36-.065.121-.112.259-.138.416-.025.154-.038.35-.038.582 0 .233.012.426.036.578.025.152.071.288.138.406m-.113.109a1.271 1.271 0 0 1-.171-.454 3.653 3.653 0 0 1-.048-.641c0-.508.08-.882.24-1.128.16-.246.45-.368.869-.368s.706.122.868.365c.16.244.24.626.24 1.143 0 .52-.078.892-.234 1.12-.156.227-.45.34-.883.34s-.726-.125-.881-.377"/><path id="qaqcbI" d="M293.409 1651.4a1.78 1.78 0 0 0 .13-.426 2.77 2.77 0 0 0 .042-.517c0-.196-.023-.385-.07-.566a1 1 0 0 0-.258-.467.64.64 0 0 0-.483-.196h-.926v2.611h.926c.149 0 .278-.039.386-.118a.772.772 0 0 0 .253-.322m-.64.583h-1.074v-2.895h1.075c.176 0 .329.038.457.116.128.076.23.183.302.32.072.136.126.286.159.448.033.16.05.338.05.53s-.018.374-.052.54c-.034.17-.088.327-.16.472a.863.863 0 0 1-.3.344.829.829 0 0 1-.456.125"/><path id="qaqcbJ" d="M294.296 1651.982v-2.895h1.69v.141h-1.54v1.202h1.293v.14h-1.294v1.272h1.542v.14z"/><path id="qaqcbK" d="M297.322 1651.982v-2.895h.15v2.895z"/><path id="qaqcbL" d="M298.15 1651.982v-2.895h.351l1.378 2.755h.111v-2.755h.149v2.895h-.352l-1.38-2.754h-.107v2.754z"/><path id="qaqcbM" d="M300.817 1651.982v-2.895h.352l1.377 2.755h.112v-2.755h.149v2.895h-.353l-1.38-2.754h-.108v2.754z"/><path id="qaqcbN" d="M303.705 1651.532c.069.12.165.209.292.264.127.055.289.082.487.082.196 0 .358-.027.483-.075a.592.592 0 0 0 .29-.254 1.21 1.21 0 0 0 .138-.408c.024-.152.036-.35.036-.595 0-.462-.066-.805-.2-1.025-.133-.22-.385-.331-.75-.331-.384 0-.641.12-.774.36-.065.121-.111.259-.138.416-.025.154-.038.35-.038.582 0 .233.012.426.037.578.024.152.07.288.137.406m-.113.109a1.245 1.245 0 0 1-.17-.454 3.598 3.598 0 0 1-.05-.641c0-.508.08-.882.24-1.128.16-.246.449-.368.87-.368.417 0 .707.122.867.365.16.244.241.626.241 1.143 0 .52-.078.892-.235 1.12-.156.227-.45.34-.884.34-.432 0-.725-.125-.88-.377"/><path id="qaqcbO" d="M307.797 1649.087h.149l-.81 2.895h-.479l-.811-2.895h.149l.769 2.755h.264z"/><path id="qaqcbP" d="M308.975 1649.228l-.53 1.724h1.292l-.53-1.724zm-.991 2.754l.888-2.895h.44l.889 2.895h-.15l-.269-.89h-1.38l-.27.89z"/><path id="qaqcbQ" d="M312.246 1651.936a3.792 3.792 0 0 1-.747.082c-.22 0-.4-.031-.536-.097a.685.685 0 0 1-.316-.3 1.38 1.38 0 0 1-.154-.454 3.573 3.573 0 0 1-.041-.583c0-.222.007-.403.023-.543.014-.14.045-.276.087-.408a.807.807 0 0 1 .175-.318c.166-.178.414-.265.744-.265.243 0 .498.026.765.077l-.013.146a3.454 3.454 0 0 0-.688-.083c-.193 0-.344.022-.453.066a.716.716 0 0 0-.253.171.732.732 0 0 0-.145.29 1.979 1.979 0 0 0-.067.37 4.972 4.972 0 0 0-.018.459c0 .184.006.336.018.46.01.123.033.246.069.364a.711.711 0 0 0 .149.28c.141.153.353.228.636.228.216 0 .466-.027.752-.082z"/><path id="qaqcbR" d="M312.727 1651.982v-2.895h.15v2.895z"/><path id="qaqcbS" d="M314.14 1648.677l.798-.38-.065-.13-.794.4zm-.365 2.855a1.193 1.193 0 0 1-.138-.406 3.64 3.64 0 0 1-.038-.578c0-.231.013-.428.039-.582.026-.155.072-.295.137-.416.134-.24.391-.36.776-.36.365 0 .614.11.75.332.133.22.2.56.2 1.024 0 .244-.011.44-.038.595a1.21 1.21 0 0 1-.138.408.565.565 0 0 1-.288.251c-.127.051-.287.078-.485.078-.197 0-.36-.027-.485-.082a.602.602 0 0 1-.292-.264m-.114.109c.155.252.448.377.88.377.434 0 .729-.113.883-.34.156-.228.235-.6.235-1.12 0-.517-.08-.899-.24-1.143-.16-.243-.45-.365-.868-.365-.42 0-.71.122-.869.368-.16.246-.24.623-.24 1.128 0 .254.016.467.047.64s.09.325.172.455"/><path id="qaqcbT" d="M316.225 1651.982v-2.895h.351l1.377 2.755h.112v-2.755h.149v2.895h-.353l-1.38-2.754h-.108v2.754z"/><path id="qaqcbU" d="M301.864 1633.345a2.275 2.275 0 0 0-2.105-.039l-.034.016c-.027.013-.053.028-.08.043a2.27 2.27 0 0 0-.885.851 2.25 2.25 0 0 0-.314 1.21 4.537 4.537 0 0 1-.628 2.19c-.154.26-.33.5-.523.72a4.541 4.541 0 0 1-1.117-2.83 2.283 2.283 0 0 0-2.096-2.48c-.023-.003-.047-.003-.07-.004a1.064 1.064 0 0 0-.108-.006h-.033l-.072.002-.103.008c-.318.027-.636.12-.932.288l-.09.056a4.533 4.533 0 0 1-3.04.47 4.57 4.57 0 0 1 2.084-2.467 2.28 2.28 0 0 0 .948-1.129c.008-.022.018-.042.026-.065.01-.026.017-.052.026-.078a2.28 2.28 0 0 0-1.052-2.71 4.553 4.553 0 0 1-1.968-2.497 4.578 4.578 0 0 1 3.107.474c.272.17.583.283.915.326h.004c.062.009.126.013.192.016l.052.001.045.002c.023 0 .043-.003.065-.003l.134-.006.087-.01.141-.021.074-.016a2.81 2.81 0 0 0 .154-.04l.05-.016c.059-.02.117-.04.174-.064l.02-.007a2.28 2.28 0 0 0 1.394-2.135 4.532 4.532 0 0 1 1.13-2.904 4.55 4.55 0 0 1 1.116 2.934c-.007.18.007.365.043.545.003.014.005.03.01.042a2.133 2.133 0 0 0 .101.337 2.282 2.282 0 0 0 3.335 1.128 4.534 4.534 0 0 1 3.082-.484 4.536 4.536 0 0 1-1.961 2.383 2.274 2.274 0 0 0-1.14 1.415c0 .005 0 .007-.004.012-.017.061-.03.123-.042.188 0 .012-.005.024-.006.037-.01.054-.016.108-.022.162l-.004.074c-.003.042-.004.082-.005.124l.002.115.005.084c.005.05.01.101.017.153.002.015.006.032.007.047.011.06.023.12.04.18l.005.02a1.778 1.778 0 0 0 .063.2c.042.118.093.233.155.347.218.382.53.679.89.878.638.389 1.189.941 1.582 1.638.154.272.275.552.368.837a4.536 4.536 0 0 1-3.21-.542m7.938 1.46c-.012-.05-.026-.1-.04-.15-.017-.054-.038-.105-.058-.158l-.016-.04a2.217 2.217 0 0 0-.991-1.115 4.533 4.533 0 0 1-1.597-1.649 4.543 4.543 0 0 1-.592-2.323v-.003a4.523 4.523 0 0 1 .63-2.207 4.51 4.51 0 0 1 1.712-1.677 2.286 2.286 0 0 0-.019-3.93 2.283 2.283 0 0 0-1.802-.218c-.003.002-.008.002-.011.003-.052.017-.105.032-.156.051a2.114 2.114 0 0 0-.18.076 1.998 1.998 0 0 0-.214.115 4.537 4.537 0 0 1-2.222.577c-.769 0-1.494-.192-2.13-.53a1.908 1.908 0 0 0-.164-.102 4.536 4.536 0 0 1-1.596-1.649 4.544 4.544 0 0 1-.592-2.325 2.146 2.146 0 0 0-.036-.356c0-.003 0-.007-.002-.01a2.276 2.276 0 0 0-1.099-1.604 2.282 2.282 0 0 0-3.44 2.024 4.532 4.532 0 0 1-.626 2.189 4.543 4.543 0 0 1-1.574 1.593 1.426 1.426 0 0 0-.158.088 4.557 4.557 0 0 1-2.222.576c-.844 0-1.636-.229-2.314-.63a2.286 2.286 0 0 0-3.297 1.411l-.01.043a2.27 2.27 0 0 0 .22 1.706c.217.383.53.68.89.877.636.391 1.187.944 1.58 1.641.381.672.57 1.4.59 2.12-.007.082-.01.165-.009.248-.02.745-.222 1.5-.628 2.188a4.532 4.532 0 0 1-1.598 1.61 2.26 2.26 0 0 0-1.177 1.572 2.504 2.504 0 0 0-.033.212l-.006.06c-.004.05-.006.101-.006.152 0 .012-.003.026-.003.04 0 .024.003.048.004.074a2.686 2.686 0 0 0 .023.266c.002.005.002.01.003.016a2.283 2.283 0 0 0 3.457 1.587 4.552 4.552 0 0 1 4.34-.037c.05.034.104.068.16.098a4.54 4.54 0 0 1 1.58 1.638c.393.694.584 1.448.593 2.192a2.272 2.272 0 0 0 1.128 2.064c.009.006.017.014.03.02.025.014.052.026.078.041.013.007.026.015.04.02a2.283 2.283 0 0 0 3.324-2.064 4.561 4.561 0 0 1 2.316-3.869 4.549 4.549 0 0 1 2.296-.621 4.54 4.54 0 0 1 2.2.566 2.285 2.285 0 0 0 3.44-2.432c-.006-.02-.012-.036-.016-.055"/><path id="qaqcbV" d="M297.382 1627.056a2.345 2.345 0 0 0 0 4.688 2.343 2.343 0 0 0 0-4.688"/><path id="qaqca" d="M295.192 1625.804v-10.5h7.929v10.5z"/><path id="qaqcbX" d="M302.823 1622.392a2.273 2.273 0 0 0-.872-.867 4.551 4.551 0 0 1-2.188-3.974 2.288 2.288 0 0 0-3.412-1.951 2.287 2.287 0 0 0 .028 3.993c.637.39 1.186.943 1.58 1.639a4.55 4.55 0 0 1 .593 2.193 2.286 2.286 0 1 0 4.27-1.033"/><path id="qaqcb" d="M298.487 1637.638v-4.571h11.384v4.57z"/><path id="qaqcbZ" d="M307.584 1633.067c-.434 0-.84.122-1.186.332a4.544 4.544 0 0 1-2.22.576c-.845 0-1.637-.23-2.314-.63a2.283 2.283 0 0 0-3.377 2.007 2.283 2.283 0 0 0 3.486 1.942 4.532 4.532 0 0 1 2.205-.566c.797 0 1.546.204 2.198.564a2.285 2.285 0 1 0 1.208-4.225"/><path id="qaqcc" d="M284.805 1637.587v-4.571h11.385v4.571z"/><path id="qaqccb" d="M293.904 1633.016c-.434 0-.84.12-1.186.33a4.529 4.529 0 0 1-2.22.578 4.554 4.554 0 0 1-2.316-.631 2.284 2.284 0 0 0-3.377 2.008 2.285 2.285 0 0 0 3.487 1.943 4.547 4.547 0 0 1 2.205-.569 4.55 4.55 0 0 1 2.199.565 2.286 2.286 0 1 0 1.208-4.224"/><path id="qaqcd" d="M298.553 1625.817v-4.57h11.384v4.57z"/><path id="qaqccd" d="M307.652 1621.248c-.434 0-.839.122-1.185.332a4.537 4.537 0 0 1-2.222.577 4.532 4.532 0 0 1-2.313-.631 2.285 2.285 0 1 0 .108 3.951 4.534 4.534 0 0 1 2.205-.568c.798 0 1.547.204 2.2.562a2.284 2.284 0 0 0 3.492-1.939 2.285 2.285 0 0 0-2.285-2.284"/><path id="qaqce" d="M284.916 1625.713v-4.57h11.383v4.57z"/><path id="qaqccf" d="M294.013 1621.143c-.434 0-.84.122-1.185.332a4.557 4.557 0 0 1-2.222.576c-.844 0-1.636-.229-2.314-.63a2.286 2.286 0 1 0 .109 3.95 4.534 4.534 0 0 1 2.205-.568c.799 0 1.548.205 2.199.565a2.286 2.286 0 1 0 1.208-4.225"/><path id="qaqcf" d="M301.938 1637.622v-10.5h7.929v10.5z"/><path id="qaqcch" d="M309.568 1634.21a2.267 2.267 0 0 0-.872-.868 4.534 4.534 0 0 1-1.597-1.649 4.543 4.543 0 0 1-.592-2.323 2.284 2.284 0 0 0-3.41-1.951 2.285 2.285 0 0 0 .026 3.993c.638.389 1.189.941 1.582 1.638.393.693.584 1.447.593 2.191a2.287 2.287 0 0 0 3.409 2.085 2.287 2.287 0 0 0 .861-3.116"/><path id="qaqcg" d="M284.91 1631.67v-10.5h7.927v10.5z"/><path id="qaqccj" d="M292.538 1628.259a2.246 2.246 0 0 0-.872-.868 4.553 4.553 0 0 1-1.595-1.648 4.54 4.54 0 0 1-.594-2.326 2.287 2.287 0 0 0-3.41-1.95 2.286 2.286 0 0 0 .027 3.992c.637.391 1.188.943 1.582 1.64.392.693.583 1.446.592 2.19a2.285 2.285 0 1 0 4.27-1.03"/><path id="qaqch" d="M284.805 1637.574v-10.446h8.021v10.446z"/><path id="qaqccl" d="M289.06 1636.446c.22-.375.321-.785.315-1.19a4.521 4.521 0 0 1 .627-2.207 4.529 4.529 0 0 1 1.716-1.676 2.285 2.285 0 1 0-3.462-1.907c-.019.746-.222 1.5-.628 2.189a4.532 4.532 0 0 1-1.598 1.61 2.283 2.283 0 0 0-.096 3.994 2.283 2.283 0 0 0 3.127-.813"/><path id="qaqci" d="M301.938 1631.685v-10.445h8.02v10.445z"/><path id="qaqccn" d="M306.193 1630.558c.22-.375.32-.786.314-1.19a4.523 4.523 0 0 1 .63-2.208 4.517 4.517 0 0 1 1.712-1.677 2.285 2.285 0 1 0-3.461-1.906 4.57 4.57 0 0 1-.625 2.19 4.544 4.544 0 0 1-1.601 1.61 2.285 2.285 0 1 0 3.031 3.18"/><path id="qaqcj" d="M294.995 1643.534v-10.445h8.02v10.445z"/><path id="qaqccp" d="M299.249 1642.407c.222-.375.322-.787.316-1.192a4.536 4.536 0 0 1 .626-2.207 4.57 4.57 0 0 1 1.716-1.676 2.286 2.286 0 0 0-.02-3.93 2.285 2.285 0 0 0-3.441 2.025 4.536 4.536 0 0 1-.628 2.189 4.535 4.535 0 0 1-1.6 1.61 2.286 2.286 0 1 0 3.031 3.181"/><path id="qaqck" d="M291.736 1625.713v-10.446h8.021v10.446z"/><path id="qaqccr" d="M295.99 1624.585c.22-.375.32-.786.316-1.19a4.532 4.532 0 0 1 .627-2.208 4.532 4.532 0 0 1 1.716-1.676 2.285 2.285 0 1 0-3.461-1.907 4.547 4.547 0 0 1-.628 2.19 4.555 4.555 0 0 1-1.6 1.611 2.284 2.284 0 1 0 3.031 3.18"/><path id="qaqcl" d="M291.606 1643.515v-10.5h7.928v10.5z"/><path id="qaqcct" d="M299.236 1640.104a2.265 2.265 0 0 0-.873-.868 4.554 4.554 0 0 1-2.188-3.973 2.284 2.284 0 1 0-3.384 2.043 4.555 4.555 0 0 1 2.173 3.83 2.284 2.284 0 1 0 4.271-1.03"/><path id="qaqcm" d="M295.038 1631.744v-4.688h4.687v4.688z"/><path id="qaqccv" d="M299.725 1629.401a2.344 2.344 0 1 1-4.688-.002 2.344 2.344 0 0 1 4.688.002"/><path id="qaqccw" d="M283.71 1655.148h.457c.282 0 .423-.175.423-.526 0-.173-.034-.297-.103-.372-.068-.076-.175-.114-.32-.114h-.457zm.46.485h-.46v.815h-.567v-2.797h1.028c.663 0 .995.324.995.97 0 .327-.084.577-.253.751-.169.175-.416.261-.742.261z"/><path id="qaqccx" d="M285.98 1652.997l1.037-.436.168.494-1.069.325zm.128 2.517c0 .327.166.49.497.49.332 0 .498-.163.498-.49v-1.863h.568v1.85c0 .344-.089.595-.266.756-.176.16-.443.24-.8.24-.356 0-.623-.08-.8-.24-.176-.16-.265-.412-.265-.755v-1.85h.568z"/><path id="qaqccy" d="M289.34 1655.28c.242 0 .362.112.362.337 0 .132-.03.222-.088.272-.059.049-.15.074-.274.074h-.518v-.683zm.309-.81c0 .222-.107.333-.32.333h-.507v-.667h.502c.217 0 .325.111.325.334zm-1.394 1.978h1.114c.288 0 .512-.066.67-.198.16-.131.24-.333.24-.604a.805.805 0 0 0-.09-.411.559.559 0 0 0-.273-.227.643.643 0 0 0 .239-.244.832.832 0 0 0 .07-.373c0-.26-.073-.449-.218-.565-.146-.117-.364-.175-.654-.175h-1.098z"/><path id="qaqccz" d="M292.351 1656.448h-1.592v-2.797h.568v2.295h1.024z"/><path id="qaqccA" d="M292.7 1656.448v-2.797h.568v2.797z"/><path id="qaqccB" d="M295.65 1656.403c-.291.063-.553.094-.786.094-.233 0-.42-.029-.56-.086a.69.69 0 0 1-.328-.276 1.224 1.224 0 0 1-.165-.444 3.766 3.766 0 0 1-.045-.642c0-.54.076-.916.228-1.129.152-.212.433-.318.841-.318.236 0 .509.037.819.11l-.017.453a4.67 4.67 0 0 0-.676-.062c-.18 0-.308.025-.385.073-.077.048-.134.139-.17.273-.038.134-.056.363-.056.687 0 .323.037.548.113.672.075.125.226.188.452.188.227 0 .467-.02.722-.058z"/><path id="qaqccC" d="M296.945 1654.12l-.284 1.328h.765l-.284-1.328zm-1.07 2.328l.63-2.797h1.078l.629 2.797h-.568l-.111-.506h-.979l-.11.506z"/><path id="qaqccD" d="M301.029 1655.337a6.16 6.16 0 0 0 .008-.364c0-.154-.005-.279-.016-.372a.713.713 0 0 0-.078-.255.325.325 0 0 0-.183-.158 1.007 1.007 0 0 0-.327-.043h-.375v1.81h.375c.205 0 .355-.053.448-.157.08-.085.129-.239.148-.46zm-.596 1.11h-.942v-2.796h.942c.24 0 .44.026.596.076.156.051.278.135.364.251.086.117.146.254.179.411.033.158.05.363.05.615 0 .253-.016.462-.046.628-.03.165-.087.313-.17.444a.71.71 0 0 1-.365.283c-.159.06-.362.089-.608.089z"/><path id="qaqccE" d="M302.115 1656.448v-2.797h.567v2.797z"/><path id="qaqccF" d="M304.455 1655.444v-.493h.814v1.452a6.29 6.29 0 0 1-.954.094c-.436 0-.736-.116-.899-.35-.163-.232-.244-.603-.244-1.11 0-.507.085-.873.255-1.098.17-.225.459-.337.867-.337.255 0 .531.029.827.086l.148.029-.016.44a7.854 7.854 0 0 0-.808-.054c-.21 0-.357.025-.443.075-.085.049-.147.14-.187.273-.04.133-.06.36-.06.683 0 .322.04.547.12.676.08.13.244.194.493.194l.342-.017v-.543z"/><path id="qaqccG" d="M305.804 1656.448v-2.797h.567v2.797z"/><path id="qaqccH" d="M306.73 1654.153v-.502h2.056v.502h-.74v2.295h-.568v-2.295z"/><path id="qaqccI" d="M309.826 1654.12l-.283 1.328h.765l-.284-1.328zm-1.069 2.328l.63-2.797h1.077l.629 2.797h-.568l-.11-.506h-.98l-.11.506z"/><path id="qaqccJ" d="M313.059 1656.448h-1.592v-2.797h.568v2.295h1.024z"/><linearGradient id="qaqcr" x1="282.36" x2="282.36" y1="1565.59" y2="1550.39" gradientUnits="userSpaceOnUse"><stop offset="0" stop-color="gray" stop-opacity=".25"/><stop offset=".54" stop-color="gray" stop-opacity=".12"/><stop offset="1" stop-color="gray" stop-opacity=".1"/></linearGradient><linearGradient id="qaqcu" x1="345.97" x2="345.97" y1="1560.96" y2="1545.75" gradientUnits="userSpaceOnUse"><stop offset="0" stop-color="gray" stop-opacity=".25"/><stop offset=".54" stop-color="gray" stop-opacity=".12"/><stop offset="1" stop-color="gray" stop-opacity=".1"/></linearGradient><linearGradient id="qaqcx" x1="416.91" x2="416.91" y1="1590.48" y2="1575.28" gradientUnits="userSpaceOnUse"><stop offset="0" stop-color="gray" stop-opacity=".25"/><stop offset=".54" stop-color="gray" stop-opacity=".12"/><stop offset="1" stop-color="gray" stop-opacity=".1"/></linearGradient><linearGradient id="qaqcA" x1="489.29" x2="489.29" y1="1600.56" y2="1585.35" gradientUnits="userSpaceOnUse"><stop offset="0" stop-color="gray" stop-opacity=".25"/><stop offset=".54" stop-color="gray" stop-opacity=".12"/><stop offset="1" stop-color="gray" stop-opacity=".1"/></linearGradient><linearGradient id="qaqcD" x1="508.69" x2="508.69" y1="1610.4" y2="1595.19" gradientUnits="userSpaceOnUse"><stop offset="0" stop-color="gray" stop-opacity=".25"/><stop offset=".54" stop-color="gray" stop-opacity=".12"/><stop offset="1" stop-color="gray" stop-opacity=".1"/></linearGradient><linearGradient id="qaqcG" x1="533.01" x2="533.01" y1="1584.1" y2="1568.89" gradientUnits="userSpaceOnUse"><stop offset="0" stop-color="gray" stop-opacity=".25"/><stop offset=".54" stop-color="gray" stop-opacity=".12"/><stop offset="1" stop-color="gray" stop-opacity=".1"/></linearGradient><linearGradient id="qaqcJ" x1="528.09" x2="528.09" y1="1605.43" y2="1590.23" gradientUnits="userSpaceOnUse"><stop offset="0" stop-color="gray" stop-opacity=".25"/><stop offset=".54" stop-color="gray" stop-opacity=".12"/><stop offset="1" stop-color="gray" stop-opacity=".1"/></linearGradient><linearGradient id="qaqcM" x1="367.4" x2="367.4" y1="1560.96" y2="1545.75" gradientUnits="userSpaceOnUse"><stop offset="0" stop-color="gray" stop-opacity=".25"/><stop offset=".54" stop-color="gray" stop-opacity=".12"/><stop offset="1" stop-color="gray" stop-opacity=".1"/></linearGradient><linearGradient id="qaqcP" x1="294" x2="294" y1="1597.83" y2="1582.62" gradientUnits="userSpaceOnUse"><stop offset="0" stop-color="gray" stop-opacity=".25"/><stop offset=".54" stop-color="gray" stop-opacity=".12"/><stop offset="1" stop-color="gray" stop-opacity=".1"/></linearGradient><linearGradient id="qaqcS" x1="357.31" x2="357.31" y1="1582.88" y2="1567.68" gradientUnits="userSpaceOnUse"><stop offset="0" stop-color="gray" stop-opacity=".25"/><stop offset=".54" stop-color="gray" stop-opacity=".12"/><stop offset="1" stop-color="gray" stop-opacity=".1"/></linearGradient><linearGradient id="qaqcV" x1="439.17" x2="439.17" y1="1573.79" y2="1558.59" gradientUnits="userSpaceOnUse"><stop offset="0" stop-color="gray" stop-opacity=".25"/><stop offset=".54" stop-color="gray" stop-opacity=".12"/><stop offset="1" stop-color="gray" stop-opacity=".1"/></linearGradient><linearGradient id="qaqcY" x1="522.04" x2="522.04" y1="1563.13" y2="1547.92" gradientUnits="userSpaceOnUse"><stop offset="0" stop-color="gray" stop-opacity=".25"/><stop offset=".54" stop-color="gray" stop-opacity=".12"/><stop offset="1" stop-color="gray" stop-opacity=".1"/></linearGradient><linearGradient id="qaqcab" x1="459.89" x2="459.89" y1="1560.96" y2="1545.75" gradientUnits="userSpaceOnUse"><stop offset="0" stop-color="gray" stop-opacity=".25"/><stop offset=".54" stop-color="gray" stop-opacity=".12"/><stop offset="1" stop-color="gray" stop-opacity=".1"/></linearGradient><linearGradient id="qaqcae" x1="459" x2="459" y1="1590.48" y2="1575.28" gradientUnits="userSpaceOnUse"><stop offset="0" stop-color="gray" stop-opacity=".25"/><stop offset=".54" stop-color="gray" stop-opacity=".12"/><stop offset="1" stop-color="gray" stop-opacity=".1"/></linearGradient><linearGradient id="qaqcah" x1="388.49" x2="388.49" y1="1568.31" y2="1553.1" gradientUnits="userSpaceOnUse"><stop offset="0" stop-color="gray" stop-opacity=".25"/><stop offset=".54" stop-color="gray" stop-opacity=".12"/><stop offset="1" stop-color="gray" stop-opacity=".1"/></linearGradient><linearGradient id="qaqcak" x1="305.03" x2="305.03" y1="1573.2" y2="1557.99" gradientUnits="userSpaceOnUse"><stop offset="0" stop-color="gray" stop-opacity=".25"/><stop offset=".54" stop-color="gray" stop-opacity=".12"/><stop offset="1" stop-color="gray" stop-opacity=".1"/></linearGradient><linearGradient id="qaqcan" x1="312.88" x2="312.88" y1="1590.48" y2="1575.28" gradientUnits="userSpaceOnUse"><stop offset="0" stop-color="gray" stop-opacity=".25"/><stop offset=".54" stop-color="gray" stop-opacity=".12"/><stop offset="1" stop-color="gray" stop-opacity=".1"/></linearGradient><linearGradient id="qaqcaq" x1="378.03" x2="378.03" y1="1592.95" y2="1577.75" gradientUnits="userSpaceOnUse"><stop offset="0" stop-color="gray" stop-opacity=".25"/><stop offset=".54" stop-color="gray" stop-opacity=".12"/><stop offset="1" stop-color="gray" stop-opacity=".1"/></linearGradient><linearGradient id="qaqcat" x1="492.99" x2="492.99" y1="1563.13" y2="1547.92" gradientUnits="userSpaceOnUse"><stop offset="0" stop-color="gray" stop-opacity=".25"/><stop offset=".54" stop-color="gray" stop-opacity=".12"/><stop offset="1" stop-color="gray" stop-opacity=".1"/></linearGradient><linearGradient id="qaqcaw" x1="506.88" x2="506.88" y1="1584.1" y2="1568.89" gradientUnits="userSpaceOnUse"><stop offset="0" stop-color="gray" stop-opacity=".25"/><stop offset=".54" stop-color="gray" stop-opacity=".12"/><stop offset="1" stop-color="gray" stop-opacity=".1"/></linearGradient><linearGradient id="qaqcaz" x1="418.28" x2="418.28" y1="1560.96" y2="1545.75" gradientUnits="userSpaceOnUse"><stop offset="0" stop-color="gray" stop-opacity=".25"/><stop offset=".54" stop-color="gray" stop-opacity=".12"/><stop offset="1" stop-color="gray" stop-opacity=".1"/></linearGradient><linearGradient id="qaqcaC" x1="437.39" x2="437.39" y1="1605.43" y2="1590.23" gradientUnits="userSpaceOnUse"><stop offset="0" stop-color="gray" stop-opacity=".25"/><stop offset=".54" stop-color="gray" stop-opacity=".12"/><stop offset="1" stop-color="gray" stop-opacity=".1"/></linearGradient><linearGradient id="qaqcaF" x1="332.04" x2="332.04" y1="1755.5" y2="1549.83" gradientUnits="userSpaceOnUse"><stop offset="0" stop-color="gray" stop-opacity=".25"/><stop offset=".54" stop-color="gray" stop-opacity=".12"/><stop offset="1" stop-color="gray" stop-opacity=".1"/></linearGradient><linearGradient id="qaqcbh" x1="373.17" x2="373.17" y1="1748.6" y2="1543.8" gradientUnits="userSpaceOnUse"><stop offset="0" stop-color="gray" stop-opacity=".25"/><stop offset=".54" stop-color="gray" stop-opacity=".12"/><stop offset="1" stop-color="gray" stop-opacity=".1"/></linearGradient><clipPath id="qaqcbW"><use xlink:href="#qaqca"/></clipPath><clipPath id="qaqcbY"><use xlink:href="#qaqcb"/></clipPath><clipPath id="qaqcca"><use xlink:href="#qaqcc"/></clipPath><clipPath id="qaqccc"><use xlink:href="#qaqcd"/></clipPath><clipPath id="qaqcce"><use xlink:href="#qaqce"/></clipPath><clipPath id="qaqccg"><use xlink:href="#qaqcf"/></clipPath><clipPath id="qaqcci"><use xlink:href="#qaqcg"/></clipPath><clipPath id="qaqcck"><use xlink:href="#qaqch"/></clipPath><clipPath id="qaqccm"><use xlink:href="#qaqci"/></clipPath><clipPath id="qaqcco"><use xlink:href="#qaqcj"/></clipPath><clipPath id="qaqccq"><use xlink:href="#qaqck"/></clipPath><clipPath id="qaqccs"><use xlink:href="#qaqcl"/></clipPath><clipPath id="qaqccu"><use xlink:href="#qaqcm"/></clipPath></defs><g><g opacity=".1" transform="translate(-207 -1476)"><use fill="#fdc830" xlink:href="#qaqcn"/></g><g opacity=".1" transform="translate(-207 -1476)"><use fill="#fdc830" xlink:href="#qaqco"/></g><g transform="translate(-207 -1476)"><use fill="#fff" xlink:href="#qaqcp"/></g><g transform="translate(-207 -1476)"><use fill="url(#qaqcr)" xlink:href="#qaqcq"/></g><g transform="translate(-207 -1476)"><use fill="#7cfcff" xlink:href="#qaqcs"/></g><g transform="translate(-207 -1476)"><use fill="url(#qaqcu)" xlink:href="#qaqct"/></g><g transform="translate(-207 -1476)"><use fill="#7cfcff" xlink:href="#qaqcv"/></g><g transform="translate(-207 -1476)"><use fill="url(#qaqcx)" xlink:href="#qaqcw"/></g><g transform="translate(-207 -1476)"><use fill="#7cfcff" xlink:href="#qaqcy"/></g><g transform="translate(-207 -1476)"><use fill="url(#qaqcA)" xlink:href="#qaqcz"/></g><g transform="translate(-207 -1476)"><use fill="#7cfcff" xlink:href="#qaqcB"/></g><g transform="translate(-207 -1476)"><use fill="url(#qaqcD)" xlink:href="#qaqcC"/></g><g transform="translate(-207 -1476)"><use fill="#7cfcff" xlink:href="#qaqcE"/></g><g transform="translate(-207 -1476)"><use fill="url(#qaqcG)" xlink:href="#qaqcF"/></g><g transform="translate(-207 -1476)"><use fill="#7cfcff" xlink:href="#qaqcH"/></g><g transform="translate(-207 -1476)"><use fill="url(#qaqcJ)" xlink:href="#qaqcI"/></g><g transform="translate(-207 -1476)"><use fill="#7cfcff" xlink:href="#qaqcK"/></g><g transform="translate(-207 -1476)"><use fill="url(#qaqcM)" xlink:href="#qaqcL"/></g><g transform="translate(-207 -1476)"><use fill="#7cfcff" xlink:href="#qaqcN"/></g><g transform="translate(-207 -1476)"><use fill="url(#qaqcP)" xlink:href="#qaqcO"/></g><g transform="translate(-207 -1476)"><use fill="#ffffa5" xlink:href="#qaqcQ"/></g><g transform="translate(-207 -1476)"><use fill="url(#qaqcS)" xlink:href="#qaqcR"/></g><g transform="translate(-207 -1476)"><use fill="#ffffa5" xlink:href="#qaqcT"/></g><g transform="translate(-207 -1476)"><use fill="url(#qaqcV)" xlink:href="#qaqcU"/></g><g transform="translate(-207 -1476)"><use fill="#ffffa5" xlink:href="#qaqcW"/></g><g transform="translate(-207 -1476)"><use fill="url(#qaqcY)" xlink:href="#qaqcX"/></g><g transform="translate(-207 -1476)"><use fill="#ffffa5" xlink:href="#qaqcZ"/></g><g transform="translate(-207 -1476)"><use fill="url(#qaqcab)" xlink:href="#qaqcaa"/></g><g transform="translate(-207 -1476)"><use fill="#ffffa5" xlink:href="#qaqcac"/></g><g transform="translate(-207 -1476)"><use fill="url(#qaqcae)" xlink:href="#qaqcad"/></g><g transform="translate(-207 -1476)"><use fill="#ffffa5" xlink:href="#qaqcaf"/></g><g transform="translate(-207 -1476)"><use fill="url(#qaqcah)" xlink:href="#qaqcag"/></g><g transform="translate(-207 -1476)"><use fill="#ffffa5" xlink:href="#qaqcai"/></g><g transform="translate(-207 -1476)"><use fill="url(#qaqcak)" xlink:href="#qaqcaj"/></g><g transform="translate(-207 -1476)"><use fill="#ff69b4" xlink:href="#qaqcal"/></g><g transform="translate(-207 -1476)"><use fill="url(#qaqcan)" xlink:href="#qaqcam"/></g><g transform="translate(-207 -1476)"><use fill="#ff69b4" xlink:href="#qaqcao"/></g><g transform="translate(-207 -1476)"><use fill="url(#qaqcaq)" xlink:href="#qaqcap"/></g><g transform="translate(-207 -1476)"><use fill="#ff69b4" xlink:href="#qaqcar"/></g><g transform="translate(-207 -1476)"><use fill="url(#qaqcat)" xlink:href="#qaqcas"/></g><g transform="translate(-207 -1476)"><use fill="#ff69b4" xlink:href="#qaqcau"/></g><g transform="translate(-207 -1476)"><use fill="url(#qaqcaw)" xlink:href="#qaqcav"/></g><g transform="translate(-207 -1476)"><use fill="#ff69b4" xlink:href="#qaqcax"/></g><g transform="translate(-207 -1476)"><use fill="url(#qaqcaz)" xlink:href="#qaqcay"/></g><g transform="translate(-207 -1476)"><use fill="#ff69b4" xlink:href="#qaqcaA"/></g><g transform="translate(-207 -1476)"><use fill="url(#qaqcaC)" xlink:href="#qaqcaB"/></g><g transform="translate(-207 -1476)"><use fill="#ff69b4" xlink:href="#qaqcaD"/></g><g transform="translate(-207 -1476)"><use fill="url(#qaqcaF)" xlink:href="#qaqcaE"/></g><g transform="translate(-207 -1476)"><use fill="#ee8e9e" xlink:href="#qaqcaG"/></g><g transform="translate(-207 -1476)"><use fill="#ee8e9e" xlink:href="#qaqcaH"/></g><g transform="translate(-207 -1476)"><use fill="#65617d" xlink:href="#qaqcaI"/></g><g transform="translate(-207 -1476)"><use fill="#3f3d56" xlink:href="#qaqcaJ"/></g><g opacity=".05" transform="translate(-207 -1476)"><use xlink:href="#qaqcaJ"/></g><g transform="translate(-207 -1476)"><use fill="#e8eaf2" xlink:href="#qaqcaK"/></g><g opacity=".05" transform="translate(-207 -1476)"><use xlink:href="#qaqcaK"/></g><g transform="translate(-207 -1476)"><use fill="#303d5c" xlink:href="#qaqcaL"/></g><g opacity=".05" transform="translate(-207 -1476)"><use xlink:href="#qaqcaL"/></g><g transform="translate(-207 -1476)"><use fill="#303d5c" xlink:href="#qaqcaM"/></g><g transform="translate(-207 -1476)"><use fill="#fdc830" xlink:href="#qaqcaN"/></g><g opacity=".05" transform="translate(-207 -1476)"><use xlink:href="#qaqcaN"/></g><g opacity=".1" transform="translate(-207 -1476)"><use xlink:href="#qaqcaO"/></g><g transform="translate(-207 -1476)"><use fill="#ee8e9e" xlink:href="#qaqcaP"/></g><g opacity=".1" transform="translate(-207 -1476)"><use xlink:href="#qaqcaQ"/></g><g transform="translate(-207 -1476)"><use fill="#fdc830" xlink:href="#qaqcaR"/></g><g opacity=".1" transform="translate(-207 -1476)"><use xlink:href="#qaqcaS"/></g><g transform="translate(-207 -1476)"><use fill="#fdc830" xlink:href="#qaqcaT"/></g><g opacity=".1" transform="translate(-207 -1476)"><use xlink:href="#qaqcaU"/></g><g opacity=".1" transform="translate(-207 -1476)"><use xlink:href="#qaqcaV"/></g><g transform="translate(-207 -1476)"><use fill="#fdc830" xlink:href="#qaqcaW"/></g><g opacity=".05" transform="translate(-207 -1476)"><use xlink:href="#qaqcaW"/></g><g transform="translate(-207 -1476)"><use fill="#3f3d56" xlink:href="#qaqcaX"/></g><g transform="translate(-207 -1476)"><use fill="#e8eaf2" xlink:href="#qaqcaY"/></g><g transform="translate(-207 -1476)"><use fill="#3f3d56" xlink:href="#qaqcaZ"/></g><g opacity=".1" transform="translate(-207 -1476)"><use xlink:href="#qaqcba"/></g><g opacity=".1" transform="translate(-207 -1476)"><use xlink:href="#qaqcbb"/></g><g opacity=".1" transform="translate(-207 -1476)"><use xlink:href="#qaqcbc"/></g><g transform="translate(-207 -1476)"><use fill="#fdc830" xlink:href="#qaqcbd"/></g><g opacity=".1" transform="translate(-207 -1476)"><use xlink:href="#qaqcbe"/></g><g opacity=".1" transform="translate(-207 -1476)"><use xlink:href="#qaqcbf"/></g><g transform="translate(-207 -1476)"><use fill="url(#qaqcbh)" xlink:href="#qaqcbg"/></g><g transform="translate(-207 -1476)"><use fill="#444053" xlink:href="#qaqcbi"/></g><g opacity=".1" transform="translate(-207 -1476)"><use xlink:href="#qaqcbi"/></g><g transform="translate(-207 -1476)"><use fill="#444053" xlink:href="#qaqcbj"/></g><g opacity=".1" transform="translate(-207 -1476)"><use xlink:href="#qaqcbj"/></g><g transform="translate(-207 -1476)"><use fill="#303d5c" xlink:href="#qaqcbk"/></g><g opacity=".05" transform="translate(-207 -1476)"><use xlink:href="#qaqcbk"/></g><g transform="translate(-207 -1476)"><use fill="#303d5c" xlink:href="#qaqcbl"/></g><g transform="translate(-207 -1476)"><use fill="#efb7b9" xlink:href="#qaqcbm"/></g><g transform="translate(-207 -1476)"><use fill="#efb7b9" xlink:href="#qaqcbn"/></g><g transform="translate(-207 -1476)"><use fill="#efb7b9" xlink:href="#qaqcbo"/></g><g transform="translate(-207 -1476)"><use fill="#efb7b9" xlink:href="#qaqcbp"/></g><g opacity=".1" transform="translate(-207 -1476)"><use xlink:href="#qaqcbq"/></g><g transform="translate(-207 -1476)"><use fill="#fdc830" xlink:href="#qaqcbr"/></g><g opacity=".1" transform="translate(-207 -1476)"><use xlink:href="#qaqcbs"/></g><g transform="translate(-207 -1476)"><use fill="#fdc830" xlink:href="#qaqcbt"/></g><g opacity=".1" transform="translate(-207 -1476)"><use xlink:href="#qaqcbu"/></g><g transform="translate(-207 -1476)"><use fill="#fdc830" xlink:href="#qaqcbv"/></g><g opacity=".1" transform="translate(-207 -1476)"><use xlink:href="#qaqcbw"/></g><g opacity=".1" transform="translate(-207 -1476)"><use xlink:href="#qaqcbx"/></g><g transform="translate(-207 -1476)"><use fill="#3f3d56" xlink:href="#qaqcby"/></g><g opacity=".1" transform="translate(-207 -1476)"><g opacity=".1"><use xlink:href="#qaqcbz"/></g><g opacity=".1"><use xlink:href="#qaqcbA"/></g><g opacity=".1"><use xlink:href="#qaqcbB"/></g></g><g transform="translate(-207 -1476)"><g><use fill="#3b3c3e" xlink:href="#qaqcbC"/></g><g><use fill="#3b3c3e" xlink:href="#qaqcbD"/></g><g><use fill="#3b3c3e" xlink:href="#qaqcbE"/></g><g><use fill="#3b3c3e" xlink:href="#qaqcbF"/></g><g><use fill="#3b3c3e" xlink:href="#qaqcbG"/></g><g><use fill="#3b3c3e" xlink:href="#qaqcbH"/></g><g><use fill="#3b3c3e" xlink:href="#qaqcbI"/></g><g><use fill="#3b3c3e" xlink:href="#qaqcbJ"/></g><g><use fill="#3b3c3e" xlink:href="#qaqcbK"/></g><g><use fill="#3b3c3e" xlink:href="#qaqcbL"/></g><g><use fill="#3b3c3e" xlink:href="#qaqcbM"/></g><g><use fill="#3b3c3e" xlink:href="#qaqcbN"/></g><g><use fill="#3b3c3e" xlink:href="#qaqcbO"/></g><g><use fill="#3b3c3e" xlink:href="#qaqcbP"/></g><g><use fill="#3b3c3e" xlink:href="#qaqcbQ"/></g><g><use fill="#3b3c3e" xlink:href="#qaqcbR"/></g><g><use fill="#3b3c3e" xlink:href="#qaqcbS"/></g><g><use fill="#3b3c3e" xlink:href="#qaqcbT"/></g><g><use fill="#fff" xlink:href="#qaqcbU"/></g><g><use fill="#fff" xlink:href="#qaqcbV"/></g><g><g><g><g/><g clip-path="url(#qaqcbW)"><use fill="#e92f19" xlink:href="#qaqcbX"/></g></g></g></g><g><g><g><g/><g clip-path="url(#qaqcbY)"><use fill="#ddd90a" xlink:href="#qaqcbZ"/></g></g></g></g><g><g><g><g/><g clip-path="url(#qaqcca)"><use fill="#449677" xlink:href="#qaqccb"/></g></g></g></g><g><g><g><g/><g clip-path="url(#qaqccc)"><use fill="#ec4318" xlink:href="#qaqccd"/></g></g></g></g><g><g><g><g/><g clip-path="url(#qaqcce)"><use fill="#6a1f7e" xlink:href="#qaqccf"/></g></g></g></g><g><g><g><g/><g clip-path="url(#qaqccg)"><use fill="#ffe900" xlink:href="#qaqcch"/></g></g></g></g><g><g><g><g/><g clip-path="url(#qaqcci)"><use fill="#009ddd" xlink:href="#qaqccj"/></g></g></g></g><g><g><g><g/><g clip-path="url(#qaqcck)"><use fill="#2371a0" xlink:href="#qaqccl"/></g></g></g></g><g><g><g><g/><g clip-path="url(#qaqccm)"><use fill="#f77e10" xlink:href="#qaqccn"/></g></g></g></g><g><g><g><g/><g clip-path="url(#qaqcco)"><use fill="#8abb2b" xlink:href="#qaqccp"/></g></g></g></g><g><g><g><g/><g clip-path="url(#qaqccq)"><use fill="#ac077a" xlink:href="#qaqccr"/></g></g></g></g><g><g><g><g/><g clip-path="url(#qaqccs)"><use fill="#62b573" xlink:href="#qaqcct"/></g></g></g></g><g><g><g><g/><g clip-path="url(#qaqccu)"><use fill="#c1c1c0" xlink:href="#qaqccv"/></g></g></g></g><g><g><use fill="#3b3c3e" xlink:href="#qaqccw"/></g><g><use fill="#3b3c3e" xlink:href="#qaqccx"/></g><g><use fill="#3b3c3e" xlink:href="#qaqccy"/></g><g><use fill="#3b3c3e" xlink:href="#qaqccz"/></g><g><use fill="#3b3c3e" xlink:href="#qaqccA"/></g><g><use fill="#3b3c3e" xlink:href="#qaqccB"/></g><g><use fill="#3b3c3e" xlink:href="#qaqccC"/></g><g><use fill="#3b3c3e" xlink:href="#qaqccD"/></g><g><use fill="#3b3c3e" xlink:href="#qaqccE"/></g><g><use fill="#3b3c3e" xlink:href="#qaqccF"/></g><g><use fill="#3b3c3e" xlink:href="#qaqccG"/></g><g><use fill="#3b3c3e" xlink:href="#qaqccH"/></g><g><use fill="#3b3c3e" xlink:href="#qaqccI"/></g><g><use fill="#3b3c3e" xlink:href="#qaqccJ"/></g></g></g></g></svg>