<svg id="Capa_1" data-name="Capa 1" xmlns="http://www.w3.org/2000/svg" xmlns:xlink="http://www.w3.org/1999/xlink" viewBox="0 0 150 150"><defs><style>.cls-1{stroke:#fff;stroke-miterlimit:10;fill:url(#Degradado_sin_nombre_9);}.cls-2{fill:#f8f7f7;}</style><linearGradient id="Degradado_sin_nombre_9" x1="17.25" y1="75" x2="132.75" y2="75" gradientUnits="userSpaceOnUse"><stop offset="0" stop-color="#fdc731"/><stop offset="1" stop-color="#fdc731"/></linearGradient></defs><title>Mesa de trabajo 1</title><path class="cls-1" d="M132.75,74.24c0,34.49-35.37,64.74-61.87,64.74S17.25,109.15,17.25,74.67,45.75,5.11,75,11.86C100.83,17.82,132.75,39.76,132.75,74.24Z"/><path id="otxva" class="cls-2" d="M105.73,93.67h-3.54v-7.1h3.54a3.55,3.55,0,0,1,0,7.1ZM75,108.54,62.49,96h25ZM44.29,90.12l5.89-3.37v6.74Zm10.62-13v2.36H52.54V77.12ZM75,70a1.18,1.18,0,1,1-1.18,1.18A1.18,1.18,0,0,1,75,70ZM40.72,67.49a16.38,16.38,0,0,1,28-11.58L75,62.24l6.33-6.33a16.28,16.28,0,0,1,11.58-4.79,15.64,15.64,0,0,1,2.18.16V71.21a9.45,9.45,0,0,1-18.38,3.08,3.52,3.52,0,0,0,1.84-3.08,3.56,3.56,0,0,0-2.9-3.48,11.82,11.82,0,0,0-23.11,3.48v3.55H50.18v7.09h7.09V74.76H54.91V71.21a9.45,9.45,0,0,1,18.38-3.09,3.53,3.53,0,0,0,1.06,6.57,11.82,11.82,0,0,0,23.11-3.48V51.77a16.39,16.39,0,0,1,11.82,15.72,16.22,16.22,0,0,1-4.8,11.57l-5.15,5.15H50.67l-5.15-5.15a16.23,16.23,0,0,1-4.8-11.58ZM97.46,86.58h2.36v7.09H97.46Zm-44.92,0H95.09v7.09H52.54Zm42.55-46.1h2.37v2.36H95.09Zm10.64,43.73h-3.06l3.48-3.48a18.72,18.72,0,0,0-8.69-31.4V45.21h2.36v-7.1H92.73v7.1h2.36v3.68a19.62,19.62,0,0,0-2.18-.14,18.61,18.61,0,0,0-13.25,5.49L75,58.9l-4.66-4.66A18.73,18.73,0,1,0,43.85,80.73l4.4,4.41-8.73,5L49.86,96h9.28L75,111.89,90.86,96h14.87a5.91,5.91,0,0,0,0-11.82Z"/></svg>