<svg xmlns="http://www.w3.org/2000/svg" xmlns:xlink="http://www.w3.org/1999/xlink" width="210" height="212" viewBox="0 0 210 212"><defs><path id="otxva" d="M923.065 956.194h-10.162V935.87h10.162c5.602 0 10.16 4.559 10.16 10.161 0 5.603-4.558 10.162-10.16 10.162zM835 998.824l-35.856-35.856h71.712zm-88.01-52.792l16.881-9.646v19.293zm30.43-37.258v6.774h-6.775v-6.774zM835 888.452a3.393 3.393 0 0 1 3.387 3.387 3.393 3.393 0 0 1-3.387 3.387 3.393 3.393 0 0 1-3.387-3.387 3.393 3.393 0 0 1 3.387-3.387zm-98.226-7.286c0-25.864 21.044-46.908 46.908-46.908 12.529 0 24.31 4.877 33.17 13.738L835 866.144l18.148-18.148c8.86-8.86 20.641-13.738 33.17-13.738 2.127 0 4.21.193 6.263.467v57.114c0 14.94-12.157 27.096-27.097 27.096-11.547 0-21.847-7.526-25.573-18.256 3.113-1.738 5.25-5.026 5.25-8.84 0-4.966-3.587-9.095-8.301-9.975-4.333-14.192-17.275-23.896-32.344-23.896-18.676 0-33.87 15.194-33.87 33.87V902h-6.775v20.323h20.323V902h-6.775v-10.161c0-14.94 12.157-27.097 27.097-27.097 11.547 0 21.847 7.526 25.573 18.256-3.113 1.738-5.25 5.027-5.25 8.84 0 4.966 3.587 9.095 8.301 9.976 4.333 14.192 17.275 23.896 32.344 23.896 18.676 0 33.87-15.195 33.87-33.871V836.14c19.538 5.667 33.872 23.69 33.872 45.028 0 12.53-4.878 24.31-13.738 33.17l-14.761 14.758H765.273l-14.76-14.758c-8.861-8.864-13.739-20.644-13.739-33.173zm162.58 54.705h6.775v20.323h-6.774zm-128.709 0h121.936v20.323H770.645zm121.936-132.097h6.774v6.774h-6.774zm30.484 125.323h-8.76l9.972-9.968C934.418 908.984 940 895.507 940 881.166c0-25.098-17.335-46.166-40.645-52.016v-11.827h6.774V797h-20.323v20.323h6.775v10.557c-2.06-.24-4.143-.396-6.263-.396-14.338 0-27.822 5.582-37.96 15.723L835 856.565l-13.359-13.358c-10.137-10.141-23.618-15.723-37.959-15.723-29.6 0-53.682 24.082-53.682 53.682 0 14.338 5.582 27.818 15.723 37.963l12.617 12.616-25.007 14.287 29.637 16.936h26.595L835 1008.402l45.435-45.434h42.63c9.338 0 16.935-7.598 16.935-16.936 0-9.338-7.597-16.935-16.935-16.935z"/></defs><g><g transform="translate(-730 -797)"><use fill="#fff" xlink:href="#otxva"/></g></g></svg>