<svg id="Capa_1" data-name="Capa 1" xmlns="http://www.w3.org/2000/svg" viewBox="0 0 150 150"><defs><style>.cls-1{fill:#414294;stroke:#fff;stroke-miterlimit:10;}.cls-2{fill:#fff;}</style></defs><title>Mesa de trabajo 1 copia 3</title><path class="cls-1" d="M112.05,119.31c-26.74,21.77-72.53,13.44-89.27-7.12S12.06,51.78,38.8,30,110.73,8.19,124,35.14C135.65,58.93,138.79,97.54,112.05,119.31Z"/><g id="Grupo_121" data-name="Grupo 121"><path id="Trazado_410" data-name="Trazado 410" class="cls-2" d="M102.43,43.36a4.21,4.21,0,0,0-1.06,8.29v2.26H92.94A1.05,1.05,0,0,0,91.88,55h0v6.33H94V56h8.44A1.06,1.06,0,0,0,103.49,55h0V51.65a4.21,4.21,0,0,0-1.06-8.29Zm0,6.33a2.11,2.11,0,1,1,2.11-2.11,2.1,2.1,0,0,1-2.11,2.11Z"/><path id="Trazado_411" data-name="Trazado 411" class="cls-2" d="M46.52,51.65V55a1,1,0,0,0,1,1.05H56v6.33h2.11V55a1.05,1.05,0,0,0-1-1.06H48.62V51.65a4.22,4.22,0,1,0-2.11,0Zm1-6.18a2.11,2.11,0,1,1-2.11,2.11,2.1,2.1,0,0,1,2.11-2.11Z"/><path id="Trazado_412" data-name="Trazado 412" class="cls-2" d="M103.48,92V74a1,1,0,0,0-1-1H98.21V75h3.16V92a4.23,4.23,0,1,0,2.11,0Zm-1,6.18a2.11,2.11,0,1,1,2.11-2.11,2.11,2.11,0,0,1-2.11,2.11Z"/><path id="Trazado_413" data-name="Trazado 413" class="cls-2" d="M96.1,75h-1V72.89a1.06,1.06,0,0,0-.73-1l-3.62-1.2a16.38,16.38,0,0,0-.81-1.93l1.54-3.23a1.06,1.06,0,0,0-.1-1.06,20.27,20.27,0,0,0-4.73-4.74,1.08,1.08,0,0,0-1.07-.09l-3.22,1.53a15.39,15.39,0,0,0-1.93-.8l-1.21-3.63a1,1,0,0,0-1-.72H71.83a1,1,0,0,0-1,.72l-1.22,3.68-1.87.77-3.27-1.55a1.06,1.06,0,0,0-1.06.09,19.94,19.94,0,0,0-4.74,4.74,1,1,0,0,0-.09,1.06l1.55,3.27-.78,1.87-3.67,1.22a1.05,1.05,0,0,0-.72,1V75H53.9a1,1,0,0,0-1,1h0a22,22,0,0,0,8.9,17.75,9,9,0,0,1,3.76,7.2v.37a1.06,1.06,0,0,0,1,1.06h1.16a5.31,5.31,0,0,0,5.17,4.22h4.22a5.3,5.3,0,0,0,5.17-4.22h1.16a1.06,1.06,0,0,0,1.06-1.06h0V101a9,9,0,0,1,3.75-7.2,22,22,0,0,0,8.91-17.75,1.05,1.05,0,0,0-1.06-1Zm-39-1.36,3.4-1.12a1.1,1.1,0,0,0,.65-.6l1.14-2.75a1.07,1.07,0,0,0,0-.86L60.75,65.2a17.79,17.79,0,0,1,3.39-3.38l3.12,1.48a1,1,0,0,0,.86,0l2.75-1.14a1,1,0,0,0,.59-.65l1.13-3.4h4.82l1.13,3.4a1.06,1.06,0,0,0,.69.68,13.71,13.71,0,0,1,2.56,1.07,1.09,1.09,0,0,0,.95,0l3.13-1.49a18,18,0,0,1,3.38,3.38l-1.48,3.13a1,1,0,0,0,0,1,14.69,14.69,0,0,1,1.06,2.56,1,1,0,0,0,.68.69l3.4,1.13V75H87.61a12.65,12.65,0,0,0-25.22,0H57.07Zm21.1-3.92H71.84a1.06,1.06,0,0,0-1.06,1.06h0V75H64.51a10.55,10.55,0,0,1,21,0H79.22V70.79a1.06,1.06,0,0,0-1-1.06Zm-1.06,2.11V75H72.89V71.84Zm0,32.71H72.89a3.16,3.16,0,0,1-3-2.11H80.08a3.16,3.16,0,0,1-3,2.11ZM87,92.12a11.12,11.12,0,0,0-4.58,8.21H76.06V94a1.07,1.07,0,0,0-.59-1l-2.55-1.27a5.74,5.74,0,0,1-3.19-5.17h2.11A2.1,2.1,0,0,0,74,88.72h2.11a2.12,2.12,0,0,0,2.11-2.11h2.11a5.75,5.75,0,0,1-3.2,5.17l-.44.22.94,1.89.45-.22a7.85,7.85,0,0,0,4.36-7.06,2.12,2.12,0,0,0-2.11-2.11H78.17a2.12,2.12,0,0,0-2.11,2.11H74a2.13,2.13,0,0,0-2.11-2.11H69.73a2.12,2.12,0,0,0-2.11,2.11A7.86,7.86,0,0,0,72,93.67l2,1v5.68H67.59A11.14,11.14,0,0,0,63,92.12a19.84,19.84,0,0,1-8-15H95a19.86,19.86,0,0,1-8,15Z"/><path id="Trazado_414" data-name="Trazado 414" class="cls-2" d="M76.05,53.91V51.65a4.22,4.22,0,1,0-2.11,0v2.26Zm-3.16-6.33A2.11,2.11,0,1,1,75,49.69a2.11,2.11,0,0,1-2.11-2.11Z"/><path id="Trazado_415" data-name="Trazado 415" class="cls-2" d="M46.52,74V92a4.22,4.22,0,1,0,2.11,0V75h3.16V72.9H47.57a1,1,0,0,0-1,1Zm3.16,22.16A2.11,2.11,0,1,1,47.57,94a2.11,2.11,0,0,1,2.11,2.11Z"/></g></svg>