<svg xmlns="http://www.w3.org/2000/svg" width="171.64" height="171.68" viewBox="0 0 171.64 171.68">
    <defs>
        <style>
            .cls-1{fill:#fff}
        </style>
    </defs>
    <g id="Grupo_121" data-name="Grupo 121" transform="translate(-1.999 -1.984)">
        <path id="Trazado_410" d="M76.606 2a11.418 11.418 0 0 0-2.861 22.478v6.127H50.861A2.859 2.859 0 0 0 48 33.463V50.63h5.721v-14.3h22.885a2.859 2.859 0 0 0 2.861-2.858v-8.994A11.418 11.418 0 0 0 76.606 2zm0 17.163a5.721 5.721 0 1 1 5.721-5.721 5.72 5.72 0 0 1-5.721 5.721z" class="cls-1" data-name="Trazado 410" transform="translate(85.588 .03)"/>
        <path id="Trazado_411" d="M10.583 24.508V33.5a2.859 2.859 0 0 0 2.858 2.861h22.888V53.52h5.721V33.5a2.859 2.859 0 0 0-2.858-2.861H16.3v-6.131a11.442 11.442 0 1 0-5.721 0zm2.861-16.757a5.721 5.721 0 1 1-5.721 5.721 5.72 5.72 0 0 1 5.721-5.721z" class="cls-1" data-name="Trazado 411"/>
        <path id="Trazado_412" d="M68.3 81.9V32.861A2.859 2.859 0 0 0 65.447 30H54v5.721h8.582V81.9a11.442 11.442 0 1 0 5.721 0zm-2.856 16.754a5.721 5.721 0 1 1 5.721-5.721 5.72 5.72 0 0 1-5.721 5.721z" class="cls-1" data-name="Trazado 412" transform="translate(96.75 52.126)"/>
        <path id="Trazado_413" d="M128.284 65.49h-2.861v-5.741a2.859 2.859 0 0 0-1.962-2.715l-9.823-3.255a45.317 45.317 0 0 0-2.18-5.243l4.151-8.742a2.853 2.853 0 0 0-.255-2.886 54.381 54.381 0 0 0-12.838-12.838 2.866 2.866 0 0 0-2.886-.255l-8.742 4.151a45.313 45.313 0 0 0-5.243-2.18l-3.255-9.823A2.859 2.859 0 0 0 79.674 14h-17.2a2.859 2.859 0 0 0-2.715 1.962l-3.3 9.958-5.075 2.105-8.868-4.211a2.866 2.866 0 0 0-2.886.255 54.38 54.38 0 0 0-12.839 12.838 2.853 2.853 0 0 0-.255 2.886l4.211 8.868-2.105 5.075-9.958 3.3a2.859 2.859 0 0 0-1.962 2.715v5.739h-2.861A2.859 2.859 0 0 0 11 68.348a59.543 59.543 0 0 0 24.149 48.118 24.378 24.378 0 0 1 10.178 19.526V137a2.859 2.859 0 0 0 2.858 2.861h3.152a14.326 14.326 0 0 0 14.014 11.442h11.443a14.326 14.326 0 0 0 14.014-11.442h3.149a2.859 2.859 0 0 0 2.861-2.858v-1.013A24.378 24.378 0 0 1 107 116.469a59.543 59.543 0 0 0 24.149-48.118 2.859 2.859 0 0 0-2.858-2.861zM22.443 61.817l9.237-3.061a2.874 2.874 0 0 0 1.745-1.619l3.1-7.455a2.865 2.865 0 0 0-.06-2.326l-4.022-8.473a48.819 48.819 0 0 1 9.168-9.168l8.473 4.022a2.853 2.853 0 0 0 2.326.06l7.455-3.1a2.864 2.864 0 0 0 1.616-1.742l3.064-9.24h13.061l3.061 9.237a2.848 2.848 0 0 0 1.882 1.836 39.31 39.31 0 0 1 6.945 2.886 2.867 2.867 0 0 0 2.572.057l8.473-4.022a48.819 48.819 0 0 1 9.168 9.168l-4.022 8.473a2.867 2.867 0 0 0 .057 2.572 39.311 39.311 0 0 1 2.886 6.945 2.848 2.848 0 0 0 1.836 1.882l9.237 3.061v3.68h-14.448a34.3 34.3 0 0 0-68.362 0H22.443zm57.211-10.63H62.491a2.859 2.859 0 0 0-2.861 2.858V65.49H42.613a28.6 28.6 0 0 1 56.92 0H82.515V54.048a2.859 2.859 0 0 0-2.858-2.861zm-2.861 5.721v8.582H65.351v-8.581zm0 88.678H65.351a8.57 8.57 0 0 1-8.055-5.721h27.553a8.57 8.57 0 0 1-8.055 5.721zm26.775-33.7a30.176 30.176 0 0 0-12.412 22.255H73.933v-17.16a2.864 2.864 0 0 0-1.582-2.56l-6.928-3.461a15.57 15.57 0 0 1-8.653-14h5.721a5.727 5.727 0 0 0 5.721 5.721h5.721a5.727 5.727 0 0 0 5.721-5.721h5.721a15.57 15.57 0 0 1-8.653 14l-1.207.6 2.557 5.12 1.207-.6A21.268 21.268 0 0 0 91.1 96.957a5.727 5.727 0 0 0-5.721-5.721h-5.725a5.727 5.727 0 0 0-5.721 5.721h-5.721a5.727 5.727 0 0 0-5.721-5.721h-5.722a5.727 5.727 0 0 0-5.721 5.721 21.268 21.268 0 0 0 11.817 19.12l5.346 2.672v15.4H50.988a30.176 30.176 0 0 0-12.412-22.255 53.868 53.868 0 0 1-21.783-40.683h108.559a53.868 53.868 0 0 1-21.784 40.678z" class="cls-1" data-name="Trazado 413" transform="translate(16.747 22.356)"/>
        <path id="Trazado_414" d="M42.3 30.635v-6.127a11.442 11.442 0 1 0-5.721 0v6.127zm-8.577-17.163a5.721 5.721 0 1 1 5.721 5.721 5.72 5.72 0 0 1-5.721-5.721z" class="cls-1" data-name="Trazado 414" transform="translate(48.375)"/>
        <path id="Trazado_415" d="M10.583 32.861V81.9a11.442 11.442 0 1 0 5.721 0V35.721h8.582V30H13.444a2.859 2.859 0 0 0-2.861 2.858zm8.582 60.072a5.721 5.721 0 1 1-5.721-5.721 5.72 5.72 0 0 1 5.721 5.721z" class="cls-1" data-name="Trazado 415" transform="translate(0 52.126)"/>
    </g>
</svg>
