<svg xmlns="http://www.w3.org/2000/svg" xmlns:xlink="http://www.w3.org/1999/xlink" width="172" height="172" viewBox="0 0 172 172"><defs><path id="t3zsa" d="M519.376 2395.377a5.72 5.72 0 0 1-5.721-5.721 5.72 5.72 0 0 1 5.721-5.721 5.72 5.72 0 0 1 5.721 5.72 5.727 5.727 0 0 1-5.721 5.722zm0-17.164c-6.305-.014-11.428 5.09-11.442 11.394a11.42 11.42 0 0 0 8.581 11.085v6.127h-22.884a2.86 2.86 0 0 0-2.86 2.858v17.166h5.72v-14.303h22.885a2.86 2.86 0 0 0 2.86-2.857v-8.991c6.108-1.568 9.79-7.79 8.225-13.897a11.417 11.417 0 0 0-11.085-8.582z"/><path id="t3zsb" d="M370.626 2383.935a5.72 5.72 0 0 1 5.721 5.72 5.72 5.72 0 0 1-5.72 5.722 5.72 5.72 0 0 1-5.722-5.721 5.727 5.727 0 0 1 5.721-5.721zm-2.86 16.757v8.988a2.86 2.86 0 0 0 2.857 2.86h22.888v17.164h5.72v-20.024a2.86 2.86 0 0 0-2.857-2.86h-22.887v-6.128c6.118-1.58 9.797-7.821 8.218-13.94-1.579-6.119-7.82-9.797-13.94-8.218a11.444 11.444 0 1 0 0 22.158z"/><path id="t3zsc" d="M519.376 2526.963a5.72 5.72 0 0 1-5.721-5.72 5.72 5.72 0 0 1 5.72-5.722 5.72 5.72 0 0 1 5.722 5.721 5.727 5.727 0 0 1-5.721 5.721zm2.86-16.757v-49.036a2.86 2.86 0 0 0-2.857-2.86h-11.445v5.72h8.581v46.176c-6.118 1.579-9.797 7.82-8.218 13.94 1.579 6.118 7.82 9.797 13.94 8.218a11.444 11.444 0 1 0 0-22.158z"/><path id="t3zsd" d="M477.497 2510.43a30.176 30.176 0 0 0-12.412 22.254h-17.223v-17.163a2.864 2.864 0 0 0-1.582-2.56l-6.929-3.462a15.57 15.57 0 0 1-8.653-14.002h5.721a5.727 5.727 0 0 0 5.721 5.721h5.722a5.727 5.727 0 0 0 5.72-5.721h5.722a15.57 15.57 0 0 1-8.653 14.002l-1.207.601 2.557 5.12 1.207-.603a21.268 21.268 0 0 0 11.817-19.12 5.727 5.727 0 0 0-5.721-5.721h-5.721a5.727 5.727 0 0 0-5.721 5.72h-5.722a5.727 5.727 0 0 0-5.72-5.72h-5.722a5.727 5.727 0 0 0-5.721 5.72 21.268 21.268 0 0 0 11.817 19.121l5.346 2.672v15.395h-17.223a30.176 30.176 0 0 0-12.412-22.255 53.868 53.868 0 0 1-21.783-40.677H499.28a53.868 53.868 0 0 1-21.783 40.677zm-26.775 33.697H439.28a8.57 8.57 0 0 1-8.056-5.721h27.554a8.57 8.57 0 0 1-8.056 5.72zm0-88.678v8.582H439.28v-8.582zm-14.303-5.721a2.86 2.86 0 0 0-2.86 2.857v11.446H416.54c1.58-15.72 15.599-27.182 31.318-25.603 13.536 1.36 24.243 12.066 25.602 25.603h-17.018v-11.443a2.86 2.86 0 0 0-2.857-2.86zm-40.048 10.63l9.237-3.061a2.874 2.874 0 0 0 1.745-1.62l3.095-7.454a2.865 2.865 0 0 0-.06-2.326l-4.022-8.473a48.819 48.819 0 0 1 9.168-9.168l8.473 4.022a2.853 2.853 0 0 0 2.326.06l7.455-3.095a2.864 2.864 0 0 0 1.616-1.742l3.063-9.24h13.068l3.06 9.237a2.848 2.848 0 0 0 1.883 1.837 39.31 39.31 0 0 1 6.945 2.886 2.867 2.867 0 0 0 2.572.057l8.473-4.022a48.819 48.819 0 0 1 9.168 9.168l-4.022 8.473a2.867 2.867 0 0 0 .057 2.572 39.31 39.31 0 0 1 2.886 6.946c.27.89.953 1.59 1.837 1.882l9.237 3.06v3.674h-14.449c-1.565-18.877-18.136-32.914-37.013-31.35-16.709 1.385-29.965 14.644-31.349 31.35h-14.449zm102.98 3.673v-5.742a2.86 2.86 0 0 0-1.961-2.714l-9.824-3.256a45.317 45.317 0 0 0-2.18-5.243l4.151-8.742a2.853 2.853 0 0 0-.254-2.886 54.38 54.38 0 0 0-12.839-12.838 2.866 2.866 0 0 0-2.886-.255l-8.742 4.15a45.313 45.313 0 0 0-5.243-2.18l-3.256-9.822a2.86 2.86 0 0 0-2.714-1.963h-17.204a2.86 2.86 0 0 0-2.714 1.963l-3.299 9.957-5.074 2.106-8.868-4.211a2.866 2.866 0 0 0-2.886.255 54.38 54.38 0 0 0-12.839 12.838 2.853 2.853 0 0 0-.254 2.886l4.21 8.868-2.105 5.075-9.958 3.298a2.86 2.86 0 0 0-1.962 2.714v5.742h-2.86a2.86 2.86 0 0 0-2.861 2.857v.003a59.543 59.543 0 0 0 24.149 48.118 24.378 24.378 0 0 1 10.178 19.526v1.01a2.86 2.86 0 0 0 2.858 2.86h3.152a14.326 14.326 0 0 0 14.014 11.443h11.442a14.326 14.326 0 0 0 14.014-11.442h3.15a2.86 2.86 0 0 0 2.86-2.858v-1.013a24.378 24.378 0 0 1 10.178-19.526 59.543 59.543 0 0 0 24.15-48.118 2.86 2.86 0 0 0-2.859-2.86z"/><path id="t3zse" d="M439.28 2389.656a5.72 5.72 0 0 1 5.721-5.721 5.72 5.72 0 0 1 5.721 5.72 5.72 5.72 0 0 1-5.721 5.722 5.727 5.727 0 0 1-5.721-5.721zm8.582 17.163v-6.127c6.118-1.58 9.797-7.821 8.218-13.94-1.579-6.119-7.82-9.797-13.94-8.218a11.444 11.444 0 1 0 0 22.158v6.127z"/><path id="t3zsf" d="M376.347 2521.242a5.72 5.72 0 0 1-5.72 5.721 5.72 5.72 0 0 1-5.722-5.72 5.72 5.72 0 0 1 5.721-5.722 5.727 5.727 0 0 1 5.721 5.721zm-8.581-60.072v49.036c-6.12 1.58-9.798 7.82-8.219 13.94 1.58 6.118 7.82 9.797 13.94 8.218a11.444 11.444 0 1 0 0-22.158v-46.175h8.581v-5.722h-11.442a2.86 2.86 0 0 0-2.86 2.858z"/></defs><g><g transform="translate(-359 -2378)"><g><use fill="#fff" xlink:href="#t3zsa"/></g><g><use fill="#fff" xlink:href="#t3zsb"/></g><g><use fill="#fff" xlink:href="#t3zsc"/></g><g><use fill="#fff" xlink:href="#t3zsd"/></g><g><use fill="#fff" xlink:href="#t3zse"/></g><g><use fill="#fff" xlink:href="#t3zsf"/></g></g></g></svg>