<svg xmlns="http://www.w3.org/2000/svg" xmlns:xlink="http://www.w3.org/1999/xlink" width="375" height="266" viewBox="0 0 375 266"><defs><path id="6rinn" d="M1052.343 457.75a101.69 101.69 0 0 1-2.245 21.374 93.832 93.832 0 0 1-1.757 6.918 89.415 89.415 0 0 1-2.833 8.192 83.306 83.306 0 0 1-1.713 3.97 60.573 60.573 0 0 1-3.865 21.464c-4.559 12.071-12.859 21.918-23.246 27.67a43.517 43.517 0 0 1-21.171 5.515h-246.28c-13.163 0-25.364-4.679-35.367-12.652a65.2 65.2 0 0 1-8.122-7.734 69.085 69.085 0 0 1-8.93-12.799c-5.761-10.593-9.08-23.064-9.08-36.412-6.02-12.188-9.524-26.8-9.524-42.523 0-19.818 5.578-37.893 14.742-51.58a70.54 70.54 0 0 1 6.26-8.046 61.25 61.25 0 0 1 7.16-6.773 54.48 54.48 0 0 1 6.354-4.402c.918-.54 1.839-1.048 2.776-1.522a41.926 41.926 0 0 1 2.497-1.184 46.486 46.486 0 0 1 3.068-1.223 43.994 43.994 0 0 1 7.592-1.983 43.407 43.407 0 0 1 6.868-.629h.555c1.131 0 2.256.054 3.37.14.118-.273.245-.546.363-.82.445-.978.905-1.95 1.369-2.909a.11.11 0 0 0 0-.025c.08-.166.159-.318.241-.493.375-.781.766-1.556 1.166-2.325.184-.356.365-.708.553-1.06.041-.083.082-.163.13-.245.19-.366.384-.728.581-1.09.98-1.806 2-3.585 3.06-5.337.091-.149.177-.298.27-.444.164-.27.317-.54.501-.807.438-.712.89-1.42 1.344-2.122.317-.495.635-.991.978-1.48a125.481 125.481 0 0 1 5.248-7.29c.127-.165.254-.318.387-.493l1.357-1.705.187-.232.492-.6c.728-.887 1.474-1.764 2.224-2.63a127.943 127.943 0 0 1 12.166-12.246c.168-.156.34-.318.508-.451.807-.702 1.626-1.395 2.446-2.074 4.467-3.704 9.18-7.1 14.107-10.165a128.287 128.287 0 0 1 14.523-7.814 129.017 129.017 0 0 1 7.703-3.247 134.71 134.71 0 0 1 5.2-1.855 136.393 136.393 0 0 1 8.22-2.43 128.63 128.63 0 0 1 24.853-3.913c2.541-.153 5.111-.229 7.71-.229a129.1 129.1 0 0 1 37.161 5.429c.226.427.67.694 1.153.692h1.07c.465.146.925.299 1.389.451 2.59.86 5.143 1.801 7.659 2.824l.635.26a128.822 128.822 0 0 1 35.411 21.833 55.46 55.46 0 0 1 2.675-1.865 48.919 48.919 0 0 1 11.08-5.457 44.048 44.048 0 0 1 24.852-1.125c10.562 2.59 20.124 9.012 27.846 18.144a74.503 74.503 0 0 1 8.35 12.249c.175.318.35.635.518.953a86.262 86.262 0 0 1 5.318 12.245c.054.153.108.318.155.458a94.843 94.843 0 0 1 3.272 12.239c.038.21.083.422.12.635.771 4.046 1.293 8.136 1.564 12.245 0 .15 0 .299.025.448a102.538 102.538 0 0 1 .041 12.249c0 .213-.025.429-.04.635-.03.556-.07 1.112-.112 1.665a65.255 65.255 0 0 1 6.791 7.394 70.497 70.497 0 0 1 2.688 3.638 79.376 79.376 0 0 1 6.924 12.245c5.372 11.737 8.46 25.517 8.46 40.265z"/><path id="6rino" d="M1018.99 540.58c0 4.716-14.586 9.02-38.556 12.273H755.538c-23.966-3.252-38.553-7.557-38.553-12.274 0-3.592 8.463-6.947 23.094-9.78l.412-.08c4.13-.79 8.745-1.54 13.79-2.242l.384-.054c4.002-.553 8.26-1.075 12.773-1.566l.425-.044c1.741-.191 3.518-.375 5.33-.553l.7-.067c13.198-1.27 28.2-2.3 44.47-2.989h.02c2.278-.095 4.58-.184 6.908-.267 2.588-.095 5.207-.18 7.859-.254 2.023-.06 4.072-.111 6.127-.159h.048c9.272-.219 18.852-.333 28.649-.333 24.223 0 47.12.695 67.408 1.931h.057c3.12.19 6.181.39 9.167.607l2.542.187c3.369.254 6.651.523 9.847.807 37.587 3.345 61.995 8.754 61.995 14.856z"/><path id="6rinp" d="M778.876 320.455v9.634a1.302 1.302 0 0 1-1.302 1.306h-17.636a127.937 127.937 0 0 1 12.166-12.246h5.473c.72.002 1.3.587 1.3 1.306z"/><path id="6rinq" d="M994.687 320.436v144.727a3.812 3.812 0 0 1-3.812 3.812H732.471a3.812 3.812 0 0 1-3.812-3.812V364.02a43.413 43.413 0 0 1 6.868-.628h.555c1.131 0 2.256.054 3.37.14.118-.274.245-.547.363-.82.445-.979.905-1.95 1.369-2.91a.11.11 0 0 0 0-.025c.08-.166.159-.318.241-.493.375-.781.766-1.556 1.166-2.325.184-.356.365-.708.553-1.06.041-.083.082-.163.13-.245.19-.366.384-.728.581-1.09.98-1.806 2-3.585 3.06-5.336.091-.15.177-.3.27-.445.164-.27.317-.54.501-.807.439-.712.89-1.42 1.344-2.122.317-.495.635-.991.978-1.48a125.59 125.59 0 0 1 5.248-7.29c.127-.165.254-.318.387-.493l1.357-1.705.187-.232.492-.6c.728-.887 1.474-1.764 2.224-2.63a127.939 127.939 0 0 1 12.166-12.246c.168-.156.34-.318.508-.451.807-.702 1.626-1.395 2.446-2.074h164.606a98.115 98.115 0 0 1 2.198 1.864 55.499 55.499 0 0 1 2.674-1.864h46.377a3.812 3.812 0 0 1 3.809 3.783z"/><path id="6rinr" d="M979.45 344.355v3.602H747.707c.439-.712.89-1.42 1.347-2.122.318-.496.636-.991.975-1.48z"/><path id="6rins" d="M926.141 326.757h3.603v137.177h-3.603z"/><path id="6rint" d="M859.87 326.757h3.602v137.177h-3.602z"/><path id="6rinu" d="M793.6 326.757h3.601v137.177H793.6z"/><path id="6rinv" d="M755.843 355.634v14.187h-14.65v-10.038-.025c.08-.166.16-.318.242-.493.378-.781.765-1.556 1.169-2.325.18-.356.362-.708.55-1.06.04-.083.085-.163.13-.246z"/><path id="6rinx" d="M755.592 355.879v13.697h-14.144v-10.32c.378-.782.765-1.557 1.168-2.326.182-.355.363-.708.55-1.06z"/><path id="6riny" d="M800.53 365.498V351.31h14.653v14.187z"/><path id="6rinA" d="M800.784 365.253v-13.697h14.148v13.697z"/><path id="6rinB" d="M866.712 393.04v-14.185h14.654v14.186z"/><path id="6rinD" d="M866.967 392.796V379.1h14.148v13.697z"/><path id="6rinE" d="M934.245 402.437V388.25h14.653v14.186z"/><path id="6rinG" d="M934.496 402.192v-13.697h14.148v13.697z"/><path id="6rinH" d="M952.338 411.62v-14.186h14.653v14.186z"/><path id="6rinJ" d="M952.592 411.376v-13.697h14.148v13.697z"/><path id="6rinK" d="M975.03 387.082v-14.186h14.654v14.186z"/><path id="6rinM" d="M975.282 386.837V373.14h14.148v13.697z"/><path id="6rinN" d="M970.438 406.986v-14.187h14.653v14.187z"/><path id="6rinP" d="M970.689 406.741v-13.697h14.148v13.697z"/><path id="6rinQ" d="M820.52 365.498V351.31h14.653v14.187z"/><path id="6rinS" d="M820.774 365.253v-13.697h14.148v13.697z"/><path id="6rinT" d="M752.054 399.89v-14.187h14.653v14.186z"/><path id="6rinV" d="M752.305 399.645v-13.697h14.148v13.697z"/><path id="6rinW" d="M811.105 385.948v-14.186h14.653v14.186z"/><path id="6rinY" d="M811.359 385.703v-13.697h14.148v13.697z"/><path id="6rinZ" d="M887.48 377.47v-14.187h14.653v14.187z"/><path id="6rinab" d="M887.731 377.225v-13.697h14.148v13.697z"/><path id="6rinac" d="M964.793 367.52v-14.185h14.653v14.186z"/><path id="6rinae" d="M965.047 367.276V353.58h14.148v13.697z"/><path id="6rinaf" d="M906.812 365.498V351.31h14.654v14.187z"/><path id="6rinah" d="M907.063 365.253v-13.697h14.149v13.697z"/><path id="6rinai" d="M905.98 393.04v-14.185h14.653v14.186z"/><path id="6rinak" d="M906.234 392.796V379.1h14.148v13.697z"/><path id="6rinal" d="M840.195 372.35v-14.187h14.653v14.186z"/><path id="6rinan" d="M840.45 372.101v-13.697h14.147v13.697z"/><path id="6rinao" d="M762.34 376.914v-14.186h14.652v14.186z"/><path id="6rinaq" d="M762.593 376.67v-13.698h14.149v13.697z"/><path id="6rinar" d="M769.667 393.04v-14.185h14.654v14.186z"/><path id="6rinat" d="M769.918 392.796V379.1h14.148v13.697z"/><path id="6rinau" d="M830.446 395.344v-14.186H845.1v14.186z"/><path id="6rinaw" d="M830.697 395.1v-13.698h14.148V395.1z"/><path id="6rinax" d="M937.685 367.52v-14.185h14.653v14.186z"/><path id="6rinaz" d="M937.939 367.276V353.58h14.148v13.697z"/><path id="6rinaA" d="M950.651 387.082v-14.186h14.653v14.186z"/><path id="6rinaC" d="M950.905 386.837V373.14h14.148v13.697z"/><path id="6rinaD" d="M867.993 365.498V351.31h14.653v14.187z"/><path id="6rinaF" d="M868.247 365.253v-13.697h14.148v13.697z"/><path id="6rinaG" d="M885.822 406.986v-14.187h14.653v14.187z"/><path id="6rinaI" d="M886.073 406.741v-13.697h14.148v13.697z"/><path id="6rinaJ" d="M948.434 535.78l-.032-.02a3.97 3.97 0 0 0-1.058-.301c-.089 0-.18-.02-.27-.026h-.019c.061-.296.096-.596.105-.899v-.54-.25-.102c0-.178-.016-.36-.028-.537-.013-.178-.035-.387-.048-.581a.862.862 0 0 1 0-.09c.041.121.086.242.137.363.391 1.02.815 2.025 1.27 3.014zm21.734-140.153a2.804 2.804 0 0 0-1.119-1.881 11.13 11.13 0 0 0-1.944-1.124 1.59 1.59 0 0 1-.565-.404c-.12-.196-.226-.4-.318-.61-.38-.664-1.207-.873-1.855-1.27-1.156-.702-1.69-1.947-2.17-3.256-.031-.083-.056-.165-.088-.245-.467-1.296-.912-2.624-1.88-3.532a4.034 4.034 0 0 0-5.045-.27c-.19.196-.44.32-.712.353a1.344 1.344 0 0 1-.683-.369 2.786 2.786 0 0 0-1.702-.47c-.29-1.16-.45-2.347-.48-3.542v-.032a.049.049 0 0 1 0-.022v-.883h.2c.237.01.474-.016.702-.08a1.9 1.9 0 0 0 .277-.101c.854-.403 1.372-1.356 1.756-2.259.254-.597.49-1.21.69-1.836.025-.079.047-.158.076-.24.035-.128.076-.258.108-.388 0-.042.022-.083.032-.124.01-.042.022-.08.031-.121l.029-.133.162.114.029.016.349.244c1.64 1.122 3.36 2.18 4.072 2.205a.368.368 0 0 0 .21-.041c.46-.255-.423-1.201-1.531-2.164-.092-.082-.19-.162-.29-.244a52.04 52.04 0 0 0-2.223-1.757l-.476-.346c.635-.581 1.004-1.623 1.169-2.541.16-.88.26-1.771.298-2.665v-.045c.043-.96-.044-1.921-.257-2.859-.432-1.817-1.525-3.551-3.176-4.402-.477-.248-1.02-.442-1.49-.709-.09-.05-.169-.104-.251-.158-.152-.1-.29-.219-.413-.353a1.434 1.434 0 0 1-.21-.286.843.843 0 0 1-.082-.15 1.923 1.923 0 0 0-.235-.453c-.318-.353-.852-.248-1.312-.191h-.397c-1.649.038-3.24-.883-4.908-.883-1.823 0-3.377 1.058-4.984 1.782-.318.15-.635.283-.918.42-.241.114-.467.228-.686.352a2.93 2.93 0 0 0-.248.155 3.525 3.525 0 0 0-1.36 1.589 3.272 3.272 0 0 0-.67 1.293c-.051.217-.08.44-.085.663a11.013 11.013 0 0 0-3.294 7.846V369.7c.199 4.69 3.347 8.739 7.842 10.089.124.038.251.076.381.108.032.108.077.216.108.317.067.207.13.41.178.616.032.102.054.207.077.318.167.707.243 1.431.228 2.157v.213a8.374 8.374 0 0 0-2.382.953 4.596 4.596 0 0 0-2.004 2.468 1.98 1.98 0 0 0-.064.232 6.379 6.379 0 0 0-1.814-.318c-.562-.019-1.19.041-1.563.467a1.41 1.41 0 0 0-.289.6c-.216.194-.254.534-.403.795-.464.813-1.67.546-2.58.768a1.79 1.79 0 0 0-.27.09c-.86.317-1.588 1.08-2.502 1.086a6.39 6.39 0 0 0-1.096-.06l-.067.015c-.378.095-.68.616-.388.877-.447-.102-.886.2-1.172.562-.285.362-.46.794-.768 1.134a1.188 1.188 0 0 0-1.204-.467c-.447.1-.876.269-1.27.502a1.743 1.743 0 0 1-.563.197 2.436 2.436 0 0 1-.677-.06 5.463 5.463 0 0 0-3.205.447c-.876.417-1.725-.349-2.693-.41a1.493 1.493 0 0 1-.985-.317.422.422 0 0 1-.073-.08 1.428 1.428 0 0 1-.14-.244c-.063-.146-.105-.318-.159-.454a3.86 3.86 0 0 0-2.665-2.465l-.159-.038c.064-.182.108-.369.134-.56a3.3 3.3 0 0 0-2.068-3.493 3.494 3.494 0 0 0-1.207-3.06 5.36 5.36 0 0 1-.578-.454l-.032-.025a1.474 1.474 0 0 1-.22-.29 4.464 4.464 0 0 1-.336-.74c-.283-.755-.572-1.511-.854-2.267-.382-.077-.677-.235-1.04-.296v-.232a7.535 7.535 0 0 0-.39-2.277 10.513 10.513 0 0 0-1.236-2.452 9.587 9.587 0 0 0-.247-.375c-.108-.169-.226-.318-.34-.496-.82-1.14-1.731-2.268-2.945-2.957a11.47 11.47 0 0 0-1.255-.578l-2.223-.912a1.046 1.046 0 0 0-.397-.108c-.534 0-.677.734-.464 1.239.026.06.057.117.092.172.677.99 2.192 1.27 2.614 2.391-.2.003-.397.045-.58.124a1.683 1.683 0 0 0-.995 1.106.912.912 0 0 1-.21.495c-.2.156-.502.067-.72.188-.395.21-.226.797-.268 1.242-.038.397-.282.74-.403 1.118a1.972 1.972 0 0 0-.048.902l.02.095c.006.047.015.094.028.14.08.312.212.608.39.877.41.557.898 1.05 1.45 1.467.361.299.73.6 1.117.874.111.076.22.15.318.222a.389.389 0 0 0-.035.06c0 .045-.035.09-.054.137a.635.635 0 0 0 .086.654c.085.103.178.199.28.286a5.718 5.718 0 0 1 1.74 3.145c.036.237.027.478-.025.712-.155.466-.25.951-.283 1.442.005.12.02.238.044.355.105.565.273 1.116.502 1.643.591 1.499 1.217 3.05 2.395 4.13a13.373 13.373 0 0 0 2.688 6.616c1.235 1.588 2.89 2.789 4.526 3.967a8.477 8.477 0 0 0 1.67 1.048 9.619 9.619 0 0 0 1.66.448c4.569.919 9.206 1.46 13.864 1.62l.636.023h.032c0 .244.022.489.031.733.108 2.442.158 4.886.15 7.332v.657c.026.478-.041.956-.197 1.407a4.074 4.074 0 0 1-.661.953c-.06.077-.127.156-.188.235-.952 1.271-1.137 2.964-1.105 4.597v.028c0 .245 0 .49.026.731a49.92 49.92 0 0 0 .78 6.509c.376 2.039.217 4.237.51 6.302.096.706.266 1.4.507 2.07l1.15 3.092c.129.288.206.596.229.911a1.53 1.53 0 0 1-.022.296c-.102.55-.474 1.038-.76 1.534a5.312 5.312 0 0 0-.67 2.808v.08c.005.081.031.16.077.228.123.172.384.156.59.124a23.538 23.538 0 0 1 2.494-.232h.089c-.029.035-.06.07-.09.108-.094.13-.19.27-.282.423l-.044.076a9.532 9.532 0 0 0-.55 1.124c-.31.646-.556 1.322-.73 2.017-.034.104-.059.21-.073.318-.051.21-.096.42-.128.635a20.164 20.164 0 0 0-.228 3.304V456.02c-.026.493-.051.991-.08 1.474-.092 1.766-.2 3.351-.378 3.9a3.206 3.206 0 0 0-.108 1.08v.017c.029.484.096.965.204 1.439.098.502.228 1.02.359 1.53v.052c0 .19.019.378.038.565v.025c.057.838.227 1.664.505 2.456v.416a.424.424 0 0 0 0 .063c0 .23.028.461.05.69.07.67.182 1.337.318 2.004v.111c.636 3.528 1.281 7.055 1.938 10.581.038.213.08.423.12.635a733.849 733.849 0 0 0 2.224 11.306c.067.317.127.635.197.953.035.149.067.301.105.45.038.15.089.366.133.547a15.71 15.71 0 0 0 2.894 5.718 26.158 26.158 0 0 1 3.018 4.834c0 .048-.023.092-.035.14-.07.337-.146.67-.226 1.004l-.019.076c-.845 3.586-1.972 7.122-2.363 10.8-.029.264-.05.527-.076.794-.115 1.204-.226 2.414-.7 3.52-.136.317-.3.62-.444.934-.18.36-.296.751-.34 1.153a.874.874 0 0 0 0 .159.186.186 0 0 0 0 .04v.017c.007.396.117.783.318 1.124l-.041.032c-.086.067-.169.13-.248.197l-.159.133c-1.096.87-2.563 1.049-3.92 1.401-1.356.353-2.805 1.067-3.224 2.408a3.5 3.5 0 0 0-.063.26.883.883 0 0 0-.02.127c-.02.13-.03.26-.028.391v.029a.397.397 0 0 0 0 .06 3.618 3.618 0 0 0 1.588 2.652c1.125.772 2.541 1.014 3.875 1.188 1.335.175 2.745.318 3.971.912 1.055.524 1.947 1.385 3.065 1.763.067.022.134.035.204.054l-.06.035c-.153.092-.318.181-.461.264l-.248.136c-1.159.598-2.41.996-3.7 1.179-1.31.18-2.86.267-3.536 1.404a.23.23 0 0 0-.026.057.76.76 0 0 0-.073.175v.025a.373.373 0 0 0-.028.076.453.453 0 0 0-.029.086.61.61 0 0 1 0 .073 1.367 1.367 0 0 0-.054.251c-.027.22-.02.443.023.66.12.591.418 1.131.854 1.548.794.746 1.906 1.07 2.948 1.302 2.41.53 4.876.721 7.337.912l2.392.184c.855.067 1.713.13 2.567.19.607.039 1.213.077 1.82.105a67.08 67.08 0 0 0 1.735.06h.902c1.482 0 2.955-.062 4.418-.187a49.344 49.344 0 0 0 4.222-.565.953.953 0 0 0 .686-.318.641.641 0 0 0 .06-.133.112.112 0 0 0 0-.029.435.435 0 0 0 0-.06.827.827 0 0 0 0-.092v-.029-.197c0-.302 0-.6-.022-.902v-.368l-.02-.372c-.021-.362-.044-.727-.075-1.09l-.038-.432v-.142c0-.109-.02-.216-.032-.318 0-.06 0-.124-.022-.188l-.058-.511a43.068 43.068 0 0 0-.578-3.542v-.022-.02c-.06-.272-.12-.542-.178-.812-.2-.858-1.369.317-2.023 1.051-.086-.41-.175-.816-.283-1.213v-.048c.175-.08.346-.162.515-.245.4-.144.736-.422.953-.787.056-.136.09-.28.101-.426a1.88 1.88 0 0 0 0-.267v-.21c-.095-1.886-.21-3.84-1.105-5.495a11.687 11.687 0 0 0-2.182-2.662c0-.203-.022-.406-.032-.61-.095-2.02-.232-4.04-.423-6.057a88.312 88.312 0 0 0-1.686-10.95 51.57 51.57 0 0 0-.737-2.912 19.057 19.057 0 0 0-2.465-5.505 28.974 28.974 0 0 0-.674-.953 56.846 56.846 0 0 0-.317-3.577 99.634 99.634 0 0 0-.715-4.888c-.022-.153-.05-.318-.067-.467v-.026c-.019-.214.007-.431.077-.635.17-.314.384-.601.635-.854a3.612 3.612 0 0 0 .67-2.224.926.926 0 0 0 0-.092c0-.842-.124-1.731-.18-2.567 0-.235-.023-.467-.023-.702v-.025-.105c0-.245 0-.486.016-.727.089-1.875.533-3.736.953-5.566.454-1.906.914-3.783 1.366-5.676.18-.737.359-1.477.53-2.224.067-.263.13-.524.19-.787.173-.822.42-1.627.738-2.405.482-1.09 1.235-2.033 1.88-3.033a17.011 17.011 0 0 0 2.652-9.031.054.054 0 0 0 0-.022v-.039a.408.408 0 0 0 0-.063v-.635c0-.166 0-.318-.028-.502.394.14.79.282 1.181.435a6.69 6.69 0 0 0 .051-.718v-.025c.032-1.471-.289-3.034-.317-4.514a.2.2 0 0 1 0-.045v-.041c-.013-.486.02-.972.098-1.452.041-.222.095-.441.162-.657.111-.09.223-.178.318-.27a9.125 9.125 0 0 0 2.62-3.247c.572-1.27.737-2.722 1.335-3.992.336-.715.813-1.376 1.013-2.145.06-.235.095-.475.105-.717v-.039c-.013-.8-.066-1.6-.16-2.395v-.384c.033-2.204 1.405-4.27 1.557-6.42v-.028c.021-.361.004-.723-.05-1.08-.169-1.07-.737-2.071-.842-3.139a2.533 2.533 0 0 1-.02-.41c.063-.665.231-1.316.5-1.928 1.108-2.931 2.204-6.016 2.286-9.107a.083.083 0 0 0 0-.028v-.067a11.465 11.465 0 0 0-.193-2.525c-.146-.81-.385-1.61-.448-2.424a5.228 5.228 0 0 1 0-.635c.05-.893.378-1.766.464-2.643a3.61 3.61 0 0 0 0-.848 2.673 2.673 0 0 0-.286-.839 2.649 2.649 0 0 0-.242-.38c.51-.783.943-1.613 1.293-2.478.145-.326.251-.667.318-1.017.033-.211.037-.426.013-.638z"/><path id="6rinaL" d="M941.128 384.16c-.041 1.61-.588 3.176-.673 4.783 4.764.235 9.43-2.068 14.129-1.363-1.312-.848-2.014-2.382-2.427-3.89a16.075 16.075 0 0 1-.464-5.979c.012-.107.031-.213.057-.318.175-.787.636-1.905.505-2.525-.159-.82-.934-.657-1.63-.61a61.68 61.68 0 0 0-6.333.817c-.546.095-5.867 1.423-5.946 1.286.876 1.515 1.769 3.09 2.302 4.743a9.24 9.24 0 0 1 .48 3.055z"/><path id="6rinaM" d="M894.183 379.179a6.88 6.88 0 0 0 1.451 1.46c.36.296.728.598 1.115.868.69.528 1.51.857 2.373.953 1.131.076 3.532-.588 4.234-1.556a2.802 2.802 0 0 0 .404-1.62 7.514 7.514 0 0 0-.388-2.269 12.615 12.615 0 0 0-1.832-3.31c-.817-1.137-1.725-2.255-2.942-2.944a11.404 11.404 0 0 0-1.251-.575l-2.224-.908a1.114 1.114 0 0 0-.403-.105c-.594 0-.702.911-.366 1.4.674.988 2.189 1.271 2.615 2.383a1.696 1.696 0 0 0-1.589 1.22.87.87 0 0 1-.212.495c-.194.156-.5.067-.722.184-.39.21-.219.795-.26 1.24-.038.393-.286.733-.407 1.111a2.363 2.363 0 0 0 .404 1.973z"/><path id="6rinaN" d="M959.618 540.799c-.365-.366-.953-.302-1.473-.223-2.74.433-5.508.657-8.282.67-.346-1.696.661-3.344.985-5.044a4.45 4.45 0 0 1 .318-1.27c.387-.75 1.27-1.093 2.096-1.271 1.493-.318 3.812-.87 4.66.635 1.013 1.814 1.334 4.489 1.696 6.503z"/><path id="6rinaO" d="M929.28 534.395c1.124.768 2.522 1.007 3.875 1.181 1.353.175 2.745.302 3.97.906 1.059.52 1.948 1.378 3.07 1.753 1.016.34 2.127.248 3.176.05 1.27-.234 2.598-.695 3.278-1.781.606-.953.54-2.189.457-3.326-.098-1.27-.19-2.573-.286-3.86a1.882 1.882 0 0 0-.238-.933c-.912-1.325-3.122.556-4.304.552-1.877 0-3.891-1.016-5.241-2.261a1.586 1.586 0 0 0-.407-.318c-.537-.241-1.07.203-1.547.591-.05.044-.105.086-.159.127-1.096.87-2.563 1.045-3.916 1.398-1.353.352-2.805 1.06-3.224 2.395-.028.084-.049.17-.064.257-.241 1.248.508 2.548 1.56 3.269z"/><path id="6rinaP" d="M929.28 534.827c1.124.768 2.522 1.007 3.875 1.181 1.353.175 2.745.302 3.97.906 1.059.524 1.948 1.378 3.07 1.753 1.016.34 2.128.248 3.176.05a5.26 5.26 0 0 0 3.278-2.223c.607-.953.54-2.188.457-3.325-.098-1.271-.19-2.573-.286-3.86a1.882 1.882 0 0 0-.238-.934c-.912-1.324-3.122.556-4.304.553-1.877 0-3.891-1.017-5.241-2.262a1.589 1.589 0 0 0-.407-.317c-.537-.242-1.07.203-1.547.59.314.963.757 1.877 1.319 2.72.952 1.394 2.452 2.461 4.129 2.585.839.06 1.7-.105 2.51.111.81.216 1.565 1.045 1.27 1.833-.295.788-1.27.953-2.09.982-1.147.06-2.322.117-3.409-.238-.663-.223-1.27-.588-1.905-.858-2.748-1.14-6.22-.502-8.491-2.427a4.834 4.834 0 0 0-.693-.53c-.594 1.257.505 2.989 1.557 3.71z"/><path id="6rinaQ" d="M959.107 450.716c.876 4.3.045 8.773-2.319 12.471-.635.998-1.397 1.935-1.88 3.018a13.937 13.937 0 0 0-.737 2.395l-2.084 8.637c-.565 2.331-1.13 4.707-.953 7.1.118 1.667.537 3.541-.49 4.86-.252.25-.466.537-.634.85a2.175 2.175 0 0 0 0 1.125c1.054 6.27 1.839 12.824-.067 18.89-1.728 5.5-1.83 11.592-3.297 17.154-.182.692-.391 1.42-.915 1.906a2.982 2.982 0 0 1-1.366.635c-2.166.518-4.447-.089-6.474-1.023-1.42-.657-2.948-1.81-2.827-3.37.06-.744.492-1.395.788-2.078.575-1.34.635-2.836.778-4.288.39-3.646 1.515-7.163 2.363-10.73.848-3.567 1.427-7.29.709-10.886a95.152 95.152 0 0 0-6.989-21.543 2.562 2.562 0 0 0-.635-.953c-.286-.235-.664-.343-.908-.635-.245-.292-.318-.737-.413-1.128-.318-1.137-1.255-1.975-1.884-2.976-1.588-2.522-1.086-5.756-1.026-8.735.057-2.9-.359-5.826.115-8.685.473-2.859 2.112-5.781 4.87-6.67 1.365-.442 2.842-.344 4.271-.2 7.541.752 14.892 2.14 22.004 4.86z"/><path id="6rinaR" d="M928.27 468.895a18.32 18.32 0 0 0 .38 3.348 969.185 969.185 0 0 0 4.267 22.407c.133.636.264 1.293.438 1.929a15.662 15.662 0 0 0 2.89 5.685c6.29 7.84 6.834 19.228 10.248 28.684.229.635.46 1.27.705 1.906a46.8 46.8 0 0 0 2.106 4.698c.091.223.24.417.432.562.213.107.45.153.687.134a20.01 20.01 0 0 0 8.878-2.011c.398-.144.734-.42.953-.781.104-.289.138-.598.098-.903-.095-1.874-.21-3.811-1.102-5.463a11.721 11.721 0 0 0-2.185-2.65c-.267-5.882-.848-11.778-2.141-17.524-.664-2.938-1.487-5.908-3.177-8.392-1.27-1.833-3.062-3.64-2.84-5.854.099-.954.505-2.18-.286-2.751-.346-.251-.857-.283-1.09-.636a1.202 1.202 0 0 1-.151-.546 13.552 13.552 0 0 1 .279-4.54c.229-.984.572-1.95.677-2.956.104-1.007-.073-2.103-.744-2.86-.041-2.02 0-4.129-.028-6.13-.02-1.153-.042-2.322.282-3.424.156-.53.388-1.036.505-1.589.423-1.937-.635-4.262.636-5.8.524-.635 1.33-.953 2.014-1.416 1.369-.915 2.265-2.408 2.763-3.974.499-1.566.635-3.224.785-4.867.036-.35.036-.702 0-1.051a1.88 1.88 0 0 0-.14-.524c-.39-.877-1.439-1.217-2.373-1.442a76.68 76.68 0 0 0-18.106-2.116c-2.255-1.537-3.526-.988-4.482.635a16.902 16.902 0 0 0-1.27 3.117c-.439 1.318-.464 8.706-.89 10.03-.594 1.735 1.004 5.255.982 7.065z"/><path id="6rinaS" d="M969.053 401.675c.168 1.162-.391 2.306-.454 3.478-.054 1.023.273 2.023.46 3.033.728 3.94-.67 7.926-2.096 11.668a6.005 6.005 0 0 0-.496 1.905c-.038 1.223.664 2.342.858 3.549.403 2.54-1.465 4.92-1.506 7.49 0 1.181.356 2.385.06 3.529-.197.765-.673 1.42-1.013 2.134-.6 1.271-.76 2.697-1.334 3.971-1.032 2.306-3.256 3.812-5.368 5.194-1.204-.4-2.507-.877-3.177-1.96a4.827 4.827 0 0 1-.55-1.719c-.457-2.627-.44-5.308-.425-7.973a49.493 49.493 0 0 1 .375-6.836c.426-2.897 1.366-5.689 2.04-8.538.85-3.593 1.27-7.306 2.61-10.752 1.163-3.03 2.977-5.75 4.886-8.351.727-.995 1.302-2.414 2.716-2.186a2.96 2.96 0 0 1 2.414 2.364z"/><path id="6rinaT" d="M938.336 376.348c.877 1.516 1.77 3.091 2.303 4.743.855.21 1.733.317 2.614.318 3.421 0 5.845-1.948 7.856-4.406.174-.791 1.27-1.525 1.137-2.148-.159-.82-.934-.657-1.63-.61a61.672 61.672 0 0 0-6.334.817c-.546.095-5.857 1.423-5.946 1.286z"/><path id="6rinaU" d="M932.3 370.148c0-6.054 4.909-10.962 10.963-10.962 6.054 0 10.962 4.908 10.962 10.962 0 6.054-4.908 10.962-10.962 10.962-6.054 0-10.962-4.908-10.962-10.962z"/><path id="6rinaV" d="M929.41 448.693c1.906-.111 3.812-.035 5.718.041 1.19.012 2.377.134 3.545.366 1.439.317 2.785.981 4.205 1.39 2.275.665 4.676.693 7.03.925a40.21 40.21 0 0 1 4.603.721 1.885 1.885 0 0 0-.14-.524c-.39-.877-1.44-1.216-2.373-1.442a76.683 76.683 0 0 0-18.106-2.116c-2.255-1.537-3.526-.987-4.482.639z"/><path id="6rinaW" d="M936.881 388.095c.48.553 1.121 1.163 1.83.985a2.57 2.57 0 0 0 .711-.381c1.27-.817 2.815-1.007 4.301-1.23a63.523 63.523 0 0 0 8.86-1.991 9.015 9.015 0 0 1 2.62-.534c1.858 0 3.494 1.245 4.67 2.694 1.175 1.448 1.988 3.141 3.132 4.606.813 1.045 1.782 1.966 2.54 3.049 1.907 2.735 2.332 6.305 1.837 9.612-.496 3.307-1.817 6.42-3.126 9.498-.75 1.763-1.506 3.535-2.541 5.143.441 2.512.21 5.384-.985 7.623-.39.734-.867 1.449-.994 2.271a5.641 5.641 0 0 0 .067 1.665l.559 3.967c.168 1.21.34 2.417.559 3.618.403 2.198.953 4.584-.067 6.572-1.22 2.38.06 5.432-.26 8.088a40.682 40.682 0 0 0-10.683-2.542c-2.357-.231-4.765-.26-7.03-.92-1.42-.414-2.763-1.068-4.205-1.398a19.482 19.482 0 0 0-3.548-.362c-2.627-.105-5.273-.21-7.872.177-.213.032-.467.048-.594-.123a.569.569 0 0 1-.08-.318c-.04-.974.194-1.94.674-2.789.318-.585.791-1.16.779-1.83a2.75 2.75 0 0 0-.23-.908l-1.149-3.075c-.975-2.592-.511-5.607-1.016-8.329a48.901 48.901 0 0 1-.757-6.445c-.095-1.849-.034-3.853 1.08-5.33.327-.356.61-.75.842-1.172.161-.449.23-.925.2-1.401a156.35 156.35 0 0 0-.317-11.09c.975-1.746 1.988-3.535 2.96-5.282 1.131-2.033 2.28-4.107 2.738-6.388.318-1.512.293-3.065.509-4.59.02-.388.156-.761.387-1.073.372-.42.998-.48 1.56-.464a6.84 6.84 0 0 1 2.04.397z"/><path id="6rinaX" d="M896.746 381.507c.69.528 1.51.857 2.373.953 1.13.076 3.532-.588 4.234-1.557a2.802 2.802 0 0 0 .404-1.62 1.96 1.96 0 0 0-.47-.092c-1.23-.073-2.484-.146-3.679.15-1.194.295-2.35 1.02-2.859 2.144z"/><path id="6rinaY" d="M933.222 405.22c-.67.829-1.363 1.686-2.31 2.175-1.089.566-2.372.579-3.598.553a86.054 86.054 0 0 1-15.041-1.652 9.289 9.289 0 0 1-1.655-.444 8.818 8.818 0 0 1-1.674-1.042c-1.63-1.172-3.285-2.367-4.527-3.949a13.288 13.288 0 0 1-2.68-6.578c-1.182-1.086-1.808-2.633-2.399-4.13a6.376 6.376 0 0 1-.546-2.004c-.032-.708.438-1.452.317-2.15a5.685 5.685 0 0 0-1.737-3.13 1.134 1.134 0 0 1-.416-.549.888.888 0 0 1 .102-.537c.501-1.124 1.658-1.848 2.858-2.144 1.201-.295 2.45-.219 3.679-.146.444.029.768.235 1.203.318l.858 2.258c.116.378.308.728.562 1.03.191.172.394.331.607.476a3.494 3.494 0 0 1 1.207 3.043 3.269 3.269 0 0 1 1.935 4.034 3.857 3.857 0 0 1 2.827 2.49c.06.284.187.55.368.776.282.219.632.331.988.317.953.06 1.814.823 2.694.41a5.46 5.46 0 0 1 3.186-.448c.223.053.453.074.683.06.195-.034.384-.1.559-.193.396-.23.824-.4 1.27-.502.459-.095.93.088 1.204.467.318-.337.493-.769.772-1.128.253-.393.705-.609 1.17-.559-.293-.26 0-.778.383-.874.385-.095.779.045 1.17.045 1.013 0 1.791-.928 2.776-1.169.905-.22 2.112.045 2.576-.766.165-.285.197-.673.476-.848a.912.912 0 0 1 .61-.073 6.015 6.015 0 0 1 1.852.563c.953 3.713.451 7.57-.273 11.333-.346 1.789-.893 3.237-2.036 4.667z"/><path id="6rinaZ" d="M933.254 418.526l4.72 9.53c-.511-.88-1.588-1.224-2.436-1.786a6.455 6.455 0 0 1-2.329-3.129 19.205 19.205 0 0 1-.908-3.869c-.096-.603-.296-1.451 0-1.998.55.112.727.804.953 1.252z"/><path id="6rinba" d="M946.833 426.597c1.064 1.055 2.37 1.83 3.542 2.764 2.738 2.179 4.688 5.171 6.594 8.106.539.772.99 1.6 1.347 2.471-.222.194-.556 0-.775-.2l-3.71-3.259a8.368 8.368 0 0 1-1.236-1.251c-.635-.864-.927-1.947-1.512-2.859-.584-.912-1.435-1.588-2.252-2.297-.816-.708-4.765-4.037-3.812-5.32.69.343 1.258 1.296 1.814 1.845z"/><path id="6rinbb" d="M938.733 385.344c1.175-.734 2.56-1.042 3.923-1.293a8.26 8.26 0 0 1 2.497-.177c.772.095 1.512.393 2.29.435 1.09.063 2.135-.382 3.176-.667 1.042-.286 2.272-.4 3.158.238.188.185.427.312.686.365.269-.033.519-.156.708-.35a4.047 4.047 0 0 1 5.041.268c2.011 1.883 1.786 5.565 4.13 6.988.651.394 1.48.603 1.858 1.27.09.21.196.413.318.607.157.174.35.311.565.404.684.305 1.336.678 1.944 1.115a2.783 2.783 0 0 1 1.118 1.874 3.495 3.495 0 0 1-.346 1.588 14.777 14.777 0 0 1-14.364 9.186c-.537-.025-1.118-.098-1.506-.47a2.833 2.833 0 0 1-.527-.867c-1.105-2.322-3.176-4.037-4.507-6.245-.788-1.315-1.293-2.786-2.113-4.082-1.22-1.97-3.11-3.434-4.952-4.828-1.042-.794-2.201-1.626-3.513-1.572-1.166.05-2.017.114-1.588-1.319a4.577 4.577 0 0 1 2.004-2.468z"/><path id="6rinbc" d="M933.028 544.239c.794.74 1.887 1.064 2.945 1.296 2.41.527 4.876.714 7.334.905l2.395.184c2.338.175 4.68.356 7.027.365 2.896.011 5.788-.239 8.64-.746a.73.73 0 0 0 .79-.877 41.746 41.746 0 0 0-1.06-8.675c-.273-1.169-2.37 1.452-2.462 1.563-.581.66-1.023.953-1.906 1.01-2.41.134-5.114-1.334-7.03-2.636a8.766 8.766 0 0 0-1.302-.807 3.754 3.754 0 0 0-1.051-.318 6.369 6.369 0 0 0-3.59.728c-1.439.714-2.703 1.74-4.13 2.474-1.158.597-2.409.994-3.7 1.172-1.305.181-2.859.267-3.535 1.398-.556.947-.156 2.217.635 2.964z"/><path id="6rinbd" d="M933.028 544.67c.794.74 1.887 1.065 2.945 1.297 2.41.527 4.876.714 7.334.905l2.395.184c2.338.175 4.68.356 7.027.366 2.896.01 5.788-.24 8.64-.747a.952.952 0 0 0 .686-.318c.101-.158.537-.79.534-.978-.048-2.92-.84-5.832-1.493-8.675-.274-1.169-2.37 1.452-2.462 1.563-.582.66-1.023.953-1.906 1.01-2.411.133-5.114-1.334-7.03-2.636a8.78 8.78 0 0 0-1.302-.807 3.754 3.754 0 0 0-1.052-.318c.318 1.734 2.799 3.83 4.082 4.47 2.599 1.289 5.686.635 8.577.797.212-.006.421.045.606.149.35.229.369.721.36 1.137-.026.693-.115 1.503-.712 1.855a2.026 2.026 0 0 1-.953.2 135.79 135.79 0 0 1-21.41-.75 11.833 11.833 0 0 1-3.494-.774 8.944 8.944 0 0 1-2.023-1.303c-.902.721-.14 2.633.651 3.374z"/><path id="6rinbe" d="M938.997 370.03c.041 1.134-.731 3.333 1.388 2.72 1.27-.369 1.62-1.865 3.224-1.532 1.604.334 1.973 2.31 2.516 3.602a6.89 6.89 0 0 0 4.993 4.038c.452.106.923.106 1.376 0 1.035-.296 1.626-1.363 2.048-2.35a18.81 18.81 0 0 0 .906-2.58c.161-.625.268-1.263.317-1.906a8.562 8.562 0 0 0 0-1.309c-.193-2.576-1.658-4.926-3.538-6.705-1.88-1.78-4.158-3.06-6.41-4.327a9.334 9.334 0 0 0-2.367-1.054 7.922 7.922 0 0 0-2.497-.102 8.614 8.614 0 0 0-3.176.747 4.49 4.49 0 0 0-1.118.784 3.348 3.348 0 0 0-.953 1.617c-.407 1.668.654 3.177 1.518 4.482.766 1.175 1.716 2.417 1.773 3.875z"/><path id="6rinbf" d="M903.322 394.36c.454-1.141 2.36-4.299 1.807-5.385-.571.81-1.056 1.678-1.449 2.589-.359.883-.066 2.068-.359 2.795z"/><path id="6rinbg" d="M937.176 366.161c-.864-1.318-1.928-2.817-1.521-4.482a3.529 3.529 0 0 1 1.232-1.845 3.063 3.063 0 0 0-.317.778c-.407 1.665.657 3.177 1.521 4.482.766 1.17 1.716 2.411 1.773 3.87.041 1.13-.734 3.331 1.388 2.718 1.27-.365 1.62-1.864 3.224-1.528 1.604.337 1.97 2.306 2.513 3.6a6.902 6.902 0 0 0 5.006 4.037c.452.106.923.106 1.375 0 .229-.069.444-.176.636-.318a2.79 2.79 0 0 1-1.57 1.385 3.002 3.002 0 0 1-1.375 0 6.903 6.903 0 0 1-4.987-4.037c-.543-1.293-.896-3.263-2.513-3.603-1.617-.34-1.96 1.166-3.224 1.531-2.122.613-1.347-1.588-1.388-2.719-.054-1.458-1.007-2.7-1.773-3.869z"/><path id="6rinbh" d="M936.706 363.91c.194.32.406.63.636.927.449.564.951 1.084 1.499 1.553.318.283.664.546 1.013.794.651.457 1.335.866 2.046 1.223 2.074 1.045 4.317 1.7 6.55 2.344l4.377 1.271c.537.407 1.522 1.14 2.608 1.906a10.98 10.98 0 0 0 .318-1.906 8.595 8.595 0 0 0 0-1.309c-.194-2.576-1.659-4.926-3.539-6.705-1.88-1.78-4.158-3.06-6.41-4.327a9.334 9.334 0 0 0-2.367-1.054 7.922 7.922 0 0 0-2.496-.102 8.615 8.615 0 0 0-3.177.747c-.41.203-.787.467-1.118.784a4.175 4.175 0 0 0-.562 1.188c-.248.902.133 1.868.622 2.665z"/><path id="6rinbi" d="M936.706 363.614c.195.32.407.63.636.927.45.565.951 1.085 1.5 1.554.317.282.663.546 1.012.794.651.457 1.335.866 2.046 1.223 2.074 1.045 4.317 1.7 6.55 2.347l4.377 1.27c1.528 1.157 6.639 4.943 7.5 4.47 1.013-.556-4.536-4.485-4.536-4.485l-.257.194c.813-.512 1.238-1.697 1.423-2.72.317-1.832.476-3.738.04-5.549-.434-1.81-1.52-3.535-3.176-4.383-.737-.378-1.63-.636-2.16-1.217-.08-.086-.15-.18-.21-.283a1.373 1.373 0 0 1-.082-.149 1.946 1.946 0 0 0-.232-.45c-.317-.354-.857-.249-1.318-.192l-.146.016h-.248c-1.645.038-3.24-.88-4.904-.88-1.827 0-3.377 1.055-4.984 1.776-.318.146-.636.28-.921.416-1.16.54-2.033 1.115-2.513 2.653-.267.905.114 1.87.603 2.668z"/><path id="6rinbj" d="M949.435 356.99a.747.747 0 0 0 .171.954c.204.144.443.23.693.248.178.023.357.037.536.04.244.02.489-.023.712-.123a.634.634 0 0 0 .124-.08c-.08-.085-.15-.18-.21-.282-.041.032-.082.025-.248 0a3.811 3.811 0 0 1-.886-.153.87.87 0 0 1-.635-.635z"/><path id="6rinbk" d="M955.692 371.67c-.23.143-.487.24-.756.282-.192.05-.389.083-.587.095a3.256 3.256 0 0 1-1.433-.403z"/><path id="6rinbl" d="M823.175 530.808l-.006-.034a4.722 4.722 0 0 0-.003.034zm-.006-.034c.01-.106.023-.208.054-.302a.946.946 0 0 1 0-.099l-.124.023.016.095zm4.708-45.056c-.486 1.7-.972 2.91-.972 2.91l.076 1.883c.086-.244.202-.476.346-.692.065-.09.14-.173.226-.245 0 0 .105-.746.203-1.88.044-.575.095-1.248.12-1.976zm41.373-115.173c.312.359.315.848.181 1.48-.536 1.515-2.55 3.53-3.948 4.8l-.302.27v.057a4.295 4.295 0 0 1-.063.454 9.31 9.31 0 0 1-.366 1.366c-.31.878-.713 1.719-1.203 2.51a21.6 21.6 0 0 1-3.6 4.374c-.273.254-.438.393-.438.393s-.543 2.59-2.338 3.225c-1.308.448-7.833 3.51-11.994 4.577l-.251.063c-.299.075-.581.135-.848.182.1.276.172.563.216.854.017.08.028.162.035.245.019.047.019.098.019.149.022.254.03.51.022.765a9.212 9.212 0 0 1-1.223 4.012 31.626 31.626 0 0 0 0 4.66.3.3 0 0 0 0 .054v.023c.083.68.222 1.21.451 1.4.397.321.597 2.075.715 3.917v.057a.159.159 0 0 0 0 .038c.136 2.237.136 4.562.136 4.562s.03.11.08.282a.543.543 0 0 1 0 .07 62.833 62.833 0 0 1 1.27 8.26v.091a.118.118 0 0 0 0 .032c.22 3.307.045 6.563-1.369 7.833-.128.116-.27.215-.422.296-.087.05-.178.094-.27.133-.032.22-.054.438-.083.66l-.038.382v.064c-.022.216-.05.425-.05.635a7.624 7.624 0 0 0 .063 1.776.369.369 0 0 0 0 .06 1.4 1.4 0 0 0 .175.467c.224.476.323 1.002.289 1.528a14.978 14.978 0 0 1-.56 3.411l.134.791c.28 1.754.962 6.169 1.445 10.902a.12.12 0 0 0 0 .032c.013.14.042.28.042.422.482 4.876.743 10 .127 12.859a44.274 44.274 0 0 0-.521 2.941c-.092.654-.175 1.29-.245 1.925a87.02 87.02 0 0 0-.483 9.92c.045.75.045 1.5 0 2.25-.098 1.984-.511 4.878-1.956 6.956a9.803 9.803 0 0 0-.467 2.515c0 .855-.426 2.59-.868 3.86a8.167 8.167 0 0 1-.384.953c-.46.953-1.347 4.593-.953 6.353a.054.054 0 0 1 0 .022c.044.227.134.443.264.635a1.907 1.907 0 0 1 .21.852c.064 1.15.047 2.304-.051 3.452-.29 4.438-1.176 10.639-1.176 10.639s.038.101.099.282c.01.029.028.064.028.099.156.513.284 1.035.382 1.562v.067c.073.404.124.81.152 1.22.073 1.13-.038 2.335-.673 3.211a.402.402 0 0 1-.042.06h.318a9.16 9.16 0 0 0 2.405-.393c.654-.226.88-.048.794.346-.134.66-1.14 1.925-2.453 2.916l.137.318c.89 2.093 2.033 4.72 2.43 5.635 1.795.318 5.372.832 7.468.318.705-.175.991-.013.953.343-.108 1.086-3.17 3.973-6.102 4.609-3.891.87-8.338.635-8.338.635l-2.268-2.598-.239-.274-.178.023a31.346 31.346 0 0 1-5.924.21h-.028l.025.288.194 2.38h-1.483v-2.77c-.931-.083-1.878-.22-2.86-.4h-.034s-.051-2.688.101-5.343c.007-.115.023-.23.023-.343l-.896.085-.108-1.185-.032-.349-3.208.607-.896-7.646-.42-3.536-1.378-11.225-.267-2.224v-.038a.054.054 0 0 0 0-.022v-.045s-.019-.143-.019-.403c-.019-.165-.019-.35-.019-.55v-.527-.238-.15-.06-.317a.122.122 0 0 1 0-.035.35.35 0 0 1 0-.083v-.375a222.97 222.97 0 0 0-.441-7.134c-.016-.15-.042-.302-.042-.451a71.666 71.666 0 0 0-.413-3.882 13.371 13.371 0 0 1-.101-1.22v-.11-.16c-.07-1.791.028-4.269.21-6.874.012-.21.044-.422.044-.635.356-4.885.956-10.098 1.217-12.245.019-.172.054-.321.054-.451.044-.362.073-.563.073-.563s.047-.289.124-.835c.053-.384.12-.921.187-1.588.114-1.16.057-6.515.022-9.244v-.823-.787s-.702-3.056-.911-4.622a2.276 2.276 0 0 1-.029-.877.976.976 0 0 0 .083-.425 15.376 15.376 0 0 0-.16-2.157 19.135 19.135 0 0 1-1.848-7.185v-.242c-.286-7.134 3.494-12.928 5.082-15.012a.692.692 0 0 1-.21-.451.473.473 0 0 1 .023-.175c.237-.655.52-1.292.848-1.906l.318-.619-.823-1.077-.407-.53c-.136.21-.27.403-.371.568-.22.33-.353.543-.353.543s-1.324-3.065-2.649-4.247c-1.325-1.181-7.712-12.188-7.712-12.188a3.085 3.085 0 0 1-.696-.692.912.912 0 0 1-.06-1.14l.047-.058c.788-.864.318-.708.318-.708a3.303 3.303 0 0 1-.508-.686.981.981 0 0 1-.115-.88c.082-.171.126-.357.13-.547a1.657 1.657 0 0 0-.14-.686s2.107-8.573 2.885-9.44a6.352 6.352 0 0 0 1.128-2.001v-.029a.39.39 0 0 1 0-.057v-.029a1.333 1.333 0 0 1-.108-.527c-.016-.473.117-1.236.813-2.38l.14-.234c.528-.89.813-1.901.829-2.935a2.71 2.71 0 0 0-.032-.439s.413-1.696 2.636-2.54l.188-.068c-.273-1.817-.636-3.64-.75-5.463-.019-.12-.019-.238-.019-.36a22.161 22.161 0 0 1 0-1.887c.016-.081.016-.16.016-.243.245-4.838 1.995-9.559 3.72-14.13.505-1.305.994-2.626 1.775-3.78.07-.101.127-.19.21-.295.082-.105.165-.213.254-.318a9.29 9.29 0 0 1 1.782-1.66c.118-.087.232-.17.353-.245a11.178 11.178 0 0 1 5.006-1.75 7.093 7.093 0 0 1 3.284.336c.816.35 1.568.836 2.224 1.436.095.08.197.162.289.244l.318.264.883.785.25.225c.486.442.963.893 1.414 1.36l.099.101.289.318.108.12.276.318.095.108c.115.143.235.286.346.432.115.14.216.28.318.423l.095.136.213.318.099.159.2.317c.025.051.054.099.082.15.086.171.172.324.251.489.105.222.204.445.299.673.01.032.035.064.035.096.06.149.124.295.178.444.193.486.384.976.62 1.44.025.057.053.11.082.164a.684.684 0 0 1 .044.083l.124.156.464.578c.267.365.491.76.667 1.178.016.045.025.073.054.137.029.063.048.127.07.19.02.05.039.101.054.153.019.06.047.14.06.19.013.051.041.105.041.16l.048.19c.013.054.035.111.035.168l.038.185c.007.06.003.12.026.18.022.061 0 .105.022.179a.768.768 0 0 1 .022.212v.865c.003.05.003.099 0 .149l-.019.212c-.022.054-.013.086-.022.156-.01.07-.026.165-.035.213-.01.048-.032.098-.032.15-.012.072-.03.144-.05.215-.01.048-.017.064-.036.14-.019.076-.057.194-.07.232-.012.038-.034.08-.034.117-.045.115-.083.23-.134.34a8.917 8.917 0 0 1-.918 1.604l-.241.34-.251.353-.226.318-.359.505c-.231.34-.443.693-.635 1.057a7.515 7.515 0 0 0-.718 4.555c.137.978.47 1.918.978 2.764l.296.467c.163.256.276.54.333.839a1.59 1.59 0 0 1-.098.832 1.88 1.88 0 0 1-.375.59l.12.032c.16.038.309.08.449.118l.165.048c.594.18 1.004.317 1.004.317a7.79 7.79 0 0 1 1.48 0c.778.08 1.791 1.182 1.791 1.182s.175.022.455.041l.25.016c.982.057 2.713.05 3.422-.61 1.013-.953 4.6-1.27 4.6-1.27s1.019-2.046 2.102-2.675 3.736-1.801 3.812-2.436c.054-.455.55-1.188.826-1.566l.184-.245a8.714 8.714 0 0 1 1.623-.2l.172-.318 1.62-2.894.559-.997s2.728-3.3 4.205-3.618c.766-.162.147.823-.635 1.817-.657.848-1.445 1.706-1.588 1.861.5-.365 1.128-.51 1.737-.4.6.14 1.134.482 1.512.969zm-47.11 46.497h-.02a.394.394 0 0 1-.193 0h-.032a.448.448 0 0 1-.187-.098l-.048-.045a1.187 1.187 0 0 1-.228-.362c-.044.12-.067.245-.07.372a.594.594 0 0 0 .289.556c.12.078.222.18.301.298a.022.022 0 0 0 0-.019.094.094 0 0 1 0-.028.055.055 0 0 1 0-.022c.031-.131.077-.258.137-.378.032-.06.06-.118.095-.172a.546.546 0 0 1 .042-.073l.028-.044.048-.077a.563.563 0 0 1-.162.092z"/><path id="6rinbn" d="M834.338 525.977s4.764.584 7.061-.21c2.297-.794-.712 3.415-3.834 4.413a29.818 29.818 0 0 1-6.779 1.15l-3.672-3.453-3.897.298.68 3.812-1.21.114-.47-5z"/><path id="6rinbo" d="M841.202 534.706s5.702 1.248 8.577.546c2.874-.702-1.249 4.063-5.156 4.92-3.907.858-8.36.636-8.36.636l-4.044-4.622-4.765-.08.39 4.718h-1.483v-6.118z"/><path id="6rinbp" d="M820.11 426.2s-9.764 10.858-3.907 23.122c0 0 .318 2.189.08 2.58-.239.39.937 5.466.937 5.466s.158 9.212 0 10.78c-.16 1.57-.318 2.421-.318 2.421s-2.182 17.017-1.48 22.1c.702 5.082 1.016 14.138 1.016 14.138l2.89 24.373 15-2.811-6.798-33.436-.235-5.937s2.815-7.264 1.563-10.936c-1.251-3.672.318-50.465.318-50.465z"/><path id="6rinbq" d="M827.295 478.692c1.719 3.281.636 11.248.636 11.248-2.265 1.953-1.017 18.982-1.017 18.982s-1.563 16.798-2.576 18.742c-1.013 1.944-.86 10-.86 10 11.482 2.109 18.982-2.421 18.982-2.421s-3.672-8.36-3.748-8.748c-.045-.22-.53.375-.677.546.076-.105.276-.378.677-.953 1.563-2.188 0-6.407 0-6.407s1.953-13.592 1.016-14.844c-.937-1.251.156-5.857.702-6.95.547-1.092 1.249-3.672 1.249-4.764.045-.85.203-1.69.47-2.497 2.42-3.44 1.953-9.142 1.953-9.142s-.155-8.202 1.249-14.685c1.404-6.483-1.754-24.843-1.754-24.843s1.052-3.593.27-4.92c-.352-.598-.318-2.005-.152-3.368.19-1.668.543-3.272.543-3.272l-21.311-3.783c-.448.747-.858 1.47-1.236 2.167-7.049 13.023-2.297 17.864-2.297 17.864l4.524 13.942s1.633 14.828 3.357 18.106z"/><path id="6rinbr" d="M861.122 376.749l3.046 2.585s.597-.476 1.398-1.19c1.906-1.723 4.993-4.839 3.837-6.16-1.588-1.804-3.177-.635-3.275-.553.172-.18 3.707-3.97 2.258-3.665-1.448.304-4.218 3.595-4.218 3.595l-2.189 3.866z"/><path id="6rinbs" d="M820.266 418.936l3.592 1.092-2.731 4.765L818 420.73z"/><path id="6rinbt" d="M818.468 363.938c0-5.653 4.582-10.235 10.235-10.235 5.652 0 10.234 4.582 10.234 10.235 0 5.652-4.582 10.234-10.234 10.234-5.653 0-10.235-4.582-10.235-10.234z"/><path id="6rinbu" d="M834.719 367.69s-9.298 14.754-.47 16.025c8.827 1.27-11.874 10.234-11.874 10.234l-7.735-7.81s8.046-13.907 6.798-19.218c-1.248-5.311 13.28.768 13.28.768z"/><path id="6rinbv" d="M821.702 428.802A48.38 48.38 0 0 0 828 430.26s11.511 5.11 15.704 3.43c.19-1.667.543-3.271.543-3.271l-21.31-3.784c-.449.747-.862 1.471-1.236 2.167z"/><path id="6rinbw" d="M811.127 390.185l2.08 4.304 2.351 4.848.318.692 2.786 6.035 3.542 7.65s-1.252 1.483-.861 2.655c.365 1.096.937.62 1.01.553-.067.092-.823 1.108-.15 1.556.674.448.467 1.484.467 1.484s-2.89 4.764-3.437 6.483c-.546 1.718 8.752 3.205 8.752 3.205s13.201 5.857 16.482 2.967c3.282-2.89 0-16.483 0-16.483s0-7.811-.86-8.513c-.861-.702-.451-6.118-.451-6.118 2.264-4.13.702-6.483.702-6.483l.635-10.622s-1.017-1.096-1.798-1.172a7.81 7.81 0 0 0-1.483 0s-.413-.14-1.007-.318c-1.252-.356-3.33-.848-4.073-.477-1.092.547-8.122-.86-8.122-.86a85.985 85.985 0 0 0-9.142-.858 9.046 9.046 0 0 0-3.1.337c-2.541.784-2.992 2.63-2.992 2.63s.317 1.563-.937 3.592c-1.255 2.03-.712 2.913-.712 2.913z"/><path id="6rinbx" d="M861.122 376.749l3.046 2.585s.597-.476 1.398-1.19c.241-2.637-2.005-2.987-3.587-2.917z"/><path id="6rinby" d="M843.156 384.328l1.327.08s3.123.387 4.13-.55c1.007-.937 4.609-1.249 4.609-1.249s1.016-2.033 2.11-2.655c1.092-.623 3.75-1.798 3.81-2.424.061-.626 1.017-1.795 1.017-1.795s5.858-1.407 5 3.202c-.858 4.61-5.6 8.59-5.6 8.59s-.546 2.579-2.344 3.205c-1.798.625-13.437 6.092-15.311 4.685-1.874-1.407 1.252-11.09 1.252-11.09z"/><path id="6rinbz" d="M811.83 387.27c1.247-2.03.936-3.593.936-3.593s.451-1.846 2.992-2.63a7.73 7.73 0 0 1 1.522-.3c-2.503.795-2.951 2.618-2.951 2.618s.318 1.563-.937 3.593c-1.255 2.03-.705 2.89-.705 2.89l2.084 4.305 2.347 4.844.337.695 2.785 6.02 3.542 7.649s-1.251 1.486-.86 2.659c.365 1.095.936.616 1.01.552-.067.09-.823 1.109-.15 1.557.674.448.467 1.483.467 1.483s-2.89 4.765-3.437 6.483c-.546 1.719 8.751 3.202 8.751 3.202s9.168 4.07 14.123 3.752c-4.212 1.652-15.685-3.437-15.685-3.437s-9.298-1.487-8.752-3.205c.547-1.719 3.437-6.48 3.437-6.48s.235-1.017-.467-1.484c-.702-.467.083-1.464.15-1.556-.073.066-.636.543-1.01-.553-.391-1.172.86-2.655.86-2.655l-3.541-7.653-2.786-6.035-.318-.692-2.35-4.848-2.081-4.304s-.565-.845.686-2.878z"/><path id="6rinbA" d="M812.547 389.013l-1.404 1.172a6.452 6.452 0 0 1-1.172 2.11c-.782.86-2.89 9.373-2.89 9.373.18.398.18.854 0 1.252-.318.635.635 1.563.635 1.563s.467-.156-.318.702c-.785.857.705 1.88.705 1.88s6.404 10.93 7.732 12.103c1.327 1.172 2.655 4.218 2.655 4.218s2.783-4.365 3.437-4.447l-2.732-6.169s-1.877-8.596-3.28-10.165c-1.405-1.569.701-6.956.701-6.956z"/><path id="6rinbB" d="M811.632 404.95c1.175 1.41 3.237 1.708 5.06 1.502.267-.032.537-.073.8-.124.4-.071.796-.164 1.186-.276a12.35 12.35 0 0 0 3.881-1.906c.256-.221.551-.391.87-.502.731-.184 1.455.359 1.852.994.398.636.585 1.385.992 2.014.8 1.249 2.35 1.849 3.837 1.884 1.486.035 2.928-.41 4.345-.851-1.147-1.41-2.322-2.878-2.789-4.635a10.975 10.975 0 0 1-.219-3.494c.337-5.527 2.255-11.353 6.763-14.574.781-.556 1.725-1.213 1.985-2.058-1.251-.356-3.329-.848-4.072-.477-1.093.547-8.122-.86-8.122-.86a86 86 0 0 0-9.142-.858 9.047 9.047 0 0 0-3.1.337c.384 2.347.717 4.682.257 6.988a15.652 15.652 0 0 1-1.547 4.113c-.4.779-.833 1.544-1.271 2.313-1.188 2.138-2.322 4.282-2.541 6.67-.092 1.35.124 2.777.975 3.8z"/><path id="6rinbC" d="M827.08 415.94c-.61-.08-1.227-.286-1.83-.159a3.367 3.367 0 0 0-1.37.798l4.016.022c1.032 0 2.589.063 3.38-.667-.725-.718-3.164.14-4.197.006z"/><path id="6rinbD" d="M840.996 362.75a6.064 6.064 0 0 1 .695 5.883c-.635 1.509-1.883 2.69-2.643 4.145a7.471 7.471 0 0 0 .254 7.236c.297.386.513.828.636 1.3.18 1.19-1.052 2.045-2.033 2.747-4.51 3.215-6.426 9.043-6.763 14.574a10.956 10.956 0 0 0 .216 3.494c.467 1.756 1.646 3.224 2.792 4.634-1.416.442-2.859.887-4.348.852-1.49-.035-3.034-.636-3.838-1.884-.406-.635-.597-1.379-.99-2.014-.395-.635-1.122-1.175-1.846-.994a2.58 2.58 0 0 0-.874.499 12.36 12.36 0 0 1-5.87 2.309c-1.823.21-3.885-.092-5.057-1.503-.851-1.026-1.07-2.449-.953-3.777.407-4.73 4.412-8.449 5.34-13.106.75-3.773-.61-7.623-.858-11.454-.371-5.677 1.69-11.2 3.72-16.518a17.53 17.53 0 0 1 1.779-3.755c1.7-2.49 4.637-3.983 7.623-4.281a7.138 7.138 0 0 1 3.294.317c1.068.413 1.957 1.182 2.824 1.935 1.938 1.68 3.93 3.43 5.045 5.743.454.953.752 1.96 1.27 2.878z"/><path id="6rinbE" d="M839.153 360.676c-.508-.918-.803-1.935-1.27-2.878-.434-.88-.979-1.701-1.62-2.443a13.715 13.715 0 0 1 2.858 3.777c.442.915.737 1.906 1.217 2.798l-.616-.52c.161.213.305.44.432.676-.39-.427-.727-.9-1-1.41z"/><path id="6rinbF" d="M815.126 404.178a12.309 12.309 0 0 0 5.87-2.307c.257-.22.554-.39.874-.498.727-.184 1.452.359 1.849.994.082.133.155.276.225.42a1.27 1.27 0 0 0-.823-.08 2.578 2.578 0 0 0-.873.499 12.36 12.36 0 0 1-5.87 2.309c-1.824.21-3.885-.092-5.057-1.503a3.938 3.938 0 0 1-.388-.58c1.182.758 2.76.91 4.193.746z"/><path id="6rinbG" d="M828.547 406.268c1.483.035 2.929-.41 4.345-.851-1.146-1.41-2.322-2.878-2.789-4.635a10.96 10.96 0 0 1-.219-3.494c.337-5.53 2.255-11.36 6.766-14.574.982-.702 2.224-1.556 2.033-2.75a3.72 3.72 0 0 0-.635-1.297 7.471 7.471 0 0 1-.258-7.236c.763-1.455 2.002-2.636 2.646-4.148a6.086 6.086 0 0 0-.266-5.203 7.3 7.3 0 0 0 .686.635c.173.243.362.474.565.692a6.083 6.083 0 0 1 .264 5.207c-.635 1.509-1.884 2.69-2.643 4.145a7.471 7.471 0 0 0 .254 7.236c.296.386.512.828.635 1.3.181 1.19-1.051 2.045-2.033 2.747-4.51 3.214-6.426 9.043-6.762 14.574a10.958 10.958 0 0 0 .216 3.494c.467 1.756 1.645 3.224 2.792 4.634-1.417.442-2.859.886-4.349.852-1.49-.035-3.033-.636-3.837-1.884-.054-.083-.102-.168-.15-.254a5.327 5.327 0 0 0 2.739.81z"/><path id="6rinbH" d="M781.535 334.025v6.67h-28.963a134.186 134.186 0 0 1 2.706-3.62c.127-.166.254-.318.388-.493l1.356-1.706.187-.232.493-.6z"/><path id="6rinbI" d="M811.029 340.69v-6.665h30.434v6.664z"/><path id="6rinbJ" d="M880.927 340.69v-6.665h30.434v6.664z"/><path id="6rinbK" d="M940.045 340.69v-6.665h30.434v6.664z"/><path id="6rinbL" d="M744.733 450.368c-.257.052-.49.077-.697.077-.207 0-.375-.03-.5-.09a.648.648 0 0 1-.296-.28 1.343 1.343 0 0 1-.143-.424 3.491 3.491 0 0 1-.039-.544c0-.208.008-.376.021-.507a1.93 1.93 0 0 1 .082-.38.772.772 0 0 1 .163-.297c.155-.166.387-.248.695-.248.227 0 .465.025.714.073l-.011.135a3.254 3.254 0 0 0-.643-.077c-.18 0-.322.02-.422.061a.63.63 0 0 0-.237.16.695.695 0 0 0-.136.271c-.032.114-.053.23-.063.345-.01.117-.015.26-.015.428 0 .172.004.314.015.428.01.116.031.23.065.341.034.11.08.199.139.262.132.142.329.212.594.212.2 0 .435-.025.703-.077z"/><path id="6rinbM" d="M745.18 450.41v-2.7h1.578v.132h-1.44v1.121h1.209v.13h-1.208v1.187h1.44v.13z"/><path id="6rinbN" d="M747.233 450.41v-2.7h.327l1.286 2.57h.104v-2.57h.138v2.7h-.328l-1.288-2.568h-.1v2.569z"/><path id="6rinbO" d="M749.417 447.842v-.132h1.928v.132h-.89v2.569h-.14v-2.57z"/><path id="6rinbP" d="M753.298 448.483c0-.226-.055-.389-.16-.489-.105-.103-.271-.154-.497-.154h-.83v1.321h.83c.437 0 .657-.227.657-.678m-1.487.809v1.119h-.137v-2.701h.967c.273 0 .475.06.607.185.13.124.196.319.196.588 0 .453-.188.717-.56.79l.61 1.138h-.158l-.602-1.12z"/><path id="6rinbQ" d="M754.167 449.991a.566.566 0 0 0 .271.246c.119.052.27.077.455.077.184 0 .333-.025.451-.07a.545.545 0 0 0 .27-.237c.063-.11.105-.236.129-.381.023-.142.035-.327.035-.555 0-.43-.063-.75-.187-.956-.126-.206-.358-.31-.7-.31-.358 0-.599.114-.723.337a1.23 1.23 0 0 0-.128.388 3.481 3.481 0 0 0-.036.543c0 .217.01.397.033.54.024.141.067.268.13.378m-.106.101a1.185 1.185 0 0 1-.16-.423 3.408 3.408 0 0 1-.044-.598c0-.474.074-.823.223-1.052.15-.23.42-.344.81-.344.392 0 .66.114.81.341.15.228.225.584.225 1.067 0 .484-.073.831-.219 1.044-.145.212-.42.318-.823.318-.404 0-.678-.117-.822-.353"/><path id="6rinbR" d="M758.823 449.867c.056-.124.096-.255.121-.397.027-.14.04-.3.04-.482a2.13 2.13 0 0 0-.065-.528.932.932 0 0 0-.241-.436.596.596 0 0 0-.451-.182h-.864v2.435h.864c.14 0 .26-.036.36-.11a.72.72 0 0 0 .236-.3m-.596.544h-1.002v-2.701h1.002c.164 0 .307.036.426.108a.75.75 0 0 1 .283.299c.067.127.117.266.148.418.03.148.046.315.046.494 0 .18-.016.35-.048.505a1.784 1.784 0 0 1-.15.439.805.805 0 0 1-.28.32.773.773 0 0 1-.425.118"/><path id="6rinbS" d="M759.651 450.41v-2.7h1.577v.132h-1.438v1.121h1.207v.13h-1.207v1.187h1.438v.13z"/><path id="6rinbT" d="M762.474 450.41v-2.7h.14v2.7z"/><path id="6rinbU" d="M763.247 450.41v-2.7h.327l1.285 2.57h.104v-2.57h.139v2.7h-.328l-1.287-2.568h-.1v2.569z"/><path id="6rinbV" d="M765.735 450.41v-2.7h.328l1.284 2.57h.105v-2.57h.139v2.7h-.33l-1.287-2.568h-.1v2.569z"/><path id="6rinbW" d="M768.43 449.991a.563.563 0 0 0 .27.246c.12.052.27.077.455.077.184 0 .335-.025.452-.07a.552.552 0 0 0 .27-.237 1.13 1.13 0 0 0 .129-.381c.022-.142.033-.327.033-.555 0-.43-.061-.75-.187-.956-.124-.206-.359-.31-.699-.31-.359 0-.598.114-.722.337-.06.113-.104.241-.13.388a3.49 3.49 0 0 0-.035.543c0 .217.011.397.035.54.022.141.065.268.128.378m-.106.101a1.163 1.163 0 0 1-.16-.423 3.358 3.358 0 0 1-.044-.598c0-.474.074-.823.223-1.052.149-.23.419-.344.811-.344.39 0 .66.114.81.341.148.228.224.584.224 1.067 0 .484-.073.831-.219 1.044-.145.212-.42.318-.824.318-.404 0-.677-.117-.82-.353"/><path id="6rinbX" d="M772.246 447.71h.139l-.755 2.7h-.447l-.757-2.7h.139l.717 2.57h.247z"/><path id="6rinbY" d="M773.345 447.842l-.494 1.608h1.205l-.494-1.608zm-.924 2.569l.829-2.701h.409l.83 2.7h-.14l-.25-.83h-1.289l-.25.83z"/><path id="6rinbZ" d="M776.397 450.368a3.534 3.534 0 0 1-.697.077 1.17 1.17 0 0 1-.5-.09.64.64 0 0 1-.295-.28 1.289 1.289 0 0 1-.143-.424 3.335 3.335 0 0 1-.039-.544c0-.208.007-.376.022-.507.013-.131.042-.258.081-.38a.753.753 0 0 1 .163-.297c.155-.166.386-.248.694-.248.227 0 .465.025.714.073l-.012.135a3.221 3.221 0 0 0-.642-.077c-.18 0-.321.02-.422.061a.668.668 0 0 0-.237.16.683.683 0 0 0-.135.271 1.85 1.85 0 0 0-.063.345c-.011.117-.017.26-.017.428 0 .172.006.314.017.428.01.116.031.23.065.341.034.11.08.199.138.262.132.142.33.212.594.212.202 0 .435-.025.702-.077z"/><path id="6rinca" d="M776.846 450.41v-2.7h.14v2.7z"/><path id="6rincb" d="M778.164 447.327l.745-.354-.061-.12-.741.371zm-.341 2.664a1.114 1.114 0 0 1-.128-.379 3.397 3.397 0 0 1-.036-.539c0-.216.012-.399.037-.543.024-.144.067-.275.128-.388.125-.223.364-.336.723-.336.341 0 .573.103.7.31.124.205.187.522.187.955 0 .228-.011.41-.035.555-.024.145-.067.27-.13.381a.527.527 0 0 1-.269.234 1.218 1.218 0 0 1-.452.073c-.184 0-.335-.025-.452-.077a.562.562 0 0 1-.273-.246m-.106.101c.144.236.418.353.822.353.403 0 .679-.106.823-.318.145-.213.22-.56.22-1.044 0-.483-.076-.84-.225-1.067-.15-.227-.42-.341-.81-.341-.392 0-.662.114-.81.344-.15.229-.224.581-.224 1.052 0 .237.015.435.044.598.029.16.083.302.16.423"/><path id="6rincc" d="M780.109 450.41v-2.7h.328l1.284 2.57h.105v-2.57h.138v2.7h-.328l-1.288-2.568h-.1v2.569z"/><path id="6rincd" d="M766.711 433.023a2.122 2.122 0 0 0-1.963-.036l-.032.015c-.026.012-.05.026-.075.04-.332.18-.621.446-.826.795-.21.355-.303.745-.293 1.128a4.233 4.233 0 0 1-.585 2.043 4.412 4.412 0 0 1-.488.672 4.237 4.237 0 0 1-1.042-2.64 2.13 2.13 0 0 0-1.955-2.313c-.022-.004-.044-.004-.067-.005a.992.992 0 0 0-.1-.005h-.03l-.067.002-.097.007a2.12 2.12 0 0 0-.87.268 3.456 3.456 0 0 0-.083.053 4.229 4.229 0 0 1-2.837.439 4.263 4.263 0 0 1 1.945-2.302 2.127 2.127 0 0 0 .884-1.053l.025-.06c.01-.026.015-.05.024-.074a2.127 2.127 0 0 0-.982-2.528 4.247 4.247 0 0 1-1.836-2.33 4.272 4.272 0 0 1 2.899.443c.254.158.544.264.854.304h.003c.058.008.118.013.18.015l.048.001.042.002c.022 0 .04-.003.06-.003.043-.002.083-.002.125-.006.027-.002.055-.006.082-.01.043-.005.088-.012.131-.019l.07-.015a2.63 2.63 0 0 0 .143-.037l.047-.015a1.94 1.94 0 0 0 .162-.06l.018-.006a2.127 2.127 0 0 0 1.301-1.991 4.228 4.228 0 0 1 1.054-2.71 4.245 4.245 0 0 1 1.041 2.737c-.006.169.007.34.04.508l.01.04a2 2 0 0 0 .095.315 2.129 2.129 0 0 0 3.11 1.051 4.23 4.23 0 0 1 2.876-.45 4.231 4.231 0 0 1-1.83 2.223 2.121 2.121 0 0 0-1.064 1.32c0 .004 0 .005-.003.01a1.98 1.98 0 0 0-.039.176c-.001.011-.005.023-.006.035-.009.05-.015.1-.02.15l-.004.07c-.003.038-.004.076-.005.115l.002.108.005.078c.004.047.01.094.016.143l.006.043c.01.057.022.113.037.168l.005.019a1.656 1.656 0 0 0 .059.187c.039.11.087.217.145.323.203.357.493.634.83.82a4.204 4.204 0 0 1 1.819 2.308 4.232 4.232 0 0 1-2.994-.506m7.405 1.363a3.822 3.822 0 0 0-.037-.14c-.016-.05-.036-.098-.055-.148a2.061 2.061 0 0 0-.126-.267 2.114 2.114 0 0 0-.813-.81 4.23 4.23 0 0 1-1.49-1.538 4.238 4.238 0 0 1-.552-2.168v-.002a4.22 4.22 0 0 1 .587-2.059 4.208 4.208 0 0 1 1.598-1.565 2.133 2.133 0 0 0-.018-3.666 2.13 2.13 0 0 0-1.681-.204c-.003.002-.008.002-.01.004-.05.015-.098.029-.146.047a1.97 1.97 0 0 0-.167.07 1.863 1.863 0 0 0-.2.108 4.233 4.233 0 0 1-2.073.538c-.717 0-1.394-.18-1.988-.494-.05-.035-.1-.067-.153-.096a4.231 4.231 0 0 1-1.489-1.538 4.24 4.24 0 0 1-.552-2.169 2 2 0 0 0-.033-.332c0-.003 0-.006-.002-.009a2.123 2.123 0 0 0-1.025-1.496 2.129 2.129 0 0 0-3.21 1.888 4.228 4.228 0 0 1-.584 2.041 4.238 4.238 0 0 1-1.468 1.487c-.051.024-.1.052-.148.082a4.251 4.251 0 0 1-4.232-.051 2.132 2.132 0 0 0-3.075 1.317l-.01.04c-.01.042-.02.082-.028.123a2.118 2.118 0 0 0 .234 1.468c.202.358.494.635.83.82.594.364 1.107.88 1.475 1.53.355.627.53 1.305.549 1.977a2.538 2.538 0 0 0-.008.232 4.229 4.229 0 0 1-.586 2.04 4.228 4.228 0 0 1-1.491 1.503 2.11 2.11 0 0 0-1.098 1.467 2.34 2.34 0 0 0-.03.198 1.765 1.765 0 0 0-.011.197c-.001.012-.003.024-.003.038l.003.069a2.507 2.507 0 0 0 .021.248l.004.014a2.13 2.13 0 0 0 3.224 1.48 4.246 4.246 0 0 1 4.049-.033c.048.032.098.063.15.092.594.364 1.107.88 1.474 1.527.366.648.545 1.351.553 2.045a2.12 2.12 0 0 0 1.052 1.926c.009.006.017.013.028.018.024.014.049.025.073.04l.037.018a2.13 2.13 0 0 0 3.102-1.926 4.256 4.256 0 0 1 2.16-3.61c.028-.015.057-.03.085-.049a4.244 4.244 0 0 1 4.109-.002 2.132 2.132 0 0 0 3.208-2.27c-.003-.017-.01-.033-.013-.05"/><path id="6rince" d="M762.53 427.157a2.188 2.188 0 0 0 0 4.373 2.186 2.186 0 0 0 0-4.373"/><path id="6rina" d="M760.486 425.989v-9.796h7.398v9.796z"/><path id="6rincg" d="M767.606 422.805a2.12 2.12 0 0 0-.814-.809 4.246 4.246 0 0 1-2.04-3.707 2.135 2.135 0 0 0-3.183-1.82 2.133 2.133 0 0 0 .025 3.725c.594.364 1.107.88 1.475 1.53.366.647.544 1.349.553 2.045a2.133 2.133 0 1 0 3.984-.963"/><path id="6rinb" d="M763.56 437.029v-4.265h10.62v4.265z"/><path id="6rinci" d="M772.048 432.764c-.405 0-.784.114-1.107.31a4.24 4.24 0 0 1-2.07.538 4.233 4.233 0 0 1-2.16-.589 2.13 2.13 0 0 0-3.15 1.873 2.13 2.13 0 0 0 3.252 1.812 4.228 4.228 0 0 1 2.057-.528c.743 0 1.442.19 2.05.526a2.132 2.132 0 1 0 1.127-3.942"/><path id="6rinc" d="M750.797 436.981v-4.264h10.621v4.264z"/><path id="6rinck" d="M759.285 432.717a2.12 2.12 0 0 0-1.106.308 4.225 4.225 0 0 1-2.072.539 4.249 4.249 0 0 1-2.16-.589 2.131 2.131 0 0 0-3.15 1.874 2.132 2.132 0 0 0 3.252 1.812c.61-.337 1.31-.53 2.058-.53.745 0 1.442.192 2.051.526a2.133 2.133 0 1 0 1.127-3.94"/><path id="6rind" d="M763.622 426.001v-4.263h10.62V426z"/><path id="6rincm" d="M772.112 421.738c-.406 0-.784.114-1.107.31a4.233 4.233 0 0 1-2.072.538 4.228 4.228 0 0 1-2.158-.589 2.132 2.132 0 1 0 .101 3.686 4.23 4.23 0 0 1 2.057-.53c.744 0 1.443.19 2.051.525a2.13 2.13 0 1 0 1.127-3.94"/><path id="6rine" d="M750.9 425.904v-4.264h10.62v4.264z"/><path id="6rinco" d="M759.387 421.64c-.405 0-.783.114-1.106.31a4.252 4.252 0 0 1-4.232-.051 2.132 2.132 0 1 0 .102 3.686 4.23 4.23 0 0 1 2.058-.53c.744 0 1.443.19 2.05.527a2.132 2.132 0 1 0 1.127-3.942"/><path id="6rinf" d="M766.78 437.014v-9.796h7.397v9.796z"/><path id="6rincq" d="M773.899 433.831a2.114 2.114 0 0 0-.814-.81 4.23 4.23 0 0 1-1.49-1.538 4.239 4.239 0 0 1-.552-2.168 2.131 2.131 0 1 0-3.987 1.086c.203.357.493.634.83.82.596.362 1.109.877 1.476 1.528.366.646.544 1.35.553 2.044a2.133 2.133 0 1 0 3.984-.962"/><path id="6ring" d="M750.894 431.46v-9.794h7.396v9.795z"/><path id="6rincs" d="M758.01 428.279a2.096 2.096 0 0 0-.813-.81 4.248 4.248 0 0 1-1.488-1.538 4.236 4.236 0 0 1-.554-2.17 2.134 2.134 0 0 0-3.181-1.82 2.133 2.133 0 0 0 .025 3.726c.595.365 1.108.88 1.476 1.53.366.647.544 1.349.552 2.043a2.132 2.132 0 1 0 3.983-.962"/><path id="6rinh" d="M750.797 436.969v-9.745h7.483v9.745z"/><path id="6rincu" d="M754.767 435.917c.204-.35.299-.733.293-1.11a4.218 4.218 0 0 1 .585-2.06 4.225 4.225 0 0 1 1.601-1.563c.295-.179.552-.43.739-.75a2.132 2.132 0 1 0-3.969-1.03 4.225 4.225 0 0 1-.586 2.043 4.228 4.228 0 0 1-1.491 1.502 2.13 2.13 0 0 0-.09 3.726 2.13 2.13 0 0 0 2.918-.758"/><path id="6rini" d="M766.78 431.476v-9.746h7.483v9.746z"/><path id="6rincw" d="M770.75 430.424c.205-.35.298-.733.293-1.111.016-.703.204-1.41.587-2.06a4.214 4.214 0 0 1 1.598-1.564 2.132 2.132 0 1 0-3.229-1.778 4.262 4.262 0 0 1-2.077 3.545 2.131 2.131 0 1 0 2.828 2.968"/><path id="6rinj" d="M760.303 442.53v-9.745h7.482v9.745z"/><path id="6rincy" d="M764.272 441.478c.207-.35.3-.734.295-1.112.014-.7.203-1.41.583-2.06a4.262 4.262 0 0 1 1.601-1.563 2.133 2.133 0 0 0-.019-3.666 2.132 2.132 0 0 0-3.21 1.889 4.232 4.232 0 0 1-.585 2.042 4.23 4.23 0 0 1-1.493 1.502 2.132 2.132 0 1 0 2.828 2.968"/><path id="6rink" d="M757.263 425.904v-9.746h7.483v9.746z"/><path id="6rincA" d="M761.232 424.851c.205-.35.298-.733.294-1.11.015-.702.204-1.41.585-2.06a4.227 4.227 0 0 1 1.6-1.564 2.132 2.132 0 1 0-3.23-1.779 4.242 4.242 0 0 1-.584 2.043 4.25 4.25 0 0 1-1.493 1.504 2.13 2.13 0 1 0 2.828 2.966"/><path id="6rinl" d="M757.141 442.512v-9.795h7.397v9.795z"/><path id="6rincC" d="M764.26 439.33a2.113 2.113 0 0 0-.815-.81 4.248 4.248 0 0 1-2.041-3.707 2.131 2.131 0 1 0-3.157 1.906 4.25 4.25 0 0 1 2.028 3.573 2.13 2.13 0 1 0 3.985-.962"/><path id="6rinm" d="M760.343 431.53v-4.373h4.373v4.373z"/><path id="6rincE" d="M764.716 429.344a2.187 2.187 0 1 1-4.374-.001 2.187 2.187 0 0 1 4.374.001"/><path id="6rincF" d="M749.775 453.365h.426c.263 0 .395-.164.395-.492 0-.16-.032-.276-.096-.347-.064-.07-.164-.105-.3-.105h-.425zm.43.452h-.43v.76h-.53v-2.61h.96c.619 0 .928.303.928.906 0 .305-.078.538-.236.7-.157.163-.388.244-.692.244z"/><path id="6rincG" d="M751.893 451.358l.967-.407.157.46-.997.304zm.119 2.348c0 .305.155.457.464.457.31 0 .464-.152.464-.457v-1.738h.53v1.727c0 .32-.083.554-.248.704-.165.15-.413.224-.746.224-.332 0-.581-.075-.746-.224-.165-.15-.248-.385-.248-.704v-1.727h.53z"/><path id="6rincH" d="M755.028 453.487c.225 0 .337.105.337.315 0 .123-.027.207-.082.253-.055.046-.14.07-.255.07h-.484v-.638h.484zm-.016-1.066c.202 0 .303.103.303.31 0 .208-.1.311-.299.311h-.472v-.621zm-.997 2.156h1.04c.268 0 .477-.061.625-.184.148-.123.223-.31.223-.564a.75.75 0 0 0-.083-.384.521.521 0 0 0-.255-.21.6.6 0 0 0 .222-.23.776.776 0 0 0 .066-.346c0-.243-.068-.42-.204-.528-.135-.109-.339-.163-.61-.163h-1.024z"/><path id="6rincI" d="M757.836 454.577h-1.484v-2.61h.529v2.142h.955z"/><path id="6rincJ" d="M758.162 454.577v-2.61h.53v2.61z"/><path id="6rincK" d="M760.914 454.535a3.494 3.494 0 0 1-.733.088c-.218 0-.392-.027-.522-.08a.643.643 0 0 1-.307-.257 1.143 1.143 0 0 1-.154-.415 3.515 3.515 0 0 1-.042-.599c0-.503.071-.855.213-1.053.142-.198.404-.297.785-.297.22 0 .474.034.763.103l-.015.423a4.36 4.36 0 0 0-.631-.058c-.168 0-.287.022-.359.067-.072.045-.125.13-.16.255-.034.126-.05.34-.05.641 0 .302.034.511.105.628.07.116.21.174.422.174.21 0 .435-.018.673-.054z"/><path id="6rincL" d="M762.122 452.405l-.264 1.24h.713l-.265-1.24zm-.997 2.172l.587-2.61h1.005l.587 2.61h-.53l-.103-.472h-.913l-.104.472z"/><path id="6rincM" d="M765.932 453.541a5.712 5.712 0 0 0-.007-.687.665.665 0 0 0-.073-.238.303.303 0 0 0-.171-.147.94.94 0 0 0-.305-.04h-.35v1.688h.35c.192 0 .331-.049.418-.146.074-.08.12-.223.138-.43zm-.556 1.036h-.879v-2.61h.879c.225 0 .41.025.556.072a.664.664 0 0 1 .34.234c.08.109.136.237.167.384.03.147.046.338.046.573 0 .236-.014.43-.042.586a1.133 1.133 0 0 1-.16.414.663.663 0 0 1-.34.265 1.651 1.651 0 0 1-.567.082z"/><path id="6rincN" d="M766.945 454.577v-2.61h.53v2.61z"/><path id="6rincO" d="M769.128 453.641v-.46h.76v1.354a5.867 5.867 0 0 1-.89.088c-.407 0-.686-.109-.838-.326-.153-.217-.229-.563-.229-1.036 0-.473.08-.815.238-1.024.159-.21.429-.315.81-.315.238 0 .495.027.771.08l.138.027-.015.41a7.336 7.336 0 0 0-.754-.049c-.196 0-.333.023-.413.069-.079.046-.137.131-.174.255-.037.124-.056.337-.056.637s.037.511.111.631c.074.12.228.18.46.18l.32-.015v-.506z"/><path id="6rincP" d="M770.387 454.577v-2.61h.53v2.61z"/><path id="6rincQ" d="M771.25 452.436v-.468h1.919v.468h-.69v2.141h-.53v-2.141z"/><path id="6rincR" d="M774.14 452.405l-.265 1.24h.713l-.264-1.24zm-.998 2.172l.587-2.61h1.005l.587 2.61h-.53l-.103-.472h-.913l-.104.472z"/><path id="6rincS" d="M777.155 454.577h-1.485v-2.61h.53v2.142h.955z"/><linearGradient id="6rinw" x1="748.52" x2="748.52" y1="369.82" y2="355.63" gradientUnits="userSpaceOnUse"><stop offset="0" stop-color="gray" stop-opacity=".25"/><stop offset=".54" stop-color="gray" stop-opacity=".12"/><stop offset="1" stop-color="gray" stop-opacity=".1"/></linearGradient><linearGradient id="6rinz" x1="807.86" x2="807.86" y1="365.5" y2="351.31" gradientUnits="userSpaceOnUse"><stop offset="0" stop-color="gray" stop-opacity=".25"/><stop offset=".54" stop-color="gray" stop-opacity=".12"/><stop offset="1" stop-color="gray" stop-opacity=".1"/></linearGradient><linearGradient id="6rinC" x1="874.04" x2="874.04" y1="393.04" y2="378.85" gradientUnits="userSpaceOnUse"><stop offset="0" stop-color="gray" stop-opacity=".25"/><stop offset=".54" stop-color="gray" stop-opacity=".12"/><stop offset="1" stop-color="gray" stop-opacity=".1"/></linearGradient><linearGradient id="6rinF" x1="941.57" x2="941.57" y1="402.44" y2="388.25" gradientUnits="userSpaceOnUse"><stop offset="0" stop-color="gray" stop-opacity=".25"/><stop offset=".54" stop-color="gray" stop-opacity=".12"/><stop offset="1" stop-color="gray" stop-opacity=".1"/></linearGradient><linearGradient id="6rinI" x1="959.67" x2="959.67" y1="411.62" y2="397.43" gradientUnits="userSpaceOnUse"><stop offset="0" stop-color="gray" stop-opacity=".25"/><stop offset=".54" stop-color="gray" stop-opacity=".12"/><stop offset="1" stop-color="gray" stop-opacity=".1"/></linearGradient><linearGradient id="6rinL" x1="982.35" x2="982.35" y1="387.08" y2="372.9" gradientUnits="userSpaceOnUse"><stop offset="0" stop-color="gray" stop-opacity=".25"/><stop offset=".54" stop-color="gray" stop-opacity=".12"/><stop offset="1" stop-color="gray" stop-opacity=".1"/></linearGradient><linearGradient id="6rinO" x1="977.76" x2="977.76" y1="406.99" y2="392.8" gradientUnits="userSpaceOnUse"><stop offset="0" stop-color="gray" stop-opacity=".25"/><stop offset=".54" stop-color="gray" stop-opacity=".12"/><stop offset="1" stop-color="gray" stop-opacity=".1"/></linearGradient><linearGradient id="6rinR" x1="827.85" x2="827.85" y1="365.5" y2="351.31" gradientUnits="userSpaceOnUse"><stop offset="0" stop-color="gray" stop-opacity=".25"/><stop offset=".54" stop-color="gray" stop-opacity=".12"/><stop offset="1" stop-color="gray" stop-opacity=".1"/></linearGradient><linearGradient id="6rinU" x1="759.38" x2="759.38" y1="399.89" y2="385.7" gradientUnits="userSpaceOnUse"><stop offset="0" stop-color="gray" stop-opacity=".25"/><stop offset=".54" stop-color="gray" stop-opacity=".12"/><stop offset="1" stop-color="gray" stop-opacity=".1"/></linearGradient><linearGradient id="6rinX" x1="818.43" x2="818.43" y1="385.95" y2="371.76" gradientUnits="userSpaceOnUse"><stop offset="0" stop-color="gray" stop-opacity=".25"/><stop offset=".54" stop-color="gray" stop-opacity=".12"/><stop offset="1" stop-color="gray" stop-opacity=".1"/></linearGradient><linearGradient id="6rinaa" x1="894.8" x2="894.8" y1="377.47" y2="363.28" gradientUnits="userSpaceOnUse"><stop offset="0" stop-color="gray" stop-opacity=".25"/><stop offset=".54" stop-color="gray" stop-opacity=".12"/><stop offset="1" stop-color="gray" stop-opacity=".1"/></linearGradient><linearGradient id="6rinad" x1="972.12" x2="972.12" y1="367.52" y2="353.33" gradientUnits="userSpaceOnUse"><stop offset="0" stop-color="gray" stop-opacity=".25"/><stop offset=".54" stop-color="gray" stop-opacity=".12"/><stop offset="1" stop-color="gray" stop-opacity=".1"/></linearGradient><linearGradient id="6rinag" x1="914.14" x2="914.14" y1="365.5" y2="351.31" gradientUnits="userSpaceOnUse"><stop offset="0" stop-color="gray" stop-opacity=".25"/><stop offset=".54" stop-color="gray" stop-opacity=".12"/><stop offset="1" stop-color="gray" stop-opacity=".1"/></linearGradient><linearGradient id="6rinaj" x1="913.31" x2="913.31" y1="393.04" y2="378.85" gradientUnits="userSpaceOnUse"><stop offset="0" stop-color="gray" stop-opacity=".25"/><stop offset=".54" stop-color="gray" stop-opacity=".12"/><stop offset="1" stop-color="gray" stop-opacity=".1"/></linearGradient><linearGradient id="6rinam" x1="847.53" x2="847.53" y1="372.35" y2="358.16" gradientUnits="userSpaceOnUse"><stop offset="0" stop-color="gray" stop-opacity=".25"/><stop offset=".54" stop-color="gray" stop-opacity=".12"/><stop offset="1" stop-color="gray" stop-opacity=".1"/></linearGradient><linearGradient id="6rinap" x1="769.67" x2="769.67" y1="376.91" y2="362.73" gradientUnits="userSpaceOnUse"><stop offset="0" stop-color="gray" stop-opacity=".25"/><stop offset=".54" stop-color="gray" stop-opacity=".12"/><stop offset="1" stop-color="gray" stop-opacity=".1"/></linearGradient><linearGradient id="6rinas" x1="776.99" x2="776.99" y1="393.04" y2="378.85" gradientUnits="userSpaceOnUse"><stop offset="0" stop-color="gray" stop-opacity=".25"/><stop offset=".54" stop-color="gray" stop-opacity=".12"/><stop offset="1" stop-color="gray" stop-opacity=".1"/></linearGradient><linearGradient id="6rinav" x1="837.77" x2="837.77" y1="395.34" y2="381.16" gradientUnits="userSpaceOnUse"><stop offset="0" stop-color="gray" stop-opacity=".25"/><stop offset=".54" stop-color="gray" stop-opacity=".12"/><stop offset="1" stop-color="gray" stop-opacity=".1"/></linearGradient><linearGradient id="6rinay" x1="945.01" x2="945.01" y1="367.52" y2="353.33" gradientUnits="userSpaceOnUse"><stop offset="0" stop-color="gray" stop-opacity=".25"/><stop offset=".54" stop-color="gray" stop-opacity=".12"/><stop offset="1" stop-color="gray" stop-opacity=".1"/></linearGradient><linearGradient id="6rinaB" x1="957.98" x2="957.98" y1="387.08" y2="372.9" gradientUnits="userSpaceOnUse"><stop offset="0" stop-color="gray" stop-opacity=".25"/><stop offset=".54" stop-color="gray" stop-opacity=".12"/><stop offset="1" stop-color="gray" stop-opacity=".1"/></linearGradient><linearGradient id="6rinaE" x1="875.32" x2="875.32" y1="365.5" y2="351.31" gradientUnits="userSpaceOnUse"><stop offset="0" stop-color="gray" stop-opacity=".25"/><stop offset=".54" stop-color="gray" stop-opacity=".12"/><stop offset="1" stop-color="gray" stop-opacity=".1"/></linearGradient><linearGradient id="6rinaH" x1="893.15" x2="893.15" y1="406.99" y2="392.8" gradientUnits="userSpaceOnUse"><stop offset="0" stop-color="gray" stop-opacity=".25"/><stop offset=".54" stop-color="gray" stop-opacity=".12"/><stop offset="1" stop-color="gray" stop-opacity=".1"/></linearGradient><linearGradient id="6rinaK" x1="794.85" x2="794.85" y1="546.99" y2="355.11" gradientUnits="userSpaceOnUse"><stop offset="0" stop-color="gray" stop-opacity=".25"/><stop offset=".54" stop-color="gray" stop-opacity=".12"/><stop offset="1" stop-color="gray" stop-opacity=".1"/></linearGradient><linearGradient id="6rinbm" x1="833.23" x2="833.23" y1="540.55" y2="349.48" gradientUnits="userSpaceOnUse"><stop offset="0" stop-color="gray" stop-opacity=".25"/><stop offset=".54" stop-color="gray" stop-opacity=".12"/><stop offset="1" stop-color="gray" stop-opacity=".1"/></linearGradient><clipPath id="6rincf"><use xlink:href="#6rina"/></clipPath><clipPath id="6rinch"><use xlink:href="#6rinb"/></clipPath><clipPath id="6rincj"><use xlink:href="#6rinc"/></clipPath><clipPath id="6rincl"><use xlink:href="#6rind"/></clipPath><clipPath id="6rincn"><use xlink:href="#6rine"/></clipPath><clipPath id="6rincp"><use xlink:href="#6rinf"/></clipPath><clipPath id="6rincr"><use xlink:href="#6ring"/></clipPath><clipPath id="6rinct"><use xlink:href="#6rinh"/></clipPath><clipPath id="6rincv"><use xlink:href="#6rini"/></clipPath><clipPath id="6rincx"><use xlink:href="#6rinj"/></clipPath><clipPath id="6rincz"><use xlink:href="#6rink"/></clipPath><clipPath id="6rincB"><use xlink:href="#6rinl"/></clipPath><clipPath id="6rincD"><use xlink:href="#6rinm"/></clipPath></defs><g><g opacity=".1" transform="translate(-678 -287)"><use fill="#fdc830" xlink:href="#6rinn"/></g><g opacity=".1" transform="translate(-678 -287)"><use fill="#fdc830" xlink:href="#6rino"/></g><g opacity=".03" transform="translate(-678 -287)"><use fill="#fff" fill-opacity="0" stroke="#fff" stroke-miterlimit="50" xlink:href="#6rinp"/></g><g transform="translate(-678 -287)"><use fill="#fff" xlink:href="#6rinq"/></g><g transform="translate(-678 -287)"><use fill="#3f3d56" xlink:href="#6rinr"/></g><g transform="translate(-678 -287)"><use fill="#3f3d56" xlink:href="#6rins"/></g><g transform="translate(-678 -287)"><use fill="#3f3d56" xlink:href="#6rint"/></g><g transform="translate(-678 -287)"><use fill="#3f3d56" xlink:href="#6rinu"/></g><g transform="translate(-678 -287)"><use fill="url(#6rinw)" xlink:href="#6rinv"/></g><g transform="translate(-678 -287)"><use fill="#7cfcff" xlink:href="#6rinx"/></g><g transform="translate(-678 -287)"><use fill="url(#6rinz)" xlink:href="#6riny"/></g><g transform="translate(-678 -287)"><use fill="#7cfcff" xlink:href="#6rinA"/></g><g transform="translate(-678 -287)"><use fill="url(#6rinC)" xlink:href="#6rinB"/></g><g transform="translate(-678 -287)"><use fill="#7cfcff" xlink:href="#6rinD"/></g><g transform="translate(-678 -287)"><use fill="url(#6rinF)" xlink:href="#6rinE"/></g><g transform="translate(-678 -287)"><use fill="#7cfcff" xlink:href="#6rinG"/></g><g transform="translate(-678 -287)"><use fill="url(#6rinI)" xlink:href="#6rinH"/></g><g transform="translate(-678 -287)"><use fill="#7cfcff" xlink:href="#6rinJ"/></g><g transform="translate(-678 -287)"><use fill="url(#6rinL)" xlink:href="#6rinK"/></g><g transform="translate(-678 -287)"><use fill="#7cfcff" xlink:href="#6rinM"/></g><g transform="translate(-678 -287)"><use fill="url(#6rinO)" xlink:href="#6rinN"/></g><g transform="translate(-678 -287)"><use fill="#7cfcff" xlink:href="#6rinP"/></g><g transform="translate(-678 -287)"><use fill="url(#6rinR)" xlink:href="#6rinQ"/></g><g transform="translate(-678 -287)"><use fill="#7cfcff" xlink:href="#6rinS"/></g><g transform="translate(-678 -287)"><use fill="url(#6rinU)" xlink:href="#6rinT"/></g><g transform="translate(-678 -287)"><use fill="#ffffa5" xlink:href="#6rinV"/></g><g transform="translate(-678 -287)"><use fill="url(#6rinX)" xlink:href="#6rinW"/></g><g transform="translate(-678 -287)"><use fill="#ffffa5" xlink:href="#6rinY"/></g><g transform="translate(-678 -287)"><use fill="url(#6rinaa)" xlink:href="#6rinZ"/></g><g transform="translate(-678 -287)"><use fill="#ffffa5" xlink:href="#6rinab"/></g><g transform="translate(-678 -287)"><use fill="url(#6rinad)" xlink:href="#6rinac"/></g><g transform="translate(-678 -287)"><use fill="#ffffa5" xlink:href="#6rinae"/></g><g transform="translate(-678 -287)"><use fill="url(#6rinag)" xlink:href="#6rinaf"/></g><g transform="translate(-678 -287)"><use fill="#ffffa5" xlink:href="#6rinah"/></g><g transform="translate(-678 -287)"><use fill="url(#6rinaj)" xlink:href="#6rinai"/></g><g transform="translate(-678 -287)"><use fill="#ffffa5" xlink:href="#6rinak"/></g><g transform="translate(-678 -287)"><use fill="url(#6rinam)" xlink:href="#6rinal"/></g><g transform="translate(-678 -287)"><use fill="#ffffa5" xlink:href="#6rinan"/></g><g transform="translate(-678 -287)"><use fill="url(#6rinap)" xlink:href="#6rinao"/></g><g transform="translate(-678 -287)"><use fill="#ff69b4" xlink:href="#6rinaq"/></g><g transform="translate(-678 -287)"><use fill="url(#6rinas)" xlink:href="#6rinar"/></g><g transform="translate(-678 -287)"><use fill="#ff69b4" xlink:href="#6rinat"/></g><g transform="translate(-678 -287)"><use fill="url(#6rinav)" xlink:href="#6rinau"/></g><g transform="translate(-678 -287)"><use fill="#ff69b4" xlink:href="#6rinaw"/></g><g transform="translate(-678 -287)"><use fill="url(#6rinay)" xlink:href="#6rinax"/></g><g transform="translate(-678 -287)"><use fill="#ff69b4" xlink:href="#6rinaz"/></g><g transform="translate(-678 -287)"><use fill="url(#6rinaB)" xlink:href="#6rinaA"/></g><g transform="translate(-678 -287)"><use fill="#ff69b4" xlink:href="#6rinaC"/></g><g transform="translate(-678 -287)"><use fill="url(#6rinaE)" xlink:href="#6rinaD"/></g><g transform="translate(-678 -287)"><use fill="#ff69b4" xlink:href="#6rinaF"/></g><g transform="translate(-678 -287)"><use fill="url(#6rinaH)" xlink:href="#6rinaG"/></g><g transform="translate(-678 -287)"><use fill="#ff69b4" xlink:href="#6rinaI"/></g><g transform="translate(-678 -287)"><use fill="url(#6rinaK)" xlink:href="#6rinaJ"/></g><g transform="translate(-678 -287)"><use fill="#ee8e9e" xlink:href="#6rinaL"/></g><g transform="translate(-678 -287)"><use fill="#ee8e9e" xlink:href="#6rinaM"/></g><g transform="translate(-678 -287)"><use fill="#65617d" xlink:href="#6rinaN"/></g><g transform="translate(-678 -287)"><use fill="#3f3d56" xlink:href="#6rinaO"/></g><g opacity=".05" transform="translate(-678 -287)"><use xlink:href="#6rinaO"/></g><g transform="translate(-678 -287)"><use fill="#e8eaf2" xlink:href="#6rinaP"/></g><g opacity=".05" transform="translate(-678 -287)"><use xlink:href="#6rinaP"/></g><g transform="translate(-678 -287)"><use fill="#303d5c" xlink:href="#6rinaQ"/></g><g opacity=".05" transform="translate(-678 -287)"><use xlink:href="#6rinaQ"/></g><g transform="translate(-678 -287)"><use fill="#303d5c" xlink:href="#6rinaR"/></g><g transform="translate(-678 -287)"><use fill="#fdc830" xlink:href="#6rinaS"/></g><g opacity=".05" transform="translate(-678 -287)"><use xlink:href="#6rinaS"/></g><g opacity=".1" transform="translate(-678 -287)"><use xlink:href="#6rinaT"/></g><g transform="translate(-678 -287)"><use fill="#ee8e9e" xlink:href="#6rinaU"/></g><g opacity=".1" transform="translate(-678 -287)"><use xlink:href="#6rinaV"/></g><g transform="translate(-678 -287)"><use fill="#fdc830" xlink:href="#6rinaW"/></g><g opacity=".1" transform="translate(-678 -287)"><use xlink:href="#6rinaX"/></g><g transform="translate(-678 -287)"><use fill="#fdc830" xlink:href="#6rinaY"/></g><g opacity=".1" transform="translate(-678 -287)"><use xlink:href="#6rinaZ"/></g><g opacity=".1" transform="translate(-678 -287)"><use xlink:href="#6rinba"/></g><g transform="translate(-678 -287)"><use fill="#fdc830" xlink:href="#6rinbb"/></g><g opacity=".05" transform="translate(-678 -287)"><use xlink:href="#6rinbb"/></g><g transform="translate(-678 -287)"><use fill="#3f3d56" xlink:href="#6rinbc"/></g><g transform="translate(-678 -287)"><use fill="#e8eaf2" xlink:href="#6rinbd"/></g><g transform="translate(-678 -287)"><use fill="#3f3d56" xlink:href="#6rinbe"/></g><g opacity=".1" transform="translate(-678 -287)"><use xlink:href="#6rinbf"/></g><g opacity=".1" transform="translate(-678 -287)"><use xlink:href="#6rinbg"/></g><g opacity=".1" transform="translate(-678 -287)"><use xlink:href="#6rinbh"/></g><g transform="translate(-678 -287)"><use fill="#fdc830" xlink:href="#6rinbi"/></g><g opacity=".1" transform="translate(-678 -287)"><use xlink:href="#6rinbj"/></g><g opacity=".1" transform="translate(-678 -287)"><use xlink:href="#6rinbk"/></g><g transform="translate(-678 -287)"><use fill="url(#6rinbm)" xlink:href="#6rinbl"/></g><g transform="translate(-678 -287)"><use fill="#444053" xlink:href="#6rinbn"/></g><g opacity=".1" transform="translate(-678 -287)"><use xlink:href="#6rinbn"/></g><g transform="translate(-678 -287)"><use fill="#444053" xlink:href="#6rinbo"/></g><g opacity=".1" transform="translate(-678 -287)"><use xlink:href="#6rinbo"/></g><g transform="translate(-678 -287)"><use fill="#303d5c" xlink:href="#6rinbp"/></g><g opacity=".05" transform="translate(-678 -287)"><use xlink:href="#6rinbp"/></g><g transform="translate(-678 -287)"><use fill="#303d5c" xlink:href="#6rinbq"/></g><g transform="translate(-678 -287)"><use fill="#efb7b9" xlink:href="#6rinbr"/></g><g transform="translate(-678 -287)"><use fill="#efb7b9" xlink:href="#6rinbs"/></g><g transform="translate(-678 -287)"><use fill="#efb7b9" xlink:href="#6rinbt"/></g><g transform="translate(-678 -287)"><use fill="#efb7b9" xlink:href="#6rinbu"/></g><g opacity=".1" transform="translate(-678 -287)"><use xlink:href="#6rinbv"/></g><g transform="translate(-678 -287)"><use fill="#fdc830" xlink:href="#6rinbw"/></g><g opacity=".1" transform="translate(-678 -287)"><use xlink:href="#6rinbx"/></g><g transform="translate(-678 -287)"><use fill="#fdc830" xlink:href="#6rinby"/></g><g opacity=".1" transform="translate(-678 -287)"><use xlink:href="#6rinbz"/></g><g transform="translate(-678 -287)"><use fill="#fdc830" xlink:href="#6rinbA"/></g><g opacity=".1" transform="translate(-678 -287)"><use xlink:href="#6rinbB"/></g><g opacity=".1" transform="translate(-678 -287)"><use xlink:href="#6rinbC"/></g><g transform="translate(-678 -287)"><use fill="#3f3d56" xlink:href="#6rinbD"/></g><g opacity=".1" transform="translate(-678 -287)"><g opacity=".1"><use xlink:href="#6rinbE"/></g><g opacity=".1"><use xlink:href="#6rinbF"/></g><g opacity=".1"><use xlink:href="#6rinbG"/></g></g><g opacity=".2" transform="translate(-678 -287)"><use fill="#fdc830" xlink:href="#6rinbH"/></g><g opacity=".2" transform="translate(-678 -287)"><use fill="#fdc830" xlink:href="#6rinbI"/></g><g opacity=".2" transform="translate(-678 -287)"><use fill="#fdc830" xlink:href="#6rinbJ"/></g><g opacity=".2" transform="translate(-678 -287)"><use fill="#fdc830" xlink:href="#6rinbK"/></g><g transform="translate(-678 -287)"><g><use fill="#3b3c3e" xlink:href="#6rinbL"/></g><g><use fill="#3b3c3e" xlink:href="#6rinbM"/></g><g><use fill="#3b3c3e" xlink:href="#6rinbN"/></g><g><use fill="#3b3c3e" xlink:href="#6rinbO"/></g><g><use fill="#3b3c3e" xlink:href="#6rinbP"/></g><g><use fill="#3b3c3e" xlink:href="#6rinbQ"/></g><g><use fill="#3b3c3e" xlink:href="#6rinbR"/></g><g><use fill="#3b3c3e" xlink:href="#6rinbS"/></g><g><use fill="#3b3c3e" xlink:href="#6rinbT"/></g><g><use fill="#3b3c3e" xlink:href="#6rinbU"/></g><g><use fill="#3b3c3e" xlink:href="#6rinbV"/></g><g><use fill="#3b3c3e" xlink:href="#6rinbW"/></g><g><use fill="#3b3c3e" xlink:href="#6rinbX"/></g><g><use fill="#3b3c3e" xlink:href="#6rinbY"/></g><g><use fill="#3b3c3e" xlink:href="#6rinbZ"/></g><g><use fill="#3b3c3e" xlink:href="#6rinca"/></g><g><use fill="#3b3c3e" xlink:href="#6rincb"/></g><g><use fill="#3b3c3e" xlink:href="#6rincc"/></g><g><use fill="#fff" xlink:href="#6rincd"/></g><g><use fill="#fff" xlink:href="#6rince"/></g><g><g><g><g/><g clip-path="url(#6rincf)"><use fill="#e92f19" xlink:href="#6rincg"/></g></g></g></g><g><g><g><g/><g clip-path="url(#6rinch)"><use fill="#ddd90a" xlink:href="#6rinci"/></g></g></g></g><g><g><g><g/><g clip-path="url(#6rincj)"><use fill="#449677" xlink:href="#6rinck"/></g></g></g></g><g><g><g><g/><g clip-path="url(#6rincl)"><use fill="#ec4318" xlink:href="#6rincm"/></g></g></g></g><g><g><g><g/><g clip-path="url(#6rincn)"><use fill="#6a1f7e" xlink:href="#6rinco"/></g></g></g></g><g><g><g><g/><g clip-path="url(#6rincp)"><use fill="#ffe900" xlink:href="#6rincq"/></g></g></g></g><g><g><g><g/><g clip-path="url(#6rincr)"><use fill="#009ddd" xlink:href="#6rincs"/></g></g></g></g><g><g><g><g/><g clip-path="url(#6rinct)"><use fill="#2371a0" xlink:href="#6rincu"/></g></g></g></g><g><g><g><g/><g clip-path="url(#6rincv)"><use fill="#f77e10" xlink:href="#6rincw"/></g></g></g></g><g><g><g><g/><g clip-path="url(#6rincx)"><use fill="#8abb2b" xlink:href="#6rincy"/></g></g></g></g><g><g><g><g/><g clip-path="url(#6rincz)"><use fill="#ac077a" xlink:href="#6rincA"/></g></g></g></g><g><g><g><g/><g clip-path="url(#6rincB)"><use fill="#62b573" xlink:href="#6rincC"/></g></g></g></g><g><g><g><g/><g clip-path="url(#6rincD)"><use fill="#c1c1c0" xlink:href="#6rincE"/></g></g></g></g><g><g><use fill="#3b3c3e" xlink:href="#6rincF"/></g><g><use fill="#3b3c3e" xlink:href="#6rincG"/></g><g><use fill="#3b3c3e" xlink:href="#6rincH"/></g><g><use fill="#3b3c3e" xlink:href="#6rincI"/></g><g><use fill="#3b3c3e" xlink:href="#6rincJ"/></g><g><use fill="#3b3c3e" xlink:href="#6rincK"/></g><g><use fill="#3b3c3e" xlink:href="#6rincL"/></g><g><use fill="#3b3c3e" xlink:href="#6rincM"/></g><g><use fill="#3b3c3e" xlink:href="#6rincN"/></g><g><use fill="#3b3c3e" xlink:href="#6rincO"/></g><g><use fill="#3b3c3e" xlink:href="#6rincP"/></g><g><use fill="#3b3c3e" xlink:href="#6rincQ"/></g><g><use fill="#3b3c3e" xlink:href="#6rincR"/></g><g><use fill="#3b3c3e" xlink:href="#6rincS"/></g></g></g></g></svg>