<svg xmlns="http://www.w3.org/2000/svg" xmlns:xlink="http://www.w3.org/1999/xlink" width="375" height="255" viewBox="0 0 375 255"><defs><path id="lao8a" d="M908.544 319.13c-16.047 11.327-36.863 10.596-55.104 4.701-18.24-5.895-34.996-16.39-52.768-23.848a170.362 170.362 0 0 0-46.364-12.185c-22.65-2.613-47.946.57-63.726 18.891-17.575 20.392-16.225 57.18 2.775 75.914 9.67 9.522 22.332 14.196 33.373 21.63 11.041 7.434 21.27 19.773 20.33 34.116-.871 13.294-10.993 23.48-21.468 29.88-8.095 4.942-18.064 10.34-19.039 20.58-.944 9.907 7.44 17.67 15.444 22.085 26.114 14.406 58.293 14.266 84.316-.35 9.279-5.23 17.8-12.17 27.533-16.222 25.556-10.677 53.717.074 80.778 4.002a160.212 160.212 0 0 0 68.702-5.04c13.4-3.992 26.853-10.093 36.266-21.46 6.79-8.196 11.02-18.565 14.99-28.812a1145.979 1145.979 0 0 0 12.21-33c2.342-6.646 4.65-13.426 5.257-20.542 1.096-12.891-3.526-25.636-9.82-36.515-14.944-25.853-40.114-44.016-67.373-48.63-27.259-4.615-56.096 4.397-77.238 24.117"/><path id="lao8b" d="M869.44 320.596l-1.238 71.805s44.811 0 82.939 12.379l.74-72.54s-61.15-14.617-82.441-11.644z"/><path id="lao8c" d="M868.378 319.296l-1.238 71.805s44.811 0 82.94 12.379l.74-72.539s-61.15-14.618-82.442-11.645z"/><path id="lao8d" d="M837.686 322.653l1.238 71.804s-44.811 0-82.936 12.38l-.744-72.54s61.15-14.601 82.442-11.644z"/><path id="lao8e" d="M838.748 321.028l1.238 71.805s-44.812 0-82.936 12.379l-.744-72.54s61.15-14.6 82.442-11.644z"/><path id="lao8f" d="M819.217 332.918l.666 38.505s-24.043 0-44.48 6.638l-.4-38.901s32.797-7.827 44.214-6.242z"/><path id="lao8g" d="M986.516 354.232v71.054s14.62-1.735 45.308 36.146l2.722-71.054s-31.938-34.414-48.03-36.146z"/><path id="lao8h" d="M985.866 353.14v71.054s14.62-1.735 45.308 36.146l2.723-71.054s-31.939-34.414-48.031-36.146z"/><path id="lao8i" d="M726.402 354.596v71.054s-14.608-1.735-45.289 36.146l-2.739-71.054s31.935-34.414 48.028-36.146z"/><path id="lao8j" d="M727.377 353.14v71.054s-14.608-1.735-45.29 36.146l-2.738-71.054s31.935-34.414 48.028-36.146z"/><path id="lao8k" d="M878.752 337.575l30.356 5.43v4.421l-30.356-5.829z"/><path id="lao8l" d="M813.66 383.324l-30.352 5.43v4.421l30.353-5.829z"/><path id="lao8m" d="M880.371 346.504l55.481 11.46v4.422l-55.48-11.86z"/><path id="lao8n" d="M880.371 355.346l55.481 11.456v4.425l-55.48-11.862z"/><path id="lao8o" d="M998.803 374.872v3.903l11.902 9.669.559-3.347z"/><path id="lao8p" d="M998.804 415.272v3.902l11.9 9.67.56-3.347z"/><path id="lao8q" d="M998.992 382.38l-.188 3.905 22.5 21.193-.37-4.46z"/><path id="lao8r" d="M998.804 390.186v3.717l22.5 21.57v-4.834z"/><path id="lao8s" d="M714.25 376.089l.186 3.905-22.497 21.194.37-4.461z"/><path id="lao8t" d="M714.436 383.895v3.717l-22.497 21.57v-4.834z"/><path id="lao8u" d="M726.168 505.77c0-1.842 8.292-3.334 18.52-3.334s18.52 1.492 18.52 3.334c0 1.84-8.292 3.333-18.52 3.333s-18.52-1.492-18.52-3.333z"/><path id="lao8v" d="M700.767 483.992s1.783 2.333-.826 5.848c-2.609 3.516-4.76 6.498-3.898 8.695 0 0 3.934-6.544 7.147-6.635 3.214-.09 1.102-3.957-2.423-7.908z"/><path id="lao8w" d="M700.767 483.992c.156.225.279.471.364.731 3.125 3.672 4.792 7.1 1.787 7.188-2.798.078-6.174 5.084-6.96 6.348.026.094.059.192.094.286 0 0 3.935-6.544 7.148-6.634 3.214-.091 1.092-3.968-2.433-7.919z"/><path id="lao8x" d="M704.084 486.455c0 .822-.091 1.488-.205 1.488-.113 0-.208-.666-.208-1.488s.117-.436.231-.436.182-.39.182.436z"/><path id="lao8y" d="M705.224 487.447c-.72.393-1.351.63-1.406.533-.056-.098.487-.5 1.208-.894.721-.393.436-.107.49 0 .056.107.43-.03-.292.36z"/><path id="lao8z" d="M691.338 483.992s-1.777 2.327.822 5.859c2.6 3.531 4.76 6.498 3.899 8.694 0 0-3.935-6.544-7.148-6.634-3.214-.091-1.095-3.968 2.427-7.919z"/><path id="lao8A" d="M691.338 483.992a2.927 2.927 0 0 0-.364.731c-3.126 3.672-4.792 7.1-1.787 7.188 2.8.078 6.173 5.084 6.96 6.348a2.452 2.452 0 0 1-.095.286s-3.934-6.544-7.148-6.634c-3.213-.091-1.088-3.968 2.434-7.919z"/><path id="lao8B" d="M688.02 486.455c0 .822.092 1.488.205 1.488.114 0 .208-.666.208-1.488s-.117-.436-.23-.436c-.114 0-.182-.39-.182.436z"/><path id="lao8C" d="M686.883 487.447c.722.393 1.349.63 1.404.533.055-.098-.487-.5-1.209-.894-.721-.393-.435-.107-.49 0-.056.107-.426-.03.295.36z"/><path id="lao8D" d="M688.586 498.769s4.99-.153 6.498-1.225c1.508-1.073 7.674-2.35 8.048-.63.374 1.718 7.499 8.541 1.865 8.586-5.634.046-13.09-.877-14.592-1.793-1.5-.916-1.82-4.938-1.82-4.938z"/><path id="lao8E" d="M705.098 507.823c-5.634.045-13.09-.877-14.592-1.794-1.144-.695-1.598-3.193-1.751-4.347h-.166s.325 4.026 1.816 4.939c1.492.913 8.958 1.839 14.592 1.793 1.625 0 2.19-.591 2.157-1.449-.224.523-.844.848-2.056.858z"/><path id="lao8F" d="M856.316 450.418c0-2.889 13.674-5.23 30.541-5.23 16.868 0 30.542 2.341 30.542 5.23 0 2.89-13.674 5.231-30.542 5.231-16.867 0-30.541-2.342-30.541-5.23z"/><path id="lao8G" d="M879.776 375.001a4.255 4.255 0 0 0-.325.998c-.02.086-.039.177-.058.273-.195.994-.325 2.245-.393 2.973a34.83 34.83 0 0 0-.05.598s-7.046-.472-5.825-1.654a2.6 2.6 0 0 0 .65-1.17 5.07 5.07 0 0 0 .09-.383 6.55 6.55 0 0 0 .115-.894v-.227a9.219 9.219 0 0 0-.069-1.459s2.29 0 4.02.185c1.163.133 2.07.364 1.845.76z"/><path id="lao8H" d="M866.955 409.873c-2.4-.078-.63-5.079-.354-5.751.276-.673-.41-2.32-.41-2.32s-.812-4.763-.812-5.075a12.723 12.723 0 0 0-.272-1.93 3.25 3.25 0 0 1 .325-1.891c.276-.432.233-2.164.233-2.164V388.5l.536-.708 1.368 1.3.38.357.67 2.508-.237 3.594-.127 3.499.828 4.841s.29 6.063-2.128 5.982z"/><path id="lao8I" d="M867.688 389.107l-2.047-.85v-.332l.533-.709 1.37 1.294z"/><path id="lao8J" d="M866.753 383.843a9.456 9.456 0 0 0-.568 2.007 8.897 8.897 0 0 1-.536 1.927l2.274.946z"/><path id="lao8K" d="M885.857 436.414l-.188.403s-.205 1.335-.205 1.367c0 .033-.591.923-.591.923l-1.485.325-.63-.078a8.844 8.844 0 0 0-.17-1.092 8.343 8.343 0 0 0-1.111-2.661s-1.1-2.716-1.494-3.07c-.393-.354-1.89-3.938-1.732-4.802.085-.474.017-2.066-.061-3.392-.065-1.082-.137-1.992-.137-1.992l3.74-2.21.435.686.26.407s0 .078-.016.207v.05a6.939 6.939 0 0 1-.325 1.624s-.28 2.008 0 2.362c.28.354 1.17 5.088 1.368 7.278v.198c.078 1.007.702 1.904 1.329 2.56.039.046.081.088.123.13.279.28.576.539.89.777z"/><path id="lao8L" d="M882.898 439.825l.63.078 1.485-.324s.591-.894.591-.923c0-.03.205-1.368.205-1.368l.189-.403.022-.049a7.885 7.885 0 0 1-1.02-.841c-.036-.033-.072-.065-.104-.1-.032-.037.211 1.299-.92 1.88-.549.283-1 .5-1.315.65z"/><path id="lao8M" d="M886.268 437.097l-.21.452s-.206 1.335-.206 1.367c0 .033-.59.923-.59.923l-1.486.325-.854-.1c0-.173-.03-.417-.072-.712a7.644 7.644 0 0 0-.11-.592c.325-.146.828-.386 1.475-.72 1.134-.582.92-1.882.92-1.882.245.244.504.474.776.689l.357.25z"/><path id="lao8N" d="M886.272 437.117l-.211.452s-.205 1.335-.205 1.368c0 .032-.591.922-.591.922l-1.485.325-.855-.1c0-.173-.029-.416-.071-.712.182.008.362.033.54.075 0 0 2.027.432 2.124-1.173.059-.91.247-1.267.396-1.407l.358.25z"/><path id="lao8O" d="M886.32 437.114s-.504-.11-.605 1.492c-.101 1.601-2.125 1.173-2.125 1.173s-.994-.247-1.004.165c.033.382.123.756.266 1.111 0 0 .059.956.247 1.183.189.228.069 1.072.069 1.072s.077.63 1.643 0c0 0 1.398-.289 2.558-2.027.039-.059-.137-.237.877-.601 1.013-.364 3.899-2.697 3.69-3.837a.975.975 0 0 0-.688-.82 1.186 1.186 0 0 0-.907.124 7.16 7.16 0 0 1-.848.39 4.157 4.157 0 0 1-1.208.29 4.648 4.648 0 0 0-.94.178 1.95 1.95 0 0 1-1.026.107z"/><path id="lao8P" d="M873.614 425.748a2.758 2.758 0 0 0-.572.65c-.572.873-.916 2.095-1.3 2.621-.5.683-.65 2.008-.65 2.008-.133.871-1.978 5.524-2.479 6.349-.5.825-1.195 3.07-1.195 3.07-.426.533-.4 1.326-.358 1.703 0 .065 0 .117.02.153.02.035 0 .061 0 .061v.023l-.683 1.16-2.17-.302-1.12-.76c.091-.15.172-.305.243-.465.6-1.339 1.027-3.73 1.027-3.73s.604-2.73.558-3.366c.016-.869.075-1.737.18-2.6 0 0 1.708-5.214 2.254-6.059a2.43 2.43 0 0 0 .41-1.12.94.94 0 0 0 0-.245l.734-.73s6.043.828 5.1 1.578z"/><path id="lao8Q" d="M866.872 442.668v.257l-.682 1.16-2.17-.303-1.121-.76c.091-.15.173-.304.243-.465.546-.156 1.794.286 1.794.286s1.348.257 1.917-.156c0-.003.006-.013.02-.02z"/><path id="lao8R" d="M866.335 445.862l-2.203.526-2.021-1.495.104-.841c.141-.087.266-.197.37-.325.148-.173.248-.381.293-.604.117-.621 2.037.058 2.037.058s1.403.267 1.95-.179c-.039.408-.004.82.103 1.215a.907.907 0 0 0 .325.485c.562.386-.958 1.16-.958 1.16z"/><path id="lao8S" d="M866.335 445.885l-2.203.527-2.021-1.495.104-.842c.141-.086.266-.196.37-.324h.442c.325.032 1.137 1.478 1.137 1.478 1.995.133 2.6-.52 2.804-1a.906.906 0 0 0 .325.483c.562.4-.958 1.173-.958 1.173z"/><path id="lao8T" d="M864.298 445.631s-.8-1.446-1.137-1.475a7.616 7.616 0 0 0-.858 0s-.884 2.096-1.208 2.275c-.325.178-.8 1.182-.8 1.182s2.34 2.274 4.601 1.83a4.69 4.69 0 0 1 2.073.516c1.046.546 5.416.133 5.949-.825.396-.722.556-1.245.205-1.625a.949.949 0 0 0-.822-.28c-.55.076-1.784.062-2.866-1.266 0 0-1.995-1.826-2.157-1.83-.163-.003.133 1.706-2.98 1.498z"/><path id="lao8U" d="M882.365 420.894l-.016.02c-.137.149-1.098 1.205-1.39 1.28-.484.182-.957.391-1.417.627 0 0-.592.789-1.063.828-.142.02-.282.058-.416.11a121.226 121.226 0 0 0-.136-1.991l3.74-2.203.435.686c.097.276.208.532.243.614z"/><path id="lao8V" d="M868.453 405.181s-1.456 1.898 0 4.416a14.708 14.708 0 0 0 2.992 3.779l4.958 10.273s1.3-.708 1.774-.747c.474-.04 1.062-.825 1.062-.825.46-.237.933-.447 1.417-.63.325-.079 1.407-1.3 1.407-1.3s-.543-1.18-.423-1.495c.12-.315-.354-1.105-.354-1.105a6.504 6.504 0 0 1-.325-1.218c0-.325-.513-1.062-.513-1.062s-.51-.79-.51-1.222c0-.432-.764-2.138-.764-2.138l-.198-7.473z"/><path id="lao8W" d="M882.045 420.147s-1.091 1.218-1.407 1.3c-.483.183-.956.393-1.416.63 0 0-.591.786-1.063.825a3.77 3.77 0 0 0-.974.348c-.423.191-.803.4-.803.4l-4.961-10.274a10.747 10.747 0 0 1-1.206-1.235 17.065 17.065 0 0 1-1.787-2.544 4.26 4.26 0 0 1-.565-3.064c.092-.484.285-.943.565-1.348l3.529-.25 7.028-.5.058 2.212.13 5.26s.114.263.257.61c.223.484.388.992.49 1.515 0 .435.51 1.222.51 1.222s.514.747.514 1.062c.069.417.178.826.325 1.222 0 0 .474.786.357 1.098-.117.312.42 1.51.42 1.51z"/><path id="lao8X" d="M873.772 425.085a2.753 2.753 0 0 0-.572.65c-2.141.156-4.63-.975-5.276-1.274a.94.94 0 0 0 0-.244l.734-.73s6.056.847 5.114 1.598z"/><path id="lao8Y" d="M880.308 407.556s-.324 1.101-.432 1.573c-.107.47-.354 2.797-.354 2.797l-.136.65-2.249 10.722-.49 2.33c-.865.474-3.028-.79-3.028-.79-2.522.28-5.631-1.336-5.631-1.336s.51-1.653.393-2.479c-.117-.825.708-1.497.708-1.497-.195-.748.51-4.016.51-4.016s.16-1.219.751-1.534c.591-.315-.078-.786-.237-1.065a1.206 1.206 0 0 1 .055-.722c.051-.182.112-.36.182-.536-1.501-1.5-1.732-3.847-1.735-5.15-.004-.318.01-.635.042-.952l3.25-.568 7.098-1.241.725 2.229.182.558z"/><path id="lao8Z" d="M879.806 374.929a4.268 4.268 0 0 0-.325.997c-.02.087-.039.178-.058.273-.686.445-1.108.448-1.985.448-.303 0-.472-.578-.758-.65 0 0-.428-1.546-.549-.243-.825-.169-1.536.474-2.121-.088v-.227a9.206 9.206 0 0 0-.068-1.46s2.29 0 4.019.186c1.163.137 2.07.367 1.845.764z"/><path id="lao8aa" d="M881.448 371.992a4.393 4.393 0 0 1-5.267 4.299 4.386 4.386 0 1 1 4.705-6.453c.373.657.566 1.4.562 2.154z"/><path id="lao8ab" d="M878.97 379.38c-.033.363-.05.597-.05.597s-7.046-.47-5.825-1.654a2.6 2.6 0 0 0 .65-1.17l3.057.501s.865.67 1.534 1.3c.19.17.404.313.634.425z"/><path id="lao8ac" d="M879.895 406.12c-.31.042-.625.018-.926-.068a1.87 1.87 0 0 1-.374-.165c-.591-.355-2.557.08-2.557.08s-5.354.355-5.591 0c-.133-.204-1.08-.175-1.852-.113-.325.026-.601.058-.8.078.093-.484.285-.943.566-1.348l3.528-.25 7.1-1.242.724 2.23c.047.269.108.535.182.799z"/><path id="lao8ad" d="M876.728 378.539l-3.84-.63a1.143 1.143 0 0 1-.725.63c-.51.117-2.794 1.3-3.817 2.716l-1.024 1.42s-.828 1.024-.552 1.849c.276.825.591 3.623.591 3.623l.393 3.109s.748 2.245.514 3.23c-.234.984.117 5.117.117 5.117l-.787 5.117s2.674-.354 2.925 0c.25.354 5.591 0 5.591 0s1.95-.435 2.557-.081c.398.214.853.297 1.3.237 0 0-.471-1.625-.198-2.518.273-.894.198-2.56.198-2.56s.393-2.401.195-2.834c-.198-.432.435-2.007.435-2.007l2.086-10.982s-.253-1.97-1.368-2.639c-1.114-.669-2.372-.867-3.04-1.494-.67-.627-1.55-1.303-1.55-1.303z"/><path id="lao8ae" d="M879.005 390.026v1.3l1.211 3.268.439 3.032s.79 2.164.79 2.924c0 .76 1.926 4.37 1.926 4.37s.527 1.222.264 1.456c-.264.234-2.545 5.432.324 5.276 2.87-.156 1.97-5.588 1.97-5.588l-.394-2.362s-.552-5.907-.552-6.34c0 0-.708-2.517-.786-3.07-.078-.552-.592-3.346-.592-3.346l-.432-1.81z"/><path id="lao8af" d="M877.087 393.934l-4.28 2.45-1.328 2.007 1.77-1.8z"/><path id="lao8ag" d="M875.69 398.92s-1.949 1.27-2.865 1.27c-.916 0-3.041 2.184-3.041 2.184s3.012-1.95 3.249-1.888c.237.062 2.658-1.566 2.658-1.566z"/><path id="lao8ah" d="M870.561 399.598s-1.83 1.654-1.358 1.832c.47.179 2.924-1.832 2.924-1.832z"/><path id="lao8ai" d="M879.175 393.292s-1.417 1.92-1.033 1.89c.383-.029 1.475-1.124 1.475-1.124z"/><path id="lao8aj" d="M879.365 395.322s-1.533 1.741-1.475 2.183c.059.442 1.475-2.183 1.475-2.183z"/><path id="lao8ak" d="M879.803 396.253s-1.033 1.846-.591 2.229c.441.383.59-2.229.59-2.229z"/><path id="lao8al" d="M878.397 391.165s-.77 1.3-.208 1.387c.562.088.618 0 .618 0z"/><path id="lao8am" d="M878.59 386.11c-.192.794-.455 1.57-.786 2.316-.124-.38-.226-.768-.306-1.16.324-.42.69-.808 1.092-1.156z"/><path id="lao8an" d="M880.865 369.838a1.91 1.91 0 0 1-.296.458c-.201.182-.38.387-.533.611a3.28 3.28 0 0 0-.191 1.043c-.059.351-.28.74-.65.75a1.319 1.319 0 0 1-.52-.155.53.53 0 0 0-.516.016.578.578 0 0 0-.166.39 5.135 5.135 0 0 0-.052.923c0 .123 0 .243.02.367.09.388.066.794-.069 1.17-.17.271-.426.477-.728.584a4.5 4.5 0 0 1-1.02.286c-.667.082-1.34.104-2.011.065a.497.497 0 0 1-.182-.03.256.256 0 0 1-.078-.048c.074-.37.115-.744.12-1.12a4.387 4.387 0 1 1 6.872-5.31z"/><path id="lao8ao" d="M878.971 366.047c-.403-.042-.783.172-1.179.26-.816.179-1.65-.192-2.489-.188a4.62 4.62 0 0 0-2.047.61 4.939 4.939 0 0 0-1.364.956c-.4.4-.632.936-.65 1.5.055.324.045.656-.03.976a2.753 2.753 0 0 1-.298.454c-.21.337-.261.75-.14 1.128.168.37.395.71.673 1.007.539.692.877 1.52 1.36 2.255.212.319.449.62.71.9a.5.5 0 0 0 .152.12c.057.02.118.03.179.026 1.026.03 2.089.052 3.034-.35.303-.106.56-.312.728-.586.136-.374.161-.78.071-1.17a5.356 5.356 0 0 1 .03-1.299.572.572 0 0 1 .165-.387.52.52 0 0 1 .52-.016c.161.085.336.138.517.156.354 0 .578-.403.65-.754a1.767 1.767 0 0 1 .724-1.653c.494-.627.66-1.451.445-2.22-.234-.73-.948-1.644-1.76-1.725z"/><path id="lao8ap" d="M883.477 385.697a5.114 5.114 0 0 0 0 1.624c-.039.436 0 2.837 0 2.837-1.3-.397-4.604.393-4.604.393l-.393-1.18a2.923 2.923 0 0 1-.493-.974c-.124-.382-.226-.77-.306-1.163-.172-.817-.3-1.642-.387-2.473-.165-1.25 1.696-2.6 3.106-3.346 1.41-.748 2.645 2.44 2.645 2.44s.588 1.225.432 1.842z"/><path id="lao8aq" d="M883.477 385.457a5.136 5.136 0 0 0 0 1.624c-.039.432 0 2.833 0 2.833-1.3-.393-4.604.393-4.604.393l-.393-1.179a2.891 2.891 0 0 1-.494-.975c-.123-.38-.225-.767-.305-1.16-.171-.817-.3-1.642-.387-2.472-.165-1.254 1.696-2.6 3.106-3.35s2.645 2.44 2.645 2.44.588 1.215.432 1.846z"/><path id="lao8ar" d="M880.685 367.826a2.597 2.597 0 0 0-.289-.634c.02.055.04.107.055.163a2.502 2.502 0 0 1-.445 2.219 1.767 1.767 0 0 0-.724 1.654c-.055.35-.28.737-.65.75a1.32 1.32 0 0 1-.52-.156.53.53 0 0 0-.516.016.578.578 0 0 0-.166.39c-.063.43-.073.867-.03 1.3.036.396.114.822-.07 1.173-.172.27-.428.476-.729.585-.945.403-2.008.38-3.034.35a.47.47 0 0 1-.179-.029.42.42 0 0 1-.153-.12 6.3 6.3 0 0 1-.708-.9c-.484-.734-.822-1.56-1.361-2.255-.147-.188-.325-.373-.445-.572v.04c.165.37.393.711.672 1.007.536.692.877 1.52 1.358 2.254.211.32.45.621.712.9.041.05.092.09.15.12.057.02.117.03.178.027 1.027.029 2.092.052 3.035-.351.303-.105.56-.312.727-.585.137-.375.162-.781.072-1.17-.04-.433-.03-.869.03-1.3a.6.6 0 0 1 .165-.386.52.52 0 0 1 .52-.016c.16.084.336.137.516.156.358 0 .579-.403.65-.754.005-.356.07-.709.192-1.043.151-.225.33-.43.533-.61a2.508 2.508 0 0 0 .454-2.223z"/><path id="lao8as" d="M914.654 368.79l-2.807 5.965s-.413 1.121-.68 1.329c-.266.208-1.445 3.75-1.445 3.75l-3.012 4.64-.205.324-1.18-.325-.828-3.093.049-.897v-.114s1.858-1.949 2.274-2.095c0 0 .325.039.942-1.472.618-1.51 1.183-1.836 1.183-1.836l.325-1.091 3.486-5.553s2.924-4.188 3.72-2.33c.797 1.859-1.822 2.798-1.822 2.798z"/><path id="lao8at" d="M902.156 415.042a.673.673 0 0 1-.094.286c-.325.474-2.154 10.127-2.154 10.127.146.65-.266 1.95-.533 2.541-.266.591-.857 3.659-.857 3.659s-.147 6.615-.527 7.648c-.38 1.033.12 3.249.12 3.249-.035 1.017.575 2.096.94 2.642l.07.103c.118.17.196.267.196.267.1.197.24.37.412.51l.085.065a4.77 4.77 0 0 0 1.654.699h.058c.234.052.39.074.39.074l.146.8-1.563.324-2.982.205s-3.516.27-2.716-1.3c.055-.104.103-.213.142-.324a2.48 2.48 0 0 0 .082-.234c.48-1.505.156-3.334.156-3.334l-.68-5.341c-1.12-4.962.881-10.482.881-10.482s-.172-.442.211-1.563c.384-1.12 0-3.574 0-3.574s-.204-3.158-.47-4.72a9.563 9.563 0 0 1-.108-1.992c.013-.39.049-.778.107-1.163l6.73-.894s.386 1.095.304 1.722z"/><path id="lao8au" d="M902.073 448.692l-1.563.325-2.983.204s-3.515.27-2.716-1.3c.055-.104.103-.213.143-.324.031-.077.058-.155.081-.234.61.02 1.211.14 1.78.357 1.001.387 1.755-.62 1.755-.62l.488-.93.071-.133c.117.17.195.267.195.267.118.228.288.425.497.575l-.084.172-.471.994s.604.062 1.43.195a.65.65 0 0 0 .779-.426h.058c.234.052.39.075.39.075z"/><path id="lao8av" d="M903.572 449.494c-.117.533-3.409.696-3.409.696s-1.832-.176-2.345.25c-.514.426-2.025.325-2.083.325-.058 0-.854-.03-1.166-1.459-.312-1.43.406-1.624.438-1.647.637.009 1.268.131 1.862.36 1 .387 1.754-.62 1.754-.62l.56-1.063c.116.17.194.267.194.267.118.228.289.425.497.575l-.555 1.166s.604.062 1.43.192a.686.686 0 0 0 .838-.65.778.778 0 0 0 0-.088s.513.15 1.15.325c.592.17.955.767.835 1.371z"/><path id="lao8aw" d="M910.257 421.976c-.077.47-.159 1.692-.159 1.692.277 1.024-.432 3.454-.432 3.454l-.354 1.387c.156 1.771-.975 6.102-.975 6.102s-.757 4.016-1.15 5.748a4.752 4.752 0 0 0 .205 2.895l.029.071c0 .033.016.065.023.098a2.07 2.07 0 0 0 .432.79c.064.077.135.15.211.217.37.328.795.59 1.254.773l.199.078c.205.076.414.141.627.195h.07l-.158.93-2.086-.537-2.794-.906-1.355-.76s0-.075.042-.218a.071.071 0 0 0 0-.026c0-.062.026-.133.042-.218.215-1.218.748-4.626.481-7.148-.325-3.11.975-7.401 1.277-8.421a5.09 5.09 0 0 0 .237-1.813c-.513-.748-.63-3.74-.63-3.74s-.946-1.93-1.725-3.977a10.158 10.158 0 0 1-.563-2.07 7.023 7.023 0 0 1-.113-1.51s6.339-5.787 7.034-.186l.068.55c.618 5.15.338 6.092.263 6.55z"/><path id="lao8ax" d="M910.278 446.463l-.16.93-2.085-.537-2.795-.906-1.374-.787s0-.074.042-.217a.075.075 0 0 0 0-.026c0-.062.026-.133.042-.218h.195c.397-.038.798.016 1.17.16.455.168 1.053.363 1.173.282.21-.09.44-.13.67-.117l.288-.65.046-.097c.087.238.218.459.387.65.07.081.144.158.224.23v.224l-.017.325c.313.2.65.354 1.004.462a.577.577 0 0 0 .28 0l.198.078c.206.076.415.14.627.195z"/><path id="lao8ay" d="M909.302 448.509c-.582-.166-1.986-.435-2.213-.227-.228.208-2.174 0-2.174 0a1.183 1.183 0 0 1-1.004-.588c-.406-.63-.078-2.668-.078-2.668h.143l.24-.026c.397-.038.798.015 1.17.156.455.172 1.053.367 1.173.286.21-.093.44-.134.67-.12l.325-.731c.088.238.219.458.386.65.07.08.144.157.224.227l-.029.542c.313.2.65.356 1.004.465a.406.406 0 0 0 .481-.153.389.389 0 0 0 .036-.08c.263.123.54.215.825.272a1.508 1.508 0 0 1 1.625 1.157c.308.906-2.223 1.004-2.804.838z"/><path id="lao8az" d="M902.18 413.796l-.36.11a5.044 5.044 0 0 1-.867.183c-1.865.263-4.936.104-5.91.042.013-.39.048-.778.107-1.163l6.729-.894s.383 1.095.302 1.722z"/><path id="lao8aA" d="M908.28 411.807s-2.47.383-4.48.822c-.67.146-1.3.302-1.752.448a5.348 5.348 0 0 1-.868.185c-2.238.325-6.215.023-6.215.023-1.092-3.541 1.326-8.002 1.326-8.002-.056-.354.503-1.443.503-1.443v-.036l.345-1.264h9.178l.114.543.234 1.105 1.442 6.846z"/><path id="lao8aB" d="M909.981 414.323l-.055.023-1.075.478c-1.163.536-4.643.65-5.849.65a7.013 7.013 0 0 1-.113-1.511s6.339-5.787 7.034-.186c.013.189.036.38.058.546z"/><path id="lao8aC" d="M910 413.445l-.223.101-1.076.478c-1.183.546-4.776.65-5.926.65h-.302c-.53-.017-1.063-.514-1.063-.65 0-.072-.055-.423-.1-.722-.043-.24-.075-.448-.075-.448a28.42 28.42 0 0 1-3.574-1.849c-.9-.614-.673-4.977-.5-7.17.061-.757.117-1.255.117-1.255l9.292.543 1.3.075.743.166.199.042s.536 3.899.799 4.224c.263.324.091 1.416.058 2.04 0 .268-.03.535-.087.796 0 0 .383 1.092.295 1.703-.04.43.002.862.124 1.276z"/><path id="lao8aD" d="M895.965 375.095a3.808 3.808 0 1 1 7.616 0 3.808 3.808 0 0 1-7.616 0z"/><path id="lao8aE" d="M897.841 377.109s.263 3.606-.474 4.435a33.568 33.568 0 0 1-2.658 2.391l.591 2.45 3.337.383 3.899-4.162-.887-1.075s-.679-2.304-.12-3.454c.559-1.15-3.688-.968-3.688-.968z"/><path id="lao8aF" d="M906.286 385.159l-.205.325-1.18-.325-.828-3.093.049-.897.243-.351s1.3.03 1.245 1.212c-.055 1.033.536 2.736.676 3.129z"/><path id="lao8aG" d="M908.766 403.554s-.94.208-2.015.348c-1.075.14-2.316.214-2.826-.085-.855-.507-5.485-.36-6.823-.309h-.228l.345-1.263h9.178l.114.542 1.3.075.744.166c.136.318.21.526.21.526z"/><path id="lao8aH" d="M903.914 381.513s1.3.029 1.241 1.212c-.058 1.182.709 3.216.709 3.216l-.296.68s-.413 1.653-.088 2.066c.325.412 1.505.412.826 3.807 0 0-.147 2.541.207 3.367.355.825.355 2.803.884 3.632.484.882.899 1.8 1.241 2.745 0 0-3.837.855-4.84.267-1.005-.588-7.175-.296-7.175-.296s.03-1.033 0-1.153a.955.955 0 0 1 .146-.75c.208-.283.533-.755.355-1.167-.179-.413.442-1.024.117-1.664-.325-.64-.719-.766-.65-1.117a1.505 1.505 0 0 0-.364-1.118c-.234-.296-1.83-3.415-1.83-3.415l-.266-1.455s-2.053-1.505-2.014-2.213c.039-.708.776-1.693.776-1.693l1.976-1.95s1.095 1.18 2.157.768c1.063-.413 3.347-2.392 3.347-2.392s.815-.442.874-.767c.058-.324.562-.029.562-.029s.737-.406.884-.263c.25.13.52.22.799.263z"/><path id="lao8aI" d="M891.907 388.203l-.627.494a8.302 8.302 0 0 0-.79 3.216 42.4 42.4 0 0 1-.796 4.985l-1.24 2.219s-2.038 4.279-2.305 5.416c-.266 1.137-1.475 3.057-1.475 3.057s-4.103 3.688-1.24 4.354c2.862.666 2.953-2.924 2.953-2.924s.65-.738.776-1.241c.127-.504 3.74-6.924 3.74-6.924s1.27-1.729 1.004-2.645c0 0 1.654-3.899 1.654-4.873-.031-.816-.12-1.628-.267-2.43l.267-2.038z"/><path id="lao8aJ" d="M901.108 396.255s-2.891 1.514-3.454 1.595c-.562.081 2.45-.325 2.45-.325z"/><path id="lao8aK" d="M903.574 397.504s-3.838 1.3-5.524 1.066c0-.006 4.198.796 5.524-1.066z"/><path id="lao8aL" d="M903.832 397.993s-3.457 2.174-5.49 1.82c0 0 4.753.945 5.49.442l-2.125-.588s2.359-1.251 2.125-1.674z"/><path id="lao8aM" d="M899.576 368.522a3.594 3.594 0 0 0-2.924.55c-.591.464-.975 1.176-1.65 1.523a8.85 8.85 0 0 1-1.08.38 3.116 3.116 0 0 0-1.9 3.353c.104.585.377 1.125.514 1.703.24 1.03.025 2.109-.234 3.135a33.052 33.052 0 0 1-3.282 8.14.862.862 0 0 0-.162.545c.036.131.105.25.201.348 1.365 1.575 3.574 2.118 5.67 2.19a4.378 4.378 0 0 0 2.248-.374c.434-.25.808-.593 1.095-1.004a5.335 5.335 0 0 0 1.02-3.431c-.055-.991-.387-1.992-.136-2.95a.754.754 0 0 1 .175-.36c.224-.232.598-.17.916-.209.868-.1 1.427-1.014 1.53-1.881.105-.868-.113-1.738-.12-2.6a5.478 5.478 0 0 1 1.03-3.213c.29-.396.65-.786.754-1.283.124-.624-.237-1.082-.549-1.573-.484-.766-.721-1.66-1.459-2.245a3.933 3.933 0 0 0-1.657-.744z"/><path id="lao8aN" d="M899.324 368.267a3.574 3.574 0 0 0-2.905.549c-.591.468-.975 1.18-1.654 1.527a9.42 9.42 0 0 1-1.079.377 3.116 3.116 0 0 0-1.9 3.347c.104.584.377 1.124.513 1.702.24 1.03.03 2.109-.234 3.135a32.983 32.983 0 0 1-3.278 8.123.832.832 0 0 0-.163.546.751.751 0 0 0 .198.348c1.365 1.579 3.575 2.118 5.67 2.19a4.404 4.404 0 0 0 2.249-.371 3.452 3.452 0 0 0 1.094-1.007 5.338 5.338 0 0 0 1.017-3.431c-.058-.975-.39-1.992-.14-2.95a.816.816 0 0 1 .176-.361c.228-.23.598-.169.92-.205.864-.1 1.423-1.017 1.527-1.88.104-.865-.114-1.74-.117-2.6a5.446 5.446 0 0 1 1.03-3.21c.286-.4.65-.79.754-1.3.12-.624-.24-1.079-.553-1.572-.484-.764-.721-1.66-1.459-2.246a3.934 3.934 0 0 0-1.666-.711z"/><path id="lao8aO" d="M898.199 407.334s.757 3.545 2.018 4.506z"/><path id="lao8aP" d="M892.01 375.043a6.715 6.715 0 0 0-.134-.413c.052.14.085.263.133.413z"/><path id="lao8aQ" d="M902.78 371.969c.014.108.014.217 0 .325-.097.497-.465.887-.754 1.283a5.487 5.487 0 0 0-1.03 3.214c0 .874.221 1.744.117 2.599-.104.854-.65 1.78-1.527 1.878-.325.039-.692-.023-.916.208a.821.821 0 0 0-.179.36c-.25.959.085 1.95.14 2.95a5.338 5.338 0 0 1-1.033 3.428 3.37 3.37 0 0 1-1.095 1.004c-.702.321-1.477.45-2.245.374-2.05-.068-4.224-.598-5.602-2.115a.54.54 0 0 0-.032.286.751.751 0 0 0 .198.347c1.365 1.58 3.574 2.119 5.67 2.19a4.402 4.402 0 0 0 2.248-.37 3.45 3.45 0 0 0 1.095-1.007 5.339 5.339 0 0 0 1.017-3.431c-.059-.975-.39-1.992-.14-2.95a.815.815 0 0 1 .176-.361c.227-.23.598-.17.92-.205.863-.1 1.422-1.017 1.526-1.881.104-.864-.113-1.738-.117-2.6a5.446 5.446 0 0 1 1.03-3.21c.286-.399.65-.789.754-1.299a1.458 1.458 0 0 0-.221-1.017z"/><path id="lao8aR" d="M713.305 460.541c0-.384 3.078-.695 6.875-.695s6.875.311 6.875.695c0 .384-3.078.695-6.875.695s-6.875-.311-6.875-.695z"/><path id="lao8aS" d="M722.584 448.738s-8.967 4.633-4.334 10.072c.267.695.952 1.14 1.696 1.101 0 0-.253-.458.712-.825.343-.132.67-.304.974-.513.408-.282.713-.69.868-1.16 0 0 1.835-2.453.412-6.992 0 0 .186-1.3.023-1.492l-1.088 1.492s1.127.757 1.257 1.868c0 0-1.173-1.865-1.43-1.65-.052.042-.539.815-.539.815s1.95 1.326 2.096 3.044c0 0-1.098-2.407-2.275-2.752l-.669 1.212s2.132 1.3 2.372 3.25c0 0-1.238-2.476-2.502-2.974l-.497 1.28s2.053 1.3 2.242 2.925c0 0-1.719-2.717-2.336-2.629 0 0-.387 1.202-.325 1.573 0 0 1.456.975 1.481 1.926 0 0-1.341-1.696-1.55-1.582 0 0-.084 1.703.326 2.6a5.166 5.166 0 0 1-.595-2.6 2.823 2.823 0 0 0-.858 1.384s-.386-.939.884-1.797c0 0 .12-1.325.266-1.488 0 0-1.374.67-1.949 1.495 0 0 .214-1.228 2.08-1.839l.474-1.3s-1.865.79-2.444 1.485c0 0 .416-1.218 2.6-1.803l.65-1.196s-1.657.56-2.467 1.196c0 0 .628-1.05 2.665-1.53l.526-.75s-1.205.431-1.54.584c-.335.153-.403.078-.403.078a4.315 4.315 0 0 1 2.158-.975s1.12-1.452 1.04-1.533z"/><path id="lao8aT" d="M751.123 444.877a4.792 4.792 0 0 1 .468-2.538h.929c.032.218.068.426.114.615.266 1.15-.8 1.692-1.511 1.923zm-15.872 13.412c.94.556 2.408.916 4.256-.276l-.02 2.635c.134 1.81 2.366 8.392 2.366 8.392l1.576 5.42a42.377 42.377 0 0 1 1.735 11.784c-.04 1.256.13 2.51.504 3.71.838 2.275-.325 5.2-.839 6.281-.935.325-1.9.569-2.599.731-.08.019-.158.043-.234.072v-.017s-2.365.94-3.418.81c-.783-.098-1.273.88-.65 1.598a4.767 4.767 0 0 1-1.575.208c-1.053-.13-1.576 1.68.393 2.196 1.969.517 13.145 0 13.145 0a1.586 1.586 0 0 0 .842-1.751c.858-.033 1.394-.059 1.394-.059s1.972-.903 0-3.356l-.104.081-.423-1.24v-1.68s2.499-12.022 1.71-13.426c-.79-1.403-1.183-8.649-1.183-8.649l.263-7.875c.712-1.472 1.079-3.776 1.264-5.58.268-.86.437-1.748.503-2.647.03-.422.056-.868.072-1.329a8.92 8.92 0 0 0-.478-2.973 29.382 29.382 0 0 1 2.977-3.74 3.83 3.83 0 0 0 1.182-3.356l-.65-4.39-1.579-7.472c.198-2.08-.234-3.275-.715-3.951.114-.67.221-1.342.303-2.014.349-2.93.193-5.897-.462-8.773-.227-1.004-.539-2.034-1.24-2.794-.8-.861-2.093-1.388-2.389-2.515a8.173 8.173 0 0 0-.182-.848c-.29-.74-1.202-1.007-2.001-1.105-1.423-.172-3.48-.305-4.848.254-.952.393-2.274 1.465-2.79 2.619a2.245 2.245 0 0 0-.326 1.624c.05.193.127.378.228.55a4.946 4.946 0 0 0-.325 1.73 5.04 5.04 0 0 0 3.216 4.673 4.881 4.881 0 0 1 .211.994c-.022.458-.051.916-.074 1.371a1.55 1.55 0 0 1-.049.186 33.725 33.725 0 0 0-3.304 1.686c.79 1.16-.13 6.066-.13 6.066-1.972 1.163-3.945 4.133-1.842 7.229 2.102 3.096.919 6.417.919 6.417l-.325 5.049-.065 1.007h.026l-.026.384h.055v.412c-.926.325-2.274 1.02-3.076 2.275a8.149 8.149 0 0 1-1.378 1.69 1.014 1.014 0 0 0 .16 1.682z"/><path id="lao8aV" d="M747.55 496.401l.507 1.518-1.638 1.644-5.439 1.264-3.921-.38.253-1.391a1.674 1.674 0 0 1 1.245-1.225c1.624-.38 4.685-1.241 5.331-2.443z"/><path id="lao8aW" d="M742.282 503.248l.76-1.014-.76-1.17s-2.274.917-3.288.79c-1.013-.126-1.517 1.648.38 2.151 1.898.504 12.65 0 12.65 0s1.897-.884 0-3.288l-1.639 1.264s-2.784 1.52-4.175 1.267z"/><path id="lao8aX" d="M734.901 502.344l3.922.376 5.439-1.264 1.644-1.644-.133-.402-.189-.566-.182-.549-3.668-1.014c-.186.304-.44.56-.744.748-1.192.812-3.333 1.4-4.587 1.696l-.16.045a1.663 1.663 0 0 0-1.101 1.18z"/><path id="lao8aY" d="M734.901 505.4l3.922.376 5.439-1.264 1.644-1.644-.133-.403-1.511 1.16s-2.781 1.52-4.175 1.267h-3.918l.757-1.013-.683-1.053a1.663 1.663 0 0 0-1.101 1.18z"/><path id="lao8aZ" d="M736.169 505.019l.757-1.014-.757-1.17s-2.275.917-3.292.79-1.517 1.647.38 2.151c1.898.504 12.65 0 12.65 0s1.897-.884 0-3.288l-1.645 1.25s-2.781 1.521-4.175 1.268z"/><path id="lao8ba" d="M739.33 423.409s6.072.63 5.198-1.898a4.598 4.598 0 0 1-.188-2.235 6.208 6.208 0 0 1 1.075-2.573l-5.692.887c.34.57.6 1.184.77 1.826.666 2.683-1.163 3.993-1.163 3.993z"/><path id="lao8bb" d="M754.151 456.501s-.126 5.44-1.39 8.097l-.267 7.713s.38 7.083 1.137 8.477c.757 1.394-1.644 13.156-1.644 13.156v2.02s-4.045 1.521-5.198-.25l1.157-15.052-.498-20.88z"/><path id="lao8bc" d="M756.97 436.37l.757 2.024.634 4.302a3.801 3.801 0 0 1-1.137 3.288c-1.517 1.517-3.542 4.682-3.542 4.682l-2.404-7.203s2.404-.38 2.024-2.025c-.38-1.644-.253-4.681-.253-4.681z"/><path id="lao8bd" d="M740.99 497.85c1.625 2.553 4.146 1.104 4.594.815l-.181-.55-3.669-1.013c-.186.304-.44.56-.744.747z"/><path id="lao8be" d="M740 461.37c.128 1.77 2.275 8.223 2.275 8.223l1.517 5.309a42.097 42.097 0 0 1 1.667 11.547 11.37 11.37 0 0 0 .497 3.636c1.014 2.781-1.01 6.576-1.01 6.576 1.77 3.161 4.805 1.014 4.805 1.014v-2.025s2.405-11.004 1.771-13.155c-.634-2.15-.884-7.97-.884-7.97v-10.498a11.93 11.93 0 0 0 3.457-7.557c.033-.413.056-.848.072-1.3.104-2.856-1.849-6.199-2.6-7.395-.181-.286-.295-.448-.295-.448l-11.183 4.432h-.026v1.39z"/><path id="lao8bf" d="M739.71 417.46c.34.57.599 1.184.77 1.825a4.922 4.922 0 0 0 3.847-.14 6.209 6.209 0 0 1 1.075-2.572z"/><path id="lao8bg" d="M737.306 414.165a4.932 4.932 0 1 1 9.864 0 4.932 4.932 0 0 1-9.864 0z"/><path id="lao8bh" d="M735.915 450.771h.052c5.306 1.089 11.963-4.438 11.963-4.438a6.78 6.78 0 0 1-.461-.942c-.182-.286-.296-.448-.296-.448l-11.17 4.438-.03.442z"/><path id="lao8bi" d="M741.361 424.402s7.083-4.301 9.361-2.53l3.161 4.048s2.025.63 1.644 4.678l1.518 7.337-4.549 1.14s-2.687 2.528-.526 6.203c0 0-6.703 5.565-12.022 4.428l.377-5.946s1.14-3.288-.884-6.322c-2.024-3.035-.126-5.946 1.771-7.086.007-.02.894-4.812.15-5.95z"/><path id="lao8bj" d="M736.926 451.327s-2.655.503-3.922 2.527a7.813 7.813 0 0 1-1.322 1.654 1.004 1.004 0 0 0 .156 1.602c1.004.601 2.641.975 4.707-.724 3.542-2.912.38-5.06.38-5.06z"/><path id="lao8bk" d="M740.847 427.116s2.531-.253 3.162 6.326c.63 6.58 1.644 8.097 1.644 8.097s.633 3.414-.884 5.439c-1.517 2.024-4.429 6.322-4.429 6.322s-3.161.887-3.795-2.274l3.922-7.337s.634-2.527-.884-4.298c-1.517-1.77-2.657-13.539 1.264-12.275z"/><path id="lao8bl" d="M740.594 426.717s2.53-.253 3.161 6.323c.63 6.576 1.647 8.097 1.647 8.097s.63 3.414-.887 5.438c-1.517 2.025-4.428 6.323-4.428 6.323s-3.161.887-3.795-2.274l3.922-7.337s.633-2.53-.884-4.301c-1.517-1.771-2.658-13.543 1.264-12.269z"/><path id="lao8bm" d="M738.508 431.21s-.254 3.922.884 6.073c1.137 2.15 1.14 4.932 0 6.453"/><path id="lao8bn" d="M737.874 425.519s1.014-1.011 3.922-1.138c2.908-.126 4.175-1.013 4.175-1.013"/><path id="lao8bo" d="M749.117 408.467c.767.094 1.647.357 1.924 1.082.073.274.131.551.175.831.286 1.105 1.53 1.625 2.297 2.466.68.744.975 1.755 1.196 2.736.63 2.82.78 5.725.445 8.594-.247 2.099-.75 4.165-.893 6.27-.143 2.106.116 4.325 1.27 6.096.494.76 1.147 1.43 1.498 2.274-.725.588-1.726.673-2.658.705a50.848 50.848 0 0 1-3.25 0 3.477 3.477 0 0 1-1.66-.344 2.538 2.538 0 0 1-.87-.936c-.62-1.056-.78-2.323-.754-3.551.026-1.228.221-2.443.244-3.668 0-.67-.04-1.378-.423-1.924a6.238 6.238 0 0 0-1.062-.974c-1.352-1.2-1.816-3.126-1.862-4.933-.045-1.806.25-3.619.098-5.422-.059-.705-.325-1.553-1.017-1.69a4.398 4.398 0 0 1-.65-.084c-.559-.215-.504-1-.65-1.576-.179-.65-.728-1.144-.884-1.797-.363-1.53 1.583-3.356 2.86-3.899 1.276-.542 3.255-.425 4.626-.256z"/><path id="lao8bp" d="M749.252 408.194c.767.097 1.644.36 1.923 1.082.074.275.132.553.176.835.286 1.104 1.53 1.624 2.297 2.462.68.744.975 1.755 1.196 2.736.63 2.82.78 5.725.445 8.594-.247 2.099-.75 4.165-.894 6.27-.143 2.106.117 4.325 1.27 6.096.495.76 1.148 1.43 1.499 2.274-.725.588-1.726.673-2.658.705a51.223 51.223 0 0 1-3.265 0 3.475 3.475 0 0 1-1.66-.344 2.554 2.554 0 0 1-.872-.933c-.623-1.059-.78-2.326-.753-3.554.026-1.228.22-2.443.243-3.668 0-.666-.039-1.378-.422-1.924a6.366 6.366 0 0 0-1.063-.974c-1.351-1.2-1.819-3.123-1.864-4.932-.046-1.81.253-3.62.1-5.423-.058-.705-.325-1.553-1.017-1.69a4.41 4.41 0 0 1-.65-.084c-.558-.215-.503-1-.65-1.576-.178-.65-.727-1.144-.883-1.797-.364-1.527 1.582-3.356 2.86-3.899 1.276-.542 3.27-.412 4.642-.256z"/><path id="lao8bq" d="M1006.484 528.77c0-.592 3.491-1.072 7.798-1.072s7.798.48 7.798 1.072c0 .592-3.491 1.072-7.798 1.072-4.306 0-7.798-.48-7.798-1.072z"/><path id="lao8br" d="M972.346 531.801c0-.592 3.491-1.072 7.798-1.072 4.306 0 7.797.48 7.797 1.072 0 .592-3.49 1.072-7.797 1.072-4.307 0-7.798-.48-7.798-1.072z"/><path id="lao8bs" d="M934.66 527.7c0-.591 3.491-1.071 7.798-1.071 4.306 0 7.798.48 7.798 1.072 0 .592-3.492 1.072-7.798 1.072-4.307 0-7.798-.48-7.798-1.072z"/><path id="lao8bt" d="M990.824 540.424c0-.42 2.481-.76 5.543-.76 3.061 0 5.543.34 5.543.76s-2.482.76-5.543.76c-3.062 0-5.543-.34-5.543-.76z"/><path id="lao8bu" d="M954.117 539.66c0-.42 2.482-.76 5.543-.76s5.543.34 5.543.76-2.482.76-5.543.76-5.543-.34-5.543-.76z"/><path id="lao8bv" d="M979.406 531.557s10.936-35.85-1.713-50.21c-9.46-10.742-20.2-9.459-25.017-8.123a8.893 8.893 0 0 0-5.738 4.77c-1.68 3.625-1.378 9.516 10.494 16.387 19.875 11.505 21.12 27.293 21.12 27.293z"/><path id="lao8bw" d="M954.322 478.302s32.24 10.072 25.018 53.255"/><path id="lao8bx" d="M972.98 477.688s-4.442 2.99-3.029 7.473"/><path id="lao8by" d="M956.678 480.11s2.716-2.762 6.017-1.238"/><path id="lao8bz" d="M970.322 494.997s4.763-2.417 5.994.611"/><path id="lao8bA" d="M987.003 503.505s-3.574-.286-3.642 1.426"/><path id="lao8bB" d="M979.83 531.843s-12.807-26.057-16.326-25.485c-1.67.27-2.44 1.913-2.79 3.574a10.484 10.484 0 0 0 .698 6.342c1.813 4.162 6.687 12.08 18.419 15.57z"/><path id="lao8bC" d="M963.633 511.303s13.445 19.494 16.044 20.352"/><path id="lao8bD" d="M961.605 514.347h3.138"/><path id="lao8bE" d="M965.717 521.479l4.919.211"/><path id="lao8bF" d="M968.644 515.773l-.533 2.564"/><path id="lao8bG" d="M974.237 523.571l-.094 2.33"/><path id="lao8bH" d="M984.306 531.843s12.808-26.057 16.327-25.485c1.673.27 2.443 1.913 2.79 3.574a10.484 10.484 0 0 1-.698 6.342c-1.83 4.162-6.703 12.08-18.419 15.57z"/><path id="lao8bI" d="M1000.539 511.303s-13.445 19.494-16.041 20.352"/><path id="lao8bJ" d="M1001.773 514.347h-3.138"/><path id="lao8bK" d="M998.014 521.479l-4.92.211"/><path id="lao8bL" d="M995.022 515.773l.532 2.564"/><path id="lao8bM" d="M989.79 523.571l.095 2.33"/><path id="lao8bN" d="M956.557 537.929a2.213 2.213 0 0 1-.728-1.102.975.975 0 0 1 .51-1.12c.468-.18.975.146 1.345.474.37.328.812.702 1.3.633a2.004 2.004 0 0 1-.618-1.868.785.785 0 0 1 .173-.377c.26-.28.73-.159 1.043.059.974.695 1.263 2.04 1.27 3.249a6.133 6.133 0 0 0 0-1.339c-.038-.453.15-.896.504-1.182.235-.128.5-.19.766-.182.446-.064.899.065 1.245.354.377.403.279 1.082-.05 1.527a4.76 4.76 0 0 1-1.299 1.03 2.89 2.89 0 0 0-.92.877c-.026.05-.049.102-.067.156h-2.785a7.693 7.693 0 0 1-1.69-1.19z"/><path id="lao8bO" d="M1011.12 527.434a2.214 2.214 0 0 1-.727-1.101.975.975 0 0 1 .507-1.118c.468-.182.975.143 1.348.471.374.328.812.702 1.3.65a2.004 2.004 0 0 1-.617-1.868.782.782 0 0 1 .172-.377c.26-.28.73-.16 1.043.058.974.696 1.264 2.04 1.27 3.25a6.12 6.12 0 0 0 0-1.34c-.038-.452.15-.895.504-1.182.235-.127.5-.19.767-.182.445-.064.896.065 1.24.354.38.403.28 1.082-.048 1.528-.37.416-.81.765-1.3 1.03-.368.22-.682.52-.92.877-.026.05-.049.102-.068.156h-2.784a7.702 7.702 0 0 1-1.686-1.206z"/><path id="lao8bP" d="M994.856 537.929a2.218 2.218 0 0 1-.731-1.102.975.975 0 0 1 .51-1.12c.468-.18.975.146 1.348.474.374.328.813.702 1.3.633a1.992 1.992 0 0 1-.618-1.868.759.759 0 0 1 .173-.377c.26-.28.728-.159 1.04.059.974.695 1.267 2.04 1.27 3.249.055-.444.062-.893.02-1.339-.04-.453.147-.895.5-1.182.235-.127.5-.19.766-.182.447-.064.9.065 1.245.354.377.403.28 1.082-.049 1.527-.37.416-.81.765-1.3 1.03-.369.219-.683.519-.919.877a.839.839 0 0 0-.068.156h-2.788a7.673 7.673 0 0 1-1.7-1.19z"/><path id="lao8bQ" d="M941.783 516.716s-1.046 1.364.481 3.427c1.527 2.064 2.788 3.805 2.275 5.092 0 0-2.304-3.83-4.179-3.9-1.874-.067-.64-2.326 1.423-4.62z"/><path id="lao8bR" d="M941.78 516.716a1.624 1.624 0 0 0-.214.429c-1.83 2.147-2.804 4.155-1.046 4.204 1.64.049 3.606 2.98 4.074 3.717a1.027 1.027 0 0 1-.055.169s-2.304-3.83-4.178-3.9c-1.875-.067-.644-2.326 1.42-4.62z"/><path id="lao8bS" d="M939.628 518.457c0 .481.055.871.12.871s.12-.39.12-.87c0-.482-.064-.254-.133-.254-.068 0-.107-.228-.107.253z"/><path id="lao8bT" d="M938.94 519.032c.422.228.789.367.821.309.033-.059-.283-.292-.705-.523-.422-.23-.256-.062-.289 0-.033.062-.25-.016.172.214z"/><path id="lao8bU" d="M947.648 516.716s1.043 1.364-.484 3.427c-1.527 2.064-2.785 3.805-2.274 5.092 0 0 2.303-3.83 4.181-3.9 1.878-.067.64-2.326-1.423-4.62z"/><path id="lao8bV" d="M947.649 516.716c.09.132.161.276.211.429 1.832 2.147 2.807 4.155 1.046 4.204-1.624.049-3.603 2.98-4.074 3.717 0 .058.036.114.055.169 0 0 2.304-3.83 4.182-3.9 1.878-.067.643-2.326-1.42-4.62z"/><path id="lao8bW" d="M949.654 518.457c0 .481-.052.871-.12.871-.069 0-.12-.39-.12-.87 0-.482.067-.254.132-.254.066 0 .108-.228.108.253z"/><path id="lao8bX" d="M950.37 519.032c-.422.228-.792.367-.822.309-.029-.059.283-.292.705-.523.423-.23.257-.062.29 0 .032.062.25-.016-.173.214z"/><path id="lao8bY" d="M949.095 525.056s-2.925-.091-3.802-.718c-.877-.627-4.493-1.374-4.711-.367-.218 1.007-4.393 5-1.092 5.026 3.301.026 7.662-.513 8.542-1.05.88-.535 1.063-2.89 1.063-2.89z"/><path id="lao8bZ" d="M939.429 528.646c3.3.026 7.664-.513 8.545-1.049.666-.406.935-1.868 1.023-2.544h.098s-.186 2.355-1.063 2.892c-.877.536-5.244 1.075-8.542 1.049-.952 0-1.283-.348-1.264-.848.134.305.494.494 1.203.5z"/><path id="lao8ca" d="M721.281 533.13c0-.92 5.05-1.667 11.281-1.667 6.23 0 11.28.746 11.28 1.667 0 .92-5.05 1.667-11.28 1.667-6.23 0-11.28-.746-11.28-1.667z"/><path id="lao8cb" d="M886.733 509.106c0-.46 3.344-.835 7.47-.835 4.125 0 7.47.374 7.47.835 0 .461-3.345.835-7.47.835-4.126 0-7.47-.374-7.47-.835z"/><path id="lao8cc" d="M849.337 533.13c0-.461 3.344-.835 7.47-.835 4.125 0 7.47.374 7.47.835 0 .461-3.345.835-7.47.835-4.126 0-7.47-.374-7.47-.835z"/><linearGradient id="lao8aU" x1="1476.91" x2="1476.91" y1="502.06" y2="410.23" gradientUnits="userSpaceOnUse"><stop offset="0" stop-color="gray" stop-opacity=".25"/><stop offset=".54" stop-color="gray" stop-opacity=".12"/><stop offset="1" stop-color="gray" stop-opacity=".1"/></linearGradient></defs><g><g opacity=".1" transform="translate(-678 -287)"><use fill="#fdc830" xlink:href="#lao8a"/></g><g opacity=".1" transform="translate(-678 -287)"><g opacity=".1"><use xlink:href="#lao8b"/></g></g><g transform="translate(-678 -287)"><use fill="#f7f7fd" xlink:href="#lao8c"/></g><g opacity=".1" transform="translate(-678 -287)"><g opacity=".1"><use xlink:href="#lao8d"/></g></g><g transform="translate(-678 -287)"><use fill="#f7f7fd" xlink:href="#lao8e"/></g><g opacity=".2" transform="translate(-678 -287)"><g opacity=".2"><use fill="#fdc830" xlink:href="#lao8f"/></g></g><g opacity=".1" transform="translate(-678 -287)"><g opacity=".1"><use xlink:href="#lao8g"/></g></g><g transform="translate(-678 -287)"><use fill="#f7f7fd" xlink:href="#lao8h"/></g><g opacity=".1" transform="translate(-678 -287)"><g opacity=".1"><use xlink:href="#lao8i"/></g></g><g transform="translate(-678 -287)"><use fill="#f7f7fd" xlink:href="#lao8j"/></g><g opacity=".2" transform="translate(-678 -287)"><g opacity=".2"><use fill="#fdc830" xlink:href="#lao8k"/></g></g><g transform="translate(-678 -287)"><use fill="#fff" xlink:href="#lao8l"/></g><g transform="translate(-678 -287)"><use fill="#fff" xlink:href="#lao8m"/></g><g transform="translate(-678 -287)"><use fill="#fff" xlink:href="#lao8n"/></g><g opacity=".2" transform="translate(-678 -287)"><g opacity=".2"><use fill="#fdc830" xlink:href="#lao8o"/></g></g><g transform="translate(-678 -287)"><use fill="#fff" xlink:href="#lao8p"/></g><g transform="translate(-678 -287)"><use fill="#fff" xlink:href="#lao8q"/></g><g transform="translate(-678 -287)"><use fill="#fff" xlink:href="#lao8r"/></g><g opacity=".2" transform="translate(-678 -287)"><g opacity=".2"><use fill="#fdc830" xlink:href="#lao8s"/></g></g><g opacity=".2" transform="translate(-678 -287)"><g opacity=".2"><use fill="#fdc830" xlink:href="#lao8t"/></g></g><g opacity=".1" transform="translate(-678 -287)"><use fill="#fdc830" xlink:href="#lao8u"/></g><g transform="translate(-678 -287)"><use fill="#fdc830" xlink:href="#lao8v"/></g><g opacity=".1" transform="translate(-678 -287)"><use xlink:href="#lao8w"/></g><g transform="translate(-678 -287)"><use fill="#ffd037" xlink:href="#lao8x"/></g><g transform="translate(-678 -287)"><use fill="#ffd037" xlink:href="#lao8y"/></g><g transform="translate(-678 -287)"><use fill="#fdc830" xlink:href="#lao8z"/></g><g opacity=".1" transform="translate(-678 -287)"><use xlink:href="#lao8A"/></g><g transform="translate(-678 -287)"><use fill="#ffd037" xlink:href="#lao8B"/></g><g transform="translate(-678 -287)"><use fill="#ffd037" xlink:href="#lao8C"/></g><g transform="translate(-678 -287)"><use fill="#a8a8a8" xlink:href="#lao8D"/></g><g opacity=".2" transform="translate(-678 -287)"><use xlink:href="#lao8E"/></g><g opacity=".1" transform="translate(-678 -287)"><use fill="#fdc830" xlink:href="#lao8F"/></g><g transform="translate(-678 -287)"><use fill="#d38884" xlink:href="#lao8G"/></g><g transform="translate(-678 -287)"><use fill="#d38884" xlink:href="#lao8H"/></g><g opacity=".1" transform="translate(-678 -287)"><use xlink:href="#lao8I"/></g><g transform="translate(-678 -287)"><use fill="#4c4981" xlink:href="#lao8J"/></g><g opacity=".05" transform="translate(-678 -287)"><use xlink:href="#lao8J"/></g><g transform="translate(-678 -287)"><use fill="#d38884" xlink:href="#lao8K"/></g><g opacity=".1" transform="translate(-678 -287)"><use xlink:href="#lao8L"/></g><g transform="translate(-678 -287)"><use fill="#ceddf9" xlink:href="#lao8M"/></g><g opacity=".1" transform="translate(-678 -287)"><use xlink:href="#lao8N"/></g><g transform="translate(-678 -287)"><use fill="#cc8294" xlink:href="#lao8O"/></g><g transform="translate(-678 -287)"><use fill="#d38884" xlink:href="#lao8P"/></g><g opacity=".1" transform="translate(-678 -287)"><use xlink:href="#lao8Q"/></g><g transform="translate(-678 -287)"><use fill="#ceddf9" xlink:href="#lao8R"/></g><g opacity=".1" transform="translate(-678 -287)"><use xlink:href="#lao8S"/></g><g transform="translate(-678 -287)"><use fill="#cc8294" xlink:href="#lao8T"/></g><g opacity=".1" transform="translate(-678 -287)"><use xlink:href="#lao8U"/></g><g transform="translate(-678 -287)"><use fill="#ceddf9" xlink:href="#lao8V"/></g><g opacity=".05" transform="translate(-678 -287)"><use xlink:href="#lao8W"/></g><g opacity=".1" transform="translate(-678 -287)"><use xlink:href="#lao8X"/></g><g transform="translate(-678 -287)"><use fill="#ceddf9" xlink:href="#lao8Y"/></g><g opacity=".1" transform="translate(-678 -287)"><use xlink:href="#lao8Z"/></g><g transform="translate(-678 -287)"><use fill="#d38884" xlink:href="#lao8aa"/></g><g opacity=".1" transform="translate(-678 -287)"><use xlink:href="#lao8ab"/></g><g opacity=".1" transform="translate(-678 -287)"><use xlink:href="#lao8ac"/></g><g transform="translate(-678 -287)"><use fill="#4c4981" xlink:href="#lao8ad"/></g><g transform="translate(-678 -287)"><use fill="#d38884" xlink:href="#lao8ae"/></g><g opacity=".1" transform="translate(-678 -287)"><use xlink:href="#lao8af"/></g><g opacity=".1" transform="translate(-678 -287)"><use xlink:href="#lao8ag"/></g><g opacity=".1" transform="translate(-678 -287)"><use xlink:href="#lao8ah"/></g><g opacity=".1" transform="translate(-678 -287)"><use xlink:href="#lao8ai"/></g><g opacity=".1" transform="translate(-678 -287)"><use xlink:href="#lao8aj"/></g><g opacity=".1" transform="translate(-678 -287)"><use xlink:href="#lao8ak"/></g><g opacity=".1" transform="translate(-678 -287)"><use xlink:href="#lao8al"/></g><g opacity=".1" transform="translate(-678 -287)"><use xlink:href="#lao8am"/></g><g opacity=".1" transform="translate(-678 -287)"><use xlink:href="#lao8an"/></g><g transform="translate(-678 -287)"><use fill="#1e1637" xlink:href="#lao8ao"/></g><g opacity=".1" transform="translate(-678 -287)"><use xlink:href="#lao8ap"/></g><g transform="translate(-678 -287)"><use fill="#4c4981" xlink:href="#lao8aq"/></g><g opacity=".2" transform="translate(-678 -287)"><use xlink:href="#lao8ar"/></g><g transform="translate(-678 -287)"><use fill="#ffd2c6" xlink:href="#lao8as"/></g><g transform="translate(-678 -287)"><use fill="#ffd2c6" xlink:href="#lao8at"/></g><g opacity=".1" transform="translate(-678 -287)"><use xlink:href="#lao8au"/></g><g transform="translate(-678 -287)"><use fill="#626696" xlink:href="#lao8av"/></g><g transform="translate(-678 -287)"><use fill="#ffd2c6" xlink:href="#lao8aw"/></g><g opacity=".1" transform="translate(-678 -287)"><use xlink:href="#lao8ax"/></g><g transform="translate(-678 -287)"><use fill="#626696" xlink:href="#lao8ay"/></g><g opacity=".1" transform="translate(-678 -287)"><use xlink:href="#lao8az"/></g><g transform="translate(-678 -287)"><use fill="#626696" xlink:href="#lao8aA"/></g><g opacity=".1" transform="translate(-678 -287)"><use xlink:href="#lao8aB"/></g><g transform="translate(-678 -287)"><use fill="#626696" xlink:href="#lao8aC"/></g><g transform="translate(-678 -287)"><use fill="#ffd2c6" xlink:href="#lao8aD"/></g><g transform="translate(-678 -287)"><use fill="#ffd2c6" xlink:href="#lao8aE"/></g><g opacity=".1" transform="translate(-678 -287)"><use xlink:href="#lao8aF"/></g><g opacity=".1" transform="translate(-678 -287)"><use xlink:href="#lao8aG"/></g><g transform="translate(-678 -287)"><use fill="#ffcde5" xlink:href="#lao8aH"/></g><g transform="translate(-678 -287)"><use fill="#ffd2c6" xlink:href="#lao8aI"/></g><g opacity=".1" transform="translate(-678 -287)"><use xlink:href="#lao8aJ"/></g><g opacity=".1" transform="translate(-678 -287)"><use xlink:href="#lao8aK"/></g><g opacity=".1" transform="translate(-678 -287)"><use xlink:href="#lao8aL"/></g><g opacity=".1" transform="translate(-678 -287)"><use xlink:href="#lao8aM"/></g><g transform="translate(-678 -287)"><use fill="#985c7e" xlink:href="#lao8aN"/></g><g opacity=".1" transform="translate(-678 -287)"><use xlink:href="#lao8aO"/></g><g opacity=".1" transform="translate(-678 -287)"><g opacity=".1"><use xlink:href="#lao8aP"/></g><g opacity=".1"><use xlink:href="#lao8aQ"/></g></g><g opacity=".1" transform="translate(-678 -287)"><use fill="#fdc830" xlink:href="#lao8aR"/></g><g transform="translate(-678 -287)"><use fill="#fdc830" xlink:href="#lao8aS"/></g><g transform="translate(-678 -287)"><use fill="url(#lao8aU)" xlink:href="#lao8aT"/></g><g transform="translate(-678 -287)"><use fill="#db8b8b" xlink:href="#lao8aV"/></g><g opacity=".1" transform="translate(-678 -287)"><use xlink:href="#lao8aV"/></g><g transform="translate(-678 -287)"><use fill="#2e3037" xlink:href="#lao8aW"/></g><g transform="translate(-678 -287)"><use fill="#db8b8b" xlink:href="#lao8aX"/></g><g opacity=".1" transform="translate(-678 -287)"><use xlink:href="#lao8aY"/></g><g transform="translate(-678 -287)"><use fill="#2e3037" xlink:href="#lao8aZ"/></g><g transform="translate(-678 -287)"><use fill="#db8b8b" xlink:href="#lao8ba"/></g><g transform="translate(-678 -287)"><use fill="#474463" xlink:href="#lao8bb"/></g><g opacity=".1" transform="translate(-678 -287)"><use xlink:href="#lao8bb"/></g><g transform="translate(-678 -287)"><use fill="#fc6681" xlink:href="#lao8bc"/></g><g opacity=".05" transform="translate(-678 -287)"><use xlink:href="#lao8bc"/></g><g opacity=".1" transform="translate(-678 -287)"><use xlink:href="#lao8bd"/></g><g transform="translate(-678 -287)"><use fill="#474463" xlink:href="#lao8be"/></g><g opacity=".1" transform="translate(-678 -287)"><use xlink:href="#lao8bf"/></g><g transform="translate(-678 -287)"><use fill="#db8b8b" xlink:href="#lao8bg"/></g><g opacity=".1" transform="translate(-678 -287)"><use xlink:href="#lao8bh"/></g><g transform="translate(-678 -287)"><use fill="#fc6681" xlink:href="#lao8bi"/></g><g transform="translate(-678 -287)"><use fill="#db8b8b" xlink:href="#lao8bj"/></g><g opacity=".1" transform="translate(-678 -287)"><use xlink:href="#lao8bk"/></g><g transform="translate(-678 -287)"><use fill="#fc6681" xlink:href="#lao8bl"/></g><g opacity=".1" transform="translate(-678 -287)"><use xlink:href="#lao8bm"/></g><g opacity=".1" transform="translate(-678 -287)"><use xlink:href="#lao8bn"/></g><g opacity=".1" transform="translate(-678 -287)"><use xlink:href="#lao8bo"/></g><g transform="translate(-678 -287)"><use fill="#472727" xlink:href="#lao8bp"/></g><g opacity=".1" transform="translate(-678 -287)"><use fill="#fdc830" xlink:href="#lao8bq"/></g><g opacity=".1" transform="translate(-678 -287)"><use fill="#fdc830" xlink:href="#lao8br"/></g><g opacity=".1" transform="translate(-678 -287)"><use fill="#fdc830" xlink:href="#lao8bs"/></g><g opacity=".1" transform="translate(-678 -287)"><use fill="#fdc830" xlink:href="#lao8bt"/></g><g opacity=".1" transform="translate(-678 -287)"><use fill="#fdc830" xlink:href="#lao8bu"/></g><g transform="translate(-678 -287)"><use fill="#fdc830" xlink:href="#lao8bv"/></g><g transform="translate(-678 -287)"><use fill="#fff" fill-opacity="0" stroke="#565987" stroke-miterlimit="50" xlink:href="#lao8bw"/></g><g transform="translate(-678 -287)"><use fill="#fff" fill-opacity="0" stroke="#565987" stroke-miterlimit="50" xlink:href="#lao8bx"/></g><g transform="translate(-678 -287)"><use fill="#fff" fill-opacity="0" stroke="#565987" stroke-miterlimit="50" xlink:href="#lao8by"/></g><g transform="translate(-678 -287)"><use fill="#fff" fill-opacity="0" stroke="#565987" stroke-miterlimit="50" xlink:href="#lao8bz"/></g><g transform="translate(-678 -287)"><use fill="#fff" fill-opacity="0" stroke="#565987" stroke-miterlimit="50" xlink:href="#lao8bA"/></g><g transform="translate(-678 -287)"><use fill="#fdc830" xlink:href="#lao8bB"/></g><g transform="translate(-678 -287)"><use fill="#fff" fill-opacity="0" stroke="#565987" stroke-miterlimit="50" xlink:href="#lao8bC"/></g><g transform="translate(-678 -287)"><use fill="#fff" fill-opacity="0" stroke="#565987" stroke-miterlimit="50" xlink:href="#lao8bD"/></g><g transform="translate(-678 -287)"><use fill="#fff" fill-opacity="0" stroke="#565987" stroke-miterlimit="50" xlink:href="#lao8bE"/></g><g transform="translate(-678 -287)"><use fill="#fff" fill-opacity="0" stroke="#565987" stroke-miterlimit="50" xlink:href="#lao8bF"/></g><g transform="translate(-678 -287)"><use fill="#fff" fill-opacity="0" stroke="#565987" stroke-miterlimit="50" xlink:href="#lao8bG"/></g><g transform="translate(-678 -287)"><use fill="#fdc830" xlink:href="#lao8bH"/></g><g transform="translate(-678 -287)"><use fill="#fff" fill-opacity="0" stroke="#565987" stroke-miterlimit="50" xlink:href="#lao8bI"/></g><g transform="translate(-678 -287)"><use fill="#fff" fill-opacity="0" stroke="#565987" stroke-miterlimit="50" xlink:href="#lao8bJ"/></g><g transform="translate(-678 -287)"><use fill="#fff" fill-opacity="0" stroke="#565987" stroke-miterlimit="50" xlink:href="#lao8bK"/></g><g transform="translate(-678 -287)"><use fill="#fff" fill-opacity="0" stroke="#565987" stroke-miterlimit="50" xlink:href="#lao8bL"/></g><g transform="translate(-678 -287)"><use fill="#fff" fill-opacity="0" stroke="#565987" stroke-miterlimit="50" xlink:href="#lao8bM"/></g><g transform="translate(-678 -287)"><use fill="#fdc830" xlink:href="#lao8bN"/></g><g transform="translate(-678 -287)"><use fill="#fdc830" xlink:href="#lao8bO"/></g><g transform="translate(-678 -287)"><use fill="#fdc830" xlink:href="#lao8bP"/></g><g transform="translate(-678 -287)"><use fill="#fdc830" xlink:href="#lao8bQ"/></g><g opacity=".1" transform="translate(-678 -287)"><use xlink:href="#lao8bR"/></g><g transform="translate(-678 -287)"><use fill="#ffd037" xlink:href="#lao8bS"/></g><g transform="translate(-678 -287)"><use fill="#ffd037" xlink:href="#lao8bT"/></g><g transform="translate(-678 -287)"><use fill="#fdc830" xlink:href="#lao8bU"/></g><g opacity=".1" transform="translate(-678 -287)"><use xlink:href="#lao8bV"/></g><g transform="translate(-678 -287)"><use fill="#ffd037" xlink:href="#lao8bW"/></g><g transform="translate(-678 -287)"><use fill="#ffd037" xlink:href="#lao8bX"/></g><g transform="translate(-678 -287)"><use fill="#a8a8a8" xlink:href="#lao8bY"/></g><g opacity=".2" transform="translate(-678 -287)"><use xlink:href="#lao8bZ"/></g><g opacity=".1" transform="translate(-678 -287)"><use fill="#fdc830" xlink:href="#lao8ca"/></g><g opacity=".1" transform="translate(-678 -287)"><use fill="#fdc830" xlink:href="#lao8cb"/></g><g opacity=".1" transform="translate(-678 -287)"><use fill="#fdc830" xlink:href="#lao8cc"/></g></g></svg>