<svg id="Capa_1" data-name="Capa 1" xmlns="http://www.w3.org/2000/svg" viewBox="0 0 150 150"><defs><style>.cls-1{fill:#664696;stroke:#fff;stroke-miterlimit:10;}.cls-2{fill:#fff;}</style></defs><title>Mesa de trabajo 1 copia 2</title><path class="cls-1" d="M128.06,52.18c13.2,31.86-7.88,73.35-32.37,83.5s-61-7-74.16-38.87-.32-75.17,29.29-80.14C77,12.29,114.85,20.33,128.06,52.18Z"/><g id="Grupo_119" data-name="Grupo 119"><path id="Trazado_398" data-name="Trazado 398" class="cls-2" d="M70.44,82.66a3.42,3.42,0,0,0,3.41-3.41V58.13a3.41,3.41,0,0,0-6.77-.56,5.6,5.6,0,0,0-4.62,4.91,6.64,6.64,0,0,0,0,12.41,5.6,5.6,0,0,0,4.62,4.92A3.41,3.41,0,0,0,70.44,82.66ZM68,77.79a3.5,3.5,0,0,1-3.5-3.49l-1,0,1.06-.06a1,1,0,0,0-.79-1.09,4.54,4.54,0,0,1,0-8.82,1.06,1.06,0,0,0,.79-1.09v-.1A3.49,3.49,0,0,1,68,59.59a1.06,1.06,0,0,0,1.16-.92,1.31,1.31,0,0,0,0-.28,1.15,1.15,0,0,1,0-.26,1.31,1.31,0,1,1,2.62,0V79.25a1.31,1.31,0,0,1-2.62,0,1.09,1.09,0,0,1,0-.26,1,1,0,0,0-1-1.21Z"/><path id="Trazado_399" data-name="Trazado 399" class="cls-2" d="M79.56,82.66a3.43,3.43,0,0,0,3.36-2.85,5.61,5.61,0,0,0,4.62-4.92,6.64,6.64,0,0,0,0-12.41,5.61,5.61,0,0,0-4.62-4.91,3.41,3.41,0,0,0-6.77.56V79.25A3.42,3.42,0,0,0,79.56,82.66ZM78.25,58.13a1.31,1.31,0,1,1,2.62,0,1.15,1.15,0,0,1,0,.26,1.08,1.08,0,0,0,.27.89,1,1,0,0,0,.86.31,3.5,3.5,0,0,1,3.5,3.51h0v.09a1,1,0,0,0,.79,1.08,4.55,4.55,0,0,1,0,8.82,1,1,0,0,0-.79,1.08v.11A3.5,3.5,0,0,1,82,77.79a1,1,0,0,0-1.16.92,1.31,1.31,0,0,0,0,.28,1.15,1.15,0,0,1,0,.26,1.31,1.31,0,0,1-2.62,0Z"/><path id="Trazado_400" data-name="Trazado 400" class="cls-2" d="M77.66,110.75a7,7,0,0,0,6-6.88V96.49a8.43,8.43,0,0,0,2.74-6.21A6,6,0,0,1,87,87.69a6.22,6.22,0,0,1,1.68-2.1,21.85,21.85,0,1,0-27.37.07,5.87,5.87,0,0,1,2.2,4.62,8.41,8.41,0,0,0,2.49,6l.25.23v7.37a7,7,0,0,0,6,6.88,2.76,2.76,0,0,0,5.32,0Zm-.89-2.46H73.23a4.42,4.42,0,0,1-2.16-.58l9.8-2.2A4.43,4.43,0,0,1,76.77,108.29Zm-8-6.82,12.38-2.78v1.65l-12.38,2.78Zm0-1.72V97.58h9.67Zm.1,5.07,12.28-2.76v1.65l-11.64,2.62a4.59,4.59,0,0,1-.64-1.51Zm-6-21.13a19.37,19.37,0,1,1,24.22-.06,8.6,8.6,0,0,0-2.36,3,8.42,8.42,0,0,0-.85,3.69,5.91,5.91,0,0,1-2.44,4.78h-13a5.18,5.18,0,0,1-.67-.57,5.93,5.93,0,0,1-1.75-4.21A8.31,8.31,0,0,0,62.92,83.69Z"/><path id="Trazado_401" data-name="Trazado 401" class="cls-2" d="M44.49,67.71a1.18,1.18,0,1,0,0,2.36h4.49a1.18,1.18,0,1,0,0-2.36H44.49Z"/><path id="Trazado_402" data-name="Trazado 402" class="cls-2" d="M101.06,67.71a1.18,1.18,0,0,0,0,2.36h4.49a1.18,1.18,0,0,0,0-2.36h-4.49Z"/><path id="Trazado_403" data-name="Trazado 403" class="cls-2" d="M56.57,51.64a1.18,1.18,0,0,0,.84-2l-3.15-3.15a1.18,1.18,0,1,0-1.66,1.67l3.14,3.15A1.17,1.17,0,0,0,56.57,51.64Z"/><path id="Trazado_404" data-name="Trazado 404" class="cls-2" d="M94.26,86.48a1.18,1.18,0,0,0-1.67,0,1.2,1.2,0,0,0,0,1.67l3.15,3.14a1.18,1.18,0,1,0,1.67-1.66Z"/><path id="Trazado_405" data-name="Trazado 405" class="cls-2" d="M52.59,91.3a1.18,1.18,0,0,0,1.67,0h0l3.15-3.15a1.18,1.18,0,1,0-1.67-1.67l-3.15,3.15a1.18,1.18,0,0,0,0,1.66Z"/><path id="Trazado_406" data-name="Trazado 406" class="cls-2" d="M97.41,46.48a1.17,1.17,0,0,0-1.66,0h0L92.6,49.63a1.17,1.17,0,1,0,1.66,1.66l3.15-3.14a1.18,1.18,0,0,0,0-1.67Z"/><path id="Trazado_407" data-name="Trazado 407" class="cls-2" d="M73.82,38.38v4.45a1.18,1.18,0,0,0,2.36,0V38.38a1.18,1.18,0,0,0-2.36,0Z"/></g></svg>