<svg xmlns="http://www.w3.org/2000/svg" xmlns:xlink="http://www.w3.org/1999/xlink" width="210" height="250" viewBox="0 0 210 250"><defs><path id="l2awa" d="M818.215 1970.35l-6.09 5.392h17.95l-6.09-5.393-1.678 1.468a1.812 1.812 0 0 1-2.413 0l-1.679-1.468zm12.886-6.214l-6.054 5.29 6.054 5.356zm-20 0v10.646l6.053-5.356zm1.032-.952l8.677 7.58c.107.093.474.093.581 0l8.678-7.58z"/><path id="l2awb" d="M811.671 1953.147c-6.378 0-11.568-5.19-11.568-11.543l-3.467-.153 3.495-.213a3.469 3.469 0 0 0-2.626-3.595 14.995 14.995 0 0 1-11.396-14.576 14.994 14.994 0 0 1 11.396-14.577 3.469 3.469 0 0 0 2.626-3.594c-.003-.02-.028-.32-.028-.342 0-6.378 5.19-11.568 11.477-11.568a3.47 3.47 0 0 0 3.833-3.972c-.045-.28-.09-.555-.09-.84a4.341 4.341 0 0 1 4.336-4.336c2.381 0 4.321 1.946 4.321 4.335v69.784c0 2.39-1.94 4.336-4.321 4.336a4.341 4.341 0 0 1-4.335-4.336 5.3 5.3 0 0 1 .089-.84c.163-1.07-.136-2.155-.889-2.934a3.384 3.384 0 0 0-2.853-1.036zm7.988 16.084c6.209 0 11.26-5.057 11.26-11.274v-69.78c0-6.218-5.051-11.275-11.26-11.275-5.582 0-10.23 4.077-11.119 9.412-8.076 1.382-14.382 8.013-15.267 16.245a21.914 21.914 0 0 0-14.103 20.508 21.917 21.917 0 0 0 14.103 20.508c.885 8.232 7.194 14.862 15.267 16.245.891 5.334 5.538 9.411 11.119 9.411z"/><path id="l2awc" d="M845.471 1888.176c0-2.39 1.94-4.335 4.321-4.335a4.341 4.341 0 0 1 4.336 4.335 5.3 5.3 0 0 1-.09.841c-.163 1.071.134 2.157.889 2.936.755.78 1.774 1.163 2.853 1.036 6.378 0 11.568 5.19 11.563 11.651l-.022.283a3.47 3.47 0 0 0 2.628 3.57 14.994 14.994 0 0 1 11.396 14.576 14.995 14.995 0 0 1-11.396 14.577 3.472 3.472 0 0 0-2.628 3.57l.03.366c0 6.378-5.19 11.568-11.474 11.568a3.474 3.474 0 0 0-3.839 3.972c.045.28.09.558.09.84a4.341 4.341 0 0 1-4.336 4.336c-2.381 0-4.321-1.946-4.321-4.335zm4.321 81.055c5.582 0 10.23-4.077 11.119-9.411 8.077-1.383 14.383-8.013 15.268-16.245a21.914 21.914 0 0 0 14.102-20.508 21.917 21.917 0 0 0-14.102-20.508c-.885-8.232-7.194-14.863-15.268-16.245-.89-5.335-5.537-9.412-11.119-9.412-6.208 0-11.26 5.057-11.26 11.274v69.784c0 6.217 5.052 11.271 11.26 11.271z"/><path id="l2awd" d="M794.807 1972.64c-16.314-13.042-25.262-33.303-23.938-54.2 2.045-31.97 27.685-57.622 59.64-59.665 17.929-1.151 34.957 4.955 47.99 17.18 13.042 12.235 20.225 28.81 20.225 46.676 0 19.434-8.701 37.591-23.877 49.825a28.844 28.844 0 0 0-7.8 9.762 27.941 27.941 0 0 0-2.811 12.198c0 6.309-3 12.123-8.038 15.815h-42.97c-.782-.575-1.549-1.197-2.237-1.885a19.577 19.577 0 0 1-5.776-13.93c0-8.585-3.796-16.523-10.408-21.777zm19.806 69.836zm40.583-9.106v5.456l-38.465 8.635a14.6 14.6 0 0 1-2.118-4.985zm-40.94-7.652v-7.161h31.967zm0 5.687l40.94-9.173v5.448l-40.94 9.187zm26.319 22.55h-11.701c-2.598 0-5.007-.738-7.125-1.931l32.376-7.27c-2.157 5.382-7.405 9.202-13.55 9.202zm2.945 8.116c11.263-1.452 20.003-11.082 20.003-22.737v-24.374c5.706-5.246 9.04-12.62 9.04-20.544 0-2.953.68-5.91 1.962-8.532a20.568 20.568 0 0 1 5.553-6.947c17.142-13.816 26.973-34.338 26.973-56.303 0-19.898-8.33-39.124-22.857-52.748-14.729-13.82-33.988-20.722-54.219-19.42-36.122 2.312-65.104 31.304-67.416 67.447-1.496 23.605 8.618 46.494 27.061 61.238 4.621 3.672 7.272 9.237 7.272 15.265 0 7.483 2.917 14.518 8.215 19.817.264.263.552.491.824.74v24.361c0 11.652 8.74 21.283 20.003 22.737.172 3.733 4.028 6.722 8.793 6.722 4.766 0 8.618-2.989 8.793-6.722z"/><path id="l2awe" d="M733.886 1919.844a3.885 3.885 0 0 0-3.886 3.886 3.883 3.883 0 0 0 3.886 3.886h14.72a3.885 3.885 0 0 0 3.886-3.886 3.883 3.883 0 0 0-3.885-3.886z"/><path id="l2awf" d="M920.853 1919.844a3.885 3.885 0 0 0-3.886 3.886 3.883 3.883 0 0 0 3.886 3.886h14.721a3.885 3.885 0 0 0 3.886-3.886 3.883 3.883 0 0 0-3.886-3.886z"/><path id="l2awg" d="M773.833 1866.716c.994 0 1.99-.38 2.748-1.138a3.881 3.881 0 0 0 0-5.493l-10.408-10.408a3.881 3.881 0 0 0-5.493 0 3.881 3.881 0 0 0 0 5.493l10.408 10.408a3.85 3.85 0 0 0 2.745 1.138z"/><path id="l2awh" d="M898.374 1981.882a3.881 3.881 0 0 0-5.492 0 3.881 3.881 0 0 0 0 5.493l10.408 10.408a3.873 3.873 0 0 0 2.748 1.138c.996 0 1.99-.38 2.747-1.138a3.881 3.881 0 0 0 0-5.493z"/><path id="l2awi" d="M760.674 1997.785a3.873 3.873 0 0 0 2.748 1.138c.997 0 1.99-.38 2.748-1.138l10.408-10.408a3.881 3.881 0 0 0 0-5.492 3.881 3.881 0 0 0-5.493 0l-10.408 10.408a3.879 3.879 0 0 0-.002 5.492z"/><path id="l2awj" d="M908.785 1849.675a3.881 3.881 0 0 0-5.492 0l-10.408 10.408a3.881 3.881 0 0 0 0 5.492 3.873 3.873 0 0 0 2.747 1.138c.997 0 1.99-.38 2.748-1.138l10.408-10.408a3.884 3.884 0 0 0-.003-5.492z"/><path id="l2awk" d="M830.844 1822.886v14.72a3.885 3.885 0 0 0 3.886 3.886 3.883 3.883 0 0 0 3.886-3.885v-14.721a3.885 3.885 0 0 0-3.886-3.886 3.885 3.885 0 0 0-3.886 3.886z"/></defs><g><g transform="translate(-730 -1819)"><g><text fill="#f7f7f7" style="font-kerning:normal" dominant-baseline="text-before-edge" font-family="'Poppins','Poppins-Medium'" font-size="13" transform="translate(846 1960)"><tspan>Contacto</tspan></text></g></g><g transform="translate(-730 -1819)"><g><use fill="#fff" xlink:href="#l2awa"/></g></g><g transform="translate(-730 -1819)"><g><use fill="#fff" xlink:href="#l2awb"/></g><g><use fill="#fff" xlink:href="#l2awc"/></g><g><use fill="#fff" xlink:href="#l2awd"/></g><g><use fill="#fff" xlink:href="#l2awe"/></g><g><use fill="#fff" xlink:href="#l2awf"/></g><g><use fill="#fff" xlink:href="#l2awg"/></g><g><use fill="#fff" xlink:href="#l2awh"/></g><g><use fill="#fff" xlink:href="#l2awi"/></g><g><use fill="#fff" xlink:href="#l2awj"/></g><g><use fill="#fff" xlink:href="#l2awk"/></g></g></g></svg>