<svg xmlns="http://www.w3.org/2000/svg" width="209.46" height="249.793" viewBox="0 0 209.46 249.793">
    <defs>
        <style>
            .cls-1{fill:#fff}
        </style>
    </defs>
    <g id="Grupo_119" data-name="Grupo 119" transform="translate(-12.266 -5)">
        <path id="Trazado_398" d="M70.471 118.191a11.28 11.28 0 0 0 11.26-11.274V37.136a11.266 11.266 0 0 0-22.379-1.862 18.543 18.543 0 0 0-15.268 16.245 21.963 21.963 0 0 0 0 41.016 18.547 18.547 0 0 0 15.268 16.245 11.291 11.291 0 0 0 11.119 9.411zm-7.988-16.084a11.577 11.577 0 0 1-11.568-11.543l-3.467-.153 3.494-.214a3.469 3.469 0 0 0-2.625-3.597 15.021 15.021 0 0 1 0-29.154 3.469 3.469 0 0 0 2.626-3.594c0-.019-.028-.319-.028-.341a11.563 11.563 0 0 1 11.476-11.565 3.471 3.471 0 0 0 3.833-3.972 5.334 5.334 0 0 1-.089-.841 4.328 4.328 0 1 1 8.657 0v69.784a4.328 4.328 0 1 1-8.657 0 5.3 5.3 0 0 1 .089-.841 3.441 3.441 0 0 0-.888-2.934 3.384 3.384 0 0 0-2.454-1.06 3.958 3.958 0 0 0-.399.025z" class="cls-1" data-name="Trazado 398" transform="translate(31.454 37.04)"/>
        <path id="Trazado_399" d="M62.63 118.191a11.289 11.289 0 0 0 11.119-9.412 18.544 18.544 0 0 0 15.268-16.244 21.963 21.963 0 0 0 0-41.016 18.547 18.547 0 0 0-15.268-16.245 11.266 11.266 0 0 0-22.379 1.862v69.784a11.277 11.277 0 0 0 11.26 11.271zm-4.321-81.055a4.328 4.328 0 1 1 8.657 0 5.3 5.3 0 0 1-.089.841 3.436 3.436 0 0 0 .888 2.936 3.367 3.367 0 0 0 2.853 1.035A11.592 11.592 0 0 1 82.181 53.6l-.022.283a3.469 3.469 0 0 0 2.628 3.569 15.021 15.021 0 0 1 0 29.154 3.472 3.472 0 0 0-2.628 3.569l.031.366a11.563 11.563 0 0 1-11.475 11.569 3.472 3.472 0 0 0-3.839 3.972 5.369 5.369 0 0 1 .089.841 4.328 4.328 0 1 1-8.657 0z" class="cls-1" data-name="Trazado 399" transform="translate(69.428 37.04)"/>
        <path id="Trazado_400" d="M105.051 228.042a22.966 22.966 0 0 0 20-22.737v-24.374a27.828 27.828 0 0 0 9.04-20.544 19.548 19.548 0 0 1 1.962-8.532 20.568 20.568 0 0 1 5.554-6.947 72.311 72.311 0 1 0-90.458.214 19.35 19.35 0 0 1 7.272 15.265 27.842 27.842 0 0 0 8.217 19.813c.264.264.552.491.824.741v24.36a22.97 22.97 0 0 0 20 22.737c.172 3.733 4.027 6.722 8.793 6.722s8.621-2.985 8.796-6.718zm-2.945-8.116H90.4a14.455 14.455 0 0 1-7.125-1.932l32.376-7.269a14.613 14.613 0 0 1-13.545 9.201zm-26.32-22.551l40.941-9.173v5.448l-40.941 9.187zm0-5.687v-7.161h31.968zm.358 16.758l40.583-9.106v5.46l-38.465 8.635a14.6 14.6 0 0 1-2.118-4.988zM56.338 138.61a63.988 63.988 0 0 1 35.7-113.864 63.973 63.973 0 0 1 44.338 113.681 28.844 28.844 0 0 0-7.8 9.761 27.941 27.941 0 0 0-2.812 12.2 19.544 19.544 0 0 1-8.038 15.815H74.759a19.32 19.32 0 0 1-2.237-1.885 19.577 19.577 0 0 1-5.776-13.93 27.624 27.624 0 0 0-10.408-21.778z" class="cls-1" data-name="Trazado 400" transform="translate(20.735 20.029)"/>
        <path id="Trazado_401" d="M16.152 41.334a3.886 3.886 0 1 0 0 7.771h14.721a3.886 3.886 0 1 0 0-7.771z" class="cls-1" data-name="Trazado 401" transform="translate(0 64.51)"/>
        <path id="Trazado_402" d="M83.516 41.334a3.886 3.886 0 1 0 0 7.771h14.721a3.886 3.886 0 1 0 0-7.771z" class="cls-1" data-name="Trazado 402" transform="translate(119.603 64.51)"/>
        <path id="Trazado_403" d="M37.2 33.82a3.884 3.884 0 0 0 2.748-6.631L29.541 16.781a3.884 3.884 0 0 0-5.493 5.493l10.408 10.408A3.85 3.85 0 0 0 37.2 33.82z" class="cls-1" data-name="Trazado 403" transform="translate(18.898 18.896)"/>
        <path id="Trazado_404" d="M77.173 64.414a3.884 3.884 0 0 0-5.493 5.493l10.408 10.408a3.885 3.885 0 0 0 5.5-5.493z" class="cls-1" data-name="Trazado 404" transform="translate(103.467 103.467)"/>
        <path id="Trazado_405" d="M24.046 80.316a3.886 3.886 0 0 0 5.5 0L39.95 69.908a3.884 3.884 0 0 0-5.493-5.493L24.049 74.823a3.879 3.879 0 0 0-.003 5.493z" class="cls-1" data-name="Trazado 405" transform="translate(18.894 103.469)"/>
        <path id="Trazado_406" d="M87.582 16.78a3.881 3.881 0 0 0-5.493 0L71.681 27.188a3.885 3.885 0 0 0 5.5 5.493l10.404-10.408a3.884 3.884 0 0 0-.003-5.493z" class="cls-1" data-name="Trazado 406" transform="translate(103.469 18.894)"/>
        <path id="Trazado_407" d="M48.6 8.886v14.721a3.886 3.886 0 0 0 7.771 0V8.886a3.886 3.886 0 0 0-7.771 0z" class="cls-1" data-name="Trazado 407" transform="translate(64.51)"/>
    </g>
</svg>
